<svg xmlns="http://www.w3.org/2000/svg" width="1595" height="1595" fill="none" viewBox="0 0 1595 1595"><path fill="#fff" fill-opacity=".5" d="M0 0h398.513v398.513H0zm398.513 398.513h398.513v398.513H398.513zM797.027 0h398.513v398.513H797.027zm398.513 398.513h398.513v398.513H1195.54zM0 797.027h398.513v398.513H0zm398.513 398.513h398.513v398.513H398.513zm398.514-398.513h398.513v398.513H797.027zm398.513 398.513h398.513v398.513H1195.54z"/><path fill="#fff" fill-opacity=".5" d="M398.513 1328.38h66.419v66.419h-66.419zm66.419 66.42h66.419v66.419h-66.419zm66.419-66.42h66.419v66.419h-66.419zm66.419 66.42h66.419v66.419H597.77zm-199.257 66.42h66.419v66.419h-66.419zm66.419 66.41h66.419v66.419h-66.419zm66.419-66.41h66.419v66.419h-66.419zm66.419 66.41h66.419v66.419H597.77zm597.77-199.25h66.419v66.419h-66.419zm66.42 66.42h66.419v66.419h-66.419zm66.42-66.42h66.419v66.419h-66.419zm66.42 66.42h66.419v66.419H1394.8zm-199.26 66.42h66.419v66.419h-66.419zm66.42 66.41h66.419v66.419h-66.419zm66.42-66.41h66.419v66.419h-66.419zm66.42 66.41h66.419v66.419H1394.8zM929.865 398.513h66.419v66.419h-66.419zm66.419 66.419h66.419v66.419h-66.419zm66.416-66.419h66.419v66.419H1062.7zm66.42 66.419h66.419v66.419h-66.419zm-199.255 66.419h66.419v66.419h-66.419zm66.419 66.419h66.419v66.419h-66.419zm66.416-66.419h66.419v66.419H1062.7zm66.42 66.419h66.419v66.419h-66.419zM398.513 132.838h66.419v66.419h-66.419zm66.419 66.419h66.419v66.419h-66.419zm66.419-66.419h66.419v66.419h-66.419zm66.419 66.419h66.419v66.419H597.77zm-199.257 66.419h66.419v66.419h-66.419zm66.419 66.419h66.419v66.419h-66.419zm66.419-66.419h66.419v66.419h-66.419zm66.419 66.419h66.419v66.419H597.77zm-464.932 597.77h66.419v66.419h-66.419zm66.419 66.419h66.419v66.419h-66.419zm66.419-66.419h66.419v66.419h-66.419zm66.419 66.419h66.419v66.419h-66.419zM132.838 1062.7h66.419v66.419h-66.419zm66.419 66.42h66.419v66.419h-66.419zm66.419-66.42h66.419v66.419h-66.419zm66.419 66.42h66.419v66.419h-66.419zM66.419 664.189h33.209v33.209H66.419zm33.209 33.209h33.209v33.209H99.628zm33.21-33.209h33.209v33.209h-33.209zm33.209 33.209h33.209v33.209h-33.209zm-99.628 33.21h33.209v33.209H66.419zm33.209 33.209h33.209v33.209H99.628zm33.21-33.209h33.209v33.209h-33.209zm33.209 33.209h33.209v33.209h-33.209zM1062.7 1062.7h33.209v33.209H1062.7zm33.21 33.21h33.209v33.209h-33.209zm33.21-33.21h33.209v33.209h-33.209zm33.21 33.21h33.209v33.209h-33.209zm-99.63 33.21h33.209v33.209H1062.7zm33.21 33.21h33.209v33.209h-33.209zm33.21-33.21h33.209v33.209h-33.209zm33.21 33.21h33.209v33.209h-33.209zM1461.22 0h33.209v33.209h-33.209zm33.21 33.209h33.209v33.209h-33.209zM1527.63 0h33.209v33.209h-33.209zm33.21 33.209h33.209v33.209h-33.209zm-99.62 33.21h33.209v33.209h-33.209zm33.21 33.209h33.209v33.209h-33.209zm33.2-33.209h33.209v33.209h-33.209zm33.21 33.209h33.209v33.209h-33.209zM0 199.257h33.209v33.209H0zm33.209 33.209h33.209v33.209H33.209zm33.21-33.209h33.209v33.209H66.419zm33.209 33.209h33.209v33.209H99.628zM0 265.676h33.209v33.209H0zm33.209 33.209h33.209v33.209H33.209zm33.21-33.209h33.209v33.209H66.419zm33.209 33.209h33.209v33.209H99.628zM1062.7 1461.22h16.605v16.605H1062.7zm16.61 16.6h16.605v16.605h-16.605z"/><path fill="#fff" fill-opacity=".5" d="M1095.91 1461.22h16.605v16.605h-16.605zm16.61 16.6h16.605v16.605h-16.605zm-49.82 16.61h16.605v16.605H1062.7zm16.61 16.6h16.605v16.605h-16.605z"/><path fill="#fff" fill-opacity=".5" d="M1095.91 1494.43h16.605v16.605h-16.605zm16.61 16.6h16.605v16.605h-16.605zm16.6-49.81h16.605v16.605h-16.605zm16.61 16.6h16.605v16.605h-16.605z"/><path fill="#fff" fill-opacity=".5" d="M1162.33 1461.22h16.605v16.605h-16.605zm16.61 16.6h16.605v16.605h-16.605zm-49.82 16.61h16.605v16.605h-16.605zm16.61 16.6h16.605v16.605h-16.605z"/><path fill="#fff" fill-opacity=".5" d="M1162.33 1494.43h16.605v16.605h-16.605zm16.61 16.6h16.605v16.605h-16.605zm-116.24 16.6h16.605v16.605H1062.7zm16.61 16.61h16.605v16.605h-16.605zm16.6-16.61h16.605v16.605h-16.605zm16.61 16.61h16.605v16.605h-16.605zm-49.82 16.6h16.605v16.605H1062.7zm16.61 16.61h16.605v16.605h-16.605z"/><path fill="#fff" fill-opacity=".5" d="M1095.91 1560.84h16.605v16.605h-16.605zm16.61 16.61h16.605v16.605h-16.605zm16.6-49.82h16.605v16.605h-16.605zm16.61 16.61h16.605v16.605h-16.605zm16.6-16.61h16.605v16.605h-16.605zm16.61 16.61h16.605v16.605h-16.605zm-49.82 16.6h16.605v16.605h-16.605zm16.61 16.61h16.605v16.605h-16.605z"/><path fill="#fff" fill-opacity=".5" d="M1162.33 1560.84h16.605v16.605h-16.605zm16.61 16.61h16.605v16.605h-16.605zM531.351 797.027h33.209v33.209h-33.209zm33.21 33.209h33.209v33.209h-33.209zm33.209-33.209h33.209v33.209H597.77zm33.21 33.209h33.209v33.209H630.98zm-99.629 33.21h33.209v33.209h-33.209zm33.21 33.209h33.209v33.209h-33.209zm33.209-33.209h33.209v33.209H597.77zm33.21 33.209h33.209v33.209H630.98zm33.209-99.628h33.209v33.209h-33.209zm33.21 33.209h33.209v33.209h-33.209zm33.209-33.209h33.209v33.209h-33.209zm33.209 33.209h33.209v33.209h-33.209zm-99.628 33.21h33.209v33.209h-33.209zm33.209 33.209h33.209v33.209h-33.209zm33.21-33.209h33.209v33.209h-33.209zm33.21 33.209h33.209v33.209h-33.209zm-232.467 33.21h33.209v33.209h-33.209zm33.21 33.209h33.209v33.209h-33.209zm33.209-33.209h33.209v33.209H597.77zm33.21 33.209h33.209v33.209H630.98zm-99.629 33.21h33.209v33.209h-33.209zm33.21 33.206h33.209v33.209h-33.209zm33.209-33.206h33.209v33.209H597.77zm33.21 33.206h33.209v33.209H630.98z"/><path fill="#fff" fill-opacity=".5" d="M664.189 929.865h33.209v33.209h-33.209zm33.209 33.209h33.209v33.209h-33.209zm33.21-33.209h33.209v33.209h-33.209zm33.209 33.209h33.209v33.209h-33.209zm-99.628 33.21h33.209v33.209h-33.209zm33.209 33.206h33.209v33.209h-33.209zm33.21-33.206h33.209v33.209h-33.209zm33.209 33.206h33.209v33.209h-33.209zm564.563-498.139h33.209v33.209h-33.209zm33.21 33.21h33.209v33.209h-33.209zm33.21-33.21h33.209v33.209H1394.8zm33.21 33.21h33.209v33.209h-33.209zm-99.63 33.209h33.209v33.209h-33.209zm33.21 33.21h33.209v33.209h-33.209zm33.21-33.21h33.209v33.209H1394.8zm33.21 33.21h33.209v33.209h-33.209zm33.21-99.629h33.209v33.209h-33.209zm33.21 33.21h33.209v33.209h-33.209zm33.2-33.21h33.209v33.209h-33.209zm33.21 33.21h33.209v33.209h-33.209zm-99.62 33.209h33.209v33.209h-33.209zm33.21 33.21h33.209v33.209h-33.209zm33.2-33.21h33.209v33.209h-33.209zm33.21 33.21h33.209v33.209h-33.209zm-232.46 33.209h33.209v33.209h-33.209zm33.21 33.21h33.209v33.209h-33.209zm33.21-33.21h33.209v33.209H1394.8zm33.21 33.21h33.209v33.209h-33.209zm-99.63 33.209h33.209v33.209h-33.209zm33.21 33.21h33.209v33.209h-33.209zm33.21-33.21h33.209v33.209H1394.8zm33.21 33.21h33.209v33.209h-33.209zm33.21-99.629h33.209v33.209h-33.209zm33.21 33.21h33.209v33.209h-33.209z"/><path fill="#fff" fill-opacity=".5" d="M1527.63 664.189h33.209v33.209h-33.209zm33.21 33.21h33.209v33.209h-33.209zm-99.62 33.209h33.209v33.209h-33.209zm33.21 33.21h33.209v33.209h-33.209zm33.2-33.21h33.209v33.209h-33.209zm33.21 33.21h33.209v33.209h-33.209zM797.027 0h33.209v33.209h-33.209zm33.209 33.209h33.209v33.209h-33.209zM863.446 0h33.209v33.209h-33.209zm33.209 33.209h33.209v33.209h-33.209zm-99.628 33.21h33.209v33.209h-33.209zm33.209 33.209h33.209v33.209h-33.209zm33.21-33.209h33.209v33.209h-33.209zm33.209 33.209h33.209v33.209h-33.209zM929.865 0h33.209v33.209h-33.209zm33.209 33.209h33.209v33.209h-33.209zM996.284 0h33.209v33.209h-33.209zm33.206 33.209h33.209v33.209h-33.209zm-99.625 33.21h33.209v33.209h-33.209zm33.209 33.209h33.209v33.209h-33.209zm33.21-33.209h33.209v33.209h-33.209zm33.206 33.209h33.209v33.209h-33.209zm-232.463 33.21h33.209v33.209h-33.209zm33.209 33.209h33.209v33.209h-33.209zm33.21-33.209h33.209v33.209h-33.209zm33.209 33.209h33.209v33.209h-33.209zm-99.628 33.21h33.209v33.209h-33.209zm33.209 33.209h33.209v33.209h-33.209zm33.21-33.209h33.209v33.209h-33.209zm33.209 33.209h33.209v33.209h-33.209zm33.21-99.628h33.209v33.209h-33.209zm33.209 33.209h33.209v33.209h-33.209zm33.21-33.209h33.209v33.209h-33.209zm33.206 33.209h33.209v33.209h-33.209zm-99.625 33.21h33.209v33.209h-33.209zm33.209 33.209h33.209v33.209h-33.209zm33.21-33.209h33.209v33.209h-33.209zm33.206 33.209h33.209v33.209h-33.209zm298.89 564.561h99.628v99.628h-99.628zm99.63 99.628h99.628v99.628h-99.628zm-232.47-697.398h99.628v99.628h-99.628zm99.63 99.628h99.628v99.628h-99.628zM0 1394.8h99.628v99.628H0zm99.628 99.63h99.628v99.628H99.628zM199.257 0h99.628v99.628h-99.628zm99.628 99.628h99.628v99.628h-99.628zm166.047 298.885h99.628v99.628h-99.628zm99.629 99.629h99.628v99.628h-99.628zm232.466 431.723h66.419v66.419h-66.419zm66.419 66.419h66.419v66.419h-66.419z"/></svg>