<svg xmlns="http://www.w3.org/2000/svg" fill="none" overflow="visible" preserveAspectRatio="none" style="display:block" viewBox="0 0 36 38"><g fill="var(--fill-0, #F9F3EB)" clip-path="url(#a)"><path d="M11.142 3.763c1.105 0 2 .912 2 2.036v6.27h6.146V5.8c0-1.124.896-2.036 2.001-2.036h5.442c1.104 0 2 .912 2 2.036v22.803c0 1.124-.896 2.035-2 2.035h-5.442c-1.105 0-2-.911-2-2.035v-7.574h-6.147v7.574c0 1.124-.895 2.035-2 2.035H5.7c-1.105 0-2-.911-2-2.035V5.799c0-1.124.895-2.036 2-2.036zM5.7 28.602h5.443v-9.61H21.29v9.61h5.443V5.799H21.29v8.307H11.143V5.799H5.7z"/><path d="M14.813 37.997h.014l.011-.002zm15.59 0h.013l.011-.002zm-21.343 0h-.003l-.022-.002zm15.59 0h-.004l-.022-.002zm6.036-.016h.005l.008-.001zm-15.59 0h.006l.008-.001zm15.628-.001h.005l.003-.002zm-15.589 0h.005l.003-.002zm15.68-.007h-.003l.002-.002zm.19-.024h-.014l-.002.002h.007zm-15.59 0h-.013l-.002.002h.007zm15.642-.006-.015.001h.01zm-15.572-.004.035-.005.006-.003zm15.592-.002q.015 0 .03-.003l.008-.003zm.088-.01-.013.002h-.004zm-15.587 0-.002-.001h.006zm-7.332-.016.027.005.054.01-.046-.01-.007-.002-.001.002-.01-.004zm15.573-.007.001.003q.04.01.098.019l-.1-.022m-15.545.01h.004q.018 0 .033.002l-.03-.004zm-.018-.003.007.001.011.002.007.002h-.008l-.023-.005zm-.01 0h.004-.009zm-.018-.004.013.004-.021-.004zm15.556-.006q.005 0 .008.003h.004l-.015-.005-.01-.002zm-15.586 0 .003.001-.006-.002-.003-.001zm15.5-.016.006.002-.016-.003zm-7.86-.013-.017.005.013-.004zm15.589 0-.017.005.014-.004zm-7.913-.029c-.002 0-.009 0-.012-.002l-.001-.001zm-7.373-.04-.012.001.009-.001zm.219-.066-.002.002-.005.001-.013.004h.005l.005-.002.011-.003.005-.004-.001.002.005-.002zm15.589 0-.002.002-.006.001h-.004.009zm-15.568-.009h.004q-.009.005-.024.01l.009-.003.005-.002.013-.006zm15.666-.022-.005.004.011-.004-.001-.001zm-15.571-.003.015-.007.03-.008zm15.59 0 .014-.007.03-.008zm.045-.018-.003.001q.027-.01.053-.022l-.071.029-.017.007-.005.002-.003.001.013-.005.012-.005-.004.002.009-.004.008-.005.007.002zm-15.62.011.028-.01-.04.016zm.015-.005-.015.005.01-.003.006-.003zm-.004 0h.004l.013-.005zm15.59 0h.003l.008-.005zm-15.124-.184-.015.009.018-.008zM6.831 37.46l-.005-.002-.005-.004zm15.567-.012-.006-.002-.002-.002zM6.733 37.41l.025.013h.003l-.048-.025zm26.015.005.022-.01.018-.01zm-25.957-.24q-.033-.046-.063-.094h-.023l-.118.237c.025.017.04.03.043.03l.048.03zm-.134-.094-.088-.005-.09.163q.037.029.068.05zm-.27.14.021.012-.031-.019zm.05-.019.024.024.01.007.088-.16q-.03 0-.058-.004zm15.539.019.008.005-.027-.017zm-15.643-.03.039.023.018.01zm11.234.008-.009.005zm4.306-.05.008.008.003.001-.013-.01zm11.656-.193-.014.008-.005.004.002-.002.003-.002.002-.001.005-.004.002-.003zm-15.585-.004.015-.013.014-.008-.028.022m15.591-.001.01-.01.005-.004zm.098-.073-.003.002.01-.007zm.02-.015q-.003 0-.005.002l.002.002.05-.043c-.017.013-.03.027-.047.04m-15.558-.025.017-.012-.002-.002zm.087-.073-.002.002-.055.047-.013.012.01-.008.038-.032zl.012-.01zm-.07.058v.003l.005-.005.064-.056q-.033.029-.07.058m15.587.001.009-.005.01-.008.053-.046zm.058-.049-.031.029.021-.017q.007-.006.01-.012m-28.15-.102.025.02-.028-.022-.008-.009zm12.65.018.024-.024.015-.016zm15.59 0 .023-.024.018-.02zm-15.354-.189q-.04.035-.07.056l-.028.02.02-.014zm15.59 0-.099.076.02-.014zM18.76 36.24l-.012.014-.02.018-.01.008q.003 0 .007-.003zm15.548.04q.003 0 .006-.003l.002-.003zm.054-.05-.008.008zl.01-.009-.001-.001zm-3.184-.064h-.003l.013-.004zm-15.589 0h-.003l.013-.004zm3.792-.702-.02.034.034-.052.01-.012.006-.012-.001.002v-.004l-.03.046-.003.005zm.006-.002-.007.01-.008.012.006-.008zm.023-.045.001.002.014-.022zm.363-.62-.003.006.008-.015.003-.009.01-.02.012-.027.005-.012zm10.494-2.286v1.727h-5.459l.014-1.727zm-15.59 0v1.727H9.22l.013-1.727zm21.272.123.001-.014-.003-.002zm0-.019-.002.003.003-.008v-.005zm-11.16-.106h.003l-.01-.002zm-15.59 0h.004l-.01-.002zm5.59-.02.005-.002.003-.002zm-13.365-.053.015.019-.01-.012zm13.472-.013-.001.005.003-.004zm.04-.06.003-.008.007-.01.002-.005a.3.3 0 0 0 .023-.064l.002-.003.001-.007.002-.009v-.005l.001-.005v-.005l.002-.008v-.029l.002-.035v-7.542c0-.954.76-1.727 1.697-1.727h2.61c.936 0 1.696.773 1.696 1.727v3.996l.002.01.007.042.001.005.004.014.01.025v.004l.005.008.001.003.014.024h-.004l-.01-.023.009.02.001.003.002.004h.003l.005.01.002.001.013.019.005.006.007.009.003.003.008.01 3.538 3.598.011.01.012.012.033.024.008.005.003.002.015.008.012.005.006.002.004.002.025.008.005.002.005.001-.002-.001.01.003.007.002.008.003h.007-.007.01-.007.007-.01.021l.004.002h.006l.005.002-.005-.002h.007l.002.002.008.001-.012 1.726-.066-.002-.023-.002-.08-.005-.018-.001-.018-.004-.053-.006-.024-.002-.018-.004-.043-.008-.026-.005-.007-.002-.046-.01-.038-.008-.014-.004-.063-.017a2 2 0 0 1-.17-.058l-.029-.012-.043-.019-.061-.027-.013-.007-.078-.04-.022-.012-.058-.034-.021-.013a2 2 0 0 1-.216-.157l-.01-.007-.063-.057-.008-.007-.07-.066-3.537-3.6-.061-.065-.018-.022-.042-.049-.018-.022-.108-.15-.006-.008-.04-.066-.014-.02-.082-.16-.012-.024-.026-.06-.009-.023a2 2 0 0 1-.06-.169l-.01-.032-.013-.052-.01-.035a2 2 0 0 1-.033-.17l-.003-.031-.008-.06-.004-.03-.005-.087-.001-.02-.002-.073v-3.986h-2.609v7.574l-.002.022v.04l-.001.032v.014l-.002.029-.003.032-.002.03q0 .012-.003.023 0 .012-.002.022l-.005.04-.008.051-.003.02-.017.083-.007.032-.005.019a2 2 0 0 1-.154.425l-.016.034-.02.037-.009.013-.011.022-.027.046-.021.035-.013.019-.007.012-.015.022-.023.033-.007.009-.006.01-.03.04-.012.014-.036.047-.078.088-.015.017-.018.02-.014.013-.023.022-.015.014-.038.037-.128.106-.041.03-.02.016-.044.03-.012.008-.043.028-.035.022-.035.018-.038.022-.046.025-.053.026-.007.003-.041.019-.052.021-.02.007-.053.02-.036.014-.012.003-.035.012-.026.007-.012.003-.033.01-.027.007-.011.003-.052.012-.036.007-.033.007-.03.005-.023.003-.022.004-.028.003-.04.005-.01.002-.026.001-.042.004-.036.001-.07.004h-.024V32.51h.013l.001-.002h.015l.002-.002h.01l.002-.002.01-.001h.01l.001-.002h.003l.014-.003.001-.002.009-.002.006-.001.002-.002.003-.002h.005l.017-.008.016-.009.005-.001.005-.002.004-.003.001-.002.009-.005.008-.005.013-.012.015-.012.008-.007.005-.005.007-.006.005-.004.002-.001s-.005.002-.007.005l.012-.014.005-.007.006-.008.002-.002.006-.011-.001.003.001-.003.004-.002.001-.004zM1.344 32.34l.016.019-.04-.046zm29.194 0-.002.004-.003.005zm-15.584-.002-.002.002.007-.008zm.01-.023-.004.012.002-.004zM.213 29.487a2 2 0 0 1-.123-.28l-.022.002c.01.035.017.079.033.124.015.044.049.124.1.223zm-.138.027.001.012v-.006l-.005-.025zm-.044-.302-.001-.02v-.01zm-.011-.316H.01v.019c0 .01.004.03.007.052.001.015.008.071.023.142.003.017.015.052.028.1l.022-.002a2 2 0 0 1-.07-.31m15.606.204.001.006-.006-.027q.001.01.005.021m-.034-.26.002.014.002.027q0 .021.003.032l.002.012.005.056a2 2 0 0 1-.012-.137l.002.025-.002-.02zM.007 28.87l.001.012-.001-.015zm5.433-.11h-.003l.001-.001zm15.59 0h-.004l.002-.003zM34.265 9.327v-.01l-.001-.008zM5.41 5.706l-.003.01v-.005l.002-.003zm15.614-.062-.003.003.003-.006zm.007-.01-.003.002.001.001zm.066-.076-.007.007zm.012-.01.005-.002.001-.003zM5.538 5.533l-.008.006.006-.003zm.003.003.005-.005.003-.002zm15.59 0 .004-.005.003-.002zM5.538 5.534l.002.002q.002 0 .003-.003zm-.001-.001h.003l.002-.004zm15.589.001.003-.001.002-.004zM5.554 5.528l-.001.001h-.004l.002-.001zm15.586 0 .002.001h-.003zM5.561 5.524l-.007.004-.001-.002.006-.003zm15.59 0-.007.004.003-.004zM5.575 5.512l-.003.002-.007.005zm15.59 0-.004.002-.007.005-.005.002.005-.002zm.03-.006-.001-.002h.003l.005-.002zm9.231 26.955.007-.004.018-.015.015-.012.007-.005-.004.004.004-.004.013-.013.005-.004.007-.01.005-.007.001-.001.007-.01.006-.01.004-.002-.002-.002.01-.015.002-.003.003-.002v-.003l.002-.004.01-.017.001-.001-.005.006-.006.012a.3.3 0 0 0 .023-.066l.002-.006.001-.01.002-.002.002-.01v-.004l.001-.008v-.029l.002-.035V9.42l-.002-.026v-.023l-.001-.01v-.005l-.015-.064a.3.3 0 0 0-.029-.056l-.003-.007-.015-.022-.008-.008-.003-.005-.02-.02-.004-.006-3.527-3.587-.01-.01-.003-.004-.01-.01-.022-.015-.001-.002-.013-.007-.024-.013.024.01-.024-.01-.003-.002-.01-.003-.003-.002-.025-.01-.005-.002-.007-.001-.006-.002-.009-.002-.021-.003-.009-.002h-.01l-.004-.001h-5.475l-.01.001h-.012l-.006.002q-.007 0-.009.002l.004-.002-.004.002h-.01l.002.001-.012.002-.003.002-.007.001h-.003l-.008.002.002.002-.005.001-.009.002-.01.005-.01.004-.01.005-.003-.002-.002.002-.006.003.002.002h-.004l-.002.001-.005.004-.006.001.003.002-.003.002-.002.001-.008.006-.013.01H21.1l-.001.001.001.002-.011.008-.035.036-.008.01-.004.003.002.002-.013.017-.002.003-.006.012-.002.002-.002.005-.003.008V5.66l.002-.002.001-.003-.003.002-.002.001q0 .006-.003.014l-.003.008-.002.002-.003.012-.005.01.001.001-.001.002v.003l-.002.006-.002.006-.001.004-.004.017-.001.006.001-.003-.001.008-.002.007v.01l-.002.012v6.285c0 .954-.76 1.727-1.697 1.727h-2.609c-.937 0-1.697-.773-1.697-1.727v-2.66l-.002-.014v-.023l-.002-.01v-.005l-.014-.064a.3.3 0 0 0-.027-.056l-.002-.002-.003-.005-.015-.022-.008-.008-.003-.005-.02-.02-.004-.006-3.527-3.587q-.002-.004-.01-.01l.01.01-.011-.014-.012-.01-.022-.015-.001-.002-.014-.007-.023-.013.022.01.007.003-.002-.001-.027-.012-.003-.002-.008-.003-.005-.002-.03-.012-.007-.001-.006-.002-.009-.002-.021-.003-.009-.002h-.01l-.003-.001H5.684l-.01.001h-.012l-.006.002q-.008 0-.009.002l.004-.002-.004.002h-.01l.002.001-.015.004-.007.001-.01.004.002-.002h-.003l-.004.003-.008.002-.01.005-.01.004-.01.005-.003-.002-.002.002-.006.003-.004.003-.003.002.005-.003-.01.008-.006.003-.009.004.002.002-.017.013-.011.008-.035.036-.005.007-.003.005-.004.001.002.002-.007.008-.001.004-.004.005-.005.003-.001.007-.005.005v.003l-.005.009v.003l-.002.004-.003.005-.004.008-.004.014-.002.006-.002.005-.001-.001-.002.006v.006l-.002.006-.001.004-.004.017-.001.006.001-.003-.001.008-.002.007v.012l-.002.01v22.84l.002.01.007.041.001.005.004.009v.005l.01.025.001.004.003.008.002.003.013.026-.003-.002-.01-.023.008.02.002.003.002.004h.003l.005.01.002.001.013.019.007.006q.01.015.005.009l3.548 3.611.012.01.002.002.01.009.033.025-.007-.005.003.002.009.005.006.005.01.005.017.008.006.002.004.002.025.008.01.003-.002-.001.008.001.007.004-.004-.002.007.002.003.002.01.001-.005-.002.002.002-.007-.002h.005l.009.002-.005-.002.005.002h.011l.004.002h.006l.005.002-.005-.002h.007l.002.002.008.001-.012 1.726-.066-.002-.023-.002-.08-.005-.018-.001-.018-.004-.053-.006-.022-.002-.02-.004-.043-.008-.02-.003-.013-.004-.046-.01-.037-.008-.015-.004-.063-.017a2 2 0 0 1-.17-.058l-.029-.012-.043-.019-.061-.027-.013-.007-.1-.052-.053-.032-.007-.003-.02-.012-.215-.157-.008-.007-.065-.057-.008-.007-.07-.066-3.537-3.6-.061-.065-.018-.022-.042-.049-.018-.022-.108-.15-.007-.008-.04-.066-.013-.02-.082-.16-.012-.024-.027-.06-.008-.023a2 2 0 0 1-.06-.169l-.01-.032-.013-.052-.01-.035a2 2 0 0 1-.033-.17l-.003-.031-.008-.06-.004-.03-.005-.087-.001-.02-.002-.073V5.777l.002-.04v-.034l.003-.039.003-.04.002-.036.005-.037.005-.04.005-.032.006-.04.025-.117.007-.027.012-.044q.002-.015.006-.029l.013-.042.01-.029.017-.05.007-.015.021-.056.003-.01.004-.007.021-.05.009-.022.024-.05.009-.016.025-.05.01-.018.023-.04.016-.029.019-.028.021-.036.015-.022.027-.039.014-.022.073-.094.027-.032.02-.024.031-.033.019-.02.054-.056.02-.019.033-.032.032-.025.023-.022.04-.032.013-.01.04-.032.021-.016.04-.027.02-.015.041-.027.022-.013.028-.017.04-.024.018-.01.048-.025.017-.009.048-.025.021-.008.05-.022.007-.004.01-.003.054-.022.015-.007.05-.016.028-.01.042-.014.028-.007.043-.012.027-.006.054-.014.015-.003.045-.009.04-.006.031-.006.04-.005.036-.005.035-.001.04-.004.038-.003h.033l.04-.002H5.7V1.727h-.045l-.078.002-.046.002-.015.001H5.5l-.015.002-.052.002-.08.006h-.007l-.014.002-.048.005-.071.009-.081.01-.062.01-.08.013-.079.016h.005L4.9 1.81l-.032.007-.108.023-.053.014-.086.023-.005.002-.011.003-.038.012-.085.026-.043.015-.012.003-.003.002c-.018.006-.055.018-.096.034l-.033.011-.098.04q-.005.003-.012.004l-.033.014c-.042.018-.078.036-.094.044l-.005.001-.04.019-.088.042-.043.022-.091.049-.005.003-.035.019-.002.001-.08.046-.006.005-.05.03-.044.027-.005.005-.017.01-.06.04-.04.026q-.004.005-.01.009l-.01.007-.059.042-.05.037-.003.002-.013.01-.057.043-.026.022-.081.066-.047.04-.003.002-.01.01-.048.043-.056.052-.019.017-.031.03-.058.06-.003.004-.049.048-.03.032-.01.015-.006.005-.051.055-.04.048-.053.062a4 4 0 0 0-.141.184l-.036.049c-.016.021-.029.042-.037.054l-.012.017q-.002.005-.005.006l-.03.046-.033.052q-.004.008-.008.012l-.003.007c-.005.008-.02.03-.035.056l-.03.052-.005.007-.044.08-.002.002-.018.036-.002.003-.05.094-.021.044-.042.088-.018.042-.003.007-.04.094-.015.034q0 .005-.002.009l-.041.102-.012.033c-.015.042-.027.081-.033.1l-.001.002-.004.012-.015.044-.025.084-.011.04-.004.013-.001.005-.023.088-.014.052a4 4 0 0 0-.061.315l-.01.064-.01.081-.008.075-.005.048-.002.014v.008l-.006.081-.002.053-.002.015v.015l-.001.015-.002.047-.002.08v22.901l.004.113v.009l.001.032q.005.09.014.177l.003.042.002.01v.003l.014.113v.007l.01.064q.027.174.067.341l.018.07.026.104.004.012c.002.01.01.029.016.052q.054.175.12.339l.018.044.046.11.01.02.017.038c.054.117.113.224.169.321l.023.04.081.13.009.014q0 .003.003.005l.002.002.215.296.025.032.007.009.003.003c.02.024.05.061.086.101l.005.007.03.034q.057.063.124.132l3.537 3.6.077.075.06.057.018.016q.07.063.127.11l-.003.006-.26.322.263-.327.015.013.003.002q.205.172.43.312l.041.026.015.008.002.002.096.055.005.004.045.025.076.04.081.043.018.008.005.002.002.001.124.056.083.035.002.002q.036.015.058.022.162.066.34.118l.063.017.003.002.011.003.05.012.022.007.005.001.008.002.055.012.013.003.005.002.016.003q.023.006.07.015l.03.006.005.001.017.004.01.001.006.002.017.002.068.011.001.002.04.005.066.01.015.002.05.007.015.001h.003l.037.004.001.002.038.003h.004l.15.01.037.002.008.001q.057.003.118.002l.008.002-.005-.002.01.002h5.52l.01-.002h.07c.031 0 .06-.003.07-.003l.07-.004.085-.006.028-.004h.003l.009-.002h.013l.002-.001h.016l.002-.002.078-.008.04-.005.011-.002.007-.002h.008l.035-.005.03-.005.01-.002h.003l.003-.001.045-.007.01-.003h.01l.013-.004.043-.008.075-.015.071-.017h.003l.019-.007.036-.007.05-.013.055-.015.011-.004h.004l.016-.007h.007l.05-.015.062-.02.009-.003.018-.005.003-.004.002.002.002-.002.072-.025q.061-.021.107-.039l.038-.015.106-.046.081-.037.013-.005.002-.001.103-.051.094-.049.078-.042.068-.04.002-.002.011-.007.057-.034c.036-.022.067-.043.082-.054l.024-.015.031-.02.002-.002.028-.02.028-.019.003-.003.04-.027.04-.03.002-.002.008-.007.033-.025a4 4 0 0 0 .254-.211l.076-.073.007-.006.07-.066.032-.034.032-.035.03-.03.001-.004.004-.002q.078-.084.149-.172l.07-.087q.001-.003.005-.005l.021-.03.03-.04.025-.032.003-.006.013-.017.004-.005.011-.016.027-.04.015-.02.035-.053.001-.001.013-.022.019-.029.005-.007.001-.003.004-.003.008-.014.031-.052.037-.062.015-.026.001-.001.012-.02.01-.02.02-.035.038-.072.02-.04.003-.007.002-.002.008-.017.002-.005q.197-.396.308-.847l.008-.037.002-.005.003-.012.01-.047.032-.165.002-.002v-.005l.006-.034v-.003l.015-.102.008-.065.002-.012.002-.008.003-.036.005-.05.005-.048v-.01l.005-.064.003-.057.002-.027.001-.066.002-.06v-.013l.002-.05v-.496l3.317 3.375q.04.042.076.076l.06.057.018.016q.07.063.127.11l.015.014.004.002q.206.172.429.312l.003.002.008.005.032.02q.056.034.111.064l.005.004c.006.003.022.014.043.025h.003l.075.04.081.043.018.008.005.002.002.001.123.056.084.035.002.002q.036.015.058.022.163.066.34.118l.063.017.003.002.012.003.05.012.02.007.006.001.008.002-.002-.002.057.014.013.003.005.002.017.003.07.015.012.004.009.002-.002-.002.037.007q.006 0 .011.003c.002 0 .01 0 .015.002l.07.011.001.002.04.005.066.01.015.002.05.007.015.001h.003l.035.004h.003q.025.002.038.005h.004l.15.01.037.002.008.001q.057.003.118.002l.009.002-.005-.002.01.002h5.519l.01-.002h.07l.07-.003.07-.004.085-.006.028-.004h.004l.008-.002h.013l.018-.001.002-.002.078-.008.04-.005.011-.002.007-.002h.008q.014-.001.033-.005l.032-.005.01-.002h.003l.003-.001.045-.007.01-.003h.008l.015-.004.043-.008.073-.015h.004l.07-.017h.003l.018-.007.036-.007.05-.013.055-.015.011-.004h.004l.016-.007h.007l.112-.035.009-.003q.01-.004.018-.005l.003-.004.002.002.002-.002.073-.025.106-.039.038-.015.106-.046.081-.037.012-.005.003-.001a4 4 0 0 0 .196-.1l.08-.042.067-.04.002-.002.011-.007.057-.034.083-.054.023-.015.031-.02.002-.002.028-.02.028-.019.002-.001c.003-.003.023-.015.041-.03q.03-.021.04-.03l.002-.001.008-.007.033-.025a4 4 0 0 0 .254-.211l.076-.073.007-.006.07-.066.026-.027.005-.007.033-.035.03-.03.002-.004.003-.002a4 4 0 0 0 .149-.172l.07-.087.005-.005.021-.03.03-.04.025-.032.003-.006.013-.017.004-.005.011-.016.045-.067-.003.005.003-.005.003-.005.042-.06.002-.004.024-.039.014-.02.03-.05.036-.062.015-.025.002-.001q.004-.011.01-.02l.001-.002.01-.017.018-.036.04-.072.033-.068a4 4 0 0 0 .318-.889l.015-.062q.019-.085.032-.165l.002-.007.005-.034.001-.003.015-.102.008-.065.002-.012.002-.008.003-.036.005-.05.005-.048v-.017l.003-.03.002-.018.002-.044.003-.04v-.01l.002-.065.001-.06v-.013l.002-.05V9.399l-.002-.039v-.03l-.003-.102c0-.007 0-.03-.002-.054l-.011-.145-.012-.113v-.003l-.005-.044a4.1 4.1 0 0 0-.57-1.624l-.043-.066-.048-.074-.103-.147-.055-.07-.003-.008-.027-.032-.066-.082q-.032-.039-.048-.056l-.002-.002-.01-.013-.05-.057-.036-.04-.02-.02.012.014-.08-.083-3.525-3.59-.066-.065-.063-.06-.034-.031-.006-.005-.002-.002-.098-.086-.043-.035a4 4 0 0 0-.295-.221l-.002-.002-.003-.002-.013-.008-.128-.083-.04-.023a4 4 0 0 0-.23-.13l-.083-.042-.038-.017-.017-.007-.11-.05-.044-.02a4 4 0 0 0-.333-.12q-.036-.013-.053-.017l-.01-.002-.1-.029-.07-.018a4 4 0 0 0-.335-.068l-.063-.01h-.007l-.11-.015h-.006l-.01-.002-.041-.003-.161-.012-.056-.003h.003l-.103-.004h-5.501v2.036h5.453l.07.002.026.002q.041.001.081.005.014 0 .027.003l.06.009.031.003q.084.013.167.034.018.004.035.01l.05.013a2 2 0 0 1 .199.071l.021.009.06.026.023.012q.081.039.158.085l.02.013.063.04.01.006q.075.052.146.111l.021.017.05.044.02.018.064.063 3.528 3.59q.023.022.044.046l.022.022.031.037.023.03.035.04.015.02-1.336 1.064.004.004.006.005-.001-.002-.007-.005-.002-.002 1.336-1.064q.054.07.101.145l.022.034c.148.241.247.516.285.811l.003.022q.004.03.005.059l.007.072v.027l.002.066.001.019V32.2l-.001.022v.04l-.002.032v.024l-.002.013q0 .019-.003.038l-.002.03q0 .012-.003.023 0 .012-.002.022l-.005.04-.008.051-.003.02q-.007.041-.017.083l-.006.032q-.055.235-.16.444l-.016.034-.02.037-.008.013-.012.022-.026.046-.02.032-.015.022-.022.034-.025.033-.005.009-.008.01-.013.02-.015.02-.012.014-.036.047-.078.088-.015.017-.02.02-.012.013-.023.022-.015.014-.04.037-.125.106-.042.03-.02.016-.016.01-.014.01-.016.01-.012.008-.041.028-.035.022-.035.018-.038.022-.046.025-.053.026-.007.003-.04.019-.053.021-.02.007-.053.02-.036.014-.012.003-.036.012-.025.007-.012.003-.033.01-.026.007-.012.003-.051.012-.037.007-.035.007-.028.005-.023.003-.022.004-.028.003-.04.005-.01.002-.026.001-.041.004-.037.001-.07.004h-.024V32.51h.013l.002-.002h.014l.002-.002h.01l.002-.002.01-.001h.009l.002-.002h.004l.023-.007.006-.001.002-.002h.003l.002-.002h.003l.004-.001.006-.004.004-.002.003-.001.008-.004.007-.003.007-.003.004-.004.004-.001.001-.002zM15.797 4.249l-.002.007q0-.006.005-.019zm.448-1.15-.003.006.01-.018zM.742 2.945l.003-.007.002-.005zm.227-.378-.003.005.001-.001.014-.02q0-.004.003-.007zm16.25-.828.007-.005.005-.007zm-2.31-.29.016.013-.011-.01-.007-.005zm2.672-.054.028-.024.01-.008zM2.256 1.179l.003-.002.01-.008zm.162-.12-.008.007q.004-.005.022-.017zm11.933-.049-.008-.006-.037-.027zm15.589 0-.008-.006-.037-.027zM2.516.99l-.002.002-.004.003.013-.008zm.007-.003.006-.005.004-.002-.007.003-.008.005-.002.002zm.09-.063-.017.012-.014.01L2.58.95l.007-.005.01-.009L2.6.935l.01-.007zM2.77.828l-.008.005-.021.012.003-.002-.012.007-.006.004.001.001.082-.047zm.116-.07-.005.001-.011.007.011-.007-.054.037-.007.005.03-.013-.022.01L2.821.8l.01-.006zM18.483.753l-.01.005-.056.037L18.41.8l-.001.002.011-.008.057-.038zM2.877.776 2.87.779l-.003.002zM18.59.692l-.005.003-.006.003.008-.005zM3.093.646q-.027.013-.061.032l.08-.039zm15.589 0-.061.03.08-.037zM3.162.616l-.01.005.022-.009zm15.59 0-.01.005.021-.009zM3.209.597l-.025.01.002.002.048-.02zm15.59 0-.024.01.048-.018zM13.476.511l.015.007-.02-.009-.011-.005zM3.367.51h-.004l-.002.002L3.386.5zm10.106 0 .004.002-.016-.007zm-.059-.023.01.005q.023.008.043.017L13.43.49zm15.59 0 .003.002.045.018q-.004 0-.007-.003l-.023-.01-.003-.002zM3.523.439l-.015.006-.005.004zm15.589 0-.015.006-.005.004zm.033-.014.005-.002.003-.001zm.562-.197.015-.005.007-.002zM4.134.223l-.005.001.012-.003zm.038-.01L4.175.21h.004zm15.59 0 .002-.002h.004zm.354-.088-.005.002.013-.004zm-15.59 0-.004.002.013-.004zM11.64.04h.027L11.66.039zm15.59 0h.026l-.007-.002zM11.741.032h-.003l-.02-.002zm15.59 0h-.004l-.02-.002zM11.591.03h-.014zm15.588 0h-.012zM11.328.005l.021-.002.018.002h.014l.01.002h-.004l-.015-.002.01.002.067.001.228.017.022.004.02.001h-.003l.013.002.008.002h.018q.014 0 .027.003l.041.007-.002-.002-.024-.003-.042-.005.032.003.034.005.005.002.06.008h.008L11.89.051h.004l.005.001h.008l.045.007.016.005.047.005.007.002q.236.037.47.094l.098.026.017.006.102.027.002.002h.007l.023.007.031.01.02.007.017.005.015.003q.244.078.464.17l.01.004.061.025.078.036.008.003.017.008-.005-.001.017.006.004.002.015.007.005.002.007.003.012.005-.002.002.015.005.066.03.018.01.085.042.018.009q.178.093.327.182l.008.007.048.028c.04.025.106.067.182.118l-.035-.023.017.01.038.025.005.004.023.02.014.007.023.017.015.013q.115.082.22.167.071.047.138.101l.041.036.005.006.002-.001c.03.025.081.07.14.123q.007.005.012.012l.034.028.026.026.076.072.014.014.066.064.015.017L16.352 2.9l.02-.033-.01.015.015-.026.048-.08.036-.058-.002.002.005-.01q.005-.01.02-.032l.002-.004.053-.08.011-.018.034-.05.003-.007.002-.002.01-.015.058-.082.013-.019.03-.042.01-.015q.02-.026.041-.05.07-.096.158-.207l.074-.09.058-.067.032-.035-.004.007.034-.04h.001l.02-.023.005-.006.051-.056.156-.159.055-.052.016-.015.08-.074.075-.066.003-.003.013-.012.025-.02.02-.017-.005.003.023-.02.073-.061.008-.007.005-.003.002-.002.027-.022.003-.001.033-.03.09-.067.001-.001.02-.015-.002.001-.006.005.073-.054.09-.065.022-.016.012-.006.003-.004.052-.035c.028-.02.056-.036.076-.05h.002l.01-.006.02-.015.06-.039.082-.049.041-.023.004-.002.07-.042.023-.012.018-.01.016-.01.004-.002.005-.002.005-.001.023-.012-.017.007.032-.016.08-.043.011-.007.002.007-.012.006.028-.013-.016.007-.002-.007.033-.017.022-.01.005-.002.015-.007.003-.003.023-.012.012-.005.061-.03.063-.029.003-.002h.004l.041-.016.025-.012-.046.018.109-.049.008-.001.005-.004.032-.013.003-.002.01-.003.003-.002.012-.005.003-.002.128-.05.044-.015.138-.051.017-.005.066-.022.121-.037.018-.005L19.7.23l.035-.01.013-.005.005-.002.008-.001.012-.004-.005.002q.043-.014.11-.03a6 6 0 0 1 .228-.054l.023-.006.02-.005.012-.001.021-.005-.018.005.021-.004.029-.006.064-.014.032-.003.081-.015h.003l.2-.03.059-.006.015-.002.03-.003.07-.007.003-.001.013-.002h.007l-.009.002.015-.002.113-.008.08-.006.02-.001h.031l.01-.002-.01.002.071-.004.022-.001L21.21 0h.007-.007 5.518l.022.002.013-.002h.014l.04.002h.02v.001h.052l.02.002-.005-.002.012.002.02-.002.02.002h.013l.01.002h-.004L26.96.005l.01.002.067.001.228.017.02.004.022.001h-.003l.013.002.008.002h.018l.027.003.041.007-.001-.002-.025-.003-.042-.005.032.003.035.005.005.002.061.008h.008L27.48.051h.003l.003.001h.005l.048.007.012.003.053.007.006.002q.238.037.471.094l.098.026.017.006.001-.001.101.028.002.002h.007l.023.007.031.01.02.007.017.005.015.003.39.143.084.03.061.026.078.036-.031-.012.028.012.023.01.005.001-.025-.011.058.025-.002.002.024.008-.002.002.015.005.066.03.018.01.085.042.018.009q.179.093.327.182l.008.007.048.028.136.09.007.002.021.013.038.025.005.004.024.02.013.007.023.017.015.013q.183.127.345.258l.013.01.041.036.005.006c.03.026.084.068.143.122l.012.012.033.028.026.026.076.072.014.014.064.064.015.018.002-.001 3.527 3.59.005.006c.05.05.093.095.103.106l.061.066.08.091.018.02-.003-.003.063.074.011.014.067.082.014.02.042.051.007.01.01.012.052.07.012.014.146.208.01.017.04.06.02.03.06.095.15.262c.332.61.557 1.29.655 2.009l.008.054.005.045.008.068v.003q.006.044.01.101l.004.029.01.145.001.032.004.054v.024l.001.027.002.052v.039l.002.006v.081l.001.036V32.2l-.001.09-.002.085-.004.093v.005l-.003.063-.005.082-.003.02v.019l-.002.018-.001.012-.007.075-.007.069-.001.001-.005.063-.002.018-.013.095-.032.199v.005a6 6 0 0 1-.044.231l-.002.002v.005l-.007.027-.013.062a6 6 0 0 1-.315.963l-.14.302-.03.06-.017.038-.056.1.001.001-.035.063-.015.027-.01.017-.011.022-.002.001-.002.004-.004.008-.092.152q0 .003-.003.005l-.015.02.002.002-.043.067-.002.004c-.026.04-.05.072-.063.09l-.012.018.002.001-.003.005-.045.063-.008.013-.005.007.002-.003v-.004l-.004.005-.005.009v.003l-.002.002-.006.005.002.002-.015.02-.005.003-.004.007-.025.035-.011.017-.043.057-.023.03-.009.011-.036.046-.07.087a6 6 0 0 1-.199.226q-.002.005-.008.012l-.026.027-.012.014-.017.016-.044.05-.015.014h-.004l.002.002-.032.032-.064.064-.04.037-.002.002-.11.105a6 6 0 0 1-.36.3l-.053.04-.01.007-.033.026-.009.003-.015.013-.033.022.028-.022-.005.005-.005.004-.023.017-.006.006-.012.007.002.002h-.005l-.002.003-.012.009-.013.008-.007.005.02-.013-.006.005-.02.013.003-.001-.044.03h-.004l-.043.032-.038.025-.196.122q.026-.015.08-.053l-.002-.001-.018.01-.076.052.001.002-.005.003-.094.054-.111.06h-.003l.001.003-.117.06-.014.009q-.056.029-.129.062l-.012.007-.01.005-.005.002h-.005l-.008.006-.116.053-.023.006.002.002-.106.046-.024.008-.054.022-.015.003-.136.054-.048.016.011-.004-.008.004-.035.011h-.003l-.002.002h-.003l-.012.004-.003.003-.007.002-.01.001-.008.004-.008.003-.003.002-.02.006-.019.004-.062.022-.012.003-.027.008-.011.004-.004.002-.01.001-.008.004-.003.001-.012.004-.011.003-.002-.002-.003.002-.007.002-.038.012-.055.015-.02.003-.053.015-.026.005-.007.004-.058.015-.002-.002-.089.022-.002-.002-.001.002-.105.022-.011.002-.014.003-.016.004-.027.005h-.003l-.005.001-.01.002-.017.003-.068.01-.01.002v-.005l-.001.002.002.003-.012.004v-.006l-.002.004-.023.005h-.01l-.006.003h-.007l-.05.007-.002.002-.026.003-.008.002h-.009l-.046.006-.081.009-.032.005-.001-.002-.002.002h-.003l-.009.002h-.018l-.018.003-.013.002h-.004l-.018.001-.015.002h-.006l-.116.008-.102.007-.099.004-.101.003h-5.513l-.03-.002h-.01l.007.002h-.004l-.003-.002-.006.003-.008-.002h-.075l-.018-.001h-.013l-.005-.002h-.08l-.025-.002h-.013l-.021-.001-.034-.002-.139-.012h-.018l-.005-.002h-.013l-.014-.001h-.008l-.002-.002-.026-.003h-.027l-.011-.002-.04-.005-.005-.002-.002.002-.001-.002-.012-.002-.036-.003h.003l-.005-.002h-.011l-.004-.001h-.011l-.118-.017-.047-.008h-.013l-.103-.02h-.001l-.02-.002-.017-.004-.001-.003h-.012l-.025-.005-.013-.002h-.003l-.01-.003-.014-.002-.01-.003-.09-.019-.004-.002h-.003l-.007-.001-.003-.002.01.003-.004-.001-.006-.002-.004-.002h-.011l-.004-.001c-.013-.004-.039-.009-.066-.015l-.005-.002-.003-.002h-.007l.01.002h.004l-.014-.002-.008-.002-.002-.001h-.003l-.008-.002-.024-.007-.011-.003-.078-.02-.015-.004-.09-.025-.483-.167-.007-.002-.018-.006-.058-.024-.012-.007-.111-.045-.144-.068q-.003 0-.005-.002l.006.004-.001-.002-.005-.002-.012-.006-.008-.004-.002-.001h-.003l-.005-.002-.13-.066-.02-.008-.06-.034-.047-.025-.073-.04-.003-.002-.003-.002-.034-.02-.083-.05-.031-.018-.037-.022-.01-.006-.003-.002-.01-.007-.001-.002a6 6 0 0 1-.612-.442l-.002-.001-.024-.02-.183-.16-.018-.016-.018-.019-.062-.057-.01-.01-.112-.11-1.182-1.204-.007.014-.011.022-.002.001-.002.004-.005.008-.043.072-.01.019-.05.083-.013.015-.003.008-.003.002-.004.008-.005.007q-.001.003-.005.005l.015-.018-.03.045-.02.027.002.002-.001.002-.002.003-.061.091-.005.007-.009.012-.01.013-.006.01-.003.004-.004.005-.011.018-.005.007-.012.017h-.003l.001.002-.006.006-.012.019-.003.005-.018.023-.009.012-.011.017-.043.057-.024.03-.008.011-.006.005c-.026.034-.06.08-.1.128a6 6 0 0 1-.19.218l-.002.002-.013.015-.019.022.017-.019-.002-.002-.003.007-.002-.002q-.01.013-.02.022l-.015.014.015-.014-.005.009-.011.01-.007.007.003-.002-.008.008-.051.055.008-.009-.005.007-.011.011h-.004l.002.002-.032.032-.064.064-.04.037-.002.002-.11.105q-.182.164-.362.3l-.043.034.003-.002-.008.003-.003.006-.01.005c.001-.002.004 0 .006-.002l-.038.027-.003.002-.022.016-.021.016.02-.017-.01.006-.024.019-.01.008-.005.005-.014.01-.004.002-.001.002-.03.02.031-.022-.005.004-.013.008-.013.01.003-.001-.045.03h-.003l-.043.032-.038.025a7 7 0 0 1-.202.127l.006-.005q.026-.015.08-.053l-.023.012-.073.05h.001l-.005.004-.094.054-.148.081q-.042.023-.083.042l-.013.009-.136.064q-.008.004-.015.01l-.02.007-.01.007-.106.047-.001-.002-.023.013-.107.044-.018.007-.055.022-.15.057-.048.016.011-.004-.008.004-.025.008q-.005 0-.008.002l-.005.001-.015.007-.003.002h-.007l-.002.002-.018.005-.005.001-.003.004-.002-.002-.021.008-.019.004-.063.022-.011.003-.027.008-.011.004-.004.002-.01.001-.008.004-.003.001-.012.004-.011.003-.002-.002-.004.002-.006.002-.038.012-.055.015-.02.003-.044.012-.007.003-.037.007.002.002-.04.01-.018.005-.013.002-.078.018-.002-.002-.001.002-.105.022-.01.002-.015.003-.016.004q-.011.001-.027.005l-.008.001h-.01l.002.002h-.004l.002-.002h-.003l.001.002-.015.003-.068.01-.01.002-.011.002-.015.003h-.003l-.007.002-.01.002-.007.001h-.005l-.051.007-.03.005-.006.002h-.009l-.046.006-.081.009-.02.003-.012.002-.001-.002-.002.002h-.004l-.008.002h-.018l-.018.001q-.008.001-.014.004h-.003l-.018.001-.015.002h-.007l-.114.008-.103.007-.1.004-.099.003H9.236l-.03-.002L9.19 38l-.008-.002h-.075l-.01-.001h-.02l-.005-.002h-.08l-.026-.002h-.013l-.02-.001-.035-.002-.139-.012h-.018l-.005-.002h-.012l-.001-.001h-.022l-.028-.005h-.027l-.011-.002-.04-.005H8.59l-.012-.002-.003-.002-.036-.003h.003l-.005-.002h-.012l-.003-.001H8.51l-.117-.017-.047-.008h-.013l-.088-.017-.008-.002-.007-.002.004.002-.01-.002H8.22l-.01-.001-.053-.01-.01-.002-.002-.002-.003-.002-.025-.005-.098-.02h-.005l-.006-.002L8 37.862l-.002-.002.009.003-.004-.001-.01-.002-.011-.002-.004-.001-.001-.002-.068-.015.005.002.008.001-.025-.005-.008-.002-.002-.001h-.003l-.008-.002-.024-.007-.011-.003-.078-.02-.015-.004-.09-.025-.484-.167-.006-.002-.018-.005-.058-.024-.012-.007-.11-.045-.124-.058-.036-.015-.002-.002q-.004 0-.006-.003l-.002-.002-.01-.003-.13-.066-.02-.008-.06-.034-.047-.025-.073-.04-.002-.002-.005-.002c-.054-.031-.1-.06-.126-.074l-.005-.004-.013-.008-.006-.004-.009-.005-.05-.032a6 6 0 0 1-.611-.442l-.002-.001q-.015-.014-.025-.02l-.005-.006-.005-.003-.001-.002-.16-.141-.008-.005-.008-.007-.006-.007-.007-.005-.012-.012-.051-.049-.005-.005-.012-.01-.01-.01-.11-.11-3.538-3.6q-.065-.067-.123-.133l-.001.002-.053-.055-.032-.038-.01-.011q0-.003-.003-.004l-.002-.001-.005-.009-.021-.023-.098-.115-.003-.004-.01-.011-.038-.048-.309-.425-.015-.025q0-.003-.003-.005l.013.022-.013-.022-.008-.012-.003-.007-.002-.001-.101-.162-.012-.022-.016-.027-.002-.004-.005-.006a6 6 0 0 1-.239-.456l-.003-.013-.007-.009-.02-.043-.008-.019-.068-.155-.025-.064a6 6 0 0 1-.17-.481l-.009-.034-.016-.05-.007-.026-.002-.01-.033-.12-.001-.005q-.003-.007-.005-.022l-.019-.072-.094-.486-.003-.02-.005-.034-.009-.055-.001-.016-.01-.086-.004-.02-.003-.03-.002-.027-.001-.014v-.006l-.002-.012-.003-.022a6 6 0 0 1-.017-.25l-.003-.054v-.01l-.002-.007v-.08l-.001-.053L0 28.67V5.728l.003-.108v-.008l.002-.049v-.015l.002-.019-.002.009.002-.019v.005l.001-.017v-.011l.005-.081.009-.115.001-.015V5.27L.03 5.2l.008-.071.005-.032.015-.118.013-.091.019-.115q.03-.17.07-.334l.017-.074.004-.012.025-.096.001-.007.004-.012.004-.018.01-.036.002-.003.007-.024.036-.121.002-.005.02-.063.005-.017c.007-.022.025-.077.048-.14l.003-.005.013-.04.004-.003.054-.147.024-.058c.022-.055.045-.103.056-.128l.003-.008.028-.064.002-.004c.027-.06.051-.11.065-.138l.001-.003.007-.012.003-.005.007-.017.007-.012.07-.14.012-.02.007-.012.01-.02c.025-.046.048-.084.061-.106l.005-.01.048-.082.002-.001.046-.076.005-.009.009-.015.053-.08.011-.018.025-.038.009-.012.001-.004.013-.02.058-.082.04-.056.012-.015c.054-.074.12-.164.2-.262l.005-.005.07-.084.058-.068.022-.022.005-.006q.012-.016.036-.04l.025-.03.051-.055.038-.039.007-.005.01-.012.012-.012.089-.089.055-.054.028-.025.07-.064.072-.066.017-.015.005-.004.058-.05.153-.125.087-.068.002-.001.01-.007.02-.015.055-.04.09-.066.01-.007.07-.047.002.001.015-.008-.015.008-.002-.001.062-.04.024-.018-.013.009-.001.001.014-.01.024-.015.005-.003.03-.019.033-.022.08-.049.034-.018.081-.05L2.95.72l.032-.017L2.984.7l.005-.002.006-.003L3 .692l.03-.016.002.002c.023-.012.05-.03.08-.045l.01-.007.002.007-.011.006.028-.013-.017.007-.001-.007.033-.017.021-.01.12-.06.064-.028.047-.018.025-.013-.047.018.11-.049.008-.001.005-.004.031-.013.004-.002.02-.008-.007.003L3.57.42l.004-.002.126-.05.044-.015.138-.051.017-.005.066-.022.12-.037.02-.005.006-.004.053-.015.008-.001.012-.004-.005.002q.043-.014.109-.03a6 6 0 0 1 .229-.054L4.54.12l.022-.005.01-.001.021-.004h.003l.029-.006.064-.014.032-.003L4.8.073h.004l.2-.03L5.06.04q.01-.001.019-.004l.03-.003.07-.007.002-.001.014-.002H5.2l-.008.002.015-.002.113-.008.08-.006h.02l.007-.001h.024l.01-.002-.01.002.073-.004.02-.001L5.621 0h.007-.007 5.518l.022.002h.013L11.177 0h.011l.04.002h.023l-.001.001h.053l.018.002-.005-.002zm-.004 0-.018-.002h.01zm15.586 0-.015-.002h.01zM11.271.002l.005.001h-.018l-.007-.001zm15.59 0 .004.001h-.018l-.005-.001zm-15.653 0h-.021L11.188 0zm15.59 0h-.022L26.778 0zm-8.24 2.818-.014.014-.031.03-.058.06-.003.004-.048.048-.03.032-.015.018-.002.002.009-.01-.06.065-.042.048-.051.062a4 4 0 0 0-.146.19l.003-.006-.034.049c-.016.021-.029.042-.037.054l-.011.017-.005.006-.03.046-.033.052-.009.012-.003.007c-.005.008-.02.03-.035.056l-.03.052-.005.007-.044.08-.002.002-.018.036-.002.003-.05.094-.021.044-.042.088-.018.042-.003.007c-.008.017-.025.053-.042.094l-.016.043-.04.102-.012.033-.033.1-.001.002-.004.012-.015.044-.024.084-.012.04-.003.013-.002.005-.023.088-.014.052a4 4 0 0 0-.06.315l-.01.064q-.006.033-.01.081l-.009.075-.005.048-.002.014v.008l-.006.081-.004.053v.03l-.001.015-.002.047-.002.08v.541L13.97 2.92l-.067-.066-.063-.06-.033-.031-.006-.005-.002-.002-.098-.086-.043-.035a4 4 0 0 0-.295-.221l-.002-.002-.003-.002-.011-.008-.128-.083-.042-.023a4 4 0 0 0-.228-.13l-.085-.042-.038-.017-.017-.007-.11-.05-.044-.02a4 4 0 0 0-.333-.12l-.051-.017-.012-.002-.101-.029-.07-.018a4 4 0 0 0-.334-.068l-.063-.01h-.007l-.111-.015h-.003l-.012-.002-.041-.003-.161-.012-.056-.003h.004l-.104-.004H5.699v2.036h5.453l.07.002.026.002q.041.001.081.005.014 0 .027.003l.06.009.031.003q.084.013.167.034.018.004.035.01l.052.013.031.01q.084.027.166.061l.021.009.06.026.023.012q.08.039.158.085l.02.013.063.04q.004.004.01.006.076.052.147.111l.02.017.05.044.02.018q.034.03.066.063l3.525 3.59.045.046.022.022.031.037.023.03.035.04.015.02q.054.07.101.145l.022.034c.148.241.247.516.285.811l.003.022.007.059.005.072v.027l.002.066.001.017v2.672h2.61V5.703l.004-.039.002-.04.003-.036.005-.037.005-.04.005-.032.007-.04.024-.117.005-.027.014-.044.006-.029.014-.042.01-.029.021-.065.023-.056.004-.01.003-.007.02-.05.033-.071.008-.017.027-.05.01-.018.023-.04.033-.057.023-.036.015-.022.027-.039.015-.022a2 2 0 0 1 .1-.126l.019-.024.031-.033.019-.02.054-.056.02-.019.033-.032.032-.025.023-.022.04-.032.013-.01.04-.032.021-.016.04-.027.024-.016.038-.026.021-.013.028-.017.04-.024.018-.01.048-.025.017-.009.048-.025.021-.008.05-.022.007-.004.008-.003.057-.022.015-.007.05-.016q.013-.006.027-.01l.042-.014.028-.007.043-.012.027-.006.054-.014.015-.003.045-.009.04-.006.031-.006.04-.005.037-.005.034-.001.04-.004.037-.003h.034l.04-.002h.022V1.727h-.045l-.078.002-.048.002-.013.001h-.015l-.015.002-.051.002-.08.006h-.008l-.014.002-.048.005-.071.009-.081.01-.061.01-.082.013-.078.016h.005l-.016.003-.032.007-.107.023-.14.037-.005.002-.011.003-.038.012-.085.026-.043.015-.012.003-.003.002-.098.034-.031.011-.098.04q-.005.003-.012.004l-.033.014-.094.044-.005.001-.04.019-.088.042-.043.022-.091.049-.005.003-.035.019-.002.001-.08.046q0 .002-.006.005l-.05.03-.044.027-.002.002-.008.005-.1.068-.01.005-.003.003-.02.014-.058.042-.05.037-.003.002-.013.01-.058.043-.025.022c-.012.01-.046.036-.081.066l-.047.04-.003.002-.011.01-.047.043-.068.064zm-1.475-.932-.007.006-.003.002zm1.65-1.264.009-.003-.012.005zm-15.589 0 .009-.003-.012.005z"/><path d="M6.79 37.175q-.032-.046-.062-.094h-.023l-.118.237c.025.017.04.03.043.03l.048.03zm-.133-.095-.088-.004-.09.163q.037.029.068.05zm-.221.122.025.024.01.007.088-.16q-.03 0-.058-.004zm4.718-33.439.07.002.026.001.08.006.028.003.06.008.03.004a2 2 0 0 1 .253.058l.032.01a2 2 0 0 1 .247.096l.024.01a2 2 0 0 1 .24.14l.01.005q.075.053.147.11l.02.019a2 2 0 0 1 .136.124l3.526 3.59.044.046.022.023.032.036.072.089q.054.07.103.146l.021.034c.148.241.247.516.285.81q0 .012.003.023a2 2 0 0 1 .014.225v2.689h2.61V5.737l.002-.035.002-.038.006-.076.004-.036.01-.073.007-.04a2 2 0 0 1 .042-.188l.008-.028.04-.121.005-.017.022-.056.004-.01.003-.006.02-.05.01-.022.024-.049.008-.017.026-.05.01-.017.022-.04.018-.03.017-.028.023-.036.015-.023.026-.038.015-.021q.036-.05.073-.096l.027-.031.051-.058.018-.02.028-.028.027-.027.02-.018.033-.032.03-.027.024-.02.04-.033.013-.011.04-.03.021-.017.04-.027.023-.017.039-.024.02-.014.03-.018.04-.023.017-.01.049-.026.017-.008.048-.024.022-.01.048-.022.007-.003.01-.003.054-.023.016-.006.049-.017.029-.01.042-.013.027-.008a2 2 0 0 1 .124-.03l.015-.004.085-.015.032-.005.076-.01.034-.003.04-.003.038-.002.033-.002h5.515l.07.001.027.001.08.006.028.003.06.008.03.004a2 2 0 0 1 .253.058l.032.01a2 2 0 0 1 .247.096l.024.01q.08.04.157.086l.02.012.064.041.008.006a2 2 0 0 1 .303.253l3.527 3.59.044.046.022.023.032.036.024.028.033.041.015.02q.054.07.103.146l.02.034c.149.241.248.516.286.81l.002.023a2 2 0 0 1 .012.13v.028q.003.033.002.067l.001.017v22.824l-.001.04-.001.033-.001.024-.002.013-.002.038-.003.03-.002.024-.003.021a3 3 0 0 1-.032.194l-.007.032a2 2 0 0 1-.16.444l-.016.033-.02.037-.008.015-.012.022-.026.044-.02.033-.014.022-.023.033-.023.035-.006.007-.008.011-.014.02-.015.02-.011.014a2 2 0 0 1-.115.136l-.014.015-.02.02-.013.014-.022.022-.015.014a2 2 0 0 1-.166.143l-.02.015-.021.016-.02.014-.016.011-.014.01-.016.01-.012.008-.042.028-.035.02-.034.02-.137.072-.007.003-.04.019-.054.022-.02.008-.052.02-.037.012-.007.002-.004.002-.036.012-.026.007-.011.003-.034.01-.026.007q-.006 0-.011.003l-.053.012-.036.007-.033.007-.03.005-.022.004q-.012 0-.022.003-.015 0-.029.004l-.038.004-.01.001h-.003l-.024.003-.078.005-.035.002H24.81q-.034 0-.067-.002h-.023l-.08-.007-.018-.001-.018-.002-.052-.007-.023-.003q-.01 0-.02-.003l-.042-.008-.026-.005-.008-.001-.045-.01-.038-.009-.014-.003-.032-.01-.032-.008a2 2 0 0 1-.241-.088l-.062-.029-.013-.005-.078-.041-.02-.012-.06-.034-.021-.014a2 2 0 0 1-.289-.22l-.008-.007-.07-.066-3.536-3.6-.062-.066-.018-.02-.042-.05-.018-.022a2 2 0 0 1-.108-.15l-.006-.01-.04-.064-.013-.02a2 2 0 0 1-.084-.16l-.01-.024-.027-.06-.009-.023a2 2 0 0 1-.06-.169l-.009-.032-.014-.052-.009-.035a2 2 0 0 1-.033-.17l-.004-.032a2 2 0 0 1-.017-.177v-.02l-.002-.071v-3.987h-2.61v7.595l-.001.04-.001.033-.003.043-.002.032-.003.03-.002.024-.003.021-.005.04-.008.051q0 .01-.003.02l-.016.083-.007.032-.005.019q-.055.223-.154.425l-.005.01-.012.023-.02.037-.008.015-.012.022-.026.044-.022.035-.013.02-.006.01-.016.023-.024.035-.005.007-.008.011-.014.02-.015.02-.048.061q-.037.045-.078.088l-.014.016-.02.02-.013.014-.022.022-.015.014a2 2 0 0 1-.166.143l-.02.015-.021.016-.02.014-.016.011-.014.01-.016.01-.012.008-.042.028-.035.02-.034.02-.137.072-.008.003-.04.019-.053.022-.02.008-.089.032-.007.002-.004.002-.036.012-.026.007-.011.003-.034.01-.026.007q-.006 0-.011.003l-.052.012-.037.007-.033.007-.03.005-.023.004-.021.003q-.015 0-.029.004l-.039.004-.01.001h-.002l-.024.003-.078.005-.035.002H9.221q-.034 0-.067-.002H9.13l-.08-.007-.017-.001-.019-.002-.052-.007-.023-.003q-.01 0-.02-.003l-.042-.008-.02-.004-.014-.002-.045-.01-.038-.009-.014-.003-.032-.01-.032-.008a2 2 0 0 1-.241-.088l-.062-.029-.012-.005-.079-.041-.02-.012-.054-.031-.007-.004-.02-.013a2 2 0 0 1-.289-.22l-.008-.007-.069-.066-3.537-3.6-.062-.066-.018-.02-.042-.05-.018-.022a2 2 0 0 1-.108-.15l-.006-.01-.04-.064-.013-.02a2 2 0 0 1-.084-.16l-.01-.024a2 2 0 0 1-.095-.252l-.01-.032-.014-.052-.009-.035a2 2 0 0 1-.033-.17l-.004-.032-.008-.06q0-.015-.003-.029l-.006-.088v-.02l-.002-.071V5.777l.002-.075.002-.038.003-.04.003-.036a2 2 0 0 1 .063-.337l.008-.028.013-.043.01-.03q.007-.024.017-.048l.005-.017.022-.056.004-.01.003-.006.021-.05.01-.022.023-.049.008-.017.026-.05.01-.017.023-.04q.007-.015.017-.03l.017-.028.023-.036.015-.023.026-.038.016-.021a2 2 0 0 1 .15-.185l.018-.02.028-.028.027-.027.02-.018.033-.032.03-.027.024-.02.04-.033.013-.011.04-.03.021-.017.04-.027.02-.015.042-.026.021-.014.03-.018q.018-.012.039-.023l.017-.01.049-.026.017-.008.048-.024.022-.01.048-.022.007-.003.01-.003.054-.023.016-.006.05-.017.028-.01.042-.013.028-.008a2 2 0 0 1 .123-.03l.015-.004.085-.015.032-.005.076-.01.035-.003.04-.003.037-.002.033-.002h5.516M5.702 5.8v22.803h5.441v-9.61h10.148v9.61h5.441V5.799h-5.441v8.307H11.143V5.799z"/></g><defs><clipPath id="a"><path fill="#fff" d="M0 0h36v38H0z"/></clipPath></defs></svg>