<svg width="357" height="60" viewBox="0 0 357 60" fill="none" xmlns="http://www.w3.org/2000/svg">
<g clip-path="url(#clip0_205_180)">
<path d="M16.562 8.40051C17.6329 7.66327 33.1679 -2.25253 69.9643 15.6447C104.724 32.551 139.774 12.7663 146.072 8.81067C146.281 8.6796 146.63 9.01694 146.518 9.2384L140.188 21.7374C140.088 21.9343 140.225 22.1688 140.443 22.172C142.089 22.1952 147.83 22.2625 154.258 22.1759C154.525 22.1723 154.676 22.4795 154.483 22.6652C150.165 26.7978 119.694 55.1271 95.77 55.1271C69.9639 55.1271 55.9887 49.0127 39.4868 44.3888C23.2376 39.8358 15.4171 38.3082 5.47504 39.9825C5.26074 40.0187 5.07894 39.8174 5.13812 39.6056L8.98773 25.8937L16.4702 8.51672C16.491 8.46836 16.5189 8.43016 16.562 8.40051ZM94.3032 30.3126C93.2965 30.1673 92.2015 30.5472 91.0463 31.4962L91.0375 31.505C89.6385 32.9118 88.7784 35.5287 88.8745 39.4376L88.8754 39.4386C88.9709 42.3581 89.6147 44.6767 90.7612 46.1847C91.9143 47.7012 93.5685 48.3868 95.6401 48.047C97.7007 47.7087 98.5265 46.7757 98.7641 45.8781C98.8809 45.4361 98.8522 45.0127 98.769 44.6925C98.7274 44.5326 98.6707 44.3938 98.6098 44.2902C98.5795 44.2387 98.5465 44.1927 98.5112 44.1564C98.4775 44.1217 98.4322 44.0858 98.3774 44.0714C98.3162 44.0553 98.2786 44.0297 98.187 43.9884C98.1017 43.9499 97.9971 43.9145 97.8471 43.9044C97.5549 43.8848 97.0991 43.9642 96.2651 44.2823C95.4613 44.5887 94.776 44.5586 94.1655 44.1573C93.5455 43.7499 92.9822 42.9482 92.4614 41.6661H92.4623C92.1223 40.8085 91.8572 39.5389 91.8334 38.2491C91.8096 36.9571 92.028 35.665 92.6332 34.7482L92.7651 34.5656C93.0691 34.1793 93.3428 34.0589 93.5102 33.9552C93.8491 33.7456 94.1922 33.7413 94.4702 33.8048C94.7517 33.8692 94.9561 34.0006 95.0053 34.0441L95.0883 33.9513L95.0053 34.045L95.0151 34.0519C95.5459 34.4416 95.9859 34.6378 96.3393 34.674C96.7026 34.711 96.975 34.5774 97.1381 34.3224C97.2945 34.0778 97.3395 33.7384 97.3041 33.3761C97.2683 33.0105 97.1493 32.605 96.9565 32.215L96.9516 32.2062L96.9467 32.1993L96.8041 32.0021C96.085 31.0429 95.2465 30.4489 94.3032 30.3126ZM72.9399 25.5284C72.5041 25.2467 72.0161 25.1254 71.5727 25.2511C71.1247 25.3784 70.7525 25.7496 70.5356 26.3878L70.5346 26.3888C70.0485 27.8951 70.1087 29.4504 69.9907 31.295C69.8721 33.1473 69.5751 35.3305 68.3823 38.1437V38.1447C68.0985 38.8301 67.6068 39.8055 67.1635 40.6573C66.9435 41.0802 66.7344 41.4749 66.5698 41.7863L66.2416 42.4181C65.9026 43.0722 65.8116 43.676 65.934 44.1447C66.0586 44.6211 66.403 44.9474 66.894 45.0245C67.3771 45.1002 67.9846 44.9324 68.6498 44.4757C69.3165 44.0179 70.0532 43.2626 70.8022 42.1388C71.1729 41.6128 71.5563 40.6897 71.8442 39.9103C71.9889 39.5183 72.1107 39.1576 72.1967 38.8956C72.2396 38.7649 72.2741 38.658 72.2973 38.5841C72.3014 38.5709 72.3046 38.5581 72.308 38.547L73.4096 38.422C73.4164 38.4528 73.4256 38.4897 73.435 38.5323C73.4664 38.6744 73.5109 38.8807 73.5659 39.1339C73.6758 39.6404 73.8255 40.3386 73.9828 41.1036C74.298 42.6357 74.6445 44.4321 74.7739 45.507V45.5089C74.9214 46.6145 75.9543 47.4758 76.9633 47.5245C77.4754 47.5491 77.9843 47.3641 78.3647 46.8995C78.7421 46.4382 78.9839 45.7128 78.9975 44.673L78.9965 44.6593C78.8815 43.4176 78.4952 41.8007 77.7914 39.798L77.4702 38.9161V38.9152C77.469 38.9117 77.4666 38.9062 77.4643 38.8995C77.4597 38.8862 77.4535 38.8665 77.4448 38.8419C77.4272 38.7925 77.4011 38.7221 77.3686 38.6368C77.3034 38.466 77.2097 38.2348 77.0981 37.9962C76.9869 37.7585 76.8559 37.5095 76.7143 37.3038C76.6168 37.1622 76.5058 37.0312 76.3862 36.9406C76.4056 36.9207 76.4286 36.8988 76.4526 36.8741C76.5647 36.7586 76.7255 36.5908 76.9194 36.3859C77.3072 35.9759 77.8291 35.4124 78.3627 34.799C78.8961 34.1857 79.4435 33.52 79.8823 32.9073C80.3173 32.2999 80.6578 31.7277 80.7612 31.3038C80.8648 30.8782 80.8987 30.4725 80.8315 30.1466C80.7635 29.8169 80.5866 29.5524 80.2631 29.4562C79.9522 29.3639 79.5383 29.4383 79.019 29.6906C78.4957 29.9449 77.8438 30.3902 77.0453 31.0734C75.4538 32.4355 74.5625 33.338 74.0678 33.9015C73.9706 34.0122 73.8888 34.1107 73.8198 34.1964C73.8895 33.8338 73.9824 33.326 74.0717 32.7384C74.2291 31.7022 74.3803 30.4124 74.3901 29.2286L74.3852 28.7286C74.5208 27.3144 73.8074 26.0895 72.9399 25.5284ZM101.378 29.3927C100.993 29.4423 100.662 29.7476 100.433 30.1564C100.202 30.5695 100.06 31.1111 100.065 31.6827C100.075 32.7959 100.261 34.2751 100.479 35.8048C100.698 37.3384 100.95 38.9242 101.097 40.2638C101.391 42.942 101.41 43.6774 101.704 45.2599C101.752 45.5193 101.956 45.6795 102.22 45.7726C102.484 45.8655 102.834 45.9025 103.23 45.9015C104.025 45.8993 105.052 45.7451 106.068 45.5402C107.086 45.3348 108.1 45.0764 108.871 44.8624C109.256 44.7554 109.582 44.6591 109.817 44.5861C109.934 44.5497 110.03 44.519 110.099 44.4952C110.133 44.4835 110.163 44.4735 110.185 44.465C110.203 44.4581 110.228 44.4482 110.246 44.4376C110.257 44.4308 110.28 44.4199 110.324 44.4044C110.367 44.3889 110.413 44.3741 110.475 44.3527C110.593 44.3117 110.741 44.256 110.894 44.171C111.201 44.0004 111.529 43.7122 111.701 43.1925C111.815 42.9138 111.775 42.6621 111.626 42.4572C111.484 42.2598 111.248 42.1157 110.985 42.0187C110.458 41.8249 109.758 41.7966 109.256 41.9679C108.793 42.1261 107.693 42.4042 106.651 42.5714C106.13 42.655 105.628 42.7096 105.231 42.7091C105.032 42.7088 104.864 42.6955 104.735 42.6661C104.602 42.6359 104.53 42.5935 104.498 42.5548C104.485 42.538 104.464 42.4987 104.441 42.4259C104.419 42.3559 104.399 42.2649 104.379 42.1534C104.34 41.9297 104.308 41.6334 104.279 41.2804C104.221 40.5741 104.178 39.6537 104.119 38.6456C104.001 36.6408 103.818 34.2918 103.328 32.6808C103.129 31.444 102.838 30.6078 102.504 30.088C102.169 29.5667 101.774 29.342 101.378 29.3927ZM66.6098 23.7003C65.906 22.7071 64.6481 21.9908 62.7211 22.2755C61.3221 22.2898 60.1555 22.9209 59.1977 23.8488C58.2382 24.7783 57.4824 26.0093 56.9018 27.2316C56.3208 28.4547 55.9124 29.6757 55.6489 30.59C55.5171 31.0471 55.4215 31.4283 55.3588 31.6954C55.3275 31.8288 55.3038 31.9341 55.2885 32.006C55.2808 32.0419 55.2757 32.0703 55.2719 32.089C55.2701 32.098 55.268 32.1047 55.267 32.1095C55.2666 32.1119 55.2663 32.1141 55.2661 32.1154V32.1183H55.2651C55.265 32.1189 55.2653 32.1202 55.2651 32.1212C55.2646 32.1236 55.264 32.1274 55.2631 32.132C55.2614 32.1412 55.2585 32.1551 55.2553 32.173C55.2489 32.2087 55.24 32.2614 55.2289 32.3292C55.2067 32.4652 55.1765 32.6627 55.145 32.9093C55.0819 33.4029 55.0128 34.0954 54.9887 34.8878C54.9408 36.4677 55.0714 38.4636 55.7973 40.09V40.0909C57.1315 43.2566 60.3767 43.2673 60.9682 43.3429L60.9946 43.3458L61.02 43.338C62.839 42.7831 63.4826 41.8742 63.5532 41.0529C63.5878 40.6493 63.4819 40.2797 63.3256 40.005C63.2475 39.8678 63.1549 39.7514 63.058 39.6652C62.9632 39.5807 62.8539 39.5163 62.7426 39.5021H62.7338C62.325 39.4809 61.8887 39.5038 61.4243 39.4435C60.9702 39.3844 60.5168 39.2456 60.1137 38.9122L59.9897 38.8019C59.3947 38.2277 59.1318 37.2827 59.06 36.2579C58.9841 35.1751 59.1233 34.0355 59.2787 33.2335C59.6495 31.873 60.2394 29.8556 61.0571 28.3448C61.4666 27.5883 61.9265 26.9723 62.4321 26.6261C62.683 26.4544 62.9431 26.3505 63.2123 26.3263C63.4741 26.3029 63.7528 26.3545 64.0502 26.5011C64.8329 27.5064 65.5313 27.8197 66.0991 27.7277C66.6646 27.6356 67.0355 27.1511 67.183 26.7179C67.4573 25.9334 67.3058 24.6827 66.6098 23.7003ZM117.756 26.4279C117.397 26.3413 117.052 26.4324 116.785 26.7179C116.555 26.9623 116.389 27.3418 116.303 27.8536L116.271 28.0802L116.27 28.0919C116.26 28.4761 116.353 28.924 116.484 29.4288C116.616 29.9405 116.784 30.5013 116.945 31.1534H116.946C117.173 32.5188 117.418 34.0462 117.515 35.4015C117.564 36.079 117.576 36.7108 117.53 37.255C117.484 37.7985 117.381 38.2445 117.21 38.5626C116.928 38.9666 116.492 39.1296 116.047 39.0802C115.599 39.0302 115.142 38.7636 114.84 38.3048C114.264 37.1061 113.767 35.0791 113.323 33.1691C113.101 32.2152 112.893 31.2916 112.695 30.5245C112.498 29.7618 112.307 29.1368 112.12 28.7892V28.7882L112.025 28.629C111.8 28.2753 111.54 28.0433 111.267 27.922C110.953 27.7826 110.631 27.7938 110.35 27.923C109.793 28.1797 109.419 28.8823 109.508 29.7198C109.681 31.3294 110.139 32.7686 111.574 37.7032L111.575 37.7062C112.334 40.103 113.802 41.1547 115.15 41.5861C116.489 42.0144 117.701 41.8287 117.97 41.7687L117.972 41.7677C118.996 41.5202 119.611 40.8877 120.015 40.1281C120.415 39.3751 120.612 38.4887 120.799 37.7267C120.902 37.3056 120.926 36.7047 120.896 36.006C120.866 35.3045 120.78 34.4935 120.659 33.6476C120.416 31.9559 120.028 30.1149 119.649 28.7062H119.65L119.646 28.6964L119.556 28.4611C119.34 27.9265 119.076 27.4844 118.791 27.1486C118.467 26.7662 118.108 26.5129 117.756 26.4279ZM50.6752 17.4474C50.105 17.386 49.4356 17.4698 48.7446 17.9034C48.0557 18.3359 47.3541 19.1107 46.7075 20.4161L45.9741 21.8507C44.6246 24.4588 42.7016 28.0429 41.1606 30.8712L39.5551 33.7921C39.1404 34.4758 39.0032 35.1646 39.0932 35.7179C39.1837 36.2727 39.508 36.7033 40.0151 36.8214C40.5157 36.938 41.1494 36.7385 41.8412 36.1437C42.5238 35.5567 43.2785 34.5704 44.0502 33.0665L47.7885 33.4904C47.7745 33.5322 47.758 33.5829 47.7387 33.6407C47.6754 33.8309 47.5851 34.1049 47.478 34.4366C47.2644 35.0983 46.9834 35.9946 46.7114 36.9337C46.4139 37.724 46.3794 38.3717 46.5434 38.8507C46.7096 39.3354 47.0754 39.6351 47.5385 39.7257C48.4522 39.9043 49.7021 39.273 50.5912 37.8165L50.5903 37.8156C50.6298 37.755 50.6756 37.6564 50.7231 37.5333C50.7729 37.404 50.8296 37.2373 50.892 37.0392C51.0171 36.642 51.1662 36.111 51.3246 35.4777C51.6416 34.2102 51.9998 32.5274 52.2914 30.6769C52.8738 26.9815 53.1957 22.5912 52.3862 19.4874L52.3823 19.4738L52.3754 19.4611L52.184 19.1075C51.9859 18.7557 51.7702 18.4137 51.5551 18.1339C51.4119 17.9477 51.2664 17.7847 51.1225 17.6652C50.9815 17.548 50.8291 17.462 50.6743 17.4484L50.6752 17.4474ZM128.789 22.6359C127.25 22.2257 125.335 22.8286 122.885 24.3302C122.091 24.7843 121.746 25.1927 121.627 25.587C121.512 25.972 121.625 26.3282 121.668 26.6007L121.672 26.6183L121.673 26.6193C121.674 26.6204 121.675 26.622 121.675 26.6241C121.677 26.6289 121.678 26.6363 121.681 26.6456C121.687 26.6642 121.695 26.6917 121.706 26.7277C121.729 26.7997 121.761 26.9062 121.802 27.0411C121.885 27.3111 122.002 27.6979 122.143 28.1642C122.426 29.0973 122.804 30.3498 123.182 31.6281C123.561 32.9064 123.94 34.2101 124.227 35.2452C124.371 35.7629 124.491 36.2131 124.577 36.5587C124.663 36.9098 124.71 37.1395 124.714 37.2277L124.715 37.2384C124.739 37.4139 124.886 37.5187 125.045 37.5782C125.209 37.6395 125.426 37.6702 125.669 37.6759C126.158 37.6873 126.786 37.6002 127.393 37.4269L127.398 37.4249C129.181 36.8234 130.563 36.0333 131.464 35.1261C132.367 34.2172 132.792 33.1841 132.638 32.1095C132.351 30.108 131.264 28.5077 129.72 28.2472C129.722 28.2432 129.725 28.2396 129.727 28.2355C129.776 28.1282 129.844 27.9732 129.92 27.7823C130.073 27.4009 130.261 26.8736 130.403 26.2921L130.405 26.2853C130.53 25.6002 130.442 24.8634 130.208 24.2267C129.976 23.5919 129.593 23.0418 129.114 22.7433L129.103 22.7365L129.091 22.7316L128.789 22.6359ZM27.2944 12.7355C26.0453 12.3342 24.8066 13.3223 24.5356 14.8761C24.1447 17.118 23.3947 20.9694 21.8178 25.9464C20.9968 27.9374 20.7231 29.3679 20.8139 30.3419C20.8596 30.8311 20.9984 31.2126 21.2123 31.4904C21.4273 31.7692 21.7128 31.936 22.0366 32.006C22.6778 32.1444 23.461 31.9026 24.1733 31.4318C24.8892 30.9584 25.5542 30.2401 25.9653 29.3927C26.44 28.4809 26.922 27.531 27.2846 26.8087C27.4661 26.4472 27.6186 26.142 27.725 25.9279C27.7739 25.8295 27.8121 25.7494 27.8403 25.6925L32.6684 27.5704V27.5724C32.6565 27.6395 32.6388 27.7378 32.6166 27.8615C32.5723 28.109 32.5095 28.4601 32.433 28.8702C32.2805 29.6892 32.0758 30.7465 31.8696 31.7042C31.4727 32.9592 31.4565 33.8877 31.7006 34.5128C31.9498 35.1506 32.4647 35.4567 33.0688 35.464C33.6638 35.4709 34.3382 35.1899 34.9399 34.6808C35.5435 34.1698 36.083 33.4221 36.4086 32.4806L36.4106 32.4757C36.9745 30.592 39.6175 22.6794 40.35 18.4855C40.9127 17.0904 40.2205 15.746 39.144 15.3165C38.6009 15.1 37.965 15.1189 37.3569 15.4757C36.7531 15.8301 36.1848 16.5111 35.7534 17.6027C35.2958 18.4047 34.6998 19.6773 34.2182 20.7452C33.9766 21.281 33.7636 21.7672 33.6108 22.1193C33.5344 22.2952 33.4723 22.4377 33.4301 22.5363C33.4235 22.5516 33.4172 22.566 33.4116 22.5792C33.3921 22.5719 33.3701 22.5639 33.3461 22.5548C33.2327 22.512 33.0701 22.4502 32.8754 22.3761C32.4857 22.2277 31.9652 22.0282 31.4438 21.8234C30.9223 21.6185 30.4006 21.4082 30.0063 21.2394C29.809 21.1549 29.6448 21.0816 29.5297 21.0245C29.472 20.9959 29.4288 20.9727 29.4008 20.9552C29.3966 20.9525 29.3931 20.9495 29.3901 20.9474C29.3683 20.8708 29.3665 20.755 29.3891 20.5939C29.4134 20.4208 29.461 20.216 29.5161 19.9855C29.6249 19.5297 29.7613 18.9805 29.7729 18.4474L29.6479 18.4445L29.7739 18.4474L29.7729 18.4396C29.7092 16.6394 29.3971 15.3152 28.9487 14.3907C28.5003 13.4664 27.911 12.9337 27.2944 12.7355ZM127.7 30.8878C128.19 30.7373 128.695 30.6673 129.131 30.7745C129.559 30.8797 129.932 31.1579 130.165 31.7355C130.396 32.3078 130.299 32.7833 130.025 33.1886C129.746 33.6014 129.279 33.9449 128.768 34.2277C128.259 34.5093 127.719 34.7247 127.302 34.8859C127.096 34.9657 126.915 35.0342 126.789 35.09C126.766 35.0998 126.745 35.1114 126.725 35.1212C126.705 35.0385 126.68 34.9309 126.651 34.8058C126.572 34.4725 126.464 34.0119 126.354 33.546C126.244 33.0801 126.133 32.6089 126.049 32.254C126.008 32.0768 125.972 31.9283 125.948 31.8243C125.94 31.7937 125.933 31.7668 125.928 31.7443C125.95 31.73 125.976 31.7131 126.007 31.6935C126.103 31.6323 126.242 31.5477 126.412 31.4532C126.751 31.2638 127.211 31.0377 127.7 30.8878ZM126.613 25.4786C126.984 25.4216 127.291 25.4396 127.524 25.5587C127.749 25.6743 127.925 25.8976 128.013 26.3019C128.097 26.69 127.984 27.0594 127.752 27.4044C127.519 27.751 127.171 28.065 126.804 28.3302C126.438 28.5944 126.06 28.806 125.772 28.9523C125.628 29.0253 125.507 29.0822 125.422 29.1202C125.416 29.123 125.41 29.1245 125.404 29.1271L124.197 26.2579C124.374 26.1942 124.555 26.1287 124.734 26.0616C124.955 25.9787 125.176 25.8954 125.393 25.8185C125.828 25.6641 126.244 25.5354 126.613 25.4786ZM49.4702 22.8751C49.4884 22.8784 49.5142 22.8907 49.5453 22.9337C49.6125 23.0269 49.6678 23.2115 49.7026 23.4855C49.7709 24.0247 49.7513 24.8205 49.6918 25.6486C49.6325 26.4742 49.5344 27.3243 49.4516 27.9679C49.4103 28.2893 49.3724 28.5597 49.3452 28.7491C49.3354 28.817 49.3266 28.8752 49.3198 28.921L45.7162 28.297L49.3735 22.9005C49.4227 22.8744 49.4528 22.872 49.4702 22.8751Z" fill="black"/>
<path d="M16.5827 7.08224C16.5827 7.08224 16.8881 6.72576 17.4654 6.80004C18.0427 6.87432 17.9003 7.55003 17.6829 7.99029C17.4654 8.43055 11.9883 19.8225 8.0244 32.6723C4.06053 45.5221 4.3636 59.2527 4.3636 60H0.00289853C-0.0565381 58.6549 0.769596 45.7272 5.13368 32.6723C9.49779 19.6173 16.0043 7.53597 16.5827 7.08224Z" fill="black"/>
</g>
<path d="M181.951 0C183.402 0 184.895 0.211767 186.348 0.746951C187.098 1.02351 187.764 1.39632 188.348 1.83811C189.751 0.822185 191.353 0.502225 192.607 0.5022V3.39126C191.439 3.39129 190.001 3.80873 189.087 5.17999L189.064 5.21526L189.041 5.25123C188.873 5.52031 188.731 5.79979 188.611 6.08282L187.104 4.57552C186.636 4.10833 186.058 3.71871 185.349 3.45756C184.269 3.05989 183.123 2.88906 181.951 2.88906C181.314 2.88907 180.304 2.98436 179.073 3.12887C177.816 3.24389 176.474 3.39541 175.047 3.58311L175.038 3.58452C173.637 3.77372 172.305 3.98328 171.042 4.21227C169.97 4.38049 168.884 4.5921 168.085 4.92043C166.867 5.36898 166.302 6.38633 166.086 7.06959C165.875 7.73824 165.875 8.39402 165.901 8.84845V8.85409L165.902 8.85903C165.951 9.63637 166.089 10.5407 166.287 11.533C166.486 12.5258 166.741 13.6202 167.048 14.8121L167.059 14.8544L167.071 14.896L168.075 18.355L168.079 18.367L168.082 18.3797C168.416 19.4924 168.732 20.5496 169.028 21.5501L169.042 21.5967L169.057 21.6425C169.299 22.369 169.495 22.9968 169.647 23.5293L169.785 24.0308C170.383 26.3498 171.001 28.651 171.637 30.9332L171.645 30.96L171.653 30.9876C172.32 33.2108 173.005 35.4342 173.709 37.6572C173.81 38.0454 173.987 38.651 174.222 39.4227L174.239 39.477L174.257 39.5306C174.542 40.3493 174.829 41.2272 175.117 42.1643L175.132 42.2123L175.148 42.2602C175.483 43.2282 175.8 44.1409 176.098 44.9977L176.105 45.0167L176.112 45.0357C176.409 45.8523 176.619 46.4232 176.736 46.7363L176.766 46.8167L176.801 46.8957C177.039 47.4317 177.336 47.9353 177.688 48.4037L177.753 48.4912L177.781 48.5229L177.797 48.542L177.824 48.573C177.884 48.6406 177.944 48.7077 178.006 48.7733L178.195 48.9666L183.303 54.0739C183.635 54.401 184.004 54.698 184.412 54.9528L184.601 55.0706L184.805 55.1587C185.622 55.5087 186.48 55.7167 187.368 55.7759C187.926 55.8131 188.484 55.8509 189.042 55.888L189.138 55.8944H190.517C191.204 55.9304 191.948 55.9486 192.746 55.9494C193.605 55.9858 194.496 56.0043 195.417 56.0051C196.338 56.0414 197.214 56.0599 198.042 56.0609C198.864 56.096 199.602 56.115 200.251 56.1166C200.724 56.1425 201.13 56.1617 201.446 56.1695C201.551 56.1721 201.647 56.173 201.731 56.173C201.963 56.173 202.194 56.1611 202.423 56.1377L202.652 56.1102C202.725 56.1062 202.799 56.1004 202.873 56.0926C203.393 56.038 203.941 55.8868 204.469 55.5876C205.53 55.0243 206.295 54.129 206.714 53.0378L206.738 52.9771L206.759 52.9143C206.841 52.6682 206.974 52.2501 207.152 51.68C207.375 51.0485 207.597 50.3999 207.819 49.7347L207.833 49.691C208.002 49.1555 208.16 48.6511 208.308 48.1787C208.509 48.6726 208.804 49.153 209.229 49.5774L214.336 54.6847C214.489 54.8373 214.658 54.9824 214.845 55.1185C215.682 55.7268 216.624 56.0537 217.574 56.1885C218.393 56.3374 219.224 56.3845 220.061 56.3352C220.653 56.3004 221.153 56.2845 221.566 56.2844C224.52 56.2844 227.456 56.2469 230.374 56.1723L239.175 56.0616H241.836C242.871 56.0978 243.907 56.116 244.942 56.1166C245.223 56.126 245.501 56.133 245.777 56.1377C246.327 56.1472 246.866 56.1476 247.393 56.1377L248.175 56.1152L248.175 56.1145C249.269 56.0738 250.294 55.9714 251.237 55.7949L251.237 55.7956L251.664 55.711C252.669 55.4859 253.726 55.0595 254.582 54.2496L254.583 54.2503L254.66 54.1769L254.682 54.1557L254.681 54.155C254.74 54.0987 254.797 54.0414 254.852 53.9829C255.679 53.1052 256.123 51.9983 256.383 51.0008L256.402 50.9295L256.417 50.8569C256.43 50.7919 256.441 50.7257 256.454 50.6594L261.087 55.292C261.452 55.6569 261.865 55.9374 262.284 56.1469C262.8 56.4047 263.342 56.5676 263.893 56.6463C264.305 56.7051 264.721 56.7309 265.138 56.7309H265.417C265.596 56.7309 265.796 56.7289 266.016 56.7239C266.677 56.7088 267.52 56.6712 268.529 56.6153C269.892 56.5761 271.306 56.5012 272.769 56.3888C274.238 56.3152 275.601 56.2419 276.856 56.1681C277.989 56.1014 278.923 56.0278 279.549 55.9374C280.735 55.8796 281.899 55.6705 282.957 55.2102L283.167 55.1143L283.166 55.1136C285.181 54.2026 285.861 52.2154 286.067 50.6671C286.167 50.1263 286.246 49.3933 286.316 48.5589C286.391 47.6581 286.465 46.6344 286.539 45.49C286.652 44.2742 286.747 43.0235 286.823 41.7383V41.7334C286.897 40.44 286.971 39.2216 287.045 38.0783C287.153 36.9499 287.228 35.9246 287.268 35.0073C287.334 34.1752 287.376 33.483 287.383 32.9935C287.457 31.5397 287.513 30.0856 287.551 28.6317C287.577 28.1193 287.611 27.6121 287.651 27.1103C287.998 27.1135 288.353 27.1195 288.717 27.1279C288.695 27.3843 288.673 27.6395 288.65 27.8932C288.504 29.5355 288.359 30.9882 288.214 32.2529C288.13 32.8215 288.017 33.7819 287.876 35.082C287.725 36.4381 287.575 37.9045 287.425 39.4791L287.422 39.5101L287.42 39.5419C287.309 41.0582 287.198 42.4806 287.087 43.8085C286.977 45.134 286.91 46.1608 286.91 46.7822C286.91 47.1339 286.938 47.4997 287.006 47.8698L287.005 47.8705C287.007 47.8823 287.01 47.8946 287.012 47.9065C287.015 47.9248 287.018 47.9431 287.022 47.9615C287.116 48.4649 287.306 49.0083 287.652 49.5217C287.804 49.7624 287.984 49.9896 288.191 50.196L293.296 55.3019C293.292 55.2978 293.288 55.2933 293.284 55.2892L293.298 55.3033C293.644 55.649 294.065 55.9367 294.558 56.1342C294.899 56.2704 295.254 56.3779 295.623 56.4516L295.697 56.4664L295.772 56.4777C297.71 56.7603 299.747 56.8981 301.88 56.8981H310.359C311.09 56.8981 311.776 56.9315 312.415 56.9954L312.474 57.0018L312.533 57.0053C314.275 57.1077 316.017 57.1355 317.759 57.0885L318.506 57.0638L318.505 57.0631C320.438 56.9888 322.354 56.8958 324.252 56.7845C324.576 56.7797 324.98 56.7563 325.42 56.7225C325.938 56.6827 326.483 56.6242 327.052 56.5497C327.606 56.5105 328.14 56.4538 328.652 56.3783C329.077 56.3429 329.662 56.2747 330.205 56.0919C331.093 55.8251 332.051 55.2566 332.649 54.2002C332.877 53.8318 333.004 53.4802 333.075 53.2529C333.162 52.9758 333.223 52.6924 333.271 52.4248C333.394 51.9216 333.496 51.4057 333.578 50.878C333.595 50.7634 333.608 50.6488 333.624 50.5352L335.303 52.2147C335.91 52.8165 336.595 53.3264 337.349 53.7452L337.404 53.7763L337.46 53.8038C338.322 54.235 339.228 54.5681 340.171 54.8039L340.251 54.8237L340.331 54.8392C341.151 54.9954 341.963 55.088 342.762 55.1087C342.876 55.1116 342.99 55.1129 343.103 55.1129C343.841 55.1129 344.571 55.0398 345.287 54.8893L345.288 54.89L345.586 54.8244C346.181 54.6818 346.764 54.4697 347.315 54.1727L347.588 54.0168C347.7 53.9542 347.809 53.8891 347.917 53.8221C348.673 53.3527 349.345 52.7749 349.927 52.0962L349.959 52.0588L349.99 52.0207C350.6 51.2586 351.096 50.4275 351.465 49.5308C351.854 48.5864 352.071 47.595 352.125 46.5741C352.181 45.5157 352.044 44.4625 351.666 43.4551L351.655 43.4262L351.643 43.3965C351.299 42.5352 350.816 41.749 350.218 41.0414C350 40.7707 349.768 40.5142 349.523 40.2719L348.365 39.1137C348.388 39.0984 348.411 39.0842 348.433 39.0686C349.451 38.3566 350.093 37.3359 350.36 36.1802C350.503 35.7085 350.586 35.1858 350.642 34.7759C350.757 34.1542 350.853 33.5186 350.931 32.8694C351.041 32.2059 351.135 31.5877 351.211 31.0165L351.212 31.0045L351.214 30.9925C351.289 30.3937 351.338 30.0397 351.365 29.8823L351.377 29.8103L351.384 29.7384C351.605 27.8273 351.845 25.9346 352.102 24.0611C352.318 22.6607 352.564 21.2595 352.84 19.858L353.127 18.4565L353.126 18.4558C353.151 18.3489 353.178 18.2253 353.208 18.0891C353.237 17.9526 353.268 17.8031 353.3 17.6447C353.375 17.2701 353.448 16.8672 353.52 16.4386C353.616 16.0498 353.7 15.6789 353.773 15.3277C353.866 15.009 353.991 14.5286 354.019 14.0362C354.104 12.9834 353.786 11.9845 353.14 11.1782C353.02 11.0189 352.889 10.8684 352.749 10.7282L347.641 5.62083C347.168 5.14771 346.583 4.78911 345.91 4.58821L345.726 4.53743L345.516 4.49158C345.018 4.39881 344.476 4.39566 344.133 4.39566V1.5066C344.421 1.5066 345.062 1.50401 345.749 1.60252L346.046 1.65119L346.132 1.66883L346.342 1.71467L346.494 1.75206L346.678 1.80284L346.737 1.81977C347.811 2.14028 348.756 2.69978 349.531 3.42935L349.683 3.57747L354.79 8.68481C355.006 8.9001 355.207 9.12998 355.394 9.3711C355.398 9.37686 355.403 9.38296 355.408 9.38874C355.42 9.40522 355.434 9.42152 355.446 9.43811C356.496 10.7799 357.026 12.4516 356.902 14.1991L356.904 14.1998C356.903 14.2135 356.901 14.2271 356.9 14.2407C356.899 14.2504 356.9 14.26 356.899 14.2697L356.898 14.269C356.85 14.9902 356.688 15.6336 356.579 16.0175C356.511 16.3405 356.435 16.6747 356.351 17.0191C356.281 17.4312 356.21 17.8304 356.133 18.2111C356.098 18.3863 356.064 18.5501 356.033 18.6964C356.008 18.8103 355.982 18.9247 355.956 19.0342L355.957 19.0349L355.674 20.416L355.675 20.4167C355.408 21.7686 355.171 23.12 354.962 24.4702C354.709 26.3111 354.473 28.1703 354.257 30.0473L354.257 30.048L354.249 30.12C354.244 30.1752 354.235 30.2303 354.226 30.285L354.214 30.357C354.199 30.4482 354.157 30.747 354.082 31.3508C354.08 31.3664 354.076 31.3818 354.074 31.3974L354.075 31.3981C353.996 31.9847 353.901 32.6095 353.792 33.2686C353.712 33.9346 353.612 34.5887 353.495 35.2309C353.437 35.6495 353.337 36.2868 353.151 36.9272C352.971 37.6632 352.689 38.3724 352.304 39.0319C352.344 39.0794 352.384 39.1269 352.423 39.1751C352.43 39.183 352.436 39.1912 352.443 39.1991C352.452 39.2096 352.461 39.2202 352.469 39.2308C353.234 40.1456 353.864 41.1745 354.321 42.3124L354.333 42.3421L354.369 42.4338L354.379 42.4627C354.905 43.8754 355.084 45.3227 355.011 46.7257C354.94 48.0613 354.654 49.3744 354.137 50.6305C353.659 51.7908 353.02 52.8585 352.246 53.8256C352.241 53.8323 352.235 53.8388 352.23 53.8454L352.199 53.8835C352.187 53.8985 352.174 53.9138 352.162 53.9286L352.13 53.966C352.127 53.9695 352.124 53.9731 352.121 53.9766C351.348 54.8783 350.45 55.6497 349.442 56.276C349.306 56.3604 349.165 56.4431 349.02 56.525L349.021 56.5257L348.748 56.6816C348.727 56.6934 348.706 56.7048 348.685 56.7161C347.89 57.1442 347.07 57.4395 346.259 57.6338C346.242 57.6379 346.224 57.6419 346.207 57.6457L345.908 57.7113C345.892 57.7149 345.876 57.7166 345.86 57.7198C344.947 57.9099 344.025 58.0019 343.103 58.0019C342.968 58.0019 342.829 58.0007 342.687 57.997C341.716 57.9719 340.748 57.8599 339.791 57.6775L339.784 57.6761L339.703 57.6606C339.654 57.651 339.605 57.6402 339.556 57.6281L339.476 57.6084L339.471 57.607C338.327 57.3211 337.222 56.9156 336.168 56.3881L336.125 56.367C336.078 56.3436 336.031 56.3189 335.985 56.2929L335.93 56.2619C335.643 56.102 335.364 55.9294 335.09 55.7477C334.054 57.493 332.475 58.4054 331.126 58.8293L331.127 58.83C331.124 58.8312 331.12 58.8316 331.116 58.8328C331.089 58.8411 331.063 58.851 331.037 58.8589L331.036 58.8575C330.238 59.1139 329.464 59.2053 328.988 59.2476C328.45 59.3247 327.9 59.3833 327.34 59.4246C326.759 59.4994 326.191 59.5608 325.642 59.6031C325.208 59.6364 324.765 59.6624 324.372 59.6708C322.474 59.7817 320.559 59.875 318.626 59.9494C318.618 59.9497 318.609 59.9512 318.601 59.9515L317.854 59.9762C317.848 59.9764 317.843 59.9767 317.837 59.9769C316.013 60.0261 314.188 59.9967 312.364 59.8894H312.362L312.302 59.8859C312.256 59.8831 312.209 59.8789 312.163 59.8739L312.128 59.8697C311.592 59.8161 311.003 59.7872 310.359 59.7871H301.88C299.624 59.7871 297.446 59.6413 295.355 59.3364C295.351 59.3357 295.346 59.335 295.341 59.3343L295.266 59.323C295.223 59.3165 295.179 59.309 295.136 59.3005L295.061 59.2857L295.056 59.2842C294.645 59.202 294.247 59.0923 293.864 58.9584L293.485 58.8166C292.664 58.488 291.954 58.014 291.365 57.4504C291.327 57.4163 291.29 57.381 291.253 57.3446L288.032 54.1226C287.37 55.4903 286.269 56.8529 284.44 57.7057C284.416 57.7177 284.392 57.731 284.367 57.7424L284.157 57.8383C284.141 57.8454 284.125 57.8526 284.109 57.8595C282.691 58.4766 281.215 58.7336 279.839 58.8131C279.091 58.9139 278.1 58.989 277.026 59.0522C275.768 59.1262 274.406 59.1988 272.94 59.2723C271.475 59.3841 270.055 59.4595 268.679 59.5001C267.663 59.5565 266.787 59.5962 266.082 59.6122C265.84 59.6177 265.618 59.62 265.417 59.62H265.138C264.737 59.62 264.325 59.6012 263.906 59.5579L263.485 59.5064C262.642 59.3861 261.8 59.135 260.992 58.7313C260.332 58.4014 259.657 57.9468 259.045 57.3354L257.29 55.5812C257.184 55.7102 257.073 55.839 256.955 55.9642C256.902 56.0202 256.848 56.0725 256.796 56.1243C256.752 56.1719 256.706 56.2185 256.658 56.2633L256.636 56.2844L256.577 56.3402C256.537 56.3787 256.495 56.4159 256.453 56.4516C255.123 57.6625 253.58 58.2426 252.295 58.5302C252.272 58.5354 252.249 58.5405 252.226 58.5451L251.799 58.6297C251.781 58.6333 251.763 58.6356 251.744 58.6389C250.64 58.8443 249.476 58.957 248.282 59.0014L248.281 59.0007C248.274 59.001 248.266 59.0026 248.259 59.0028L247.476 59.0254C247.467 59.0257 247.457 59.0259 247.447 59.0261C246.882 59.0367 246.308 59.0361 245.727 59.0261C245.452 59.0214 245.173 59.0141 244.891 59.0049C243.855 59.0038 242.819 58.9863 241.782 58.9506H239.212L230.423 59.0607C227.489 59.1355 224.536 59.1735 221.566 59.1735C221.224 59.1735 220.783 59.1869 220.231 59.2194C219.19 59.2806 218.145 59.2231 217.107 59.0388C215.796 58.8444 214.41 58.3747 213.146 57.4553C212.84 57.2323 212.555 56.9892 212.294 56.7281L209.473 53.9068C209.458 53.9512 209.442 53.9957 209.425 54.0394L209.401 54.1L209.4 54.0993C208.748 55.7793 207.55 57.1996 205.893 58.1007L205.893 58.1014C204.976 58.6206 204.037 58.8756 203.175 58.9661C203.103 58.9737 203.031 58.9777 202.96 58.9831L202.767 59.0063C202.75 59.0084 202.733 59.0103 202.716 59.012C202.39 59.0452 202.061 59.062 201.731 59.0621C201.625 59.0621 201.506 59.061 201.376 59.0578C201.031 59.0494 200.613 59.0287 200.161 59.0042C199.504 59.0013 198.778 58.9822 197.991 58.9492C197.152 58.9476 196.272 58.9291 195.353 58.8935C194.44 58.8919 193.552 58.8733 192.689 58.8378C191.905 58.8362 191.159 58.8185 190.458 58.7835H189.138C189.074 58.7835 189.011 58.7813 188.948 58.7771L188.852 58.7708H188.85C188.57 58.7521 188.29 58.7331 188.012 58.7143C187.733 58.6956 187.454 58.6771 187.176 58.6586C185.959 58.5774 184.781 58.2915 183.667 57.8143L183.662 57.8115L183.457 57.7233C183.324 57.666 183.196 57.5989 183.073 57.5223L182.884 57.4045L182.88 57.4024C182.28 57.0273 181.747 56.5961 181.277 56.1335L176.153 51.0092C176.146 51.003 176.14 50.9972 176.134 50.9909L175.944 50.7976C175.93 50.7835 175.917 50.769 175.903 50.7546C175.816 50.6618 175.735 50.5714 175.663 50.4887L175.635 50.4584C175.622 50.4442 175.61 50.4298 175.598 50.4153L175.57 50.3836C175.526 50.3322 175.483 50.2793 175.442 50.2249L175.376 50.1374C174.897 49.4986 174.489 48.8072 174.161 48.0694L174.128 47.9946C174.101 47.9358 174.077 47.8759 174.055 47.8155L174.031 47.7506L173.397 46.0232C173.388 45.9988 173.379 45.9738 173.371 45.9492L173.37 45.947L172.419 43.2054C172.416 43.1989 172.414 43.1921 172.412 43.1856L172.395 43.1377C172.387 43.1136 172.38 43.0893 172.372 43.065L172.357 43.0171L172.356 43.0142C172.077 42.1066 171.801 41.2619 171.529 40.48C171.528 40.4754 171.526 40.4705 171.524 40.4659L171.506 40.4123C171.497 40.3873 171.489 40.362 171.481 40.3368L171.464 40.2825C171.462 40.2764 171.461 40.2702 171.459 40.2641C171.238 39.539 171.055 38.9178 170.937 38.4726C170.235 36.2547 169.551 34.0362 168.886 31.8177C168.881 31.8025 168.877 31.7872 168.872 31.7719L168.864 31.7444L168.862 31.7366C168.86 31.7275 168.857 31.7183 168.855 31.7091C168.214 29.4091 167.591 27.0898 166.988 24.7531L166.87 24.3235L166.629 23.5209C166.538 23.2302 166.435 22.9131 166.32 22.5687L166.305 22.5228C166.291 22.4809 166.278 22.4384 166.265 22.3958L166.258 22.3712L165.315 19.2098C165.312 19.2007 165.31 19.1915 165.307 19.1823L165.304 19.1703L165.301 19.1605L164.297 15.7015L164.295 15.6959L164.283 15.6542C164.273 15.6214 164.264 15.588 164.256 15.5548L164.245 15.5125L164.246 15.5118C163.931 14.2898 163.665 13.1497 163.455 12.0993C163.246 11.0587 163.083 10.0275 163.021 9.07909C163.02 9.05843 163.019 9.03772 163.018 9.01702L163.017 9.01773C162.982 8.42247 162.965 7.35911 163.331 6.19991L163.332 6.1992C163.703 5.02359 164.73 3.07697 167.086 2.20911C168.191 1.77228 169.503 1.53173 170.531 1.36906C171.833 1.1332 173.199 0.918614 174.629 0.725086L174.639 0.72297L174.671 0.718738C176.118 0.528355 177.487 0.373891 178.777 0.255332C179.975 0.115179 181.13 1.38994e-05 181.951 0ZM306.423 32.5005C306.423 32.7233 306.461 32.8725 306.535 32.947L306.567 33.0119C306.576 33.0262 306.586 33.0399 306.596 33.0528L306.627 33.0895L311.735 38.1968C311.826 38.2877 311.963 38.3329 312.144 38.3329C312.339 38.3329 312.514 38.3438 312.667 38.3647C312.718 38.3716 312.767 38.3794 312.814 38.3886H313.93L315.715 38.2772C316.189 38.2493 316.643 38.232 317.075 38.225L317.5 38.2215C318.058 38.1843 318.43 38.1658 318.616 38.1658L319.369 38.1799C319.704 38.1892 320.123 38.2029 320.625 38.2215L321.416 38.225C322.218 38.232 323.051 38.2493 323.916 38.2772C325.009 38.2772 326.023 38.2938 326.959 38.3252C326.927 38.5406 326.89 38.7566 326.842 38.972C326.759 39.4738 326.654 39.976 326.528 40.4779L326.263 41.4823C326.138 41.9842 326.033 42.4869 325.949 42.9889L325.879 43.3648C325.852 43.5228 325.819 43.7137 325.782 43.9368C325.745 44.3829 325.689 44.848 325.615 45.3313L325.555 45.691C325.492 46.0464 325.419 46.3919 325.336 46.7264C325.261 47.1722 325.168 47.4698 325.057 47.6187C324.908 47.9162 324.629 48.1208 324.22 48.2323C324.034 48.3067 323.699 48.363 323.216 48.4002C322.733 48.4746 322.212 48.5302 321.654 48.5674C321.096 48.6417 320.575 48.6973 320.091 48.7345C319.608 48.7717 319.254 48.7902 319.031 48.7902C317.135 48.9018 315.219 48.9952 313.286 49.0696C311.389 49.1439 309.492 49.1254 307.595 49.0138C306.851 48.9395 306.07 48.9017 305.252 48.9017V46.0126C306.127 46.0126 306.975 46.0523 307.794 46.1311C309.587 46.2356 311.38 46.2529 313.173 46.1826H313.175C315.089 46.109 316.985 46.0165 318.862 45.9061L319.031 45.9012C319.136 45.9012 319.396 45.8904 319.87 45.8539C320.293 45.8214 320.76 45.772 321.272 45.7037L321.462 45.6846C321.892 45.656 322.283 45.6143 322.637 45.564C322.662 45.4452 322.686 45.3241 322.708 45.2001L322.763 44.8735C322.826 44.458 322.872 44.0657 322.903 43.697L322.933 43.4621C322.97 43.2373 323.004 43.0348 323.034 42.8626C323.036 42.8541 323.038 42.8457 323.039 42.8372L323.109 42.4613C323.183 42.0241 323.27 41.5875 323.371 41.1522C322.689 41.1329 322.029 41.1196 321.391 41.1141L320.612 41.1105C320.581 41.1104 320.549 41.1096 320.518 41.1084C320.03 41.0903 319.625 41.0765 319.304 41.0675L318.599 41.0548C318.598 41.0548 318.597 41.0548 318.595 41.0548C318.581 41.0551 318.562 41.0561 318.538 41.0569C318.488 41.0586 318.423 41.0613 318.342 41.0654C318.177 41.0736 317.962 41.0862 317.693 41.1042C317.637 41.1079 317.58 41.1101 317.524 41.1105L317.099 41.1141L317.098 41.1134C316.717 41.1199 316.313 41.1362 315.885 41.1613L315.884 41.1606L314.11 41.2721C314.05 41.2758 313.99 41.2777 313.93 41.2777H312.814C312.634 41.2777 312.454 41.2603 312.278 41.2269C312.279 41.2271 312.28 41.2275 312.281 41.2276C312.285 41.2283 312.284 41.2278 312.278 41.2269C312.278 41.2269 312.267 41.2261 312.245 41.2248C312.222 41.2234 312.189 41.222 312.144 41.222C311.523 41.2218 310.52 41.0661 309.694 40.2416L304.585 35.1321C304.536 35.0831 304.488 35.0322 304.443 34.9798L304.411 34.9431C304.378 34.9051 304.346 34.8664 304.315 34.8267C304.247 34.7387 304.168 34.6281 304.089 34.4966C304.081 34.483 304.074 34.4687 304.066 34.455C303.829 34.0815 303.71 33.7245 303.649 33.4788C303.554 33.0983 303.534 32.7518 303.534 32.5005C303.534 32.3516 303.544 32.1808 303.558 32.0096L303.608 31.5123C303.653 31.0705 303.719 30.6322 303.805 30.1983C303.884 29.7615 303.966 29.3514 304.05 28.9724C304.101 28.7442 304.177 28.4412 304.298 28.138C304.358 27.9876 304.463 27.7517 304.631 27.4983C304.729 27.3507 304.929 27.0756 305.258 26.8091C305.287 26.7853 305.316 26.7623 305.344 26.74C305.348 26.737 305.352 26.7339 305.356 26.7308C305.926 26.2941 306.526 26.1523 306.903 26.1052C306.968 26.0971 307.031 26.0911 307.094 26.0869L305.077 24.0703C304.427 23.4197 304.204 22.6128 304.204 21.9564V21.3985C304.204 21.2619 304.213 21.1254 304.233 20.9901C304.249 20.877 304.26 20.7351 304.26 20.562C304.26 20.4346 304.269 20.3073 304.286 20.1811L304.397 19.3439L304.401 19.3163C304.415 19.2123 304.424 19.1434 304.428 19.1033C304.429 19.0937 304.429 19.0873 304.429 19.0843C304.429 19.0884 304.427 19.1185 304.427 19.1668C304.427 18.9293 304.457 18.6925 304.515 18.4622C304.639 17.9668 304.898 17.4166 305.37 16.9436C305.735 16.5783 306.147 16.3409 306.545 16.1938C307.006 16.0018 307.474 15.9105 307.923 15.8919C308.481 15.8436 309.162 15.8563 309.86 15.8912C310.62 15.9293 311.483 15.9854 312.446 16.0591C313.43 16.0976 314.448 16.154 315.5 16.2291C316.583 16.3038 317.611 16.3793 318.583 16.4541C319.54 16.5277 320.399 16.6019 321.156 16.677C321.898 16.7131 322.504 16.7513 322.921 16.7976C322.95 16.8009 322.98 16.8046 323.01 16.8089C323.295 16.8496 323.593 16.876 323.903 16.8865L324.113 16.89C324.267 16.8756 324.416 16.8508 324.562 16.8152C324.599 16.6774 324.622 16.5515 324.631 16.435L324.651 16.2481L324.855 14.817C323.696 14.863 322.54 14.9071 321.389 14.9447H321.38L318.806 15.0216C318.802 15.0217 318.797 15.0221 318.793 15.0223L316.854 15.0709H316.848C315.544 15.1007 314.235 15.1251 312.922 15.1443C312.265 15.1539 311.607 15.162 310.948 15.169C310.938 15.1691 310.927 15.169 310.917 15.169C310.818 15.169 310.716 15.1669 310.615 15.164C310.313 15.1554 309.95 15.1355 309.54 15.1062C309.038 15.0704 308.459 15.0342 307.8 14.9976L305.697 14.8861C305.174 14.86 304.661 14.8447 304.161 14.8382L303.659 14.8346C302.88 14.8348 302.193 14.8744 301.593 14.9433C301.592 14.944 301.593 14.9453 301.593 14.9461C301.421 15.8384 301.244 16.9683 301.062 18.3472C300.88 19.732 300.697 21.2887 300.513 23.018C300.329 24.7457 300.145 26.5105 299.961 28.3115L299.738 30.9473L299.738 30.9516C299.663 31.8197 299.588 32.6741 299.513 33.5127L299.513 33.5197L299.4 34.7477C299.287 35.9475 299.175 37.048 299.06 38.0473C299.056 38.0844 299.051 38.1217 299.046 38.1587C298.983 38.5686 298.876 39.4363 298.727 40.8192L298.726 40.8277C298.579 42.1494 298.432 43.5849 298.285 45.1338C298.263 45.4301 298.241 45.7231 298.219 46.0126H305.252V48.9017H296.772C296.205 48.9017 295.646 48.89 295.096 48.8692C295.144 48.2892 295.193 47.692 295.241 47.0777C295.297 46.3618 295.352 45.6225 295.408 44.8601C295.557 43.2982 295.706 41.8477 295.855 40.5089C296.003 39.1329 296.115 38.2028 296.19 37.7193C296.301 36.7431 296.412 35.6622 296.524 34.4769L296.636 33.2566C296.71 32.4199 296.785 31.5687 296.859 30.704L297.082 28.0682C297.268 26.2459 297.454 24.4605 297.64 22.7125C297.826 20.9646 298.012 19.3838 298.198 17.9706C298.384 16.5574 298.57 15.3671 298.756 14.4002C298.942 13.4334 299.128 12.8567 299.314 12.6707C299.611 12.3733 300.15 12.1871 300.931 12.1127C301.749 12.0012 302.661 11.9456 303.665 11.9456L304.198 11.9491C304.735 11.9561 305.283 11.9734 305.841 12.0013L307.96 12.1127C308.63 12.1499 309.225 12.187 309.746 12.2242C310.136 12.2521 310.453 12.2694 310.697 12.2764C310.779 12.2787 310.852 12.2799 310.917 12.2799C311.572 12.2729 312.227 12.2648 312.879 12.2552C314.185 12.2361 315.486 12.2121 316.781 12.1826L318.72 12.1339L321.294 12.057C323.005 12.0012 324.725 11.9361 326.454 11.8616C327.104 11.8337 327.755 11.8026 328.407 11.7721C328.352 12.0426 328.296 12.3134 328.237 12.5839C328.051 13.402 327.883 14.2396 327.734 15.0949L327.512 16.6565C327.474 17.1399 327.362 17.624 327.177 18.1074L327.058 18.3232C326.765 18.8113 326.358 19.1858 325.838 19.4461L325.642 19.5124C325.182 19.6589 324.708 19.7486 324.22 19.7812L323.805 19.7741C323.394 19.7602 322.992 19.7248 322.602 19.669C322.267 19.6318 321.709 19.5947 320.929 19.5576C320.185 19.4832 319.329 19.4091 318.362 19.3347C317.395 19.2603 316.372 19.1855 315.294 19.1111C314.253 19.0367 313.248 18.9811 312.281 18.9439C311.314 18.8696 310.459 18.814 309.715 18.7768C308.972 18.7396 308.432 18.7396 308.097 18.7768C307.911 18.7768 307.744 18.8139 307.595 18.8882C307.447 18.9254 307.354 19.0185 307.316 19.1668C307.316 19.2783 307.298 19.4647 307.261 19.7247L307.149 20.562C307.149 20.8593 307.13 21.1383 307.093 21.3985V21.9564C307.093 21.986 307.102 22.0099 307.12 22.0277L312.227 27.135C312.243 27.1506 312.265 27.1616 312.295 27.1682L312.368 27.1752C312.479 27.1474 312.57 27.13 312.64 27.123L312.702 27.1195H314.209L314.756 27.0955C315.133 27.0816 315.533 27.0719 315.955 27.0673L316.608 27.0638H319.509L320.252 27.0398C320.682 27.0275 321.101 27.0196 321.509 27.0144C321.486 27.1322 321.46 27.2501 321.43 27.3678C321.356 27.6652 321.282 27.9633 321.207 28.2607L321.152 28.442C321.096 28.6091 321.04 28.735 320.984 28.8186L320.892 28.9244C320.656 29.1605 320.278 29.3114 319.757 29.3766C319.199 29.4509 318.604 29.488 317.972 29.488L316.716 29.4845C315.461 29.4775 314.206 29.4602 312.951 29.4323C311.314 29.3579 309.659 29.2275 307.986 29.0415C307.911 29.0044 307.762 28.9858 307.539 28.9858C307.316 28.9487 307.167 28.9673 307.093 29.0415C307.019 29.0791 306.944 29.2654 306.87 29.5994C306.796 29.9341 306.721 30.3063 306.647 30.7153C306.573 31.0871 306.516 31.4593 306.479 31.8311C306.442 32.1654 306.423 32.3888 306.423 32.5005ZM249.745 12.2277C249.874 12.2299 250.005 12.2332 250.139 12.2376C250.069 13.0017 250.001 13.7498 249.931 14.4813C249.782 16.415 249.67 18.349 249.596 20.2827C249.522 22.2165 249.447 24.1509 249.373 26.0848C249.336 27.312 249.317 28.8003 249.317 30.5481L249.31 31.8417C249.296 33.1456 249.262 34.4814 249.206 35.848C249.169 37.6701 249.094 39.4181 248.982 41.0915C248.871 42.7277 248.703 44.0856 248.48 45.1641C248.257 46.0193 247.941 46.6331 247.532 47.005C247.123 47.4141 246.491 47.6935 245.635 47.8423C244.854 47.991 243.961 48.0837 242.957 48.1209C241.99 48.1581 240.968 48.1581 239.889 48.1209C238.848 48.1209 237.806 48.1023 236.765 48.0652H234.031L225.217 48.1766C222.316 48.251 219.396 48.288 216.458 48.288L216.082 48.2916C216.039 48.2923 215.995 48.2941 215.951 48.2951C215.967 47.1483 215.992 46.0044 216.025 44.8636L216.098 42.7406C216.182 40.6206 216.234 38.4897 216.255 36.3488L216.266 34.2046C216.266 31.8244 216.21 29.4625 216.098 27.1195C215.986 24.7765 215.931 22.4331 215.931 20.0901V18.8628C215.931 18.2307 215.949 17.5612 215.987 16.8547C216.024 16.1482 216.079 15.5159 216.154 14.9581C216.265 14.3633 216.396 14.0282 216.545 13.9537C216.917 13.8049 217.847 13.6559 219.334 13.5072C220.478 13.3956 221.789 13.2945 223.267 13.2039L224.801 13.1171C226.419 13.0056 228.131 12.9045 229.937 12.8138L231.775 12.7264C233.644 12.6427 235.46 12.5698 237.224 12.507L238.971 12.4478C241.277 12.3734 243.36 12.3171 245.219 12.2799C247.079 12.2427 248.455 12.2242 249.348 12.2242C249.478 12.2242 249.61 12.2254 249.745 12.2277ZM186.135 11.9145C186.21 12.7326 186.265 13.5326 186.303 14.3134C186.34 15.0569 186.377 15.5596 186.414 15.82L186.972 20.1712C187.195 21.6215 187.419 23.0722 187.642 24.5224L192.749 29.6298C192.917 28.821 193.073 28.0122 193.22 27.2034L193.363 26.3944C193.586 25.316 193.809 24.2374 194.032 23.159L195.204 17.6355C195.222 17.5612 195.246 17.4496 195.274 17.3012L195.371 16.7433C195.445 16.297 195.538 15.8315 195.65 15.3481C195.705 15.088 195.757 14.8371 195.803 14.5955L195.929 13.898L196.152 13.0057C196.263 12.5596 196.412 12.1873 196.598 11.8899C196.821 11.5553 197.194 11.3877 197.714 11.3877C198.886 11.4434 200.057 11.4781 201.229 11.492L202.4 11.4991C204 11.4619 205.58 11.4804 207.142 11.5548C207.477 11.5548 208.035 11.5734 208.816 11.6105L209.409 11.6423C209.69 11.6586 209.976 11.6772 210.266 11.698C210.254 11.739 210.246 11.7744 210.236 11.8031C208.86 16.6751 207.39 21.473 205.828 26.1962C204.266 30.9194 202.667 35.6803 201.031 40.4779C200.956 40.701 200.807 41.1289 200.584 41.7609C200.398 42.3558 200.194 43.0074 199.971 43.7139L199.636 44.7042C199.525 45.0295 199.413 45.3503 199.301 45.6663C199.115 46.2611 198.985 46.6704 198.91 46.8936C198.724 47.377 198.409 47.7306 197.962 47.9537C197.777 48.0652 197.553 48.1209 197.293 48.1209C197.07 48.158 196.847 48.1766 196.624 48.1766L196.079 48.1625C195.847 48.1532 195.563 48.1395 195.229 48.1209C194.596 48.1209 193.853 48.1023 192.998 48.0652C192.179 48.0652 191.305 48.0466 190.375 48.0094C189.446 48.0094 188.553 47.9909 187.698 47.9537C186.88 47.9537 186.135 47.9352 185.466 47.898H184.127L183.483 47.855C183.323 47.3919 183.156 46.9144 182.986 46.4224C182.689 45.4555 182.391 44.5439 182.094 43.6885C181.833 42.8332 181.666 42.2566 181.592 41.9591C180.885 39.7276 180.196 37.4961 179.527 35.2647C178.895 32.9961 178.281 30.7083 177.686 28.4025C177.5 27.6959 177.24 26.8404 176.905 25.8365C176.608 24.8324 176.291 23.7725 175.957 22.6568C175.622 21.504 175.288 20.3507 174.953 19.1979C174.655 18.045 174.413 17.0036 174.227 16.0739C174.041 15.1442 173.93 14.3815 173.893 13.7865C173.856 13.1547 173.967 12.801 174.227 12.7264C174.636 12.5405 175.436 12.3544 176.626 12.1685C177.853 11.9453 179.155 11.7408 180.531 11.5548C181.945 11.3689 183.265 11.2199 184.493 11.1083C185.125 11.034 185.655 10.9776 186.082 10.9405C186.103 11.2567 186.121 11.5814 186.135 11.9145ZM342.936 40.2853C343.331 40.2853 343.719 40.3292 344.1 40.4165C344.101 40.4169 344.103 40.4169 344.105 40.4172C344.139 40.7059 344.149 41.005 344.133 41.3151L344.113 41.5782C344.056 42.1882 343.914 42.7701 343.686 43.3232L343.584 43.5588C343.336 44.1037 343.017 44.6204 342.626 45.1084C342.18 45.6289 341.66 46.0567 341.065 46.3914C340.656 46.6517 340.172 46.8377 339.614 46.9493C339.093 47.0609 338.554 47.1165 337.996 47.1165C337.405 47.1165 336.787 47.064 336.144 46.9599C336.145 46.9369 336.146 46.9138 336.147 46.8908C336.156 46.7132 336.175 46.5335 336.204 46.3519L336.242 46.1431C336.339 45.6552 336.494 45.1813 336.705 44.7219L336.799 44.5258C337.027 44.0704 337.326 43.6143 337.696 43.1588L337.86 42.9635C338.306 42.443 338.789 41.9966 339.31 41.6247C339.868 41.2157 340.463 40.8992 341.095 40.6761C341.727 40.4158 342.341 40.2853 342.936 40.2853ZM288.127 15.3961C287.617 15.4241 287.113 15.4572 286.615 15.4955C286.591 15.4974 286.567 15.4985 286.544 15.4998L284.535 15.6042L284.526 15.6049C283.004 15.6788 281.482 15.741 279.961 15.7911C279.455 15.8078 278.948 15.8228 278.441 15.8369L278.432 15.8376L276.448 15.887C276.445 15.8871 276.441 15.8869 276.437 15.887C274.429 15.9294 272.41 15.9505 270.382 15.9505C270.378 15.9505 270.374 15.9505 270.37 15.9505L267.779 15.9399C267.776 15.9399 267.772 15.9399 267.768 15.9399C265.181 15.919 262.604 15.8657 260.038 15.7826C259.967 15.7829 259.893 15.7862 259.817 15.789C259.803 15.8413 259.791 15.8951 259.778 15.9498C259.722 16.3279 259.679 16.7033 259.65 17.0762C259.632 17.3207 259.612 17.5514 259.593 17.7674C260.22 17.5035 260.74 17.2858 261.151 17.1143L261.356 17.0381C262.386 16.6973 263.529 16.9625 264.305 17.7385L269.412 22.8459C270.075 23.5089 270.376 24.4523 270.217 25.3766C269.764 28.0175 269.256 30.6409 268.69 33.2453L268.31 35.1328C267.929 37.0527 267.558 38.9841 267.198 40.925L267.052 41.7609L267.052 41.7616C266.989 42.1298 266.913 42.5809 266.824 43.1144C266.719 43.8983 266.604 44.7177 266.482 45.5725C266.729 45.5555 266.978 45.5389 267.229 45.5196C267.255 45.5176 267.281 45.516 267.307 45.5147C268.043 45.4778 268.753 45.4402 269.436 45.4032L271.417 45.2918C272.695 45.2165 273.399 45.1494 273.67 45.1042L273.857 45.0788C273.92 45.0725 273.983 45.0682 274.046 45.0661C274.564 45.0482 274.944 44.9867 275.214 44.9151C275.222 44.8693 275.231 44.818 275.238 44.7607L275.274 44.542C275.3 44.4111 275.345 44.1038 275.399 43.5517L275.45 42.9719L275.56 41.5648C275.597 41.0625 275.633 40.5265 275.67 39.9573L275.676 39.8741C275.758 39.0087 275.828 38.12 275.889 37.2093L275.948 36.2804C276.022 34.9792 276.097 33.7492 276.172 32.5929L276.179 32.5005C276.287 31.385 276.357 30.4164 276.392 29.5903L276.398 29.4802C276.452 28.8085 276.482 28.3212 276.494 27.9997L276.501 27.6972L276.504 27.6104C276.578 26.185 276.632 24.759 276.669 23.3332L276.671 23.2627C276.749 21.7008 276.886 20.1721 277.083 18.6787L277.104 18.5447C277.349 17.1749 278.543 16.1664 279.947 16.1663C280.408 16.1663 281.085 16.1865 281.949 16.222C282.881 16.2227 283.861 16.2411 284.888 16.2771C285.884 16.2767 286.8 16.2598 287.638 16.2249L287.642 16.2242C287.796 16.218 287.935 16.2096 288.057 16.2009L288.116 15.5583C288.121 15.5035 288.123 15.4493 288.127 15.3961ZM183.399 14.1208C182.608 14.2058 181.778 14.3048 180.909 14.4192C179.575 14.5996 178.32 14.797 177.143 15.011C177.12 15.0152 177.096 15.0193 177.072 15.023C177.038 15.0283 177.005 15.0339 176.972 15.0392C176.998 15.1865 177.028 15.3428 177.06 15.5075C177.231 16.3603 177.456 17.3322 177.738 18.4269C177.902 18.9922 178.065 19.5576 178.229 20.1225C178.396 20.6991 178.564 21.2752 178.731 21.8513C179.058 22.9403 179.367 23.9772 179.659 24.9619C179.913 25.7265 180.132 26.425 180.311 27.0532L180.48 27.6675L180.483 27.6809C181.073 29.9649 181.681 32.2305 182.307 34.4769C182.968 36.6797 183.648 38.8829 184.346 41.0866C184.364 41.1432 184.38 41.201 184.395 41.2587C184.448 41.471 184.591 41.9667 184.847 42.809C185.09 43.511 185.331 44.2455 185.572 45.0111C185.59 45.0117 185.608 45.0122 185.626 45.0132C186.232 45.0468 186.922 45.0647 187.698 45.0647C187.74 45.0647 187.781 45.0657 187.823 45.0675C188.633 45.1027 189.484 45.1204 190.375 45.1204C190.414 45.1204 190.452 45.121 190.491 45.1225C191.387 45.1583 192.223 45.1761 192.998 45.1761C193.039 45.1761 193.081 45.1771 193.123 45.1789C193.95 45.2149 194.65 45.2318 195.229 45.2318C195.282 45.2318 195.335 45.2331 195.389 45.2361C195.705 45.2536 195.968 45.2656 196.179 45.2741L196.392 45.2798C196.437 45.1394 196.489 44.9814 196.544 44.8044L196.577 44.7049C196.685 44.3995 196.792 44.0912 196.899 43.7802L197.225 42.8139C197.443 42.1216 197.645 41.4828 197.827 40.8989L197.86 40.7995C198.085 40.1635 198.225 39.7595 198.29 39.5644L198.296 39.5454C199.93 34.7562 201.526 30.0036 203.085 25.2891C204.269 21.7099 205.399 18.0865 206.475 14.4199C205.155 14.3683 203.819 14.356 202.467 14.3875C202.439 14.3881 202.411 14.3883 202.383 14.3882L201.212 14.3811C201.206 14.3811 201.2 14.3812 201.194 14.3811C200.396 14.3716 199.598 14.3516 198.8 14.3233L198.755 14.5038L198.647 15.1076C198.645 15.1188 198.642 15.1303 198.64 15.1415C198.589 15.4074 198.533 15.6787 198.475 15.9533C198.471 15.9681 198.468 15.983 198.465 15.9977C198.366 16.427 198.285 16.834 198.221 17.218C198.219 17.2252 198.218 17.2327 198.217 17.2398L198.12 17.7978C198.118 17.8097 198.116 17.8218 198.113 17.8337C198.089 17.9652 198.059 18.1038 198.029 18.2344L198.03 18.2351L196.859 23.7586C196.639 24.8185 196.421 25.8713 196.202 26.9312L196.064 27.707C196.064 27.7107 196.064 27.7146 196.063 27.7183C195.912 28.5503 195.751 29.3827 195.578 30.2152C195.363 31.2552 194.595 32.0931 193.577 32.3975C192.56 32.7019 191.458 32.4234 190.707 31.6724L185.599 26.5651C185.165 26.1306 184.88 25.5691 184.787 24.9619C184.675 24.2371 184.563 23.5119 184.452 22.7866C184.34 22.0615 184.228 21.336 184.117 20.6106C184.113 20.5867 184.109 20.5627 184.106 20.5387L183.548 16.1875L183.549 16.1868C183.493 15.7745 183.452 15.1603 183.417 14.458V14.4509C183.412 14.3414 183.405 14.2313 183.399 14.1208ZM343.471 43.235C343.473 43.2355 343.475 43.236 343.477 43.2364H343.475C343.474 43.2361 343.472 43.2354 343.471 43.235ZM229.512 18.0517C228.397 18.0518 227.411 18.3491 226.556 18.9439L226.241 19.1605C225.521 19.6811 224.901 20.3159 224.38 21.0642L224.164 21.3752C223.676 22.1113 223.302 22.919 223.041 23.7974L222.936 24.1578C222.709 24.9915 222.595 25.7829 222.595 26.5312L222.604 26.8324C222.649 27.5239 222.851 28.1301 223.209 28.6508C223.359 28.8507 223.521 29.0388 223.697 29.2136L228.803 34.3203C229.149 34.6657 229.545 34.9621 229.99 35.209C230.659 35.5436 231.403 35.8039 232.221 35.9898C232.937 36.12 233.653 36.1936 234.369 36.2099L234.676 36.2134C234.806 36.2134 234.934 36.2098 235.06 36.2028C235.875 36.1573 236.593 35.9644 237.212 35.6244L237.353 35.5433C238.134 35.0971 238.785 34.5395 239.306 33.8703C239.761 33.2521 240.104 32.5766 240.331 31.8445L240.422 31.5271C240.649 30.7787 240.778 30.0582 240.806 29.3667L240.812 29.0726C240.812 28.366 240.645 27.6589 240.31 26.9523C240.013 26.2458 239.585 25.6135 239.027 25.0557L233.92 19.9483C233.362 19.3907 232.692 18.9443 231.912 18.6096C231.261 18.2843 230.567 18.1009 229.831 18.0601L229.512 18.0517ZM329.64 32.7361L329.665 32.8264L329.697 32.9145C329.782 33.1521 329.893 33.4297 330.039 33.7123L329.371 33.0443C329.43 32.7958 329.48 32.546 329.52 32.2945C329.56 32.447 329.599 32.5943 329.64 32.7361ZM338.919 12.2242C339.7 12.2242 340.538 12.2427 341.43 12.2799L342.113 12.2834C342.559 12.2881 342.987 12.2977 343.396 12.3116L343.996 12.3356H345.285L345.262 12.445C345.234 12.5748 345.211 12.6775 345.192 12.7518C344.783 14.6854 344.43 16.6195 344.133 18.5532C343.873 20.4498 343.63 22.3657 343.407 24.2996C343.37 24.5227 343.314 24.932 343.24 25.5268C343.166 26.0846 343.073 26.6985 342.961 27.3678C342.887 27.9998 342.794 28.6138 342.682 29.2087C342.608 29.7661 342.533 30.1384 342.459 30.3245C342.348 30.9195 342.05 31.3657 341.566 31.6633C341.306 31.812 341.027 31.9054 340.73 31.9426L340.507 31.9461C340.284 31.9531 340.06 31.9704 339.837 31.9983C339.576 32.0355 339.111 32.1097 338.442 32.2212C337.916 32.2831 337.351 32.3598 336.747 32.4476C336.746 32.4383 336.745 32.4287 336.744 32.4194C336.632 31.4525 336.539 30.5223 336.464 29.6298C336.427 28.7002 336.39 27.8632 336.353 27.1195C336.316 26.3761 336.279 25.8368 336.242 25.5021C336.242 25.3905 336.232 25.2134 336.213 24.9717L336.13 24.0513C336.093 23.2703 336.037 22.452 335.962 21.5967C335.888 20.7414 335.814 19.9416 335.739 19.1979C335.702 18.4169 335.665 17.8959 335.628 17.6355C335.628 17.4496 335.591 17.152 335.516 16.7433C335.442 16.297 335.367 15.8316 335.293 15.3481C335.256 14.8648 335.237 14.4184 335.237 14.0094C335.237 13.5636 335.274 13.2474 335.349 13.0614C335.46 12.7268 335.703 12.5036 336.074 12.3921C336.26 12.3178 336.465 12.2799 336.688 12.2799C336.855 12.2521 337.022 12.2347 337.19 12.2277L337.357 12.2242H338.919ZM338.361 16.2368C338.426 16.5965 338.493 17.0218 338.511 17.4253C338.556 17.8233 338.591 18.3689 338.621 18.9855C338.695 19.7224 338.768 20.5096 338.841 21.3463C338.916 22.2064 338.973 23.0368 339.012 23.8361L339.091 24.7115L339.094 24.7503C339.108 24.9273 339.118 25.1182 339.124 25.2976C339.167 25.7181 339.204 26.2903 339.239 26.9749C339.271 27.6319 339.303 28.3583 339.336 29.1523C339.369 29.1474 339.399 29.1423 339.428 29.1382L339.478 29.1318C339.578 29.1193 339.679 29.1081 339.779 29.0987C339.791 29.0216 339.804 28.9315 339.818 28.8271L339.842 28.6762C339.941 28.1479 340.025 27.5987 340.092 27.0299C340.097 26.9841 340.104 26.9385 340.112 26.8931C340.219 26.2499 340.307 25.6671 340.376 25.1452C340.44 24.6392 340.496 24.2265 340.541 23.9398C340.765 21.9949 341.009 20.068 341.271 18.1603C341.273 18.1448 341.275 18.1292 341.278 18.1137C341.429 17.1327 341.593 16.1514 341.771 15.1704L341.415 15.169C341.38 15.1688 341.345 15.1676 341.31 15.1661C340.452 15.1304 339.655 15.1132 338.919 15.1132H338.181C338.241 15.5001 338.301 15.875 338.361 16.2368ZM192.675 0.5022C192.714 0.5022 192.754 0.502718 192.793 0.504316L192.862 0.507137L192.882 0.508548C194.339 0.577918 195.795 0.612975 197.251 0.613643C198.918 0.576927 200.57 0.59661 202.207 0.672186C202.669 0.67689 203.279 0.698605 203.983 0.732139C204.846 0.773237 205.741 0.833816 206.664 0.914116C207.622 0.997396 208.542 1.10341 209.419 1.23504C210.075 1.33348 210.915 1.48502 211.746 1.75981L212.102 1.88536L212.179 1.91569L212.451 2.02784L212.519 2.05676L212.543 2.06734L212.578 2.08356L212.603 2.09485C212.61 2.09802 212.617 2.1008 212.624 2.10402C212.949 2.2554 213.278 2.43974 213.605 2.6563C213.62 2.65472 213.636 2.65223 213.652 2.65065L213.659 2.64995L213.665 2.64924C215.287 2.491 217.182 2.35687 219.335 2.24297C221.534 2.09169 223.892 1.95926 226.409 1.84657C228.923 1.734 231.346 1.64035 233.678 1.56514C236.001 1.49019 238.108 1.43363 239.996 1.39586C241.862 1.35854 243.287 1.33873 244.24 1.33873C244.86 1.33873 245.497 1.36085 246.148 1.39939C246.863 1.4078 247.579 1.45503 248.289 1.55104C248.31 1.55335 248.331 1.55391 248.352 1.55668C249.211 1.67127 250.119 1.86431 251.013 2.18936C251.183 2.25114 251.373 2.32735 251.579 2.4186C252.209 2.22142 252.853 2.1103 253.494 2.07792C253.972 2.0347 254.46 2.0081 254.954 2.00809V4.89715C254.543 4.89716 254.123 4.91992 253.697 4.95993C252.902 4.99097 252.118 5.20923 251.404 5.64481C250.925 5.27564 250.422 5.04825 250.025 4.90421C249.373 4.66708 248.677 4.51471 247.969 4.42034L247.969 4.42175C247.339 4.33319 246.689 4.28985 246.022 4.28562C245.402 4.24812 244.807 4.22779 244.24 4.22779C243.317 4.22779 241.917 4.24696 240.054 4.28421C238.18 4.32169 236.086 4.37812 233.771 4.45279C231.452 4.52759 229.041 4.62074 226.538 4.73281C224.032 4.84501 221.689 4.97623 219.51 5.12639C217.375 5.23906 215.519 5.37149 213.946 5.5249L213.939 5.52561C213.503 5.56926 213.1 5.61456 212.734 5.66103C212.329 5.24363 211.865 4.93829 211.402 4.72223L211.377 4.71094L211.353 4.70036L211.08 4.58821C210.429 4.34223 209.682 4.19606 208.99 4.09236C208.18 3.97082 207.32 3.87144 206.414 3.79259C205.524 3.71527 204.668 3.65682 203.846 3.61767C203.112 3.58274 202.523 3.56236 202.114 3.55983C200.516 3.48511 198.901 3.46577 197.27 3.5027C195.761 3.50233 194.253 3.46591 192.744 3.39408L192.675 3.39126H192.607V0.5022H192.675ZM326.563 0.725086V3.61414H326.486L326.41 3.61838C322.933 3.8033 319.494 3.95112 316.092 4.06203C312.702 4.17257 309.275 4.24643 305.81 4.28351C305.656 4.28349 305.35 4.27164 304.844 4.23555C304.305 4.19703 303.694 4.15838 303.014 4.12058C302.339 4.08306 301.626 4.04586 300.877 4.00843C300.088 3.96897 299.315 3.94918 298.558 3.94918C297.456 3.94919 296.417 4.01006 295.45 4.14103C294.658 4.22444 293.582 4.43598 292.664 5.09747C292.314 4.83775 291.917 4.63476 291.482 4.49582C290.749 4.22476 289.995 4.11638 289.264 4.11634C288.796 4.11635 288.327 4.13948 287.86 4.18617L287.845 4.18829L287.829 4.1897C287.586 4.2166 287.378 4.22779 287.2 4.22779V1.33873C287.258 1.33873 287.36 1.33492 287.51 1.31827L287.548 1.31475C287.556 1.31383 287.565 1.31206 287.573 1.31122C288.137 1.25492 288.701 1.22729 289.264 1.22729C290.277 1.22733 291.376 1.37752 292.478 1.7845C292.539 1.80502 292.6 1.82517 292.66 1.84728C293.583 1.48937 294.447 1.34768 295.062 1.27878C296.181 1.12722 297.352 1.06013 298.558 1.06012C299.365 1.06012 300.187 1.08115 301.022 1.1229C301.774 1.16051 302.492 1.19787 303.174 1.23575C303.867 1.27428 304.494 1.31379 305.05 1.35354L305.595 1.3874C305.704 1.39257 305.77 1.39413 305.801 1.39445C309.238 1.35752 312.637 1.284 315.998 1.17439C319.377 1.0642 322.795 0.917982 326.25 0.734255L326.326 0.729318L326.486 0.725086H326.563ZM255.002 2.00809C255.045 2.00809 255.089 2.00893 255.133 2.01091L255.157 2.01233C258.511 2.1215 261.883 2.17596 265.275 2.17596V5.06502C261.847 5.06502 258.438 5.0098 255.048 4.89927L255.002 4.89715H254.954V2.00809H255.002ZM287.2 1.33873V4.22779H287.089L286.978 4.23625C286.031 4.30907 285.067 4.38277 284.084 4.45561C283.079 4.49347 282.09 4.54936 281.117 4.62348C278.469 4.77053 275.821 4.88072 273.172 4.95428H273.171C270.558 5.02789 267.926 5.06502 265.275 5.06502V2.17596C267.899 2.17596 270.504 2.13947 273.09 2.06664H273.094C275.715 1.99381 278.336 1.88419 280.957 1.73865C281.926 1.66558 282.909 1.61056 283.905 1.5722C284.872 1.50048 285.822 1.42757 286.757 1.35566H286.758L286.869 1.34719C286.942 1.3416 287.015 1.33873 287.089 1.33873H287.2ZM326.563 0.725086C327.341 0.725086 328.081 0.822723 328.765 0.974775C329.29 1.09157 329.812 1.26698 330.32 1.50237C330.561 1.46166 330.8 1.43373 331.035 1.41702C331.428 1.36784 331.834 1.33874 332.25 1.33873V4.22779C331.937 4.22779 331.625 4.25073 331.316 4.29268C330.884 4.31645 330.44 4.39958 330.001 4.56212C329.968 4.5732 329.935 4.58409 329.902 4.59597C329.366 4.19574 328.763 3.93353 328.138 3.79471C327.628 3.68142 327.1 3.61414 326.563 3.61414V0.725086ZM340.451 1.45017C340.822 1.4502 341.223 1.47819 341.568 1.5066H344.133V4.39566H341.461C341.094 4.36399 340.74 4.33925 340.451 4.33923V1.45017ZM333.812 1.33873C334.649 1.33873 335.528 1.35904 336.444 1.39586C337.343 1.39732 338.196 1.4146 339.001 1.45017H340.451V4.33923H338.94C338.145 4.30289 337.289 4.28487 336.374 4.28421C335.472 4.24745 334.618 4.22779 333.812 4.22779V1.33873ZM333.812 1.33873V4.22779H332.25V1.33873H333.812ZM218.82 20.0901C218.82 22.3873 218.875 24.6849 218.984 26.9819C219.098 29.371 219.155 31.7789 219.155 34.2046C219.155 34.2093 219.155 34.214 219.155 34.2187L219.144 36.3629C219.144 36.3676 219.144 36.3724 219.144 36.377C219.123 38.5412 219.069 40.6954 218.985 42.8386L218.986 42.8393L218.913 44.9624C218.909 45.1046 218.906 45.2468 218.902 45.3891C220.992 45.3743 223.072 45.3413 225.143 45.2883C225.155 45.2879 225.168 45.2877 225.18 45.2875L233.995 45.1761H236.765C236.799 45.1761 236.834 45.177 236.868 45.1782C237.875 45.2142 238.882 45.2318 239.889 45.2318C239.922 45.2318 239.955 45.2321 239.989 45.2332C241.005 45.2683 241.957 45.2681 242.847 45.2339H242.851C243.746 45.2008 244.49 45.1194 245.095 45.004L245.14 44.9962C245.331 44.9631 245.455 44.9238 245.528 44.8975C245.564 44.8201 245.613 44.6925 245.666 44.5004C245.846 43.605 245.996 42.4148 246.1 40.8996C246.208 39.2737 246.281 37.5697 246.317 35.7888C246.318 35.7693 246.319 35.7497 246.32 35.7302C246.374 34.3915 246.408 33.0845 246.421 31.8107L246.428 30.5481L246.432 29.2701C246.439 28.0385 246.457 26.9466 246.485 25.9973L246.486 25.974C246.56 24.0565 246.635 22.09 246.709 20.1719C246.774 18.494 246.867 16.816 246.987 15.1386C246.474 15.1469 245.904 15.1557 245.277 15.1683C243.433 15.2051 241.364 15.2607 239.069 15.3347L237.322 15.3947L237.322 15.394C235.656 15.4532 233.943 15.5226 232.183 15.6006C232.496 15.7074 232.804 15.8329 233.105 15.9787C234.175 16.4449 235.14 17.0828 235.962 17.9057L241.07 23.013C241.854 23.7974 242.477 24.7022 242.921 25.7159L243.012 25.9134C243.454 26.908 243.701 27.9681 243.701 29.0726C243.701 29.0933 243.701 29.1139 243.701 29.1346L243.694 29.4288C243.694 29.4475 243.694 29.4665 243.693 29.4852C243.654 30.4339 243.481 31.3805 243.2 32.3171L243.11 32.6352C243.104 32.6579 243.097 32.6804 243.09 32.7029C242.766 33.7437 242.277 34.7083 241.632 35.5842C241.617 35.6044 241.602 35.6244 241.586 35.6442C240.821 36.6275 239.878 37.4263 238.793 38.0473L238.653 38.1291C238.636 38.1386 238.619 38.1481 238.603 38.1573C237.55 38.735 236.4 39.0218 235.22 39.0876C235.04 39.0977 234.859 39.1024 234.676 39.1024C234.665 39.1024 234.654 39.1026 234.643 39.1024L234.336 39.0989C234.325 39.0988 234.314 39.0985 234.303 39.0982C233.433 39.0784 232.565 38.9889 231.704 38.8323C231.662 38.8248 231.621 38.8162 231.58 38.8069C230.564 38.5758 229.598 38.243 228.698 37.7933C228.661 37.7746 228.623 37.7551 228.587 37.7348C227.918 37.3634 227.306 36.9071 226.763 36.365L221.654 31.2563C221.38 30.983 221.127 30.6914 220.897 30.3845C220.873 30.3527 220.851 30.3199 220.828 30.2872C220.148 29.2978 219.796 28.18 219.721 27.0186C219.719 26.986 219.717 26.9533 219.716 26.9206L219.707 26.6194C219.706 26.5901 219.706 26.5605 219.706 26.5312C219.706 25.4904 219.864 24.4417 220.15 23.3967L220.163 23.3488L220.268 22.9883L220.272 22.9763C220.61 21.8343 221.103 20.7637 221.756 19.779L221.793 19.7247L222.009 19.4137C222.71 18.4063 223.558 17.5356 224.548 16.8195L224.605 16.7793L224.906 16.5719C225.261 16.3255 225.628 16.1126 226.007 15.9321C225.667 15.9541 225.331 15.9763 225 15.9991C224.988 16 224.976 16.0006 224.964 16.0013L223.443 16.0866L223.444 16.0873C221.993 16.1763 220.718 16.2749 219.618 16.3821C219.358 16.4082 219.121 16.4355 218.906 16.4604C218.893 16.6343 218.882 16.8163 218.872 17.0064C218.837 17.6679 218.82 18.2867 218.82 18.8628V20.0901ZM290.881 17.0473C290.881 17.4189 290.844 17.6793 290.77 17.8281C290.547 18.3487 290.193 18.6837 289.71 18.8325C289.338 18.9812 288.687 19.0739 287.757 19.1111C286.865 19.1483 285.898 19.1668 284.856 19.1668C283.815 19.1296 282.829 19.1111 281.9 19.1111C281.007 19.0739 280.356 19.0554 279.947 19.0554C279.761 20.4686 279.631 21.9197 279.556 23.4073C279.519 24.8576 279.464 26.3082 279.389 27.7585L279.382 28.09C279.368 28.4735 279.334 29.014 279.278 29.7109C279.241 30.6034 279.166 31.6264 279.054 32.7791C278.98 33.932 278.906 35.1601 278.831 36.4617L278.772 37.4026C278.709 38.337 278.636 39.251 278.553 40.1435C278.478 41.2963 278.404 42.3193 278.329 43.2117L278.273 43.8324C278.218 44.4039 278.162 44.8295 278.106 45.1084C277.958 46.3356 277.53 47.0982 276.823 47.3958C276.117 47.7305 275.224 47.9165 274.145 47.9537C273.699 48.0281 272.843 48.1022 271.579 48.1766L269.599 48.288C268.911 48.3252 268.195 48.363 267.451 48.4002C266 48.5118 264.606 48.5859 263.267 48.6231C263.22 48.6257 263.173 48.6276 263.126 48.6301C263.151 48.454 263.174 48.2757 263.2 48.0962L263.465 46.2546C263.651 44.9902 263.818 43.7997 263.966 42.6841C264.059 42.1263 264.139 41.6568 264.204 41.2756L264.357 40.3974C264.72 38.4449 265.093 36.5023 265.477 34.5707L265.864 32.643C266.422 30.0769 266.923 27.4917 267.37 24.8885L262.262 19.7812C261.816 19.9671 261.239 20.2088 260.533 20.5063C259.826 20.7665 259.064 21.0268 258.245 21.2871C257.652 21.4848 257.048 21.6612 256.433 21.8161C256.434 21.7987 256.435 21.7812 256.436 21.7639C256.473 20.9831 256.51 20.2393 256.547 19.5329C256.621 18.8263 256.658 18.3423 256.658 18.082C256.696 17.7473 256.733 17.3381 256.77 16.8547C256.807 16.3714 256.863 15.8879 256.938 15.4046C257.049 14.9211 257.179 14.4742 257.328 14.0651C257.514 13.6564 257.737 13.3774 257.997 13.2286C258.295 13.0427 258.63 12.9493 259.002 12.9493C259.373 12.9121 259.727 12.8936 260.062 12.8936C262.628 12.9772 265.204 13.0299 267.791 13.0508L270.382 13.0614C272.39 13.0614 274.389 13.0406 276.376 12.9986L278.36 12.9493C278.862 12.9353 279.364 12.92 279.866 12.9034C281.372 12.8538 282.879 12.7926 284.385 12.7193L286.393 12.6149C287.36 12.5406 288.346 12.485 289.35 12.4478C289.974 12.4015 290.592 12.3538 291.202 12.3074C291.188 12.4191 291.175 12.5301 291.161 12.6403C291.124 13.1975 291.086 13.588 291.049 13.8112V14.6484C291.049 15.0202 291.03 15.411 290.993 15.82L290.881 17.0473Z" fill="black"/>
<path d="M196.624 48.1771C196.363 48.1771 195.898 48.1585 195.229 48.1213C194.597 48.1213 193.853 48.1027 192.997 48.0655C192.179 48.0655 191.305 48.0469 190.375 48.0097C189.445 48.0097 188.553 47.9911 187.697 47.9539C186.879 47.9539 186.135 47.9353 185.466 47.8982C184.834 47.8982 184.387 47.8982 184.127 47.8982C183.569 47.861 183.011 47.8238 182.453 47.7866C181.896 47.7494 181.356 47.6192 180.836 47.3961C180.538 47.2101 180.259 46.9684 179.999 46.6708C179.776 46.3733 179.59 46.0572 179.441 45.7224C179.329 45.4249 179.125 44.867 178.827 44.0488C178.53 43.1934 178.214 42.2822 177.879 41.3152C177.581 40.3482 177.284 39.437 176.986 38.5816C176.726 37.7262 176.559 37.1497 176.484 36.8522C175.778 34.6207 175.089 32.3892 174.42 30.1577C173.788 27.889 173.174 25.6017 172.579 23.2958C172.393 22.5891 172.133 21.7337 171.798 20.7295C171.5 19.7254 171.184 18.6654 170.85 17.5496C170.515 16.3967 170.18 15.2438 169.845 14.0908C169.548 12.9379 169.306 11.8965 169.12 10.9667C168.934 10.0369 168.823 9.27447 168.785 8.6794C168.748 8.04714 168.86 7.69382 169.12 7.61944C169.529 7.43348 170.329 7.24752 171.519 7.06156C172.746 6.83841 174.048 6.63385 175.424 6.4479C176.837 6.26194 178.158 6.11317 179.385 6.00159C180.65 5.85283 181.505 5.77844 181.951 5.77844C182.844 5.77844 183.644 5.90861 184.35 6.16896C185.057 6.4293 185.54 7.04296 185.801 8.00995C185.875 8.27029 185.931 8.77238 185.968 9.51622C186.042 10.2601 186.098 11.0597 186.135 11.9151C186.21 12.7333 186.266 13.5329 186.303 14.314C186.34 15.0578 186.377 15.5599 186.414 15.8202C186.6 17.2707 186.786 18.7212 186.972 20.1717C187.195 21.6221 187.419 23.0726 187.642 24.5231C187.865 23.4445 188.069 22.366 188.255 21.2874C188.478 20.2089 188.702 19.1303 188.925 18.0517L190.096 12.5288C190.134 12.38 190.189 12.0825 190.264 11.6362C190.338 11.1898 190.431 10.725 190.543 10.2415C190.654 9.72077 190.747 9.23728 190.822 8.79098C190.933 8.34468 191.008 8.04714 191.045 7.89837C191.156 7.45207 191.305 7.08016 191.491 6.78262C191.714 6.44789 192.086 6.28053 192.607 6.28053C194.169 6.35491 195.731 6.39211 197.293 6.39211C198.892 6.35491 200.473 6.37351 202.035 6.4479C202.37 6.4479 202.928 6.46649 203.709 6.50368C204.49 6.54087 205.308 6.59666 206.163 6.67104C207.019 6.74543 207.818 6.83841 208.562 6.94999C209.306 7.06156 209.845 7.19173 210.18 7.3405C210.738 7.60084 211.017 8.02855 211.017 8.62361C211.017 8.73519 210.98 8.93974 210.905 9.23728C210.831 9.53481 210.738 9.85094 210.626 10.1857C210.552 10.5204 210.477 10.8551 210.403 11.1898C210.329 11.4874 210.273 11.6919 210.236 11.8035C208.86 16.6756 207.391 21.4734 205.828 26.1967C204.266 30.9201 202.667 35.6806 201.031 40.4784C200.956 40.7015 200.808 41.1292 200.584 41.7615C200.398 42.3566 200.194 43.0074 199.971 43.7141C199.748 44.3835 199.524 45.0344 199.301 45.6666C199.115 46.2617 198.985 46.6708 198.911 46.894C198.725 47.3775 198.409 47.7308 197.962 47.9539C197.776 48.0655 197.553 48.1213 197.293 48.1213C197.07 48.1585 196.847 48.1771 196.624 48.1771Z" fill="black"/>
<path d="M250.266 9.68358C250.266 10.4646 250.228 11.2642 250.154 12.0825C250.08 12.9007 250.005 13.7003 249.931 14.4813C249.782 16.4153 249.67 18.3493 249.596 20.2832C249.522 22.2172 249.447 24.1512 249.373 26.0852C249.336 27.3125 249.317 28.8002 249.317 30.5482C249.317 32.259 249.28 34.0256 249.206 35.848C249.168 37.6704 249.094 39.4184 248.982 41.0921C248.871 42.7285 248.703 44.086 248.48 45.1646C248.257 46.02 247.941 46.6336 247.532 47.0055C247.123 47.4147 246.491 47.6936 245.635 47.8424C244.854 47.9911 243.962 48.0841 242.957 48.1213C241.99 48.1585 240.968 48.1585 239.889 48.1213C238.848 48.1213 237.806 48.1027 236.765 48.0655C235.761 48.0655 234.85 48.0655 234.031 48.0655C231.093 48.1027 228.155 48.1399 225.217 48.1771C222.316 48.2515 219.396 48.2887 216.458 48.2887C215.975 48.2887 215.417 48.3073 214.785 48.3445C214.152 48.3816 213.539 48.3445 212.944 48.2329C212.349 48.1585 211.846 47.9725 211.437 47.675C211.028 47.3775 210.824 46.8754 210.824 46.1687C210.824 43.305 210.879 40.4598 210.991 37.6332C211.103 34.8066 211.158 31.9615 211.158 29.0977C211.158 26.7174 211.103 24.3557 210.991 22.0127C210.879 19.6696 210.824 17.3265 210.824 14.9834C210.824 14.7975 210.824 14.3883 210.824 13.7561C210.824 13.1238 210.842 12.4544 210.879 11.7477C210.917 11.0411 210.972 10.4088 211.047 9.85094C211.158 9.25587 211.289 8.92115 211.437 8.84677C211.809 8.698 212.739 8.54923 214.227 8.40046C215.752 8.2517 217.574 8.12153 219.694 8.00995C221.851 7.86118 224.175 7.73101 226.667 7.61944C229.159 7.50786 231.558 7.41488 233.864 7.3405C236.17 7.26611 238.253 7.21033 240.112 7.17313C241.972 7.13594 243.348 7.11735 244.24 7.11735C244.761 7.11735 245.319 7.13594 245.914 7.17313C246.509 7.17313 247.067 7.21033 247.588 7.28471C248.146 7.35909 248.629 7.47067 249.038 7.61944C249.447 7.7682 249.726 7.95416 249.875 8.17731C250.061 8.40046 250.173 8.64221 250.21 8.90255C250.247 9.1257 250.266 9.38605 250.266 9.68358ZM222.595 26.5315C222.595 27.3497 222.799 28.0563 223.209 28.6514C223.655 29.2465 224.213 29.73 224.882 30.1019C225.552 30.4366 226.295 30.6969 227.114 30.8829C227.932 31.0317 228.75 31.1061 229.568 31.1061C230.61 31.1061 231.502 30.8829 232.246 30.4366C233.027 29.9903 233.678 29.4324 234.199 28.763C234.719 28.0563 235.091 27.2753 235.314 26.4199C235.575 25.5645 235.705 24.7463 235.705 23.9652C235.705 23.2586 235.538 22.5519 235.203 21.8453C234.905 21.1387 234.478 20.5064 233.92 19.9485C233.362 19.3906 232.692 18.9443 231.911 18.6096C231.168 18.2377 230.368 18.0517 229.513 18.0517C228.397 18.0517 227.411 18.3493 226.556 18.9443C225.7 19.5022 224.975 20.2089 224.38 21.0643C223.785 21.8825 223.339 22.7937 223.041 23.7979C222.744 24.7649 222.595 25.6761 222.595 26.5315Z" fill="black"/>
<path d="M274.145 47.9539C273.699 48.0283 272.844 48.1027 271.579 48.1771C270.315 48.2515 268.938 48.3259 267.451 48.4002C266 48.5118 264.606 48.5862 263.267 48.6234C261.928 48.6978 260.942 48.735 260.31 48.735H260.031C259.733 48.735 259.455 48.7164 259.194 48.6792C258.934 48.642 258.692 48.5676 258.469 48.456C257.874 48.1585 257.595 47.675 257.632 47.0055C257.632 46.5964 257.707 45.834 257.855 44.7182C258.004 43.6025 258.171 42.4124 258.357 41.1478C258.543 39.8833 258.711 38.6932 258.859 37.5774C259.045 36.4617 259.176 35.6992 259.25 35.2901C259.733 32.6867 260.236 30.1019 260.756 27.5356C261.314 24.9694 261.816 22.3846 262.262 19.7812C261.816 19.9671 261.24 20.2089 260.533 20.5064C259.826 20.7667 259.064 21.0271 258.246 21.2874C257.465 21.5478 256.665 21.7709 255.847 21.9569C255.066 22.1428 254.341 22.2358 253.671 22.2358C253.002 22.2358 252.444 22.1056 251.998 21.8453C251.588 21.5478 251.328 21.0271 251.217 20.2832C251.179 20.0229 251.179 19.558 251.217 18.8886C251.254 18.1819 251.291 17.4381 251.328 16.657C251.365 15.876 251.403 15.1322 251.44 14.4255C251.514 13.7189 251.551 13.2354 251.551 12.9751C251.588 12.6403 251.626 12.2312 251.663 11.7477C251.7 11.2642 251.756 10.7807 251.83 10.2972C251.942 9.81375 252.072 9.36745 252.221 8.95834C252.407 8.54923 252.63 8.27029 252.89 8.12153C253.188 7.93557 253.522 7.84259 253.894 7.84259C254.266 7.8054 254.62 7.7868 254.954 7.7868C258.376 7.89837 261.816 7.95416 265.275 7.95416C267.953 7.95416 270.612 7.91697 273.253 7.84259C275.93 7.7682 278.608 7.65663 281.286 7.50786C282.253 7.43348 283.239 7.37769 284.243 7.3405C285.247 7.26611 286.233 7.19173 287.2 7.11735C287.497 7.11735 287.813 7.09875 288.148 7.06156C288.52 7.02437 288.892 7.00577 289.264 7.00577C289.747 7.00577 290.175 7.08016 290.547 7.22892C290.956 7.3405 291.216 7.60084 291.328 8.00995C291.402 8.2331 291.421 8.62361 291.384 9.18149C291.384 9.70218 291.365 10.2786 291.328 10.9109C291.291 11.506 291.235 12.0825 291.161 12.6403C291.123 13.1982 291.086 13.5887 291.049 13.8119C291.049 13.9606 291.049 14.2396 291.049 14.6487C291.049 15.0206 291.03 15.4111 290.993 15.8202C290.956 16.2293 290.919 16.6384 290.882 17.0476C290.882 17.4195 290.844 17.6798 290.77 17.8286C290.547 18.3493 290.194 18.684 289.71 18.8328C289.338 18.9815 288.687 19.0745 287.757 19.1117C286.865 19.1489 285.898 19.1675 284.857 19.1675C283.815 19.1303 282.83 19.1117 281.9 19.1117C281.007 19.0745 280.356 19.0559 279.947 19.0559C279.761 20.4692 279.631 21.9197 279.557 23.4074C279.519 24.8578 279.464 26.3083 279.389 27.7588C279.389 28.1307 279.352 28.7816 279.278 29.7114C279.241 30.604 279.166 31.6267 279.055 32.7797C278.98 33.9326 278.906 35.16 278.831 36.4617C278.757 37.7262 278.664 38.9535 278.553 40.1437C278.478 41.2966 278.404 42.3194 278.329 43.212C278.255 44.1046 278.181 44.7368 278.106 45.1088C277.957 46.3361 277.53 47.0985 276.823 47.3961C276.116 47.7308 275.224 47.9167 274.145 47.9539Z" fill="black"/>
<path d="M319.032 48.7908C317.135 48.9023 315.22 48.9953 313.286 49.0697C311.389 49.1441 309.492 49.1255 307.595 49.0139C306.851 48.9395 306.07 48.9023 305.252 48.9023C304.471 48.9023 303.671 48.9023 302.853 48.9023C300.845 48.9023 298.818 48.9023 296.772 48.9023C294.764 48.9023 292.867 48.7722 291.082 48.5118C290.896 48.4746 290.71 48.4188 290.524 48.3445C290.338 48.2701 290.189 48.1399 290.078 47.9539C289.966 47.8052 289.892 47.6192 289.855 47.3961C289.818 47.2101 289.799 47.0055 289.799 46.7824C289.799 46.2989 289.855 45.3877 289.966 44.0488C290.078 42.7099 290.189 41.278 290.301 39.7531C290.45 38.1911 290.599 36.7406 290.747 35.4017C290.896 34.0256 291.008 33.0958 291.082 32.6123C291.231 31.3106 291.38 29.8229 291.528 28.1493C291.677 26.4757 291.826 24.7463 291.975 22.9611C292.161 21.1387 292.347 19.3534 292.533 17.6054C292.719 15.8574 292.904 14.2768 293.09 12.8635C293.276 11.4502 293.462 10.2601 293.648 9.29307C293.834 8.32608 294.02 7.74961 294.206 7.56365C294.504 7.26611 295.043 7.08016 295.824 7.00577C296.642 6.8942 297.553 6.83841 298.558 6.83841C299.264 6.83841 299.99 6.857 300.733 6.8942C301.477 6.93139 302.184 6.96858 302.853 7.00577C303.523 7.04296 304.118 7.08015 304.638 7.11735C305.159 7.15454 305.55 7.17313 305.81 7.17313C309.306 7.13594 312.765 7.06156 316.187 6.94999C319.608 6.83841 323.067 6.68964 326.563 6.50368C326.861 6.50368 327.177 6.54087 327.511 6.61526C327.846 6.68964 328.125 6.83841 328.348 7.06156C328.683 7.43348 328.85 7.89837 328.85 8.45625C328.85 8.97694 328.813 9.49762 328.739 10.0183C328.59 10.8737 328.423 11.7291 328.237 12.5845C328.051 13.4028 327.883 14.2396 327.735 15.095C327.66 15.6157 327.586 16.1364 327.511 16.657C327.474 17.1405 327.363 17.624 327.177 18.1075C326.879 18.7026 326.433 19.1489 325.838 19.4464C325.317 19.6324 324.778 19.744 324.22 19.7812C323.662 19.7812 323.123 19.744 322.602 19.6696C322.267 19.6324 321.71 19.5952 320.928 19.558C320.185 19.4836 319.329 19.4092 318.362 19.3349C317.395 19.2605 316.372 19.1861 315.294 19.1117C314.253 19.0373 313.248 18.9815 312.281 18.9443C311.314 18.87 310.459 18.8142 309.715 18.777C308.971 18.7398 308.432 18.7398 308.097 18.777C307.911 18.777 307.744 18.8142 307.595 18.8886C307.446 18.9257 307.353 19.0187 307.316 19.1675C307.316 19.2791 307.298 19.465 307.261 19.7254C307.223 19.9857 307.186 20.2646 307.149 20.5622C307.149 20.8597 307.13 21.1387 307.093 21.399C307.093 21.6593 307.093 21.8453 307.093 21.9569C307.093 22.0313 307.149 22.0684 307.261 22.0684C307.409 22.0313 307.521 22.0127 307.595 22.0127C307.893 22.0127 308.395 22.0127 309.102 22.0127C309.808 21.9755 310.608 21.9569 311.5 21.9569C312.43 21.9569 313.397 21.9569 314.401 21.9569C315.406 21.9197 316.354 21.9011 317.247 21.9011C318.176 21.9011 318.995 21.9197 319.701 21.9569C320.408 21.9569 320.91 21.9569 321.207 21.9569C321.319 21.9941 321.449 22.0127 321.598 22.0127C321.747 22.0127 321.877 22.0499 321.988 22.1242C322.286 22.2358 322.453 22.4404 322.491 22.7379C322.565 23.0354 322.546 23.333 322.435 23.6305C322.286 24.0024 322.137 24.3743 321.988 24.7463C321.877 25.081 321.784 25.4529 321.71 25.862C321.672 25.9736 321.635 26.1781 321.598 26.4757C321.561 26.7732 321.505 27.0707 321.431 27.3683C321.356 27.6658 321.282 27.9633 321.207 28.2609C321.133 28.5212 321.059 28.7072 320.984 28.8188C320.761 29.1163 320.352 29.3023 319.757 29.3766C319.199 29.451 318.604 29.4882 317.972 29.4882C316.298 29.4882 314.624 29.4696 312.951 29.4324C311.314 29.358 309.659 29.2279 307.986 29.0419C307.911 29.0047 307.763 28.9861 307.539 28.9861C307.316 28.9489 307.168 28.9675 307.093 29.0419C307.019 29.0791 306.944 29.2651 306.87 29.5998C306.796 29.9345 306.721 30.3064 306.647 30.7155C306.572 31.0875 306.517 31.4594 306.479 31.8313C306.442 32.166 306.424 32.3892 306.424 32.5007C306.424 32.7239 306.461 32.8727 306.535 32.947C306.61 33.133 306.777 33.226 307.037 33.226C307.298 33.226 307.521 33.2446 307.707 33.2818C307.893 33.2818 308.265 33.2818 308.823 33.2818C309.38 33.2446 309.976 33.2074 310.608 33.1702C311.24 33.133 311.835 33.1144 312.393 33.1144C312.951 33.0772 313.323 33.0586 313.509 33.0586C313.843 33.0586 314.513 33.0772 315.517 33.1144C316.558 33.1144 317.656 33.133 318.809 33.1702C319.999 33.1702 321.096 33.1888 322.1 33.226C323.141 33.226 323.829 33.2446 324.164 33.2818C324.796 33.3562 325.336 33.5049 325.782 33.7281C326.266 33.914 326.619 34.3231 326.842 34.9554C327.028 35.6249 327.102 36.2943 327.065 36.9638C327.065 37.6332 326.991 38.3027 326.842 38.9721C326.73 39.6416 326.582 40.311 326.396 40.9805C326.21 41.6499 326.061 42.3194 325.949 42.9888C325.912 43.1748 325.856 43.4909 325.782 43.9372C325.745 44.3835 325.689 44.8484 325.615 45.3319C325.54 45.8154 325.447 46.2803 325.336 46.7266C325.261 47.1729 325.168 47.4704 325.057 47.6192C324.908 47.9167 324.629 48.1213 324.22 48.2329C324.034 48.3073 323.699 48.363 323.216 48.4002C322.732 48.4746 322.212 48.5304 321.654 48.5676C321.096 48.642 320.575 48.6978 320.092 48.735C319.608 48.7722 319.255 48.7908 319.032 48.7908Z" fill="black"/>
<path d="M339.837 31.9987C339.577 32.0358 339.112 32.1102 338.442 32.2218C337.81 32.2962 337.122 32.3892 336.378 32.5007C335.672 32.5751 334.984 32.6495 334.314 32.7239C333.682 32.7611 333.235 32.7797 332.975 32.7797C332.789 32.7425 332.603 32.4636 332.417 31.9429C332.268 31.4222 332.12 30.7713 331.971 29.9903C331.859 29.1721 331.748 28.2795 331.636 27.3125C331.525 26.3455 331.432 25.4157 331.357 24.5231C331.32 23.5933 331.283 22.7565 331.246 22.0127C331.209 21.2688 331.171 20.7295 331.134 20.3948C331.134 20.1717 331.097 19.6882 331.023 18.9443C330.985 18.1633 330.93 17.3451 330.855 16.4897C330.781 15.6343 330.706 14.8346 330.632 14.0908C330.595 13.3098 330.558 12.7891 330.52 12.5288C330.52 12.3428 330.483 12.0453 330.409 11.6362C330.335 11.1898 330.26 10.725 330.186 10.2415C330.149 9.75797 330.13 9.31166 330.13 8.90255C330.13 8.45625 330.167 8.14012 330.242 7.95416C330.353 7.61944 330.595 7.39629 330.967 7.28471C331.153 7.21033 331.357 7.17313 331.58 7.17313C331.804 7.13594 332.027 7.11735 332.25 7.11735C332.51 7.11735 333.031 7.11735 333.812 7.11735C334.593 7.11735 335.43 7.13594 336.322 7.17313C337.252 7.17313 338.108 7.19173 338.889 7.22892C339.67 7.22892 340.19 7.22892 340.451 7.22892C340.637 7.22892 340.934 7.24752 341.343 7.28471C341.79 7.28471 342.255 7.28471 342.738 7.28471C343.221 7.28471 343.686 7.28471 344.133 7.28471C344.579 7.28471 344.877 7.30331 345.025 7.3405C345.323 7.41488 345.565 7.58225 345.751 7.84259C345.974 8.10293 346.067 8.40046 346.029 8.73519C346.029 8.88396 345.974 9.1443 345.862 9.51622C345.788 9.88814 345.695 10.2972 345.583 10.7435C345.509 11.1898 345.434 11.599 345.36 11.9709C345.286 12.3428 345.23 12.6031 345.193 12.7519C344.784 14.6859 344.43 16.6199 344.133 18.5538C343.872 20.4506 343.631 22.366 343.407 24.3C343.37 24.5231 343.314 24.9322 343.24 25.5273C343.166 26.0852 343.073 26.6988 342.961 27.3683C342.887 28.0005 342.794 28.6142 342.682 29.2093C342.608 29.7671 342.533 30.1391 342.459 30.325C342.347 30.9201 342.05 31.3664 341.566 31.6639C341.306 31.8127 341.027 31.9057 340.73 31.9429C340.432 31.9429 340.135 31.9615 339.837 31.9987ZM341.064 46.3919C340.655 46.6522 340.172 46.8382 339.614 46.9498C339.093 47.0613 338.554 47.1171 337.996 47.1171C337.289 47.1171 336.546 47.0427 335.765 46.894C335.021 46.708 334.314 46.4477 333.645 46.1129C332.975 45.741 332.399 45.2761 331.915 44.7182C331.469 44.1232 331.19 43.4351 331.078 42.6541C331.004 42.1334 331.023 41.5941 331.134 41.0363C331.246 40.4784 331.432 39.9391 331.692 39.4184C331.952 38.8977 332.306 38.377 332.752 37.8564C333.198 37.3357 333.682 36.8894 334.202 36.5175C334.76 36.1083 335.355 35.7922 335.988 35.5691C336.62 35.3087 337.234 35.1786 337.829 35.1786C338.461 35.1786 339.075 35.2901 339.67 35.5133C340.302 35.7364 340.897 36.0526 341.455 36.4617C342.013 36.8336 342.496 37.2799 342.905 37.8006C343.314 38.2841 343.631 38.8048 343.854 39.3626C344.077 39.9577 344.17 40.6086 344.133 41.3152C344.095 42.0218 343.947 42.6913 343.686 43.3236C343.426 43.9558 343.073 44.5509 342.626 45.1088C342.18 45.6295 341.659 46.0572 341.064 46.3919Z" fill="black"/>
<defs>
<clipPath id="clip0_205_180">
<rect width="155" height="55" fill="white" transform="translate(0 5)"/>
</clipPath>
</defs>
</svg>
