<svg xmlns="http://www.w3.org/2000/svg" fill="none" overflow="visible" preserveAspectRatio="none" style="display:block" viewBox="0 0 193.92 60"><g fill="var(--fill-0, #F9F3EB)"><path d="M18.951 0c1.45 0 2.944.212 4.397.747a7.8 7.8 0 0 1 2 1.091C26.751.822 28.353.502 29.607.502v2.89c-1.168 0-2.605.417-3.52 1.788l-.023.035-.023.036q-.251.406-.43.832l-1.507-1.507a4.8 4.8 0 0 0-1.755-1.118c-1.08-.398-2.226-.569-3.398-.569-.637 0-1.647.095-2.878.24q-1.886.172-4.026.454l-.01.002q-2.1.284-3.995.627c-1.072.168-2.158.38-2.957.708-1.218.449-1.783 1.466-1.999 2.15-.211.668-.211 1.324-.185 1.778v.006l.001.005c.049.777.187 1.682.385 2.674q.3 1.49.761 3.28l.01.041.013.042 1.004 3.459.004.012.003.013q.502 1.669.946 3.17l.014.047.015.045q.362 1.09.59 1.887l.138.502q.897 3.479 1.852 6.902l.008.027.008.028a463 463 0 0 0 2.056 6.67c.101.387.278.993.513 1.765l.017.054.018.054q.428 1.227.86 2.633l.015.048.016.048.95 2.738.007.019.007.019c.297.816.507 1.387.624 1.7l.03.08.035.08q.358.805.886 1.508l.066.087.028.032.016.019.027.031q.09.102.182.2l.19.194 5.107 5.107c.332.327.701.624 1.108.879l.19.118.204.088a7.8 7.8 0 0 0 2.563.617l1.674.112.096.006h1.379q1.031.055 2.229.055 1.29.055 2.67.056 1.383.054 2.626.056 1.234.053 2.209.056c.473.026.88.045 1.195.053l.285.003q.348 0 .692-.035l.23-.028q.109-.006.22-.017a4.1 4.1 0 0 0 1.596-.505 4.8 4.8 0 0 0 2.245-2.55l.024-.06.02-.064c.083-.246.216-.664.394-1.234q.334-.948.667-1.945l.014-.044.475-1.512c.2.494.496.974.92 1.398l5.108 5.108q.229.229.51.433c.836.609 1.778.936 2.728 1.07q1.23.223 2.487.147.887-.051 1.505-.05 4.431 0 8.808-.113l8.801-.11h2.66q1.554.054 3.107.055a51 51 0 0 0 2.451.02l.782-.022a21 21 0 0 0 3.062-.32l.427-.084c1.005-.225 2.062-.651 2.918-1.461l.078-.073.022-.021v-.001q.087-.084.17-.172c.827-.878 1.271-1.985 1.531-2.982l.019-.072.014-.072q.02-.097.038-.198l4.633 4.633a4.6 4.6 0 0 0 1.197.855 5.3 5.3 0 0 0 1.609.5q.619.086 1.245.084h.279q.269 0 .599-.007a81 81 0 0 0 2.513-.109 89 89 0 0 0 4.24-.226 475 475 0 0 0 4.087-.22c1.133-.068 2.067-.141 2.693-.232 1.186-.057 2.35-.267 3.408-.727l.21-.096h-.001c2.015-.911 2.695-2.899 2.901-4.447.1-.54.179-1.274.249-2.108q.112-1.352.223-3.069.17-1.824.284-3.752v-.005q.111-1.94.222-3.655.163-1.693.223-3.07c.066-.833.108-1.525.115-2.015q.111-2.18.168-4.361.04-.77.1-1.522.52.005 1.066.018l-.067.765a174 174 0 0 1-.436 4.36 86 86 0 0 0-.338 2.829 279 279 0 0 0-.451 4.397l-.003.031-.002.032a416 416 0 0 1-.333 4.267c-.11 1.325-.177 2.352-.177 2.973 0 .352.028.718.096 1.088h-.001l.007.037.01.055c.094.503.284 1.046.63 1.56.152.24.332.468.539.674l5.105 5.106-.012-.013.014.014c.346.346.767.634 1.26.831q.512.206 1.065.318l.074.014.075.012q2.908.421 6.108.42h8.479q1.097 0 2.056.097l.059.007.059.003q2.613.154 5.226.084l.747-.025h-.001q2.9-.112 5.747-.28a19 19 0 0 0 1.168-.062q.778-.06 1.632-.172.831-.059 1.6-.172c.425-.035 1.01-.103 1.553-.286.888-.267 1.846-.835 2.444-1.892a4.2 4.2 0 0 0 .426-.947c.087-.277.148-.56.196-.828q.184-.756.307-1.547l.046-.343 1.679 1.68a9.3 9.3 0 0 0 2.046 1.53l.055.031.056.028q1.295.646 2.711 1l.08.02.08.015a15 15 0 0 0 2.772.274q1.108.001 2.184-.224l.001.001.298-.066a7 7 0 0 0 1.729-.651l.273-.156q.167-.094.329-.195a8.7 8.7 0 0 0 2.01-1.726l.032-.037.031-.038a10.2 10.2 0 0 0 1.475-2.49 9 9 0 0 0 .66-2.957 7.7 7.7 0 0 0-.459-3.119l-.011-.029-.012-.03a8.6 8.6 0 0 0-1.425-2.355 9 9 0 0 0-.695-.77l-1.158-1.157.068-.045c1.018-.712 1.66-1.733 1.927-2.889a9.4 9.4 0 0 0 .282-1.404q.172-.932.289-1.907.166-.995.28-1.852l.001-.012.002-.012c.075-.6.124-.953.151-1.11l.012-.073.007-.072q.332-2.866.718-5.677.324-2.1.738-4.203l.287-1.402h-.001q.037-.161.082-.367l.092-.444q.112-.563.22-1.206.144-.585.253-1.111c.093-.319.218-.8.246-1.292a4 4 0 0 0-.879-2.858q-.18-.24-.391-.45l-5.108-5.107a4.1 4.1 0 0 0-1.731-1.033l-.184-.05-.21-.046c-.498-.093-1.04-.096-1.383-.096v-2.89c.288 0 .929-.002 1.616.097l.297.048.086.018.21.046.152.037.184.05.059.018c1.074.32 2.019.88 2.794 1.61l.152.147 5.107 5.108a7 7 0 0 1 .618.704l.038.05a6.9 6.9 0 0 1 1.456 4.76h.002l-.004.042-.001.029-.001-.001a8.6 8.6 0 0 1-.319 1.748q-.102.485-.228 1.002a39 39 0 0 1-.318 1.677q-.038.173-.077.338h.001l-.283 1.382h.001a99 99 0 0 0-.713 4.054q-.38 2.762-.705 5.577v.001l-.008.072q-.009.082-.023.165l-.012.072c-.015.091-.057.39-.132.994l-.008.046.001.001a63 63 0 0 1-.283 1.87q-.12 1-.297 1.963a12 12 0 0 1-.344 1.696 7.9 7.9 0 0 1-.847 2.105l.119.143.02.024.026.032a11.4 11.4 0 0 1 1.852 3.081l.012.03.036.092.01.029a10.6 10.6 0 0 1 .632 4.263 11.9 11.9 0 0 1-.874 3.904 13 13 0 0 1-1.891 3.196l-.016.02-.031.038-.037.045-.032.037-.009.01a11.5 11.5 0 0 1-3.101 2.549h.001l-.273.157-.063.034c-.795.428-1.615.724-2.426.918l-.052.012-.299.065-.048.009a13.5 13.5 0 0 1-3.173.277 18 18 0 0 1-2.896-.32h-.007l-.081-.016-.147-.033-.08-.02-.005-.001a16 16 0 0 1-3.303-1.219l-.043-.021a3 3 0 0 1-.14-.074l-.055-.031q-.43-.241-.84-.514c-1.036 1.745-2.615 2.657-3.964 3.081l.001.001-.011.003-.079.026-.001-.002c-.798.257-1.572.348-2.048.39a24 24 0 0 1-1.648.178c-.581.074-1.149.136-1.698.178-.434.033-.877.06-1.27.068q-2.847.166-5.746.278l-.025.003-.747.024h-.017q-2.737.074-5.473-.087h-.002l-.06-.003-.139-.012-.035-.004a18 18 0 0 0-1.769-.083h-8.479c-2.256 0-4.434-.146-6.525-.45l-.014-.003-.075-.011-.13-.023-.075-.014-.005-.002a9 9 0 0 1-1.192-.326l-.379-.141a6.6 6.6 0 0 1-2.12-1.367l-.112-.105-3.221-3.222c-.662 1.367-1.763 2.73-3.592 3.583q-.036.019-.073.036l-.21.096-.048.021c-1.418.618-2.894.875-4.27.954-.748.1-1.739.176-2.813.24q-1.887.11-4.086.22a92 92 0 0 1-4.261.227 83 83 0 0 1-2.597.112q-.363.008-.665.008h-.279q-.602.001-1.232-.062l-.421-.052a8.1 8.1 0 0 1-2.493-.775 7.5 7.5 0 0 1-1.947-1.396l-1.755-1.754a8 8 0 0 1-.335.383q-.08.083-.159.16-.066.072-.138.14l-.022.02-.059.056q-.06.058-.124.112c-1.33 1.21-2.873 1.79-4.158 2.078l-.069.015-.427.085-.055.009a24 24 0 0 1-3.462.362l-.023.002-.783.022-.029.001a48 48 0 0 1-2.556-.021 93 93 0 0 1-3.109-.054h-2.57l-8.789.11q-4.401.112-8.857.112a24 24 0 0 0-1.335.046 13.4 13.4 0 0 1-3.124-.18c-1.311-.195-2.697-.664-3.96-1.584a7 7 0 0 1-.853-.727l-2.821-2.821q-.022.067-.048.132l-.024.061a7.67 7.67 0 0 1-3.509 4l.001.001a7 7 0 0 1-2.718.865q-.108.01-.215.017l-.193.023-.05.006a10 10 0 0 1-1.341.046c-.345-.009-.763-.03-1.215-.054a59 59 0 0 1-2.17-.055 72 72 0 0 1-2.638-.055 68 68 0 0 1-2.664-.056q-1.178-.003-2.231-.055h-1.32q-.096 0-.19-.006l-.096-.006h-.002l-.838-.057-.836-.055a10.7 10.7 0 0 1-3.509-.845l-.005-.002-.205-.089a3 3 0 0 1-.384-.2l-.19-.119-.003-.002a9.4 9.4 0 0 1-1.603-1.269l-5.124-5.124-.02-.018-.19-.193-.04-.043a10 10 0 0 1-.24-.266l-.028-.03-.037-.044-.028-.031a3 3 0 0 1-.128-.16l-.066-.087a10.6 10.6 0 0 1-1.215-2.068l-.033-.074a3 3 0 0 1-.073-.18l-.024-.064-.634-1.728-.026-.074v-.002l-.952-2.742-.007-.02-.017-.047-.023-.073-.015-.048-.001-.003a74 74 0 0 0-.827-2.534l-.005-.014-.018-.054-.025-.075-.017-.055-.005-.018a58 58 0 0 1-.522-1.791 466 466 0 0 1-2.065-6.701l-.008-.028-.002-.007-.007-.028a375 375 0 0 1-1.867-6.956l-.118-.43-.241-.802q-.136-.436-.309-.952l-.015-.046-.04-.127-.007-.025-.943-3.161-.008-.028-.003-.012-.003-.01-1.004-3.459-.002-.005-.012-.042-.027-.1-.01-.042a64 64 0 0 1-.791-3.413C.246 11.06.083 10.027.02 9.08l-.003-.062C-.019 8.423-.036 7.36.33 6.2c.372-1.176 1.4-3.123 3.755-3.99 1.105-.438 2.417-.678 3.445-.84a93 93 0 0 1 4.1-.646l.01-.002.032-.004q2.17-.285 4.106-.464C16.975.115 18.13 0 18.951 0m124.472 32.5q0 .335.112.447l.032.065.029.04.031.038 5.108 5.107q.137.136.409.136a4 4 0 0 1 .67.056h1.116l1.785-.112q.711-.042 1.36-.052l.425-.004q.837-.055 1.116-.055l.753.014q.503.015 1.256.041l.791.004q1.203.01 2.5.052 1.64 0 3.043.048a9 9 0 0 1-.117.647 19 19 0 0 1-.314 1.506l-.265 1.004q-.188.754-.314 1.507l-.07.376-.097.572q-.056.67-.167 1.394l-.06.36q-.094.532-.219 1.035-.113.67-.279.893-.224.446-.837.613-.28.113-1.004.168a18 18 0 0 1-1.562.167q-.837.112-1.563.167-.725.056-1.06.056-2.845.168-5.745.28a58 58 0 0 1-5.691-.056 24 24 0 0 0-2.343-.112v-2.89q1.313 0 2.542.12 2.69.156 5.379.05h.002q2.871-.11 5.687-.276l.169-.005c.105 0 .365-.01.839-.047q.634-.049 1.402-.15l.19-.02q.644-.043 1.175-.12.038-.178.071-.364l.055-.327q.094-.623.14-1.176l.03-.235.101-.6.005-.025.07-.376q.11-.655.262-1.309-1.023-.03-1.98-.038l-.779-.003q-.047 0-.094-.003-.732-.027-1.214-.04l-.705-.013h-.004l-.057.002-.196.008q-.246.013-.649.04a3 3 0 0 1-.169.006l-.425.003h-.001q-.571.01-1.213.047h-.001l-1.774.111q-.09.006-.18.006h-1.116q-.271 0-.536-.051h.003-.003l-.033-.002-.101-.003c-.621 0-1.624-.156-2.45-.98l-5.109-5.11a3 3 0 0 1-.142-.152l-.032-.037a3 3 0 0 1-.322-.446l-.023-.042a3.3 3.3 0 0 1-.417-.976 4 4 0 0 1-.115-.978c0-.15.01-.32.024-.491l.05-.498q.068-.663.197-1.314.119-.656.245-1.226c.051-.228.127-.53.248-.834.06-.15.165-.386.333-.64.098-.147.298-.422.627-.689l.086-.069.012-.01a3.2 3.2 0 0 1 1.738-.643l-2.017-2.017a3 3 0 0 1-.873-2.114v-.558q0-.205.029-.408.025-.169.027-.428 0-.191.026-.38l.111-.838.004-.028q.021-.154.027-.213l.001-.019c0 .004-.002.035-.002.083q0-.358.088-.705a3.27 3.27 0 0 1 .855-1.518 3.2 3.2 0 0 1 1.175-.75 4 4 0 0 1 1.378-.302c.558-.048 1.239-.036 1.937 0q1.14.056 2.586.167 1.476.058 3.054.17 1.625.113 3.083.225 1.436.11 2.573.223a32 32 0 0 1 1.765.12l.089.012q.428.06.893.078l.21.003q.23-.022.449-.075.055-.207.069-.38l.02-.187.204-1.431q-1.739.07-3.466.128h-.009l-2.574.077h-.013l-1.939.049h-.006a477 477 0 0 1-5.9.098h-.031q-.15 0-.302-.005a26 26 0 0 1-1.075-.058 112 112 0 0 0-1.74-.108l-2.103-.112a42 42 0 0 0-1.536-.048l-.502-.003c-.779 0-1.466.04-2.066.108v.003a60 60 0 0 0-.531 3.401 192 192 0 0 0-.549 4.671q-.276 2.592-.552 5.293l-.223 2.636v.005q-.113 1.303-.225 2.56v.008l-.113 1.228a162 162 0 0 1-.354 3.41c-.063.41-.17 1.278-.319 2.661l-.001.009a269 269 0 0 0-.441 4.306l-.066.879h7.033v2.889h-8.48a44 44 0 0 1-1.676-.033 389 389 0 0 0 .312-4.009q.223-2.343.447-4.351.222-2.064.335-2.79.166-1.464.334-3.242l.112-1.22q.112-1.256.223-2.553l.223-2.636q.279-2.734.558-5.356t.558-4.741a63 63 0 0 1 .558-3.57q.279-1.452.558-1.73.446-.447 1.617-.558 1.227-.168 2.734-.167l.533.003a45 45 0 0 1 1.643.052l2.119.112q1.005.055 1.786.111.585.042.951.052.123.004.22.004a487 487 0 0 0 5.864-.097l1.939-.05 2.574-.076q2.567-.083 5.16-.195l1.953-.09q-.082.405-.17.812a50 50 0 0 0-.503 2.51l-.222 1.563q-.057.725-.335 1.45l-.119.216q-.44.732-1.22 1.123l-.196.066q-.69.22-1.422.27l-.415-.008q-.617-.022-1.203-.105a30 30 0 0 0-1.673-.111q-1.116-.112-2.567-.223-1.45-.113-3.068-.224a92 92 0 0 0-3.013-.167 97 97 0 0 0-2.566-.167q-1.115-.055-1.618 0-.279 0-.502.111a.36.36 0 0 0-.279.279q0 .167-.055.558l-.112.837q0 .446-.056.836v.558q0 .045.027.072l5.107 5.107a.14.14 0 0 0 .068.033l.073.007q.167-.042.272-.052l.062-.004h1.507l.547-.023q.566-.021 1.199-.029l.653-.003h2.901l.743-.024q.645-.018 1.257-.026a6 6 0 0 1-.079.354l-.223.893-.055.181a1.6 1.6 0 0 1-.168.377l-.092.105q-.354.354-1.135.453a14 14 0 0 1-1.785.111l-1.256-.003a226 226 0 0 1-3.765-.053 76 76 0 0 1-4.965-.39q-.112-.057-.447-.056-.335-.056-.446.055-.112.057-.223.558a30 30 0 0 0-.223 1.116q-.112.558-.168 1.116a8 8 0 0 0-.056.67M86.745 12.229q.193.003.394.01-.104 1.146-.208 2.243-.223 2.901-.335 5.802l-.223 5.802a151 151 0 0 0-.056 4.463l-.007 1.294q-.02 1.956-.104 4.006-.056 2.733-.224 5.244-.167 2.455-.502 4.072-.335 1.284-.948 1.841-.613.614-1.897.837a18 18 0 0 1-2.678.279 42 42 0 0 1-3.068 0q-1.562 0-3.124-.056h-2.734l-8.814.112q-4.351.111-8.758.111l-.377.004-.13.003q.023-1.72.073-3.431l.073-2.123q.126-3.18.157-6.392l.01-2.144q0-3.57-.167-7.085a148 148 0 0 1-.167-7.03v-1.227q0-.949.056-2.008.055-1.061.167-1.897.167-.893.39-1.004.56-.224 2.79-.447 1.716-.167 3.933-.303l1.534-.087q2.427-.167 5.136-.303l1.838-.088q2.802-.124 5.45-.219l1.746-.06q3.46-.111 6.248-.167 2.79-.056 4.129-.056.195 0 .397.004m-63.61-.313q.112 1.227.167 2.398.057 1.116.112 1.507l.558 4.351.67 4.351 5.107 5.108q.252-1.213.47-2.427l.144-.809.67-3.235 1.17-5.523q.03-.112.07-.335l.098-.558q.111-.669.279-1.395.083-.39.153-.753l.126-.697.223-.892q.167-.67.446-1.116.336-.502 1.116-.502a99 99 0 0 0 3.515.104l1.171.007q2.4-.056 4.742.056.503 0 1.674.056l.593.031q.421.025.857.056l-.03.105a341 341 0 0 1-4.408 14.393 1622 1622 0 0 1-4.797 14.282 98 98 0 0 1-.447 1.283q-.279.893-.614 1.953l-.334.99q-.167.488-.335.962a81 81 0 0 1-.39 1.228 1.9 1.9 0 0 1-.949 1.06q-.279.167-.669.167a4 4 0 0 1-.67.056l-.544-.014q-.348-.014-.85-.042-.949 0-2.231-.056-1.228 0-2.623-.056-1.395 0-2.677-.055-1.229 0-2.232-.056h-1.339l-.644-.043-.497-1.433a80 80 0 0 0-.892-2.733 44 44 0 0 1-.502-1.73 461 461 0 0 1-2.065-6.694 369 369 0 0 1-1.84-6.863 43 43 0 0 0-.782-2.565 981 981 0 0 0-.948-3.18l-1.004-3.46a59 59 0 0 1-.726-3.123q-.279-1.395-.334-2.288-.056-.947.334-1.06.615-.279 2.399-.558a87 87 0 0 1 3.906-.613 100 100 0 0 1 3.96-.447q.95-.111 1.59-.168.031.475.053.975m156.801 28.37q.592 0 1.164.132h.005q.052.433.028.898l-.02.263a6 6 0 0 1-.427 1.745l-.102.236a7.3 7.3 0 0 1-.958 1.55 5.8 5.8 0 0 1-1.561 1.282q-.614.39-1.451.558a7.7 7.7 0 0 1-1.618.168q-.887 0-1.852-.157l.003-.07q.014-.266.057-.538l.038-.209q.146-.732.463-1.421l.094-.196q.342-.684.897-1.367l.164-.195q.669-.781 1.45-1.34a6.9 6.9 0 0 1 1.785-.948q.948-.39 1.841-.39m-54.809-24.889q-.765.042-1.512.1l-.071.004-2.009.104h-.009a293 293 0 0 1-6.085.233h-.009l-1.984.05h-.011q-3.012.063-6.055.063h-.012l-2.591-.01h-.011q-3.88-.032-7.73-.157-.107 0-.221.006l-.039.16q-.084.568-.128 1.127-.028.367-.057.691.941-.396 1.558-.653l.205-.076a2.89 2.89 0 0 1 2.949.7l5.107 5.108c.663.663.964 1.606.805 2.53q-.679 3.962-1.527 7.87l-.38 1.887a472 472 0 0 0-1.112 5.792l-.146.836-.228 1.353q-.158 1.176-.342 2.459.37-.025.747-.053l.078-.005q1.104-.056 2.129-.112l1.981-.111c1.278-.075 1.982-.143 2.253-.188l.187-.025q.095-.01.189-.013c.518-.018.898-.08 1.168-.15q.013-.07.024-.155l.036-.219c.026-.13.071-.438.125-.99l.051-.58.11-1.407q.055-.753.11-1.608l.006-.083q.122-1.298.213-2.665l.059-.929q.111-1.95.224-3.687l.007-.093q.161-1.672.213-2.91l.006-.11a37 37 0 0 0 .096-1.48l.007-.303.003-.087q.11-2.138.165-4.277l.002-.07q.117-2.343.412-4.584l.021-.134a2.89 2.89 0 0 1 2.843-2.379c.461 0 1.138.02 2.002.056q1.398.001 2.939.055 1.493 0 2.75-.052h.004q.231-.01.415-.024l.059-.643zM20.399 14.121q-1.185.127-2.49.298a84 84 0 0 0-3.836.604l-.101.016q.04.222.088.469.256 1.277.678 2.919l.491 1.695.502 1.73q.49 1.632.928 3.11.382 1.148.652 2.091l.169.614.003.014a366 366 0 0 0 1.824 6.796 458 458 0 0 0 2.039 6.61q.027.084.049.172c.053.212.196.708.452 1.55a80 80 0 0 1 .725 2.202l.054.002q.909.051 2.072.052.062 0 .125.003a59 59 0 0 0 2.668.055q1.344.053 2.507.053l.125.003q1.239.053 2.106.053.08 0 .16.004.474.027.79.038l.213.006q.069-.21.152-.476l.033-.1q.162-.457.322-.924l.326-.966q.328-1.039.602-1.915l.033-.1c.225-.636.365-1.04.43-1.235l.006-.019q2.45-7.184 4.79-14.256a336 336 0 0 0 3.39-10.87 64 64 0 0 0-4.093-.03l-1.171-.008h-.018q-1.196-.015-2.394-.058l-.045.18-.108.605-.007.034a39 39 0 0 1-.175.856q-.149.644-.244 1.22l-.004.022-.097.558-.007.036c-.024.131-.053.27-.084.4l.001.001-1.171 5.524-.657 3.172-.138.776-.001.011q-.225 1.249-.485 2.497a2.889 2.889 0 0 1-4.871 1.457l-5.108-5.107a2.9 2.9 0 0 1-.812-1.603l-.67-4.351q-.007-.036-.01-.072l-.559-4.352a23 23 0 0 1-.131-1.729v-.007zm160.072 29.114.006.001h-.002zM66.512 18.052q-1.672 0-2.956.892l-.315.216a7.9 7.9 0 0 0-1.86 1.904l-.217.311a9 9 0 0 0-1.123 2.422l-.105.36a9 9 0 0 0-.341 2.374l.01.301q.067 1.038.604 1.819.225.3.488.563l5.106 5.106a5.3 5.3 0 0 0 1.187.889q1.004.502 2.23.78 1.075.197 2.15.22l.306.004q.195 0 .384-.01 1.223-.069 2.152-.579l.141-.08a6.6 6.6 0 0 0 1.953-1.674 6.8 6.8 0 0 0 1.025-2.025l.09-.318a8.6 8.6 0 0 0 .385-2.16l.006-.294q0-1.06-.502-2.12a5.9 5.9 0 0 0-1.283-1.897l-5.107-5.108a6.3 6.3 0 0 0-2.008-1.338 5.3 5.3 0 0 0-2.081-.55zM166.64 32.736l.025.09.032.088c.085.238.196.516.342.798l-.668-.668q.089-.372.149-.75.06.23.12.442m9.279-20.512q1.172 0 2.511.056l.683.003q.67.008 1.283.029l.6.024h1.289l-.023.109q-.042.195-.07.307a105 105 0 0 0-1.059 5.801q-.39 2.846-.726 5.747-.056.335-.167 1.227a55 55 0 0 1-.279 1.84 27 27 0 0 1-.279 1.842q-.112.836-.223 1.116-.167.892-.893 1.338-.39.223-.836.28l-.223.003a7 7 0 0 0-.67.052q-.392.056-1.395.223-.789.094-1.695.227l-.003-.029a89 89 0 0 1-.28-2.79 256 256 0 0 0-.111-2.51 30 30 0 0 0-.111-1.617q0-.168-.029-.53l-.083-.92q-.055-1.173-.168-2.455-.11-1.283-.223-2.4-.056-1.17-.111-1.561 0-.28-.112-.893-.112-.669-.223-1.395-.056-.725-.056-1.339 0-.668.112-.948.168-.501.725-.669.28-.111.614-.112.25-.042.502-.052l.167-.004zm-.558 4.013c.065.36.132.785.15 1.188.045.398.08.944.11 1.56q.11 1.106.22 2.361.113 1.29.171 2.49l.079.876.003.038c.014.177.024.368.03.548.043.42.08.992.115 1.677q.048.986.097 2.177l.092-.014.05-.006q.15-.02.301-.033l.039-.272.024-.15q.149-.794.25-1.647.008-.069.02-.137.16-.965.264-1.748c.064-.506.12-.918.165-1.205q.337-2.918.73-5.78l.007-.046q.226-1.472.493-2.944l-.356-.001-.105-.003a58 58 0 0 0-2.391-.053h-.738q.09.58.18 1.124M29.675.502q.06 0 .118.002l.07.003.019.002q2.185.103 4.369.105a73 73 0 0 1 4.956.058 51 51 0 0 1 1.776.06q1.296.062 2.681.182 1.438.124 2.755.321c.657.098 1.496.25 2.327.525l.356.125.077.03.273.113.067.029.024.01.035.017.025.01.021.01q.49.227.98.552l.048-.005.007-.001h.006c1.622-.159 3.517-.293 5.67-.407q3.298-.227 7.074-.396a583 583 0 0 1 13.587-.451c1.866-.037 3.29-.057 4.244-.057q.931.002 1.907.06c.716.009 1.432.056 2.142.152l.063.006c.859.114 1.767.307 2.66.632q.257.092.567.23a7.7 7.7 0 0 1 1.915-.341c.478-.043.966-.07 1.46-.07v2.89q-.617.001-1.257.062c-.795.031-1.58.25-2.293.685a5.1 5.1 0 0 0-1.379-.74 10 10 0 0 0-2.056-.485v.002q-.946-.132-1.947-.136a30 30 0 0 0-1.782-.058c-.923 0-2.323.019-4.186.056q-2.81.057-6.283.169-3.479.112-7.233.28-3.76.168-7.028.393-3.203.169-5.564.399h-.007q-.657.066-1.205.136a4.5 4.5 0 0 0-1.332-.939l-.025-.011-.024-.01-.273-.113c-.65-.246-1.398-.392-2.09-.496q-1.216-.18-2.576-.3a66 66 0 0 0-2.568-.174 46 46 0 0 0-1.732-.058 70 70 0 0 0-4.844-.057q-2.263 0-4.526-.109l-.069-.003h-.068V.502zm133.888.223v2.89h-.077l-.076.003q-5.215.277-10.318.444-5.085.165-10.282.222c-.154 0-.46-.012-.966-.048q-.81-.059-1.83-.115-1.013-.057-2.137-.113-1.184-.059-2.319-.059c-1.102 0-2.141.061-3.108.192-.792.083-1.868.295-2.786.956a4 4 0 0 0-1.182-.601 6.4 6.4 0 0 0-2.218-.38q-.703 0-1.404.07l-.015.002-.016.002a6 6 0 0 1-.629.038v-2.89c.058 0 .16-.003.31-.02l.038-.003.025-.004a17 17 0 0 1 1.691-.084c1.013 0 2.112.15 3.214.557q.092.03.182.063a9.6 9.6 0 0 1 2.402-.568 26 26 0 0 1 3.496-.219q1.211 0 2.464.063 1.129.057 2.152.113 1.04.058 1.876.118l.545.033q.162.008.206.007 5.156-.054 10.197-.22 5.069-.165 10.252-.44l.076-.005.16-.004zM92.002 2.008q.065 0 .13.003l.025.001q5.03.164 10.118.164v2.889q-5.142 0-10.227-.166l-.046-.002h-.048V2.008zm32.198-.67v2.89h-.111l-.111.008q-1.42.11-2.894.22a78 78 0 0 0-2.967.167q-3.972.222-7.945.331h-.001q-3.92.111-7.896.111V2.176q3.936 0 7.815-.11h.004q3.932-.109 7.863-.327a80 80 0 0 1 2.948-.167q1.45-.108 2.852-.216h.001l.111-.009q.11-.008.22-.008zm39.363-.613c.778 0 1.518.098 2.202.25a7.7 7.7 0 0 1 1.555.527q.362-.06.715-.085.59-.077 1.215-.078v2.889q-.47.001-.934.065a4.5 4.5 0 0 0-1.315.27l-.099.033a4.6 4.6 0 0 0-1.764-.801 7.3 7.3 0 0 0-1.575-.18zm13.888.725c.371 0 .772.028 1.117.057h2.565v2.889h-2.672a13 13 0 0 0-1.01-.057zm-6.639-.111q1.257 0 2.632.057 1.349.001 2.557.054h1.45v2.89h-1.511a57 57 0 0 0-2.566-.056 63 63 0 0 0-2.562-.056zm0 0v2.889h-1.562v-2.89zM55.82 20.09q0 3.446.164 6.892.171 3.584.171 7.223v.014l-.01 2.144v.014a218 218 0 0 1-.16 6.462l-.072 2.123-.011.427q3.135-.022 6.24-.1l.038-.002 8.815-.11h2.77l.103.001a85 85 0 0 0 3.12.055q1.526.053 2.859 0h.004a15 15 0 0 0 2.244-.229l.045-.008c.191-.033.315-.072.388-.099.036-.077.085-.204.138-.397.18-.895.33-2.085.434-3.6q.162-2.44.218-5.111 0-.03.002-.059.081-2.007.101-3.92l.007-1.262.004-1.278q.01-1.848.053-3.273l.001-.023.223-5.802q.097-2.517.278-5.033-.77.011-1.71.03-2.766.054-6.208.166l-1.747.06v-.001q-2.5.09-5.14.207.471.159.923.378a9.2 9.2 0 0 1 2.858 1.927l5.107 5.107a8.8 8.8 0 0 1 1.851 2.703l.091.197a7.75 7.75 0 0 1 .689 3.222l-.007.294-.001.056a11.5 11.5 0 0 1-.493 2.832l-.09.318-.02.068a9.7 9.7 0 0 1-1.458 2.881l-.046.06a9.5 9.5 0 0 1-2.793 2.403l-.14.082-.05.028c-1.053.578-2.203.865-3.383.93q-.27.015-.544.015h-.033l-.307-.003h-.032a16.6 16.6 0 0 1-2.724-.292 12.7 12.7 0 0 1-2.882-1.014l-.111-.058a8.2 8.2 0 0 1-1.824-1.37l-5.109-5.109a8 8 0 0 1-.826-.969c-.68-.99-1.032-2.107-1.107-3.268l-.005-.098-.009-.302-.001-.088c0-1.04.158-2.09.444-3.134l.013-.048.105-.36.004-.013a11.9 11.9 0 0 1 1.484-3.197l.037-.054.217-.311a10.8 10.8 0 0 1 2.538-2.594l.057-.04.301-.208q.533-.37 1.1-.64L62 16l-.036.002-1.52.086q-2.176.135-3.826.295-.39.04-.712.078-.02.261-.034.546-.052.992-.052 1.857zm72.061-3.043q0 .558-.111.781-.335.78-1.06 1.005-.558.221-1.953.278-1.338.056-2.901.056a83 83 0 0 0-2.956-.056 53 53 0 0 0-1.953-.056 54 54 0 0 0-.391 4.352q-.055 2.175-.167 4.352l-.007.331q-.02.576-.104 1.62a56 56 0 0 1-.224 3.07 567 567 0 0 0-.223 3.682l-.059.94q-.094 1.402-.219 2.742a166 166 0 0 1-.224 3.068l-.056.62q-.083.858-.167 1.276-.222 1.842-1.283 2.288-1.06.501-2.678.558-.67.11-2.566.223l-1.98.111q-1.032.056-2.148.112a86 86 0 0 1-4.184.223l-.141.007.074-.534.265-1.841q.279-1.898.501-3.57.14-.838.238-1.41l.153-.878q.544-2.929 1.12-5.826l.387-1.928a179 179 0 0 0 1.506-7.754l-5.108-5.108-1.73.725q-1.059.39-2.287.781-.89.296-1.812.53l.002-.053q.057-1.171.112-2.231.111-1.06.111-1.451.057-.502.112-1.227t.168-1.45q.167-.726.39-1.34.279-.614.67-.836.446-.28 1.004-.28a11 11 0 0 1 1.06-.055q3.849.125 7.729.157l2.591.01q3.013 0 5.994-.062l1.984-.05a291 291 0 0 0 6.025-.23l2.008-.104q1.45-.111 2.957-.167l1.852-.14-.041.332q-.056.836-.112 1.171v.837q0 .558-.056 1.172z"/><path d="M33.624 48.177q-.39 0-1.395-.056a52 52 0 0 1-2.232-.056q-1.227 0-2.622-.055-1.395 0-2.677-.056-1.229 0-2.232-.056h-1.339l-1.674-.111a4.9 4.9 0 0 1-1.617-.39 3.8 3.8 0 0 1-.837-.726 5 5 0 0 1-.558-.949q-.167-.446-.614-1.673l-.948-2.734a79 79 0 0 0-.893-2.733 44 44 0 0 1-.502-1.73 460 460 0 0 1-2.064-6.694 369 369 0 0 1-1.841-6.862 43 43 0 0 0-.781-2.566 985 985 0 0 0-.948-3.18l-1.005-3.46a59 59 0 0 1-.725-3.123q-.278-1.395-.335-2.288-.055-.948.335-1.06.614-.278 2.399-.557a87 87 0 0 1 3.905-.614 100 100 0 0 1 3.961-.446q1.897-.225 2.566-.224 1.34 0 2.4.391 1.06.39 1.45 1.841.111.39.167 1.506.111 1.116.167 2.4.112 1.226.168 2.398.055 1.116.111 1.506l.558 4.352.67 4.351q.334-1.617.613-3.236l.67-3.235 1.171-5.523q.056-.224.168-.893.111-.67.279-1.394.166-.782.279-1.451l.223-.893a3.9 3.9 0 0 1 .446-1.115q.334-.502 1.116-.502a99 99 0 0 0 4.686.111q2.4-.055 4.742.056.503 0 1.674.056t2.454.167 2.4.279q1.114.168 1.617.39.837.39.837 1.284 0 .167-.112.613-.111.447-.279.949l-.223 1.004q-.111.446-.167.614a341 341 0 0 1-4.407 14.393 1616 1616 0 0 1-4.798 14.281q-.112.335-.447 1.283-.279.893-.613 1.953-.334 1.004-.67 1.953a82 82 0 0 1-.39 1.227 1.9 1.9 0 0 1-.949 1.06q-.279.167-.67.167a4 4 0 0 1-.669.056M87.266 9.684q0 1.17-.112 2.399-.111 1.227-.223 2.398-.223 2.901-.335 5.802l-.223 5.802a151 151 0 0 0-.056 4.463q0 2.567-.111 5.3-.056 2.733-.224 5.244-.166 2.454-.502 4.073-.335 1.283-.948 1.84-.614.615-1.897.837-1.171.224-2.678.28-1.45.054-3.068 0-1.562-.001-3.124-.056H71.03l-8.814.111q-4.351.112-8.759.112-.725 0-1.673.055-.949.056-1.841-.111-.894-.112-1.507-.558t-.613-1.506q0-4.296.167-8.536t.167-8.535q0-3.57-.167-7.085a148 148 0 0 1-.167-7.03v-1.227q0-.948.055-2.008.056-1.061.168-1.897.167-.893.39-1.004.558-.224 2.79-.447 2.287-.222 5.467-.39 3.235-.223 6.973-.39a577 577 0 0 1 13.445-.447q2.79-.056 4.129-.056.78 0 1.673.056.892 0 1.674.112a7 7 0 0 1 1.45.334q.614.224.837.558.28.335.335.726.056.335.056.78m-27.67 16.849q0 1.227.614 2.12a5.25 5.25 0 0 0 1.673 1.45 10 10 0 0 0 2.232.78q1.227.224 2.454.224 1.563 0 2.678-.67a6.6 6.6 0 0 0 1.953-1.673 6.8 6.8 0 0 0 1.115-2.343q.39-1.284.39-2.455 0-1.06-.501-2.12a5.9 5.9 0 0 0-1.283-1.896 6.3 6.3 0 0 0-2.009-1.34 5.3 5.3 0 0 0-2.398-.557q-1.674 0-2.957.892a7.9 7.9 0 0 0-2.176 2.12 8.9 8.9 0 0 0-1.339 2.734q-.446 1.45-.446 2.734m51.55 21.422q-.669.111-2.566.223t-4.128.223a86 86 0 0 1-4.184.223q-2.01.112-2.957.112h-.279q-.446 0-.837-.056a2.4 2.4 0 0 1-.725-.223q-.892-.447-.837-1.45 0-.615.223-2.288.223-1.674.502-3.57.28-1.898.502-3.57.28-1.674.391-2.288a477 477 0 0 1 1.506-7.754q.837-3.85 1.507-7.755l-1.73.725q-1.06.39-2.287.781-1.17.39-2.4.67a9.4 9.4 0 0 1-2.175.279q-1.005 0-1.673-.39-.614-.447-.782-1.563-.055-.39 0-1.395.057-1.06.112-2.231a448 448 0 0 1 .112-2.232q.111-1.06.111-1.45.056-.502.112-1.227t.167-1.45q.168-.726.39-1.34.28-.614.67-.836a1.86 1.86 0 0 1 1.004-.28q.559-.055 1.06-.055 5.133.167 10.321.167 4.017 0 7.978-.111 4.016-.112 8.033-.335 1.45-.112 2.957-.168 1.506-.11 2.957-.223.445 0 .948-.055.558-.056 1.116-.056.725 0 1.283.223.613.167.781.78.111.336.056 1.172 0 .782-.056 1.73a25 25 0 0 1-.167 1.73q-.057.836-.112 1.17v.838q0 .558-.056 1.171l-.111 1.228q0 .558-.112.78-.334.782-1.06 1.005-.558.224-1.953.279-1.338.056-2.901.056a83 83 0 0 0-2.956-.056 53 53 0 0 0-1.953-.056 54 54 0 0 0-.39 4.351q-.056 2.175-.168 4.352 0 .558-.111 1.952a57 57 0 0 1-.223 3.069q-.112 1.73-.224 3.682a105 105 0 0 1-.279 3.682 158 158 0 0 1-.223 3.068q-.11 1.34-.223 1.897-.223 1.841-1.283 2.287-1.06.502-2.678.558m44.887.836a284 284 0 0 1-5.746.28 58 58 0 0 1-5.691-.056 24 24 0 0 0-2.343-.112h-8.48q-3.012 0-5.69-.39a3 3 0 0 1-.558-.168.9.9 0 0 1-.446-.39 1.25 1.25 0 0 1-.223-.558 3 3 0 0 1-.056-.614q0-.724.167-2.733.168-2.01.335-4.296.224-2.343.446-4.351.224-2.064.335-2.79.224-1.953.446-4.463.223-2.51.447-5.188.279-2.733.558-5.356t.557-4.741q.279-2.121.558-3.57.279-1.452.558-1.73.447-.447 1.618-.558a20 20 0 0 1 2.734-.168q1.06 0 2.175.056 1.116.056 2.12.112t1.785.111q.782.056 1.172.056 5.244-.055 10.377-.223 5.132-.168 10.376-.446.447 0 .948.111.503.112.837.447.502.557.502 1.394 0 .781-.111 1.562-.223 1.284-.502 2.566a49 49 0 0 0-.502 2.511l-.224 1.562a5.1 5.1 0 0 1-.334 1.45 2.92 2.92 0 0 1-1.339 1.34 6 6 0 0 1-1.618.334q-.837 0-1.618-.111a30 30 0 0 0-1.674-.112q-1.115-.111-2.566-.223t-3.068-.223a92 92 0 0 0-3.013-.168 98 98 0 0 0-2.566-.167q-1.116-.055-1.618 0-.279 0-.502.111a.36.36 0 0 0-.279.28q0 .167-.056.557-.055.39-.111.837 0 .447-.056.837v.558q0 .111.167.111.224-.055.335-.055h1.507a46 46 0 0 1 2.398-.056h2.901a77 77 0 0 1 2.845-.056q1.395 0 2.455.056h1.506q.168.056.391.056.224 0 .39.111.447.167.503.614.11.446-.056.893l-.447 1.115a8 8 0 0 0-.278 1.116 3.6 3.6 0 0 0-.112.614 8 8 0 0 1-.167.892l-.224.893q-.11.39-.223.558-.335.445-1.227.558-.837.111-1.785.111-2.511 0-5.021-.056a76 76 0 0 1-4.965-.39q-.112-.056-.447-.056-.334-.055-.446.056-.112.055-.223.558-.112.501-.223 1.115-.112.558-.168 1.116a8 8 0 0 0-.055.67q0 .335.111.446.112.279.502.279.391 0 .67.056h1.116q.835-.056 1.785-.112a31 31 0 0 1 1.785-.056 21 21 0 0 1 1.116-.055q.501 0 2.008.055 1.562 0 3.292.056 1.785 0 3.291.056 1.561 0 2.064.056.948.111 1.618.446.726.279 1.06 1.227.279 1.005.223 2.009 0 1.005-.223 2.008-.167 1.005-.446 2.008-.279 1.005-.447 2.009a34 34 0 0 0-.167.948q-.056.67-.167 1.395-.113.724-.279 1.395-.113.669-.279.892-.224.447-.837.614-.28.111-1.004.167a18 18 0 0 1-1.562.168q-.837.111-1.562.167t-1.06.056m20.805-16.792q-.39.055-1.395.223-.948.111-2.064.279-1.06.111-2.064.223-.949.056-1.339.056-.279-.056-.558-.837a23 23 0 0 1-.446-1.953q-.168-1.227-.335-2.677a92 92 0 0 1-.279-2.79q-.056-1.395-.111-2.51a30 30 0 0 0-.112-1.618q0-.335-.111-1.45-.056-1.173-.168-2.455t-.223-2.4q-.055-1.17-.112-1.561 0-.28-.111-.893-.112-.67-.223-1.394-.056-.726-.056-1.34 0-.669.112-.948.167-.502.725-.67.279-.11.613-.11.336-.057.67-.057h1.562q1.172 0 2.51.056 1.395 0 2.567.056h1.562q.279 0 .892.056h2.79q.67 0 .892.055.447.112.726.503.335.39.278.892 0 .224-.167.781a26 26 0 0 1-.279 1.227q-.112.67-.223 1.228t-.167.78a105 105 0 0 0-1.06 5.803 270 270 0 0 0-.726 5.746 36 36 0 0 0-.167 1.227 55 55 0 0 1-.279 1.841 27 27 0 0 1-.279 1.841q-.112.837-.223 1.116-.167.892-.893 1.339-.39.224-.836.279-.447 0-.893.056m1.227 14.393q-.613.39-1.45.558a7.7 7.7 0 0 1-1.618.167q-1.06 0-2.231-.223a10.3 10.3 0 0 1-2.12-.781 6.3 6.3 0 0 1-1.73-1.395 4.4 4.4 0 0 1-.837-2.064 4.8 4.8 0 0 1 .056-1.618 6.5 6.5 0 0 1 .558-1.618 7.7 7.7 0 0 1 1.06-1.562q.67-.78 1.45-1.339a6.9 6.9 0 0 1 1.786-.948q.948-.39 1.841-.39.948 0 1.841.334.948.335 1.785.949a6.2 6.2 0 0 1 1.45 1.339q.614.725.949 1.562.334.893.279 1.952a6.1 6.1 0 0 1-.447 2.009 7.3 7.3 0 0 1-1.06 1.785q-.67.78-1.562 1.283"/></g></svg>