<svg xmlns="http://www.w3.org/2000/svg" width="241" height="109" fill="none" viewBox="0 0 241 109"><path fill="#fff" d="m88.333 49.894 3.152 15.589q.413 2.049-.565 2.87-.937.761-3.436 1.268l-4.996 1.01-3.152-15.59q-.414-2.048.574-2.82.978-.822 3.376-1.306zm95.793-19.107q2.499-.506 3.669-.118 1.21.327 1.624 2.376l2.404 11.892q.415 2.048-.563 2.87-.939.761-3.436 1.267l-4.997 1.01-3.697-18.287z"/><path fill="#fff" fill-rule="evenodd" d="M240.654 65.483 6.466 108.728 0 47.246 221.029 0zM81.415 40.631q-4.996 1.011-8.161 2.847t-4.78 4.658q-1.562 2.812-1.705 6.742-.102 3.868.94 9.015.99 4.897 2.536 8.433 1.536 3.486 4.03 5.53 2.544 2.034 6.194 2.596 3.69.502 8.886-.549 5.196-1.05 8.351-2.936 3.195-1.946 4.699-4.799 1.554-2.862 1.617-6.671.051-3.86-.939-8.756-1.041-5.146-2.688-8.662-1.607-3.575-4.19-5.549-2.534-1.984-6.163-2.446-3.58-.473-8.627.547M26.652 52.64l16.87 35.594 17.488-3.536 1.717-39.352-12.642 2.556-.337 24.823-.55.111-9.905-22.752zm74.124-14.987 1.94 9.593 8.694-1.758 5.637 27.88 11.992-2.424-5.637-27.88 8.693-1.758-1.939-9.593zm32.658-6.602 7.576 37.473 26.681-5.395-1.939-9.593-14.689 2.97-.92-4.546 11.992-2.425-1.758-8.694-11.991 2.424-1.021-5.046 12.891-2.606-.441-9.896zm31.765-6.423 7.576 37.474 16.788-3.395q5.047-1.02 8.232-2.756 3.186-1.736 4.78-4.399t1.726-6.382q.171-3.78-.848-8.826-1.02-5.046-2.637-8.411-1.567-3.376-4.07-5.21-2.502-1.835-6.103-2.147-3.61-.363-8.656.658z" clip-rule="evenodd"/></svg>