<svg preserveAspectRatio="none" width="100%" height="100%" overflow="visible" style="display: block;" viewBox="0 0 193.92 60" fill="none" xmlns="http://www.w3.org/2000/svg">
<g id="Group 1">
<path id="Union (Stroke)" d="M18.9513 0C20.4018 0 21.8949 0.211767 23.3477 0.746951C24.0983 1.02351 24.7641 1.39632 25.348 1.83811C26.7509 0.822185 28.3534 0.502225 29.6068 0.5022V3.39126C28.4387 3.39129 27.0015 3.80873 26.0872 5.17999L26.0639 5.21526L26.0413 5.25123C25.8732 5.52031 25.7314 5.79979 25.6111 6.08282L24.1038 4.57552C23.6363 4.10833 23.0577 3.71871 22.3489 3.45756C21.2694 3.05989 20.1229 2.88906 18.9513 2.88906C18.3139 2.88907 17.3038 2.98436 16.0728 3.12887C14.8163 3.24389 13.474 3.39541 12.0475 3.58311L12.0376 3.58452C10.6375 3.77372 9.30505 3.98328 8.04186 4.21227C6.97027 4.38049 5.88421 4.5921 5.08509 4.92043C3.86741 5.36898 3.30206 6.38633 3.08616 7.06959C2.87502 7.73824 2.87467 8.39402 2.90137 8.84845V8.85409L2.90207 8.85903C2.95066 9.63637 3.08875 10.5407 3.28719 11.533C3.48576 12.5258 3.74069 13.6202 4.04824 14.8121L4.05882 14.8544L4.07081 14.896L5.07521 18.355L5.07874 18.367L5.08227 18.3797C5.4161 19.4924 5.73166 20.5496 6.02812 21.5501L6.04152 21.5967L6.05704 21.6425C6.2992 22.369 6.49521 22.9968 6.64741 23.5293L6.78495 24.0308C7.38348 26.3498 8.00114 28.651 8.63716 30.9332L8.64492 30.96L8.65268 30.9876C9.31964 33.2108 10.0051 35.4342 10.7087 37.6572C10.8101 38.0454 10.9874 38.651 11.2222 39.4227L11.2391 39.477L11.2575 39.5306C11.5422 40.3493 11.8289 41.2272 12.1173 42.1643L12.1321 42.2123L12.1483 42.2602C12.4834 43.2282 12.8004 44.1409 13.0984 44.9977L13.1055 45.0167L13.1118 45.0357C13.4087 45.8523 13.6186 46.4232 13.736 46.7363L13.7657 46.8167L13.8009 46.8957C14.0392 47.4317 14.3363 47.9353 14.6875 48.4037L14.7531 48.4912L14.7806 48.5229L14.7969 48.542L14.8244 48.573C14.8835 48.6406 14.9439 48.7077 15.0056 48.7733L15.1954 48.9666L20.3027 54.0739C20.6353 54.401 21.004 54.698 21.4115 54.9528L21.6005 55.0706L21.8051 55.1587C22.6217 55.5087 23.4805 55.7167 24.3683 55.7759C24.9262 55.8131 25.4841 55.8509 26.042 55.888L26.138 55.8944H27.5169C28.2042 55.9304 28.9482 55.9486 29.7458 55.9494C30.6054 55.9858 31.496 56.0043 32.4169 56.0051C33.3384 56.0414 34.214 56.0599 35.0421 56.0609C35.8639 56.096 36.6017 56.115 37.2506 56.1166C37.7238 56.1425 38.1302 56.1617 38.4461 56.1695C38.5513 56.1721 38.6468 56.173 38.7311 56.173C38.9627 56.173 39.1935 56.1611 39.423 56.1377L39.6522 56.1102C39.7251 56.1062 39.7988 56.1004 39.873 56.0926C40.3927 56.038 40.9409 55.8868 41.4692 55.5876C42.5303 55.0243 43.2946 54.129 43.7143 53.0378L43.7382 52.9771L43.7587 52.9143C43.8407 52.6682 43.974 52.2501 44.1523 51.68C44.3748 51.0485 44.5971 50.3999 44.8188 49.7347L44.8329 49.691C45.002 49.1555 45.1595 48.6511 45.3076 48.1787C45.5085 48.6726 45.8043 49.153 46.2288 49.5774L51.3361 54.6847C51.4887 54.8373 51.6582 54.9824 51.8454 55.1185C52.6818 55.7268 53.6242 56.0537 54.5736 56.1885C55.3926 56.3374 56.2238 56.3845 57.0613 56.3352C57.6532 56.3004 58.1531 56.2845 58.5658 56.2844C61.52 56.2844 64.4563 56.2469 67.3741 56.1723L76.1753 56.0616H78.8358C79.8711 56.0978 80.9067 56.116 81.9421 56.1166C82.2231 56.126 82.5013 56.133 82.7765 56.1377C83.327 56.1472 83.866 56.1476 84.3931 56.1377L85.1754 56.1152L85.1746 56.1145C86.2691 56.0738 87.2945 55.9714 88.2365 55.7949L88.2372 55.7956L88.6639 55.711C89.6694 55.4859 90.7258 55.0595 91.5819 54.2496L91.5826 54.2503L91.6595 54.1769L91.6821 54.1557L91.6814 54.155C91.7399 54.0987 91.797 54.0414 91.8521 53.9829C92.6791 53.1052 93.1231 51.9983 93.3834 51.0008L93.4017 50.9295L93.4165 50.8569C93.43 50.7919 93.4409 50.7257 93.4539 50.6594L98.0872 55.292C98.4523 55.6569 98.8653 55.9374 99.2842 56.1469C99.7998 56.4047 100.342 56.5676 100.893 56.6463C101.305 56.7051 101.721 56.7309 102.138 56.7309H102.417C102.596 56.7309 102.796 56.7289 103.016 56.7239C103.677 56.7088 104.52 56.6712 105.529 56.6153C106.892 56.5761 108.306 56.5012 109.769 56.3888C111.238 56.3152 112.601 56.2419 113.856 56.1681C114.989 56.1014 115.923 56.0278 116.549 55.9374C117.735 55.8796 118.899 55.6705 119.957 55.2102L120.167 55.1143L120.166 55.1136C122.181 54.2026 122.861 52.2154 123.067 50.6671C123.167 50.1263 123.246 49.3933 123.316 48.5589C123.391 47.6581 123.465 46.6344 123.539 45.49C123.652 44.2742 123.747 43.0235 123.823 41.7383V41.7334C123.897 40.44 123.971 39.2216 124.045 38.0783C124.153 36.9499 124.228 35.9246 124.268 35.0073C124.334 34.1752 124.376 33.483 124.383 32.9935C124.457 31.5397 124.513 30.0856 124.551 28.6317C124.577 28.1193 124.611 27.6121 124.651 27.1103C124.998 27.1135 125.353 27.1195 125.717 27.1279C125.695 27.3843 125.673 27.6395 125.65 27.8932C125.504 29.5355 125.359 30.9882 125.214 32.2529C125.13 32.8215 125.017 33.7819 124.876 35.082C124.725 36.4381 124.575 37.9045 124.425 39.4791L124.422 39.5101L124.42 39.5419C124.309 41.0582 124.198 42.4806 124.087 43.8085C123.977 45.134 123.91 46.1608 123.91 46.7822C123.91 47.1339 123.938 47.4997 124.006 47.8698L124.005 47.8705C124.007 47.8823 124.01 47.8946 124.012 47.9065C124.015 47.9248 124.018 47.9431 124.022 47.9615C124.116 48.4649 124.306 49.0083 124.652 49.5217C124.804 49.7624 124.984 49.9896 125.191 50.196L130.296 55.3019C130.292 55.2978 130.288 55.2933 130.284 55.2892L130.298 55.3033C130.644 55.649 131.065 55.9367 131.558 56.1342C131.899 56.2704 132.254 56.3779 132.623 56.4516L132.697 56.4664L132.772 56.4777C134.71 56.7603 136.747 56.8981 138.88 56.8981H147.359C148.09 56.8981 148.776 56.9315 149.415 56.9954L149.474 57.0018L149.533 57.0053C151.275 57.1077 153.017 57.1355 154.759 57.0885L155.506 57.0638L155.505 57.0631C157.438 56.9888 159.354 56.8958 161.252 56.7845C161.576 56.7797 161.98 56.7563 162.42 56.7225C162.938 56.6827 163.483 56.6242 164.052 56.5497C164.606 56.5105 165.14 56.4538 165.652 56.3783C166.077 56.3429 166.662 56.2747 167.205 56.0919C168.093 55.8251 169.051 55.2566 169.649 54.2002C169.877 53.8318 170.004 53.4802 170.075 53.2529C170.162 52.9758 170.223 52.6924 170.271 52.4248C170.394 51.9216 170.496 51.4057 170.578 50.878C170.595 50.7634 170.608 50.6488 170.624 50.5352L172.303 52.2147C172.91 52.8165 173.595 53.3264 174.349 53.7452L174.404 53.7763L174.46 53.8038C175.322 54.235 176.228 54.5681 177.171 54.8039L177.251 54.8237L177.331 54.8392C178.151 54.9954 178.963 55.088 179.762 55.1087C179.876 55.1116 179.99 55.1129 180.103 55.1129C180.841 55.1129 181.571 55.0398 182.287 54.8893L182.288 54.89L182.586 54.8244C183.181 54.6818 183.764 54.4697 184.315 54.1727L184.588 54.0168C184.7 53.9542 184.809 53.8891 184.917 53.8221C185.673 53.3527 186.345 52.7749 186.927 52.0962L186.959 52.0588L186.99 52.0207C187.6 51.2586 188.096 50.4275 188.465 49.5308C188.854 48.5864 189.071 47.595 189.125 46.5741C189.181 45.5157 189.044 44.4625 188.666 43.4551L188.655 43.4262L188.643 43.3965C188.299 42.5352 187.816 41.749 187.218 41.0414C187 40.7707 186.768 40.5142 186.523 40.2719L185.365 39.1137C185.388 39.0984 185.411 39.0842 185.433 39.0686C186.451 38.3566 187.093 37.3359 187.36 36.1802C187.503 35.7085 187.586 35.1858 187.642 34.7759C187.757 34.1542 187.853 33.5186 187.931 32.8694C188.041 32.2059 188.135 31.5877 188.211 31.0165L188.212 31.0045L188.214 30.9925C188.289 30.3937 188.338 30.0397 188.365 29.8823L188.377 29.8103L188.384 29.7384C188.605 27.8273 188.845 25.9346 189.102 24.0611C189.318 22.6607 189.564 21.2595 189.84 19.858L190.127 18.4565L190.126 18.4558C190.151 18.3489 190.178 18.2253 190.208 18.0891C190.237 17.9526 190.268 17.8031 190.3 17.6447C190.375 17.2701 190.448 16.8672 190.52 16.4386C190.616 16.0498 190.7 15.6789 190.773 15.3277C190.866 15.009 190.991 14.5286 191.019 14.0362C191.104 12.9834 190.786 11.9845 190.14 11.1782C190.02 11.0189 189.889 10.8684 189.749 10.7282L184.641 5.62083C184.168 5.14771 183.583 4.78911 182.91 4.58821L182.726 4.53743L182.516 4.49158C182.018 4.39881 181.476 4.39566 181.133 4.39566V1.5066C181.421 1.5066 182.062 1.50401 182.749 1.60252L183.046 1.65119L183.132 1.66883L183.342 1.71467L183.494 1.75206L183.678 1.80284L183.737 1.81977C184.811 2.14028 185.756 2.69978 186.531 3.42935L186.683 3.57747L191.79 8.68481C192.006 8.9001 192.207 9.12998 192.394 9.3711C192.398 9.37686 192.403 9.38296 192.408 9.38874C192.42 9.40522 192.434 9.42152 192.446 9.43811C193.496 10.7799 194.026 12.4516 193.902 14.1991L193.904 14.1998C193.903 14.2135 193.901 14.2271 193.9 14.2407C193.899 14.2504 193.9 14.26 193.899 14.2697L193.898 14.269C193.85 14.9902 193.688 15.6336 193.579 16.0175C193.511 16.3405 193.435 16.6747 193.351 17.0191C193.281 17.4312 193.21 17.8304 193.133 18.2111C193.098 18.3863 193.064 18.5501 193.033 18.6964C193.008 18.8103 192.982 18.9247 192.956 19.0342L192.957 19.0349L192.674 20.416L192.675 20.4167C192.408 21.7686 192.171 23.12 191.962 24.4702C191.709 26.3111 191.473 28.1703 191.257 30.0473L191.257 30.048L191.249 30.12C191.244 30.1752 191.235 30.2303 191.226 30.285L191.214 30.357C191.199 30.4482 191.157 30.747 191.082 31.3508C191.08 31.3664 191.076 31.3818 191.074 31.3974L191.075 31.3981C190.996 31.9847 190.901 32.6095 190.792 33.2686C190.712 33.9346 190.612 34.5887 190.495 35.2309C190.437 35.6495 190.337 36.2868 190.151 36.9272C189.971 37.6632 189.689 38.3724 189.304 39.0319C189.344 39.0794 189.384 39.1269 189.423 39.1751C189.43 39.183 189.436 39.1912 189.443 39.1991C189.452 39.2096 189.461 39.2202 189.469 39.2308C190.234 40.1456 190.864 41.1745 191.321 42.3124L191.333 42.3421L191.369 42.4338L191.379 42.4627C191.905 43.8754 192.084 45.3227 192.011 46.7257C191.94 48.0613 191.654 49.3744 191.137 50.6305C190.659 51.7908 190.02 52.8585 189.246 53.8256C189.241 53.8323 189.235 53.8388 189.23 53.8454L189.199 53.8835C189.187 53.8985 189.174 53.9138 189.162 53.9286L189.13 53.966C189.127 53.9695 189.124 53.9731 189.121 53.9766C188.348 54.8783 187.45 55.6497 186.442 56.276C186.306 56.3604 186.165 56.4431 186.02 56.525L186.021 56.5257L185.748 56.6816C185.727 56.6934 185.706 56.7048 185.685 56.7161C184.89 57.1442 184.07 57.4395 183.259 57.6338C183.242 57.6379 183.224 57.6419 183.207 57.6457L182.908 57.7113C182.892 57.7149 182.876 57.7166 182.86 57.7198C181.947 57.9099 181.025 58.0019 180.103 58.0019C179.968 58.0019 179.829 58.0007 179.687 57.997C178.716 57.9719 177.748 57.8599 176.791 57.6775L176.784 57.6761L176.703 57.6606C176.654 57.651 176.605 57.6402 176.556 57.6281L176.476 57.6084L176.471 57.607C175.327 57.3211 174.222 56.9156 173.168 56.3881L173.125 56.367C173.078 56.3436 173.031 56.3189 172.985 56.2929L172.93 56.2619C172.643 56.102 172.364 55.9294 172.09 55.7477C171.054 57.493 169.475 58.4054 168.126 58.8293L168.127 58.83C168.124 58.8312 168.12 58.8316 168.116 58.8328C168.089 58.8411 168.063 58.851 168.037 58.8589L168.036 58.8575C167.238 59.1139 166.464 59.2053 165.988 59.2476C165.45 59.3247 164.9 59.3833 164.34 59.4246C163.759 59.4994 163.191 59.5608 162.642 59.6031C162.208 59.6364 161.765 59.6624 161.372 59.6708C159.474 59.7817 157.559 59.875 155.626 59.9494C155.618 59.9497 155.609 59.9512 155.601 59.9515L154.854 59.9762C154.848 59.9764 154.843 59.9767 154.837 59.9769C153.013 60.0261 151.188 59.9967 149.364 59.8894H149.362L149.302 59.8859C149.256 59.8831 149.209 59.8789 149.163 59.8739L149.128 59.8697C148.592 59.8161 148.003 59.7872 147.359 59.7871H138.88C136.624 59.7871 134.446 59.6413 132.355 59.3364C132.351 59.3357 132.346 59.335 132.341 59.3343L132.266 59.323C132.223 59.3165 132.179 59.309 132.136 59.3005L132.061 59.2857L132.056 59.2842C131.645 59.202 131.247 59.0923 130.864 58.9584L130.485 58.8166C129.664 58.488 128.954 58.014 128.365 57.4504C128.327 57.4163 128.29 57.381 128.253 57.3446L125.032 54.1226C124.37 55.4903 123.269 56.8529 121.44 57.7057C121.416 57.7177 121.392 57.731 121.367 57.7424L121.157 57.8383C121.141 57.8454 121.125 57.8526 121.109 57.8595C119.691 58.4766 118.215 58.7336 116.839 58.8131C116.091 58.9139 115.1 58.989 114.026 59.0522C112.768 59.1262 111.406 59.1988 109.94 59.2723C108.475 59.3841 107.055 59.4595 105.679 59.5001C104.663 59.5565 103.787 59.5962 103.082 59.6122C102.84 59.6177 102.618 59.62 102.417 59.62H102.138C101.737 59.62 101.325 59.6012 100.906 59.5579L100.485 59.5064C99.6424 59.3861 98.7996 59.135 97.992 58.7313C97.3323 58.4014 96.657 57.9468 96.0453 57.3354L94.2904 55.5812C94.1835 55.7102 94.0727 55.839 93.9547 55.9642C93.9019 56.0202 93.8478 56.0725 93.796 56.1243C93.7517 56.1719 93.7061 56.2185 93.6584 56.2633L93.6359 56.2844L93.5773 56.3402C93.5369 56.3787 93.4952 56.4159 93.4532 56.4516C92.1225 57.6625 90.5798 58.2426 89.2952 58.5302C89.2723 58.5354 89.2492 58.5405 89.2261 58.5451L88.7994 58.6297C88.7811 58.6333 88.7626 58.6356 88.7444 58.6389C87.6396 58.8443 86.4764 58.957 85.2819 59.0014L85.2812 59.0007C85.2737 59.001 85.2661 59.0026 85.2586 59.0028L84.4764 59.0254C84.4667 59.0257 84.4571 59.0259 84.4474 59.0261C83.8822 59.0367 83.3084 59.0361 82.7271 59.0261C82.4516 59.0214 82.1728 59.0141 81.8913 59.0049C80.8553 59.0038 79.8189 58.9863 78.7822 58.9506H76.2119L67.4234 59.0607C64.4889 59.1355 61.5362 59.1735 58.5658 59.1735C58.2239 59.1735 57.7826 59.1869 57.2313 59.2194C56.1895 59.2806 55.1445 59.2231 54.1074 59.0388C52.7957 58.8444 51.4104 58.3747 50.1462 57.4553C49.8396 57.2323 49.5554 56.9892 49.2942 56.7281L46.4728 53.9068C46.4577 53.9512 46.4421 53.9957 46.4249 54.0394L46.4009 54.1L46.4002 54.0993C45.7477 55.7793 44.5499 57.1996 42.8925 58.1007L42.8932 58.1014C41.9765 58.6206 41.0367 58.8756 40.1749 58.9661C40.1027 58.9737 40.0308 58.9777 39.9597 58.9831L39.7672 59.0063C39.7503 59.0084 39.7334 59.0103 39.7164 59.012C39.3904 59.0452 39.0614 59.062 38.7311 59.0621C38.6254 59.0621 38.5064 59.061 38.3756 59.0578C38.031 59.0494 37.6129 59.0287 37.161 59.0042C36.5044 59.0013 35.7784 58.9822 34.9907 58.9492C34.1517 58.9476 33.2721 58.9291 32.3534 58.8935C31.4402 58.8919 30.552 58.8733 29.6893 58.8378C28.9047 58.8362 28.1595 58.8185 27.4577 58.7835H26.138C26.0744 58.7835 26.0109 58.7813 25.9475 58.7771L25.8516 58.7708H25.8502C25.5704 58.7521 25.2904 58.7331 25.0116 58.7143C24.7326 58.6956 24.4545 58.6771 24.1764 58.6586C22.9593 58.5774 21.7809 58.2915 20.6674 57.8143L20.6617 57.8115L20.4572 57.7233C20.3242 57.666 20.1957 57.5989 20.0728 57.5223L19.8838 57.4045L19.8802 57.4024C19.2801 57.0273 18.7474 56.5961 18.277 56.1335L13.1527 51.0092C13.1465 51.003 13.1399 50.9972 13.1337 50.9909L12.9439 50.7976C12.9301 50.7835 12.9166 50.769 12.903 50.7546C12.8156 50.6618 12.7351 50.5714 12.6625 50.4887L12.635 50.4584C12.6225 50.4442 12.6099 50.4298 12.5976 50.4153L12.5701 50.3836C12.5256 50.3322 12.4825 50.2793 12.4417 50.2249L12.3762 50.1374C11.8971 49.4986 11.4888 48.8072 11.1609 48.0694L11.1277 47.9946C11.1015 47.9358 11.0773 47.8759 11.0551 47.8155L11.0311 47.7506L10.397 46.0232C10.3881 45.9988 10.3791 45.9738 10.3709 45.9492L10.3702 45.947L9.41868 43.2054C9.41644 43.1989 9.41381 43.1921 9.41162 43.1856L9.3954 43.1377C9.38725 43.1136 9.37963 43.0893 9.37212 43.065L9.35731 43.0171L9.3559 43.0142C9.07663 42.1066 8.80122 41.2619 8.52925 40.48C8.52765 40.4754 8.52588 40.4705 8.52431 40.4659L8.50597 40.4123C8.49742 40.3873 8.48914 40.362 8.48128 40.3368L8.46436 40.2825C8.46247 40.2764 8.46056 40.2702 8.45871 40.2641C8.23802 39.539 8.05546 38.9178 7.93676 38.4726C7.2351 36.2547 6.55119 34.0362 5.88565 31.8177C5.88107 31.8025 5.87656 31.7872 5.87224 31.7719L5.86449 31.7444L5.86237 31.7366C5.85973 31.7275 5.85716 31.7183 5.85461 31.7091C5.21362 29.4091 4.59071 27.0898 3.98758 24.7531L3.86979 24.3235L3.62857 23.5209C3.53767 23.2302 3.43509 22.9131 3.32034 22.5687L3.30482 22.5228C3.29062 22.4809 3.27757 22.4384 3.26532 22.3958L3.25827 22.3712L2.31523 19.2098C2.3125 19.2007 2.31012 19.1915 2.30747 19.1823L2.30395 19.1703L2.30113 19.1605L1.29673 15.7015L1.29461 15.6959L1.28262 15.6542C1.27315 15.6214 1.26411 15.588 1.25582 15.5548L1.24524 15.5125L1.24594 15.5118C0.930942 14.2898 0.664619 13.1497 0.454554 12.0993C0.246434 11.0587 0.0834486 10.0275 0.0214773 9.07909C0.0198629 9.05843 0.0191199 9.03772 0.0179506 9.01702L0.0172453 9.01773C-0.0177165 8.42247 -0.0348768 7.35911 0.33112 6.19991L0.331825 6.1992C0.703306 5.02359 1.73036 3.07697 4.08633 2.20911C5.19127 1.77228 6.50321 1.53173 7.5312 1.36906C8.83268 1.1332 10.1993 0.918614 11.6292 0.725086L11.6391 0.72297L11.6708 0.718738C13.1178 0.528355 14.4873 0.373891 15.7773 0.255332C16.9751 0.115179 18.1296 1.38994e-05 18.9513 0ZM143.423 32.5005C143.423 32.7233 143.461 32.8725 143.535 32.947L143.567 33.0119C143.576 33.0262 143.586 33.0399 143.596 33.0528L143.627 33.0895L148.735 38.1968C148.826 38.2877 148.963 38.3329 149.144 38.3329C149.339 38.3329 149.514 38.3438 149.667 38.3647C149.718 38.3716 149.767 38.3794 149.814 38.3886H150.93L152.715 38.2772C153.189 38.2493 153.643 38.232 154.075 38.225L154.5 38.2215C155.058 38.1843 155.43 38.1658 155.616 38.1658L156.369 38.1799C156.704 38.1892 157.123 38.2029 157.625 38.2215L158.416 38.225C159.218 38.232 160.051 38.2493 160.916 38.2772C162.009 38.2772 163.023 38.2938 163.959 38.3252C163.927 38.5406 163.89 38.7566 163.842 38.972C163.759 39.4738 163.654 39.976 163.528 40.4779L163.263 41.4823C163.138 41.9842 163.033 42.4869 162.949 42.9889L162.879 43.3648C162.852 43.5228 162.819 43.7137 162.782 43.9368C162.745 44.3829 162.689 44.848 162.615 45.3313L162.555 45.691C162.492 46.0464 162.419 46.3919 162.336 46.7264C162.261 47.1722 162.168 47.4698 162.057 47.6187C161.908 47.9162 161.629 48.1208 161.22 48.2323C161.034 48.3067 160.699 48.363 160.216 48.4002C159.733 48.4746 159.212 48.5302 158.654 48.5674C158.096 48.6417 157.575 48.6973 157.091 48.7345C156.608 48.7717 156.254 48.7902 156.031 48.7902C154.135 48.9018 152.219 48.9952 150.286 49.0696C148.389 49.1439 146.492 49.1254 144.595 49.0138C143.851 48.9395 143.07 48.9017 142.252 48.9017V46.0126C143.127 46.0126 143.975 46.0523 144.794 46.1311C146.587 46.2356 148.38 46.2529 150.173 46.1826H150.175C152.089 46.109 153.985 46.0165 155.862 45.9061L156.031 45.9012C156.136 45.9012 156.396 45.8904 156.87 45.8539C157.293 45.8214 157.76 45.772 158.272 45.7037L158.462 45.6846C158.892 45.656 159.283 45.6143 159.637 45.564C159.662 45.4452 159.686 45.3241 159.708 45.2001L159.763 44.8735C159.826 44.458 159.872 44.0657 159.903 43.697L159.933 43.4621C159.97 43.2373 160.004 43.0348 160.034 42.8626C160.036 42.8541 160.038 42.8457 160.039 42.8372L160.109 42.4613C160.183 42.0241 160.27 41.5875 160.371 41.1522C159.689 41.1329 159.029 41.1196 158.391 41.1141L157.612 41.1105C157.581 41.1104 157.549 41.1096 157.518 41.1084C157.03 41.0903 156.625 41.0765 156.304 41.0675L155.599 41.0548C155.598 41.0548 155.597 41.0548 155.595 41.0548C155.581 41.0551 155.562 41.0561 155.538 41.0569C155.488 41.0586 155.423 41.0613 155.342 41.0654C155.177 41.0736 154.962 41.0862 154.693 41.1042C154.637 41.1079 154.58 41.1101 154.524 41.1105L154.099 41.1141L154.098 41.1134C153.717 41.1199 153.313 41.1362 152.885 41.1613L152.884 41.1606L151.11 41.2721C151.05 41.2758 150.99 41.2777 150.93 41.2777H149.814C149.634 41.2777 149.454 41.2603 149.278 41.2269C149.279 41.2271 149.28 41.2275 149.281 41.2276C149.285 41.2283 149.284 41.2278 149.278 41.2269C149.278 41.2269 149.267 41.2261 149.245 41.2248C149.222 41.2234 149.189 41.222 149.144 41.222C148.523 41.2218 147.52 41.0661 146.694 40.2416L141.585 35.1321C141.536 35.0831 141.488 35.0322 141.443 34.9798L141.411 34.9431C141.378 34.9051 141.346 34.8664 141.315 34.8267C141.247 34.7387 141.168 34.6281 141.089 34.4966C141.081 34.483 141.074 34.4687 141.066 34.455C140.829 34.0815 140.71 33.7245 140.649 33.4788C140.554 33.0983 140.534 32.7518 140.534 32.5005C140.534 32.3516 140.544 32.1808 140.558 32.0096L140.608 31.5123C140.653 31.0705 140.719 30.6322 140.805 30.1983C140.884 29.7615 140.966 29.3514 141.05 28.9724C141.101 28.7442 141.177 28.4412 141.298 28.138C141.358 27.9876 141.463 27.7517 141.631 27.4983C141.729 27.3507 141.929 27.0756 142.258 26.8091C142.287 26.7853 142.316 26.7623 142.344 26.74C142.348 26.737 142.352 26.7339 142.356 26.7308C142.926 26.2941 143.526 26.1523 143.903 26.1052C143.968 26.0971 144.031 26.0911 144.094 26.0869L142.077 24.0703C141.427 23.4197 141.204 22.6128 141.204 21.9564V21.3985C141.204 21.2619 141.213 21.1254 141.233 20.9901C141.249 20.877 141.26 20.7351 141.26 20.562C141.26 20.4346 141.269 20.3073 141.286 20.1811L141.397 19.3439L141.401 19.3163C141.415 19.2123 141.424 19.1434 141.428 19.1033C141.429 19.0937 141.429 19.0873 141.429 19.0843C141.429 19.0884 141.427 19.1185 141.427 19.1668C141.427 18.9293 141.457 18.6925 141.515 18.4622C141.639 17.9668 141.898 17.4166 142.37 16.9436C142.735 16.5783 143.147 16.3409 143.545 16.1938C144.006 16.0018 144.474 15.9105 144.923 15.8919C145.481 15.8436 146.162 15.8563 146.86 15.8912C147.62 15.9293 148.483 15.9854 149.446 16.0591C150.43 16.0976 151.448 16.154 152.5 16.2291C153.583 16.3038 154.611 16.3793 155.583 16.4541C156.54 16.5277 157.399 16.6019 158.156 16.677C158.898 16.7131 159.504 16.7513 159.921 16.7976C159.95 16.8009 159.98 16.8046 160.01 16.8089C160.295 16.8496 160.593 16.876 160.903 16.8865L161.113 16.89C161.267 16.8756 161.416 16.8508 161.562 16.8152C161.599 16.6774 161.622 16.5515 161.631 16.435L161.651 16.2481L161.855 14.817C160.696 14.863 159.54 14.9071 158.389 14.9447H158.38L155.806 15.0216C155.802 15.0217 155.797 15.0221 155.793 15.0223L153.854 15.0709H153.848C152.544 15.1007 151.235 15.1251 149.922 15.1443C149.265 15.1539 148.607 15.162 147.948 15.169C147.938 15.1691 147.927 15.169 147.917 15.169C147.818 15.169 147.716 15.1669 147.615 15.164C147.313 15.1554 146.95 15.1355 146.54 15.1062C146.038 15.0704 145.459 15.0342 144.8 14.9976L142.697 14.8861C142.174 14.86 141.661 14.8447 141.161 14.8382L140.659 14.8346C139.88 14.8348 139.193 14.8744 138.593 14.9433C138.592 14.944 138.593 14.9453 138.593 14.9461C138.421 15.8384 138.244 16.9683 138.062 18.3472C137.88 19.732 137.697 21.2887 137.513 23.018C137.329 24.7457 137.145 26.5105 136.961 28.3115L136.738 30.9473L136.738 30.9516C136.663 31.8197 136.588 32.6741 136.513 33.5127L136.513 33.5197L136.4 34.7477C136.287 35.9475 136.175 37.048 136.06 38.0473C136.056 38.0844 136.051 38.1217 136.046 38.1587C135.983 38.5686 135.876 39.4363 135.727 40.8192L135.726 40.8277C135.579 42.1494 135.432 43.5849 135.285 45.1338C135.263 45.4301 135.241 45.7231 135.219 46.0126H142.252V48.9017H133.772C133.205 48.9017 132.646 48.89 132.096 48.8692C132.144 48.2892 132.193 47.692 132.241 47.0777C132.297 46.3618 132.352 45.6225 132.408 44.8601C132.557 43.2982 132.706 41.8477 132.855 40.5089C133.003 39.1329 133.115 38.2028 133.19 37.7193C133.301 36.7431 133.412 35.6622 133.524 34.4769L133.636 33.2566C133.71 32.4199 133.785 31.5687 133.859 30.704L134.082 28.0682C134.268 26.2459 134.454 24.4605 134.64 22.7125C134.826 20.9646 135.012 19.3838 135.198 17.9706C135.384 16.5574 135.57 15.3671 135.756 14.4002C135.942 13.4334 136.128 12.8567 136.314 12.6707C136.611 12.3733 137.15 12.1871 137.931 12.1127C138.749 12.0012 139.661 11.9456 140.665 11.9456L141.198 11.9491C141.735 11.9561 142.283 11.9734 142.841 12.0013L144.96 12.1127C145.63 12.1499 146.225 12.187 146.746 12.2242C147.136 12.2521 147.453 12.2694 147.697 12.2764C147.779 12.2787 147.852 12.2799 147.917 12.2799C148.572 12.2729 149.227 12.2648 149.879 12.2552C151.185 12.2361 152.486 12.2121 153.781 12.1826L155.72 12.1339L158.294 12.057C160.005 12.0012 161.725 11.9361 163.454 11.8616C164.104 11.8337 164.755 11.8026 165.407 11.7721C165.352 12.0426 165.296 12.3134 165.237 12.5839C165.051 13.402 164.883 14.2396 164.734 15.0949L164.512 16.6565C164.474 17.1399 164.362 17.624 164.177 18.1074L164.058 18.3232C163.765 18.8113 163.358 19.1858 162.838 19.4461L162.642 19.5124C162.182 19.6589 161.708 19.7486 161.22 19.7812L160.805 19.7741C160.394 19.7602 159.992 19.7248 159.602 19.669C159.267 19.6318 158.709 19.5947 157.929 19.5576C157.185 19.4832 156.329 19.4091 155.362 19.3347C154.395 19.2603 153.372 19.1855 152.294 19.1111C151.253 19.0367 150.248 18.9811 149.281 18.9439C148.314 18.8696 147.459 18.814 146.715 18.7768C145.972 18.7396 145.432 18.7396 145.097 18.7768C144.911 18.7768 144.744 18.8139 144.595 18.8882C144.447 18.9254 144.354 19.0185 144.316 19.1668C144.316 19.2783 144.298 19.4647 144.261 19.7247L144.149 20.562C144.149 20.8593 144.13 21.1383 144.093 21.3985V21.9564C144.093 21.986 144.102 22.0099 144.12 22.0277L149.227 27.135C149.243 27.1506 149.265 27.1616 149.295 27.1682L149.368 27.1752C149.479 27.1474 149.57 27.13 149.64 27.123L149.702 27.1195H151.209L151.756 27.0955C152.133 27.0816 152.533 27.0719 152.955 27.0673L153.608 27.0638H156.509L157.252 27.0398C157.682 27.0275 158.101 27.0196 158.509 27.0144C158.486 27.1322 158.46 27.2501 158.43 27.3678C158.356 27.6652 158.282 27.9633 158.207 28.2607L158.152 28.442C158.096 28.6091 158.04 28.735 157.984 28.8186L157.892 28.9244C157.656 29.1605 157.278 29.3114 156.757 29.3766C156.199 29.4509 155.604 29.488 154.972 29.488L153.716 29.4845C152.461 29.4775 151.206 29.4602 149.951 29.4323C148.314 29.3579 146.659 29.2275 144.986 29.0415C144.911 29.0044 144.762 28.9858 144.539 28.9858C144.316 28.9487 144.167 28.9673 144.093 29.0415C144.019 29.0791 143.944 29.2654 143.87 29.5994C143.796 29.9341 143.721 30.3063 143.647 30.7153C143.573 31.0871 143.516 31.4593 143.479 31.8311C143.442 32.1654 143.423 32.3888 143.423 32.5005ZM86.7447 12.2277C86.874 12.2299 87.0055 12.2332 87.139 12.2376C87.0694 13.0017 87.0006 13.7498 86.9309 14.4813C86.7822 16.415 86.6703 18.349 86.5959 20.2827C86.5215 22.2165 86.4474 24.1509 86.373 26.0848C86.3358 27.312 86.3173 28.8003 86.3173 30.5481L86.3102 31.8417C86.2963 33.1456 86.2616 34.4814 86.2058 35.848C86.1687 37.6701 86.0938 39.4181 85.9823 41.0915C85.8707 42.7277 85.7032 44.0856 85.4801 45.1641C85.257 46.0193 84.941 46.6331 84.5321 47.005C84.123 47.4141 83.4907 47.6935 82.6354 47.8423C81.8544 47.991 80.9614 48.0837 79.9573 48.1209C78.9904 48.1581 77.9675 48.1581 76.8891 48.1209C75.8478 48.1209 74.8064 48.1023 73.7651 48.0652H71.0312L62.2166 48.1766C59.3159 48.251 56.3964 48.288 53.4585 48.288L53.0818 48.2916C53.0389 48.2923 52.9953 48.2941 52.9513 48.2951C52.9671 47.1483 52.9917 46.0044 53.0254 44.8636L53.0981 42.7406C53.1817 40.6206 53.2344 38.4897 53.2553 36.3488L53.2659 34.2046C53.2659 31.8244 53.2096 29.4625 53.0981 27.1195C52.9865 24.7765 52.9309 22.4331 52.9309 20.0901V18.8628C52.9309 18.2307 52.9494 17.5612 52.9866 16.8547C53.0238 16.1482 53.0794 15.5159 53.1538 14.9581C53.2653 14.3633 53.3958 14.0282 53.5445 13.9537C53.9166 13.8049 54.8468 13.6559 56.3341 13.5072C57.4777 13.3956 58.7889 13.2945 60.2671 13.2039L61.8012 13.1171C63.4191 13.0056 65.1313 12.9045 66.9375 12.8138L68.7749 12.7264C70.6435 12.6427 72.4602 12.5698 74.2243 12.507L75.9714 12.4478C78.2771 12.3734 80.3599 12.3171 82.2193 12.2799C84.0786 12.2427 85.455 12.2242 86.3476 12.2242C86.4776 12.2242 86.6101 12.2254 86.7447 12.2277ZM23.1354 11.9145C23.2097 12.7326 23.2653 13.5326 23.3025 14.3134C23.3397 15.0569 23.3768 15.5596 23.414 15.82L23.9719 20.1712C24.195 21.6215 24.4188 23.0722 24.642 24.5224L29.7493 29.6298C29.9166 28.821 30.0733 28.0122 30.2198 27.2034L30.3629 26.3944C30.5861 25.316 30.8092 24.2374 31.0323 23.159L32.2039 17.6355C32.2224 17.5612 32.2459 17.4496 32.2737 17.3012L32.371 16.7433C32.4454 16.297 32.5381 15.8315 32.6496 15.3481C32.7054 15.088 32.757 14.8371 32.8034 14.5955L32.929 13.898L33.1518 13.0057C33.2634 12.5596 33.4125 12.1873 33.5983 11.8899C33.8215 11.5553 34.1936 11.3877 34.7142 11.3877C35.8856 11.4434 37.0574 11.4781 38.2289 11.492L39.4004 11.4991C40.9995 11.4619 42.5805 11.4804 44.1424 11.5548C44.4771 11.5548 45.0354 11.5734 45.8162 11.6105L46.4086 11.6423C46.6899 11.6586 46.9759 11.6772 47.2663 11.698C47.2543 11.739 47.2456 11.7744 47.236 11.8031C45.86 16.6751 44.3903 21.473 42.8284 26.1962C41.2663 30.9194 39.667 35.6803 38.0307 40.4779C37.9563 40.701 37.8072 41.1289 37.5842 41.7609C37.3982 42.3558 37.1936 43.0074 36.9705 43.7139L36.6362 44.7042C36.5247 45.0295 36.4127 45.3503 36.3012 45.6663C36.1153 46.2611 35.9848 46.6704 35.9104 46.8936C35.7245 47.377 35.4086 47.7306 34.9624 47.9537C34.7765 48.0652 34.5533 48.1209 34.2931 48.1209C34.07 48.158 33.8467 48.1766 33.6237 48.1766L33.0792 48.1625C32.8468 48.1532 32.563 48.1395 32.2286 48.1209C31.5965 48.1209 30.8527 48.1023 29.9976 48.0652C29.1794 48.0652 28.3049 48.0466 27.3751 48.0094C26.4455 48.0094 25.5529 47.9909 24.6977 47.9537C23.8795 47.9537 23.1354 47.9352 22.466 47.898H21.1273L20.4833 47.855C20.3225 47.3919 20.1563 46.9144 19.986 46.4224C19.6885 45.4555 19.3913 44.5439 19.0938 43.6885C18.8335 42.8332 18.666 42.2566 18.5916 41.9591C17.885 39.7276 17.1965 37.4961 16.5271 35.2647C15.8948 32.9961 15.2812 30.7083 14.6861 28.4025C14.5002 27.6959 14.24 26.8404 13.9053 25.8365C13.6078 24.8324 13.2913 23.7725 12.9566 22.6568C12.6219 21.504 12.2877 20.3507 11.953 19.1979C11.6554 18.045 11.4131 17.0036 11.2272 16.0739C11.0412 15.1442 10.93 14.3815 10.8928 13.7865C10.8557 13.1547 10.9671 12.801 11.2272 12.7264C11.6363 12.5405 12.4363 12.3544 13.626 12.1685C14.8533 11.9453 16.1555 11.7408 17.5315 11.5548C18.9446 11.3689 20.2654 11.2199 21.4926 11.1083C22.1248 11.034 22.6548 10.9776 23.0825 10.9405C23.1026 11.2567 23.1209 11.5814 23.1354 11.9145ZM179.936 40.2853C180.331 40.2853 180.719 40.3292 181.1 40.4165C181.101 40.4169 181.103 40.4169 181.105 40.4172C181.139 40.7059 181.149 41.005 181.133 41.3151L181.113 41.5782C181.056 42.1882 180.914 42.7701 180.686 43.3232L180.584 43.5588C180.336 44.1037 180.017 44.6204 179.626 45.1084C179.18 45.6289 178.66 46.0567 178.065 46.3914C177.656 46.6517 177.172 46.8377 176.614 46.9493C176.093 47.0609 175.554 47.1165 174.996 47.1165C174.405 47.1165 173.787 47.064 173.144 46.9599C173.145 46.9369 173.146 46.9138 173.147 46.8908C173.156 46.7132 173.175 46.5335 173.204 46.3519L173.242 46.1431C173.339 45.6552 173.494 45.1813 173.705 44.7219L173.799 44.5258C174.027 44.0704 174.326 43.6143 174.696 43.1588L174.86 42.9635C175.306 42.443 175.789 41.9966 176.31 41.6247C176.868 41.2157 177.463 40.8992 178.095 40.6761C178.727 40.4158 179.341 40.2853 179.936 40.2853ZM125.127 15.3961C124.617 15.4241 124.113 15.4572 123.615 15.4955C123.591 15.4974 123.567 15.4985 123.544 15.4998L121.535 15.6042L121.526 15.6049C120.004 15.6788 118.482 15.741 116.961 15.7911C116.455 15.8078 115.948 15.8228 115.441 15.8369L115.432 15.8376L113.448 15.887C113.445 15.8871 113.441 15.8869 113.437 15.887C111.429 15.9294 109.41 15.9505 107.382 15.9505C107.378 15.9505 107.374 15.9505 107.37 15.9505L104.779 15.9399C104.776 15.9399 104.772 15.9399 104.768 15.9399C102.181 15.919 99.6041 15.8657 97.0377 15.7826C96.9668 15.7829 96.8933 15.7862 96.8169 15.789C96.8034 15.8413 96.7913 15.8951 96.7781 15.9498C96.7224 16.3279 96.6792 16.7033 96.6505 17.0762C96.6317 17.3207 96.6121 17.5514 96.5926 17.7674C97.2198 17.5035 97.7398 17.2858 98.1514 17.1143L98.356 17.0381C99.3862 16.6973 100.529 16.9625 101.305 17.7385L106.412 22.8459C107.075 23.5089 107.376 24.4523 107.217 25.3766C106.764 28.0175 106.256 30.6409 105.69 33.2453L105.31 35.1328C104.929 37.0527 104.558 38.9841 104.198 40.925L104.052 41.7609L104.052 41.7616C103.989 42.1298 103.913 42.5809 103.824 43.1144C103.719 43.8983 103.604 44.7177 103.482 45.5725C103.729 45.5555 103.978 45.5389 104.229 45.5196C104.255 45.5176 104.281 45.516 104.307 45.5147C105.043 45.4778 105.753 45.4402 106.436 45.4032L108.417 45.2918C109.695 45.2165 110.399 45.1494 110.67 45.1042L110.857 45.0788C110.92 45.0725 110.983 45.0682 111.046 45.0661C111.564 45.0482 111.944 44.9867 112.214 44.9151C112.222 44.8693 112.231 44.818 112.238 44.7607L112.274 44.542C112.3 44.4111 112.345 44.1038 112.399 43.5517L112.45 42.9719L112.56 41.5648C112.597 41.0625 112.633 40.5265 112.67 39.9573L112.676 39.8741C112.758 39.0087 112.828 38.12 112.889 37.2093L112.948 36.2804C113.022 34.9792 113.097 33.7492 113.172 32.5929L113.179 32.5005C113.287 31.385 113.357 30.4164 113.392 29.5903L113.398 29.4802C113.452 28.8085 113.482 28.3212 113.494 27.9997L113.501 27.6972L113.504 27.6104C113.578 26.185 113.632 24.759 113.669 23.3332L113.671 23.2627C113.749 21.7008 113.886 20.1721 114.083 18.6787L114.104 18.5447C114.349 17.1749 115.543 16.1664 116.947 16.1663C117.408 16.1663 118.085 16.1865 118.949 16.222C119.881 16.2227 120.861 16.2411 121.888 16.2771C122.884 16.2767 123.8 16.2598 124.638 16.2249L124.642 16.2242C124.796 16.218 124.935 16.2096 125.057 16.2009L125.116 15.5583C125.121 15.5035 125.123 15.4493 125.127 15.3961ZM20.3994 14.1208C19.6084 14.2058 18.7782 14.3048 17.9088 14.4192C16.575 14.5996 15.3197 14.797 14.143 15.011C14.1196 15.0152 14.096 15.0193 14.0725 15.023C14.0385 15.0283 14.0047 15.0339 13.9716 15.0392C13.9984 15.1865 14.0275 15.3428 14.0605 15.5075C14.2311 16.3603 14.4559 17.3322 14.7376 18.4269C14.9017 18.9922 15.0653 19.5576 15.2292 20.1225C15.3965 20.6991 15.5642 21.2752 15.7314 21.8513C16.0581 22.9403 16.3671 23.9772 16.659 24.9619C16.9134 25.7265 17.132 26.425 17.3114 27.0532L17.48 27.6675L17.4835 27.6809C18.0729 29.9649 18.6808 32.2305 19.3068 34.4769C19.9679 36.6797 20.6481 38.8829 21.3459 41.0866C21.3639 41.1432 21.3802 41.201 21.3946 41.2587C21.4477 41.471 21.5906 41.9667 21.8467 42.809C22.09 43.511 22.3311 44.2455 22.5718 45.0111C22.5899 45.0117 22.608 45.0122 22.6261 45.0132C23.2319 45.0468 23.9217 45.0647 24.6977 45.0647C24.7395 45.0647 24.7814 45.0657 24.8232 45.0675C25.6332 45.1027 26.4837 45.1204 27.3751 45.1204C27.4136 45.1204 27.4523 45.121 27.4908 45.1225C28.387 45.1583 29.2226 45.1761 29.9976 45.1761C30.0394 45.1761 30.0813 45.1771 30.1231 45.1789C30.9498 45.2149 31.6498 45.2318 32.2286 45.2318C32.2819 45.2318 32.3354 45.2331 32.3887 45.2361C32.7046 45.2536 32.9681 45.2656 33.1793 45.2741L33.3924 45.2798C33.4367 45.1394 33.4887 44.9814 33.544 44.8044L33.5772 44.7049C33.685 44.3995 33.7921 44.0912 33.8988 43.7802L34.2247 42.8139C34.4432 42.1216 34.6446 41.4828 34.827 40.8989L34.8602 40.7995C35.0846 40.1635 35.2247 39.7595 35.2897 39.5644L35.2961 39.5454C36.9296 34.7562 38.5262 30.0036 40.0853 25.2891C41.269 21.7099 42.3987 18.0865 43.4751 14.4199C42.155 14.3683 40.8189 14.356 39.4674 14.3875C39.4395 14.3881 39.4115 14.3883 39.3835 14.3882L38.2119 14.3811C38.2063 14.3811 38.2 14.3812 38.1943 14.3811C37.3965 14.3716 36.5985 14.3516 35.8004 14.3233L35.7552 14.5038L35.6466 15.1076C35.6446 15.1188 35.6424 15.1303 35.6403 15.1415C35.5891 15.4074 35.5334 15.6787 35.4745 15.9533C35.4713 15.9681 35.468 15.983 35.4646 15.9977C35.3656 16.427 35.2846 16.834 35.2206 17.218C35.2194 17.2252 35.2183 17.2327 35.2171 17.2398L35.1197 17.7978C35.1176 17.8097 35.1156 17.8218 35.1134 17.8337C35.0887 17.9652 35.0595 18.1038 35.0294 18.2344L35.0302 18.2351L33.8586 23.7586C33.6393 24.8185 33.4212 25.8713 33.2019 26.9312L33.0644 27.707C33.0637 27.7107 33.0636 27.7146 33.063 27.7183C32.9123 28.5503 32.7506 29.3827 32.5784 30.2152C32.3632 31.2552 31.5948 32.0931 30.5774 32.3975C29.5599 32.7019 28.4576 32.4234 27.7066 31.6724L22.5993 26.5651C22.1649 26.1306 21.8802 25.5691 21.7868 24.9619C21.6752 24.2371 21.5635 23.5119 21.4517 22.7866C21.34 22.0615 21.2283 21.336 21.1167 20.6106C21.113 20.5867 21.1092 20.5627 21.1061 20.5387L20.5482 16.1875L20.5489 16.1868C20.4931 15.7745 20.4521 15.1603 20.417 14.458V14.4509C20.4118 14.3414 20.4053 14.2313 20.3994 14.1208ZM180.471 43.235C180.473 43.2355 180.475 43.236 180.477 43.2364H180.475C180.474 43.2361 180.472 43.2354 180.471 43.235ZM66.5121 18.0517C65.3968 18.0518 64.4113 18.3491 63.5561 18.9439L63.2408 19.1605C62.521 19.6811 61.9007 20.3159 61.3801 21.0642L61.1636 21.3752C60.6756 22.1113 60.3017 22.919 60.0414 23.7974L59.9363 24.1578C59.7086 24.9915 59.5949 25.7829 59.5949 26.5312L59.6041 26.8324C59.6488 27.5239 59.8507 28.1301 60.2086 28.6508C60.3585 28.8507 60.5215 29.0388 60.6966 29.2136L65.8033 34.3203C66.1494 34.6657 66.5452 34.9621 66.9897 35.209C67.6589 35.5436 68.4027 35.8039 69.2206 35.9898C69.9366 36.12 70.6531 36.1936 71.3691 36.2099L71.6759 36.2134C71.8061 36.2134 71.9341 36.2098 72.0596 36.2028C72.8753 36.1573 73.5929 35.9644 74.2123 35.6244L74.3534 35.5433C75.1341 35.0971 75.7852 34.5395 76.3057 33.8703C76.7612 33.2521 77.1035 32.5766 77.3313 31.8445L77.4216 31.5271C77.6494 30.7787 77.7775 30.0582 77.806 29.3667L77.8123 29.0726C77.8123 28.366 77.6448 27.6589 77.3101 26.9523C77.0126 26.2458 76.5849 25.6135 76.0271 25.0557L70.9198 19.9483C70.3621 19.3907 69.6924 18.9443 68.9117 18.6096C68.261 18.2843 67.567 18.1009 66.831 18.0601L66.5121 18.0517ZM166.64 32.7361L166.665 32.8264L166.697 32.9145C166.782 33.1521 166.893 33.4297 167.039 33.7123L166.371 33.0443C166.43 32.7958 166.48 32.546 166.52 32.2945C166.56 32.447 166.599 32.5943 166.64 32.7361ZM175.919 12.2242C176.7 12.2242 177.538 12.2427 178.43 12.2799L179.113 12.2834C179.559 12.2881 179.987 12.2977 180.396 12.3116L180.996 12.3356H182.285L182.262 12.445C182.234 12.5748 182.211 12.6775 182.192 12.7518C181.783 14.6854 181.43 16.6195 181.133 18.5532C180.873 20.4498 180.63 22.3657 180.407 24.2996C180.37 24.5227 180.314 24.932 180.24 25.5268C180.166 26.0846 180.073 26.6985 179.961 27.3678C179.887 27.9998 179.794 28.6138 179.682 29.2087C179.608 29.7661 179.533 30.1384 179.459 30.3245C179.348 30.9195 179.05 31.3657 178.566 31.6633C178.306 31.812 178.027 31.9054 177.73 31.9426L177.507 31.9461C177.284 31.9531 177.06 31.9704 176.837 31.9983C176.576 32.0355 176.111 32.1097 175.442 32.2212C174.916 32.2831 174.351 32.3598 173.747 32.4476C173.746 32.4383 173.745 32.4287 173.744 32.4194C173.632 31.4525 173.539 30.5223 173.464 29.6298C173.427 28.7002 173.39 27.8632 173.353 27.1195C173.316 26.3761 173.279 25.8368 173.242 25.5021C173.242 25.3905 173.232 25.2134 173.213 24.9717L173.13 24.0513C173.093 23.2703 173.037 22.452 172.962 21.5967C172.888 20.7414 172.814 19.9416 172.739 19.1979C172.702 18.4169 172.665 17.8959 172.628 17.6355C172.628 17.4496 172.591 17.152 172.516 16.7433C172.442 16.297 172.367 15.8316 172.293 15.3481C172.256 14.8648 172.237 14.4184 172.237 14.0094C172.237 13.5636 172.274 13.2474 172.349 13.0614C172.46 12.7268 172.703 12.5036 173.074 12.3921C173.26 12.3178 173.465 12.2799 173.688 12.2799C173.855 12.2521 174.022 12.2347 174.19 12.2277L174.357 12.2242H175.919ZM175.361 16.2368C175.426 16.5965 175.493 17.0218 175.511 17.4253C175.556 17.8233 175.591 18.3689 175.621 18.9855C175.695 19.7224 175.768 20.5096 175.841 21.3463C175.916 22.2064 175.973 23.0368 176.012 23.8361L176.091 24.7115L176.094 24.7503C176.108 24.9273 176.118 25.1182 176.124 25.2976C176.167 25.7181 176.204 26.2903 176.239 26.9749C176.271 27.6319 176.303 28.3583 176.336 29.1523C176.369 29.1474 176.399 29.1423 176.428 29.1382L176.478 29.1318C176.578 29.1193 176.679 29.1081 176.779 29.0987C176.791 29.0216 176.804 28.9315 176.818 28.8271L176.842 28.6762C176.941 28.1479 177.025 27.5987 177.092 27.0299C177.097 26.9841 177.104 26.9385 177.112 26.8931C177.219 26.2499 177.307 25.6671 177.376 25.1452C177.44 24.6392 177.496 24.2265 177.541 23.9398C177.765 21.9949 178.009 20.068 178.271 18.1603C178.273 18.1448 178.275 18.1292 178.278 18.1137C178.429 17.1327 178.593 16.1514 178.771 15.1704L178.415 15.169C178.38 15.1688 178.345 15.1676 178.31 15.1661C177.452 15.1304 176.655 15.1132 175.919 15.1132H175.181C175.241 15.5001 175.301 15.875 175.361 16.2368ZM29.6752 0.5022C29.7145 0.5022 29.7538 0.502718 29.793 0.504316L29.8622 0.507137L29.8819 0.508548C31.3388 0.577918 32.795 0.612975 34.2508 0.613643C35.9179 0.576927 37.5702 0.59661 39.2072 0.672186C39.6693 0.67689 40.2789 0.698605 40.9832 0.732139C41.8463 0.773237 42.7407 0.833816 43.6642 0.914116C44.6218 0.997396 45.5416 1.10341 46.4192 1.23504C47.0755 1.33348 47.9152 1.48502 48.7461 1.75981L49.1016 1.88536L49.1785 1.91569L49.4515 2.02784L49.5192 2.05676L49.5432 2.06734L49.5784 2.08356L49.6031 2.09485C49.61 2.09802 49.6174 2.1008 49.6243 2.10402C49.9486 2.2554 50.2776 2.43974 50.6047 2.6563C50.6203 2.65472 50.6362 2.65223 50.6519 2.65065L50.659 2.64995L50.6654 2.64924C52.2874 2.491 54.182 2.35687 56.3348 2.24297C58.5335 2.09169 60.8919 1.95926 63.4087 1.84657C65.9229 1.734 68.3464 1.64035 70.6779 1.56514C73.0014 1.49019 75.1082 1.43363 76.9963 1.39586C78.8623 1.35854 80.2868 1.33873 81.2403 1.33873C81.8595 1.33873 82.4968 1.36085 83.1475 1.39939C83.8635 1.4078 84.5792 1.45503 85.2889 1.55104C85.3096 1.55335 85.3309 1.55391 85.3517 1.55668C86.211 1.67127 87.119 1.86431 88.0129 2.18936C88.1828 2.25114 88.3731 2.32735 88.5786 2.4186C89.2091 2.22142 89.8528 2.1103 90.4943 2.07792C90.9719 2.0347 91.4602 2.0081 91.9543 2.00809V4.89715C91.5425 4.89716 91.123 4.91992 90.6974 4.95993C89.9018 4.99097 89.1178 5.20923 88.4037 5.64481C87.9249 5.27564 87.4216 5.04825 87.0255 4.90421C86.3733 4.66708 85.6771 4.51471 84.9694 4.42034L84.9687 4.42175C84.3389 4.33319 83.6887 4.28985 83.022 4.28562C82.4015 4.24812 81.8069 4.22779 81.2403 4.22779C80.3173 4.22779 78.9168 4.24696 77.0541 4.28421C75.1805 4.32169 73.0857 4.37812 70.771 4.45279C68.4522 4.52759 66.0406 4.62074 63.5377 4.73281C61.0319 4.84501 58.6889 4.97623 56.5098 5.12639C54.3755 5.23906 52.5185 5.37149 50.9461 5.5249L50.939 5.52561C50.5025 5.56926 50.0996 5.61456 49.7336 5.66103C49.329 5.24363 48.8648 4.93829 48.4019 4.72223L48.3772 4.71094L48.3533 4.70036L48.0803 4.58821C47.4292 4.34223 46.6817 4.19606 45.9904 4.09236C45.18 3.97082 44.3204 3.87144 43.4138 3.79259C42.5245 3.71527 41.6677 3.65682 40.8457 3.61767C40.1119 3.58274 39.5225 3.56236 39.1141 3.55983C37.5157 3.48511 35.9009 3.46577 34.2698 3.5027C32.7614 3.50233 31.2529 3.46591 29.7444 3.39408L29.6752 3.39126H29.6068V0.5022H29.6752ZM163.563 0.725086V3.61414H163.486L163.41 3.61838C159.933 3.8033 156.494 3.95112 153.092 4.06203C149.702 4.17257 146.275 4.24643 142.81 4.28351C142.656 4.28349 142.35 4.27164 141.844 4.23555C141.305 4.19703 140.694 4.15838 140.014 4.12058C139.339 4.08306 138.626 4.04586 137.877 4.00843C137.088 3.96897 136.315 3.94918 135.558 3.94918C134.456 3.94919 133.417 4.01006 132.45 4.14103C131.658 4.22444 130.582 4.43598 129.664 5.09747C129.314 4.83775 128.917 4.63476 128.482 4.49582C127.749 4.22476 126.995 4.11638 126.264 4.11634C125.796 4.11635 125.327 4.13948 124.86 4.18617L124.845 4.18829L124.829 4.1897C124.586 4.2166 124.378 4.22779 124.2 4.22779V1.33873C124.258 1.33873 124.36 1.33492 124.51 1.31827L124.548 1.31475C124.556 1.31383 124.565 1.31206 124.573 1.31122C125.137 1.25492 125.701 1.22729 126.264 1.22729C127.277 1.22733 128.376 1.37752 129.478 1.7845C129.539 1.80502 129.6 1.82517 129.66 1.84728C130.583 1.48937 131.447 1.34768 132.062 1.27878C133.181 1.12722 134.352 1.06013 135.558 1.06012C136.365 1.06012 137.187 1.08115 138.022 1.1229C138.774 1.16051 139.492 1.19787 140.174 1.23575C140.867 1.27428 141.494 1.31379 142.05 1.35354L142.595 1.3874C142.704 1.39257 142.77 1.39413 142.801 1.39445C146.238 1.35752 149.637 1.284 152.998 1.17439C156.377 1.0642 159.795 0.917982 163.25 0.734255L163.326 0.729318L163.486 0.725086H163.563ZM92.0016 2.00809C92.0453 2.00809 92.0891 2.00893 92.1328 2.01091L92.1575 2.01233C95.5106 2.1215 98.8833 2.17596 102.275 2.17596V5.06502C98.8472 5.06502 95.438 5.0098 92.0482 4.89927L92.0016 4.89715H91.9543V2.00809H92.0016ZM124.2 1.33873V4.22779H124.089L123.978 4.23625C123.031 4.30907 122.067 4.38277 121.084 4.45561C120.079 4.49347 119.09 4.54936 118.117 4.62348C115.469 4.77053 112.821 4.88072 110.172 4.95428H110.171C107.558 5.02789 104.926 5.06502 102.275 5.06502V2.17596C104.899 2.17596 107.504 2.13947 110.09 2.06664H110.094C112.715 1.99381 115.336 1.88419 117.957 1.73865C118.926 1.66558 119.909 1.61056 120.905 1.5722C121.872 1.50048 122.822 1.42757 123.757 1.35566H123.758L123.869 1.34719C123.942 1.3416 124.015 1.33873 124.089 1.33873H124.2ZM163.563 0.725086C164.341 0.725086 165.081 0.822723 165.765 0.974775C166.29 1.09157 166.812 1.26698 167.32 1.50237C167.561 1.46166 167.8 1.43373 168.035 1.41702C168.428 1.36784 168.834 1.33874 169.25 1.33873V4.22779C168.937 4.22779 168.625 4.25073 168.316 4.29268C167.884 4.31645 167.44 4.39958 167.001 4.56212C166.968 4.5732 166.935 4.58409 166.902 4.59597C166.366 4.19574 165.763 3.93353 165.138 3.79471C164.628 3.68142 164.1 3.61414 163.563 3.61414V0.725086ZM177.451 1.45017C177.822 1.4502 178.223 1.47819 178.568 1.5066H181.133V4.39566H178.461C178.094 4.36399 177.74 4.33925 177.451 4.33923V1.45017ZM170.812 1.33873C171.649 1.33873 172.528 1.35904 173.444 1.39586C174.343 1.39732 175.196 1.4146 176.001 1.45017H177.451V4.33923H175.94C175.145 4.30289 174.289 4.28487 173.374 4.28421C172.472 4.24745 171.618 4.22779 170.812 4.22779V1.33873ZM170.812 1.33873V4.22779H169.25V1.33873H170.812ZM55.82 20.0901C55.82 22.3873 55.8749 24.6849 55.9843 26.9819C56.0981 29.371 56.155 31.7789 56.155 34.2046C56.155 34.2093 56.155 34.214 56.155 34.2187L56.1444 36.3629C56.1444 36.3676 56.1444 36.3724 56.1444 36.377C56.1233 38.5412 56.0694 40.6954 55.985 42.8386L55.9857 42.8393L55.9131 44.9624C55.9089 45.1046 55.9057 45.2468 55.9018 45.3891C57.9919 45.3743 60.0722 45.3413 62.1426 45.2883C62.155 45.2879 62.1676 45.2877 62.18 45.2875L70.9946 45.1761H73.7651C73.7994 45.1761 73.8338 45.177 73.8681 45.1782C74.8749 45.2142 75.8821 45.2318 76.8891 45.2318C76.9222 45.2318 76.9554 45.2321 76.9885 45.2332C78.0047 45.2683 78.9572 45.2681 79.8465 45.2339H79.8508C80.7462 45.2008 81.4895 45.1194 82.0951 45.004L82.1403 44.9962C82.3311 44.9631 82.455 44.9238 82.5282 44.8975C82.5636 44.8201 82.6126 44.6925 82.6658 44.5004C82.8456 43.605 82.9961 42.4148 83.0995 40.8996C83.2079 39.2737 83.2811 37.5697 83.3175 35.7888C83.3179 35.7693 83.3188 35.7497 83.3196 35.7302C83.3743 34.3915 83.4076 33.0845 83.4212 31.8107L83.4282 30.5481L83.4318 29.2701C83.4388 28.0385 83.4566 26.9466 83.4854 25.9973L83.4861 25.974C83.5598 24.0565 83.6352 22.09 83.709 20.1719C83.7735 18.494 83.8674 16.816 83.9869 15.1386C83.4741 15.1469 82.9044 15.1557 82.2771 15.1683C80.4334 15.2051 78.3642 15.2607 76.0688 15.3347L74.3223 15.3947L74.3216 15.394C72.6559 15.4532 70.9428 15.5226 69.1826 15.6006C69.4959 15.7074 69.8037 15.8329 70.1051 15.9787C71.1752 16.4449 72.1396 17.0828 72.9625 17.9057L78.0698 23.013C78.8541 23.7974 79.4772 24.7022 79.9213 25.7159L80.0123 25.9134C80.4537 26.908 80.7014 27.9681 80.7014 29.0726C80.7014 29.0933 80.7011 29.1139 80.7007 29.1346L80.6943 29.4288C80.6939 29.4475 80.6937 29.4665 80.6929 29.4852C80.6539 30.4339 80.4809 31.3805 80.1999 32.3171L80.1103 32.6352C80.1039 32.6579 80.0969 32.6804 80.0899 32.7029C79.766 33.7437 79.2773 34.7083 78.6319 35.5842C78.6171 35.6044 78.6015 35.6244 78.5861 35.6442C77.8212 36.6275 76.8778 37.4263 75.793 38.0473L75.6526 38.1291C75.6361 38.1386 75.6192 38.1481 75.6025 38.1573C74.5502 38.735 73.4 39.0218 72.2204 39.0876C72.0405 39.0977 71.8587 39.1024 71.6759 39.1024C71.6649 39.1024 71.6538 39.1026 71.6428 39.1024L71.3359 39.0989C71.3252 39.0988 71.3143 39.0985 71.3035 39.0982C70.4328 39.0784 69.5652 38.9889 68.7036 38.8323C68.6624 38.8248 68.6211 38.8162 68.5802 38.8069C67.5636 38.5758 66.5977 38.243 65.6982 37.7933C65.6608 37.7746 65.6233 37.7551 65.5867 37.7348C64.9182 37.3634 64.3059 36.9071 63.7627 36.365L58.654 31.2563C58.3804 30.983 58.1274 30.6914 57.8972 30.3845C57.8733 30.3527 57.8506 30.3199 57.828 30.2872C57.1481 29.2978 56.7964 28.18 56.7214 27.0186C56.7193 26.986 56.7174 26.9533 56.7164 26.9206L56.7073 26.6194C56.7064 26.5901 56.7059 26.5605 56.7059 26.5312C56.7059 25.4904 56.8641 24.4417 57.1495 23.3967L57.1629 23.3488L57.268 22.9883L57.2715 22.9763C57.61 21.8343 58.1028 20.7637 58.7556 19.779L58.7929 19.7247L59.0095 19.4137C59.7105 18.4063 60.5577 17.5356 61.548 16.8195L61.6051 16.7793L61.9063 16.5719C62.2606 16.3255 62.6281 16.1126 63.0066 15.9321C62.667 15.9541 62.3315 15.9763 62.0001 15.9991C61.9882 16 61.976 16.0006 61.9641 16.0013L60.4434 16.0866L60.4441 16.0873C58.9927 16.1763 57.7184 16.2749 56.6184 16.3821C56.3582 16.4082 56.1211 16.4355 55.906 16.4604C55.8934 16.6343 55.8822 16.8163 55.8721 17.0064C55.8373 17.6679 55.82 18.2867 55.82 18.8628V20.0901ZM127.881 17.0473C127.881 17.4189 127.844 17.6793 127.77 17.8281C127.547 18.3487 127.193 18.6837 126.71 18.8325C126.338 18.9812 125.687 19.0739 124.757 19.1111C123.865 19.1483 122.898 19.1668 121.856 19.1668C120.815 19.1296 119.829 19.1111 118.9 19.1111C118.007 19.0739 117.356 19.0554 116.947 19.0554C116.761 20.4686 116.631 21.9197 116.556 23.4073C116.519 24.8576 116.464 26.3082 116.389 27.7585L116.382 28.09C116.368 28.4735 116.334 29.014 116.278 29.7109C116.241 30.6034 116.166 31.6264 116.054 32.7791C115.98 33.932 115.906 35.1601 115.831 36.4617L115.772 37.4026C115.709 38.337 115.636 39.251 115.553 40.1435C115.478 41.2963 115.404 42.3193 115.329 43.2117L115.273 43.8324C115.218 44.4039 115.162 44.8295 115.106 45.1084C114.958 46.3356 114.53 47.0982 113.823 47.3958C113.117 47.7305 112.224 47.9165 111.145 47.9537C110.699 48.0281 109.843 48.1022 108.579 48.1766L106.599 48.288C105.911 48.3252 105.195 48.363 104.451 48.4002C103 48.5118 101.606 48.5859 100.267 48.6231C100.22 48.6257 100.173 48.6276 100.126 48.6301C100.151 48.454 100.174 48.2757 100.2 48.0962L100.465 46.2546C100.651 44.9902 100.818 43.7997 100.966 42.6841C101.059 42.1263 101.139 41.6568 101.204 41.2756L101.357 40.3974C101.72 38.4449 102.093 36.5023 102.477 34.5707L102.864 32.643C103.422 30.0769 103.923 27.4917 104.37 24.8885L99.2623 19.7812C98.8161 19.9671 98.2393 20.2088 97.5328 20.5063C96.8263 20.7665 96.0635 21.0268 95.2454 21.2871C94.6521 21.4848 94.0476 21.6612 93.4327 21.8161C93.4336 21.7987 93.4347 21.7812 93.4355 21.7639C93.4727 20.9831 93.5098 20.2393 93.547 19.5329C93.6214 18.8263 93.6584 18.3423 93.6584 18.082C93.6956 17.7473 93.7327 17.3381 93.7699 16.8547C93.8071 16.3714 93.8634 15.8879 93.9377 15.4046C94.0493 14.9211 94.1791 14.4742 94.3278 14.0651C94.5136 13.6564 94.737 13.3774 94.9972 13.2286C95.2946 13.0427 95.6298 12.9493 96.0016 12.9493C96.3734 12.9121 96.727 12.8936 97.0617 12.8936C99.6277 12.9772 102.204 13.0299 104.791 13.0508L107.382 13.0614C109.39 13.0614 111.389 13.0406 113.376 12.9986L115.36 12.9493C115.862 12.9353 116.364 12.92 116.866 12.9034C118.372 12.8538 119.879 12.7926 121.385 12.7193L123.393 12.6149C124.36 12.5406 125.346 12.485 126.35 12.4478C126.974 12.4015 127.592 12.3538 128.202 12.3074C128.188 12.4191 128.175 12.5301 128.161 12.6403C128.124 13.1975 128.086 13.588 128.049 13.8112V14.6484C128.049 15.0202 128.03 15.411 127.993 15.82L127.881 17.0473Z" fill="var(--fill-0, #F9F3EB)"/>
<g id="VOTE!">
<path d="M33.6235 48.1771C33.3631 48.1771 32.8983 48.1585 32.2288 48.1213C31.5965 48.1213 30.8527 48.1027 29.9973 48.0655C29.1791 48.0655 28.3051 48.0469 27.3753 48.0097C26.4455 48.0097 25.5529 47.9911 24.6975 47.9539C23.8792 47.9539 23.1354 47.9353 22.466 47.8982C21.8337 47.8982 21.3874 47.8982 21.127 47.8982C20.5692 47.861 20.0113 47.8238 19.4534 47.7866C18.8955 47.7494 18.3563 47.6192 17.8356 47.3961C17.538 47.2101 17.2591 46.9684 16.9988 46.6708C16.7756 46.3733 16.5897 46.0572 16.4409 45.7224C16.3293 45.4249 16.1248 44.867 15.8272 44.0488C15.5297 43.1934 15.2136 42.2822 14.8788 41.3152C14.5813 40.3482 14.2838 39.437 13.9862 38.5816C13.7259 37.7262 13.5585 37.1497 13.4841 36.8522C12.7775 34.6207 12.0894 32.3892 11.42 30.1577C10.7877 27.889 10.1741 25.6017 9.579 23.2958C9.39304 22.5891 9.1327 21.7337 8.79797 20.7295C8.50044 19.7254 8.18431 18.6654 7.84958 17.5496C7.51485 16.3967 7.18013 15.2438 6.8454 14.0908C6.54787 12.9379 6.30612 11.8965 6.12016 10.9667C5.9342 10.0369 5.82263 9.27447 5.78544 8.6794C5.74825 8.04714 5.85982 7.69382 6.12016 7.61943C6.52927 7.43347 7.3289 7.24752 8.51903 7.06156C9.74636 6.83841 11.0481 6.63385 12.4242 6.44789C13.8375 6.26194 15.1578 6.11317 16.3851 6.00159C17.6496 5.85282 18.505 5.77844 18.9513 5.77844C19.8439 5.77844 20.6436 5.90861 21.3502 6.16896C22.0568 6.4293 22.5403 7.04296 22.8007 8.00995C22.8751 8.27029 22.9309 8.77238 22.968 9.51622C23.0424 10.2601 23.0982 11.0597 23.1354 11.9151C23.2098 12.7333 23.2656 13.5329 23.3028 14.314C23.34 15.0578 23.3772 15.5599 23.4143 15.8202C23.6003 17.2707 23.7863 18.7212 23.9722 20.1717C24.1954 21.6221 24.4185 23.0726 24.6417 24.5231C24.8648 23.4445 25.0694 22.366 25.2553 21.2874C25.4785 20.2089 25.7016 19.1303 25.9248 18.0517L27.0963 12.5288C27.1335 12.38 27.1893 12.0824 27.2637 11.6361C27.3381 11.1898 27.4311 10.7249 27.5426 10.2415C27.6542 9.72077 27.7472 9.23728 27.8216 8.79098C27.9331 8.34467 28.0075 8.04714 28.0447 7.89837C28.1563 7.45207 28.3051 7.08015 28.491 6.78262C28.7142 6.44789 29.0861 6.28053 29.6068 6.28053C31.1688 6.35491 32.7309 6.3921 34.2929 6.3921C35.8922 6.35491 37.4728 6.37351 39.0349 6.44789C39.3696 6.44789 39.9275 6.46649 40.7085 6.50368C41.4896 6.54087 42.3078 6.59666 43.1632 6.67104C44.0186 6.74543 44.8182 6.83841 45.5621 6.94998C46.3059 7.06156 46.8452 7.19173 47.1799 7.3405C47.7378 7.60084 48.0167 8.02854 48.0167 8.62361C48.0167 8.73519 47.9795 8.93974 47.9051 9.23728C47.8308 9.53481 47.7378 9.85094 47.6262 10.1857C47.5518 10.5204 47.4774 10.8551 47.4031 11.1898C47.3287 11.4874 47.2729 11.6919 47.2357 11.8035C45.8596 16.6756 44.3905 21.4734 42.8285 26.1967C41.2664 30.9201 39.6672 35.6806 38.0307 40.4784C37.9563 40.7015 37.8076 41.1292 37.5844 41.7615C37.3985 42.3566 37.1939 43.0074 36.9708 43.7141C36.7476 44.3835 36.5245 45.0344 36.3013 45.6666C36.1153 46.2617 35.9852 46.6708 35.9108 46.894C35.7248 47.3775 35.4087 47.7308 34.9624 47.9539C34.7764 48.0655 34.5533 48.1213 34.2929 48.1213C34.0698 48.1585 33.8466 48.1771 33.6235 48.1771Z" fill="var(--fill-0, #F9F3EB)"/>
<path d="M87.2655 9.68358C87.2655 10.4646 87.2283 11.2642 87.154 12.0825C87.0796 12.9007 87.0052 13.7003 86.9308 14.4813C86.782 16.4153 86.6705 18.3493 86.5961 20.2832C86.5217 22.2172 86.4473 24.1512 86.3729 26.0852C86.3357 27.3125 86.3171 28.8002 86.3171 30.5482C86.3171 32.259 86.28 34.0256 86.2056 35.848C86.1684 37.6704 86.094 39.4184 85.9824 41.092C85.8708 42.7285 85.7035 44.086 85.4803 45.1646C85.2572 46.02 84.941 46.6336 84.5319 47.0055C84.1228 47.4147 83.4906 47.6936 82.6352 47.8424C81.8541 47.9911 80.9615 48.0841 79.9573 48.1213C78.9904 48.1585 77.9676 48.1585 76.889 48.1213C75.8476 48.1213 74.8063 48.1027 73.7649 48.0655C72.7607 48.0655 71.8495 48.0655 71.0313 48.0655C68.0932 48.1027 65.155 48.1399 62.2169 48.1771C59.3159 48.2515 56.3963 48.2887 53.4582 48.2887C52.9747 48.2887 52.4168 48.3073 51.7846 48.3444C51.1523 48.3816 50.5386 48.3444 49.9436 48.2329C49.3485 48.1585 48.8464 47.9725 48.4373 47.675C48.0282 47.3775 47.8236 46.8754 47.8236 46.1687C47.8236 43.305 47.8794 40.4598 47.991 37.6332C48.1026 34.8066 48.1584 31.9615 48.1584 29.0977C48.1584 26.7174 48.1026 24.3557 47.991 22.0127C47.8794 19.6696 47.8236 17.3265 47.8236 14.9834C47.8236 14.7975 47.8236 14.3883 47.8236 13.7561C47.8236 13.1238 47.8422 12.4544 47.8794 11.7477C47.9166 11.0411 47.9724 10.4088 48.0468 9.85094C48.1584 9.25587 48.2885 8.92115 48.4373 8.84676C48.8092 8.698 49.739 8.54923 51.2267 8.40046C52.7515 8.25169 54.5739 8.12152 56.6939 8.00995C58.851 7.86118 61.1755 7.73101 63.6673 7.61943C66.1592 7.50786 68.5581 7.41488 70.864 7.3405C73.1698 7.26611 75.2526 7.21032 77.1122 7.17313C78.9718 7.13594 80.3479 7.11734 81.2405 7.11734C81.7612 7.11734 82.319 7.13594 82.9141 7.17313C83.5092 7.17313 84.067 7.21032 84.5877 7.28471C85.1456 7.35909 85.6291 7.47067 86.0382 7.61943C86.4473 7.7682 86.7263 7.95416 86.875 8.17731C87.061 8.40046 87.1726 8.64221 87.2097 8.90255C87.2469 9.1257 87.2655 9.38604 87.2655 9.68358ZM59.5948 26.5315C59.5948 27.3497 59.7994 28.0563 60.2085 28.6514C60.6548 29.2465 61.2127 29.73 61.8821 30.1019C62.5516 30.4366 63.2954 30.6969 64.1136 30.8829C64.9319 31.0317 65.7501 31.1061 66.5683 31.1061C67.6097 31.1061 68.5023 30.8829 69.2461 30.4366C70.0271 29.9903 70.678 29.4324 71.1987 28.763C71.7194 28.0563 72.0913 27.2753 72.3144 26.4199C72.5748 25.5645 72.7049 24.7463 72.7049 23.9652C72.7049 23.2586 72.5376 22.5519 72.2029 21.8453C71.9053 21.1387 71.4776 20.5064 70.9197 19.9485C70.3619 19.3906 69.6924 18.9443 68.9114 18.6096C68.1675 18.2377 67.3679 18.0517 66.5125 18.0517C65.3968 18.0517 64.4112 18.3493 63.5558 18.9443C62.7004 19.5022 61.9751 20.2089 61.38 21.0643C60.785 21.8825 60.3387 22.7937 60.0411 23.7979C59.7436 24.7649 59.5948 25.6761 59.5948 26.5315Z" fill="var(--fill-0, #F9F3EB)"/>
<path d="M111.145 47.9539C110.699 48.0283 109.844 48.1027 108.579 48.1771C107.315 48.2515 105.938 48.3259 104.451 48.4002C103 48.5118 101.606 48.5862 100.267 48.6234C98.9278 48.6978 97.9422 48.735 97.3099 48.735H97.031C96.7335 48.735 96.4545 48.7164 96.1942 48.6792C95.9338 48.642 95.6921 48.5676 95.4689 48.456C94.8739 48.1585 94.5949 47.675 94.6321 47.0055C94.6321 46.5964 94.7065 45.834 94.8553 44.7182C95.004 43.6025 95.1714 42.4124 95.3574 41.1478C95.5433 39.8833 95.7107 38.6932 95.8594 37.5774C96.0454 36.4617 96.1756 35.6992 96.25 35.2901C96.7335 32.6867 97.2355 30.1019 97.7562 27.5356C98.3141 24.9694 98.8162 22.3846 99.2625 19.7812C98.8162 19.9671 98.2397 20.2089 97.5331 20.5064C96.8264 20.7667 96.064 21.0271 95.2458 21.2874C94.4648 21.5478 93.6651 21.7709 92.8469 21.9569C92.0659 22.1428 91.3406 22.2358 90.6712 22.2358C90.0017 22.2358 89.4439 22.1056 88.9976 21.8453C88.5885 21.5478 88.3281 21.0271 88.2165 20.2832C88.1793 20.0229 88.1793 19.558 88.2165 18.8885C88.2537 18.1819 88.2909 17.4381 88.3281 16.657C88.3653 15.876 88.4025 15.1322 88.4397 14.4255C88.5141 13.7189 88.5513 13.2354 88.5513 12.9751C88.5885 12.6403 88.6257 12.2312 88.6628 11.7477C88.7 11.2642 88.7558 10.7807 88.8302 10.2972C88.9418 9.81375 89.0719 9.36745 89.2207 8.95834C89.4067 8.54923 89.6298 8.27029 89.8902 8.12152C90.1877 7.93556 90.5224 7.84258 90.8943 7.84258C91.2663 7.80539 91.6196 7.7868 91.9543 7.7868C95.376 7.89837 98.8162 7.95416 102.275 7.95416C104.953 7.95416 107.612 7.91697 110.253 7.84258C112.93 7.7682 115.608 7.65663 118.286 7.50786C119.253 7.43347 120.239 7.37769 121.243 7.3405C122.247 7.26611 123.233 7.19173 124.2 7.11734C124.497 7.11734 124.813 7.09875 125.148 7.06156C125.52 7.02437 125.892 7.00577 126.264 7.00577C126.747 7.00577 127.175 7.08015 127.547 7.22892C127.956 7.3405 128.216 7.60084 128.328 8.00995C128.402 8.2331 128.421 8.62361 128.384 9.18149C128.384 9.70217 128.365 10.2786 128.328 10.9109C128.291 11.506 128.235 12.0824 128.161 12.6403C128.123 13.1982 128.086 13.5887 128.049 13.8119C128.049 13.9606 128.049 14.2396 128.049 14.6487C128.049 15.0206 128.03 15.4111 127.993 15.8202C127.956 16.2293 127.919 16.6384 127.882 17.0476C127.882 17.4195 127.844 17.6798 127.77 17.8286C127.547 18.3493 127.194 18.684 126.71 18.8328C126.338 18.9815 125.687 19.0745 124.757 19.1117C123.865 19.1489 122.898 19.1675 121.856 19.1675C120.815 19.1303 119.83 19.1117 118.9 19.1117C118.007 19.0745 117.356 19.0559 116.947 19.0559C116.761 20.4692 116.631 21.9197 116.557 23.4074C116.519 24.8578 116.464 26.3083 116.389 27.7588C116.389 28.1307 116.352 28.7816 116.278 29.7114C116.241 30.604 116.166 31.6267 116.055 32.7797C115.98 33.9326 115.906 35.16 115.831 36.4617C115.757 37.7262 115.664 38.9535 115.552 40.1437C115.478 41.2966 115.404 42.3194 115.329 43.212C115.255 44.1046 115.181 44.7368 115.106 45.1088C114.957 46.3361 114.53 47.0985 113.823 47.3961C113.116 47.7308 112.224 47.9167 111.145 47.9539Z" fill="var(--fill-0, #F9F3EB)"/>
<path d="M156.032 48.7908C154.135 48.9023 152.22 48.9953 150.286 49.0697C148.389 49.1441 146.492 49.1255 144.595 49.0139C143.851 48.9395 143.07 48.9023 142.252 48.9023C141.471 48.9023 140.671 48.9023 139.853 48.9023C137.845 48.9023 135.818 48.9023 133.772 48.9023C131.764 48.9023 129.867 48.7722 128.082 48.5118C127.896 48.4746 127.71 48.4188 127.524 48.3444C127.338 48.2701 127.189 48.1399 127.078 47.9539C126.966 47.8052 126.892 47.6192 126.855 47.3961C126.818 47.2101 126.799 47.0055 126.799 46.7824C126.799 46.2989 126.855 45.3877 126.966 44.0488C127.078 42.7099 127.189 41.278 127.301 39.7531C127.45 38.1911 127.599 36.7406 127.747 35.4017C127.896 34.0256 128.008 33.0958 128.082 32.6123C128.231 31.3106 128.38 29.8229 128.528 28.1493C128.677 26.4757 128.826 24.7463 128.975 22.961C129.161 21.1387 129.347 19.3534 129.533 17.6054C129.719 15.8574 129.904 14.2768 130.09 12.8635C130.276 11.4502 130.462 10.2601 130.648 9.29307C130.834 8.32608 131.02 7.74961 131.206 7.56365C131.504 7.26611 132.043 7.08015 132.824 7.00577C133.642 6.89419 134.553 6.83841 135.558 6.83841C136.264 6.83841 136.99 6.857 137.733 6.89419C138.477 6.93139 139.184 6.96858 139.853 7.00577C140.523 7.04296 141.118 7.08015 141.638 7.11734C142.159 7.15454 142.55 7.17313 142.81 7.17313C146.306 7.13594 149.765 7.06156 153.187 6.94998C156.608 6.83841 160.067 6.68964 163.563 6.50368C163.861 6.50368 164.177 6.54087 164.511 6.61526C164.846 6.68964 165.125 6.83841 165.348 7.06156C165.683 7.43348 165.85 7.89837 165.85 8.45625C165.85 8.97693 165.813 9.49762 165.739 10.0183C165.59 10.8737 165.423 11.7291 165.237 12.5845C165.051 13.4028 164.883 14.2396 164.735 15.095C164.66 15.6157 164.586 16.1364 164.511 16.657C164.474 17.1405 164.363 17.624 164.177 18.1075C163.879 18.7026 163.433 19.1489 162.838 19.4464C162.317 19.6324 161.778 19.744 161.22 19.7812C160.662 19.7812 160.123 19.744 159.602 19.6696C159.267 19.6324 158.71 19.5952 157.928 19.558C157.185 19.4836 156.329 19.4092 155.362 19.3348C154.395 19.2605 153.372 19.1861 152.294 19.1117C151.253 19.0373 150.248 18.9815 149.281 18.9443C148.314 18.87 147.459 18.8142 146.715 18.777C145.971 18.7398 145.432 18.7398 145.097 18.777C144.911 18.777 144.744 18.8142 144.595 18.8885C144.446 18.9257 144.353 19.0187 144.316 19.1675C144.316 19.2791 144.298 19.465 144.26 19.7254C144.223 19.9857 144.186 20.2646 144.149 20.5622C144.149 20.8597 144.13 21.1386 144.093 21.399C144.093 21.6593 144.093 21.8453 144.093 21.9569C144.093 22.0313 144.149 22.0684 144.26 22.0684C144.409 22.0313 144.521 22.0127 144.595 22.0127C144.893 22.0127 145.395 22.0127 146.102 22.0127C146.808 21.9755 147.608 21.9569 148.5 21.9569C149.43 21.9569 150.397 21.9569 151.401 21.9569C152.406 21.9197 153.354 21.9011 154.246 21.9011C155.176 21.9011 155.995 21.9197 156.701 21.9569C157.408 21.9569 157.91 21.9569 158.207 21.9569C158.319 21.9941 158.449 22.0127 158.598 22.0127C158.747 22.0127 158.877 22.0499 158.988 22.1242C159.286 22.2358 159.453 22.4404 159.491 22.7379C159.565 23.0354 159.546 23.333 159.435 23.6305C159.286 24.0024 159.137 24.3743 158.988 24.7463C158.877 25.081 158.784 25.4529 158.71 25.862C158.672 25.9736 158.635 26.1781 158.598 26.4757C158.561 26.7732 158.505 27.0707 158.431 27.3683C158.356 27.6658 158.282 27.9633 158.207 28.2609C158.133 28.5212 158.059 28.7072 157.984 28.8188C157.761 29.1163 157.352 29.3023 156.757 29.3766C156.199 29.451 155.604 29.4882 154.972 29.4882C153.298 29.4882 151.624 29.4696 149.951 29.4324C148.314 29.358 146.659 29.2279 144.986 29.0419C144.911 29.0047 144.763 28.9861 144.539 28.9861C144.316 28.9489 144.168 28.9675 144.093 29.0419C144.019 29.0791 143.944 29.2651 143.87 29.5998C143.796 29.9345 143.721 30.3064 143.647 30.7155C143.572 31.0875 143.517 31.4594 143.479 31.8313C143.442 32.166 143.424 32.3892 143.424 32.5007C143.424 32.7239 143.461 32.8727 143.535 32.947C143.61 33.133 143.777 33.226 144.037 33.226C144.298 33.226 144.521 33.2446 144.707 33.2818C144.893 33.2818 145.265 33.2818 145.823 33.2818C146.38 33.2446 146.975 33.2074 147.608 33.1702C148.24 33.133 148.835 33.1144 149.393 33.1144C149.951 33.0772 150.323 33.0586 150.509 33.0586C150.843 33.0586 151.513 33.0772 152.517 33.1144C153.558 33.1144 154.656 33.133 155.809 33.1702C156.999 33.1702 158.096 33.1888 159.1 33.226C160.141 33.226 160.829 33.2446 161.164 33.2818C161.796 33.3562 162.336 33.5049 162.782 33.7281C163.266 33.914 163.619 34.3231 163.842 34.9554C164.028 35.6249 164.102 36.2943 164.065 36.9638C164.065 37.6332 163.991 38.3027 163.842 38.9721C163.73 39.6416 163.582 40.311 163.396 40.9805C163.21 41.6499 163.061 42.3194 162.949 42.9888C162.912 43.1748 162.856 43.4909 162.782 43.9372C162.745 44.3835 162.689 44.8484 162.615 45.3319C162.54 45.8154 162.447 46.2803 162.336 46.7266C162.261 47.1729 162.168 47.4704 162.057 47.6192C161.908 47.9167 161.629 48.1213 161.22 48.2329C161.034 48.3073 160.699 48.363 160.216 48.4002C159.732 48.4746 159.212 48.5304 158.654 48.5676C158.096 48.642 157.575 48.6978 157.092 48.735C156.608 48.7722 156.255 48.7908 156.032 48.7908Z" fill="var(--fill-0, #F9F3EB)"/>
<path d="M176.837 31.9987C176.577 32.0358 176.112 32.1102 175.442 32.2218C174.81 32.2962 174.122 32.3892 173.378 32.5007C172.672 32.5751 171.983 32.6495 171.314 32.7239C170.682 32.7611 170.235 32.7797 169.975 32.7797C169.789 32.7425 169.603 32.4636 169.417 31.9429C169.268 31.4222 169.12 30.7713 168.971 29.9903C168.859 29.1721 168.748 28.2795 168.636 27.3125C168.525 26.3455 168.432 25.4157 168.357 24.5231C168.32 23.5933 168.283 22.7565 168.246 22.0127C168.209 21.2688 168.171 20.7295 168.134 20.3948C168.134 20.1717 168.097 19.6882 168.023 18.9443C167.985 18.1633 167.93 17.3451 167.855 16.4897C167.781 15.6343 167.706 14.8346 167.632 14.0908C167.595 13.3098 167.558 12.7891 167.52 12.5288C167.52 12.3428 167.483 12.0453 167.409 11.6361C167.335 11.1898 167.26 10.7249 167.186 10.2415C167.149 9.75796 167.13 9.31166 167.13 8.90255C167.13 8.45625 167.167 8.14012 167.242 7.95416C167.353 7.61944 167.595 7.39628 167.967 7.28471C168.153 7.21032 168.357 7.17313 168.58 7.17313C168.804 7.13594 169.027 7.11734 169.25 7.11734C169.51 7.11734 170.031 7.11734 170.812 7.11734C171.593 7.11734 172.43 7.13594 173.322 7.17313C174.252 7.17313 175.108 7.19173 175.889 7.22892C176.67 7.22892 177.19 7.22892 177.451 7.22892C177.637 7.22892 177.934 7.24752 178.343 7.28471C178.79 7.28471 179.254 7.28471 179.738 7.28471C180.221 7.28471 180.686 7.28471 181.133 7.28471C181.579 7.28471 181.877 7.3033 182.025 7.3405C182.323 7.41488 182.565 7.58224 182.751 7.84258C182.974 8.10293 183.067 8.40046 183.029 8.73519C183.029 8.88395 182.974 9.1443 182.862 9.51622C182.788 9.88813 182.695 10.2972 182.583 10.7435C182.509 11.1898 182.434 11.599 182.36 11.9709C182.286 12.3428 182.23 12.6031 182.193 12.7519C181.784 14.6859 181.43 16.6198 181.133 18.5538C180.872 20.4506 180.631 22.366 180.407 24.3C180.37 24.5231 180.314 24.9322 180.24 25.5273C180.166 26.0852 180.073 26.6988 179.961 27.3683C179.887 28.0005 179.794 28.6142 179.682 29.2093C179.608 29.7671 179.533 30.1391 179.459 30.325C179.347 30.9201 179.05 31.3664 178.566 31.6639C178.306 31.8127 178.027 31.9057 177.73 31.9429C177.432 31.9429 177.135 31.9615 176.837 31.9987ZM178.064 46.3919C177.655 46.6522 177.172 46.8382 176.614 46.9498C176.093 47.0613 175.554 47.1171 174.996 47.1171C174.289 47.1171 173.546 47.0427 172.765 46.894C172.021 46.708 171.314 46.4477 170.645 46.1129C169.975 45.741 169.399 45.2761 168.915 44.7182C168.469 44.1232 168.19 43.4351 168.078 42.6541C168.004 42.1334 168.023 41.5941 168.134 41.0363C168.246 40.4784 168.432 39.9391 168.692 39.4184C168.952 38.8977 169.306 38.377 169.752 37.8564C170.198 37.3357 170.682 36.8894 171.202 36.5175C171.76 36.1083 172.355 35.7922 172.988 35.5691C173.62 35.3087 174.234 35.1786 174.829 35.1786C175.461 35.1786 176.075 35.2901 176.67 35.5133C177.302 35.7364 177.897 36.0526 178.455 36.4617C179.013 36.8336 179.496 37.2799 179.905 37.8006C180.314 38.2841 180.631 38.8048 180.854 39.3626C181.077 39.9577 181.17 40.6086 181.133 41.3152C181.095 42.0218 180.947 42.6913 180.686 43.3236C180.426 43.9558 180.073 44.5509 179.626 45.1088C179.18 45.6294 178.659 46.0572 178.064 46.3919Z" fill="var(--fill-0, #F9F3EB)"/>
</g>
</g>
</svg>
