<svg width="194" height="78" viewBox="0 0 194 78" fill="none" xmlns="http://www.w3.org/2000/svg">
<path d="M3.25818 0.163456V11.6054H0.479429V0.163456H3.25818ZM11.2185 0.163456V11.6054H8.43974V0.163456H11.2185ZM9.50221 4.33159V6.78343H2.29379V4.33159H9.50221Z" fill="white"/>
<path d="M23.3029 11.6054H20.3607L19.053 0.163456H21.6193L23.3029 11.6054ZM21.5212 8.84297H14.3128V6.39113H21.5212V8.84297ZM16.6175 0.163456L15.3099 11.6054H12.3677L14.0513 0.163456H16.6175ZM20.6222 2.6153H15.1464V0.163456H20.6222V2.6153Z" fill="white"/>
<path d="M23.7809 5.96615C23.7809 4.44056 24.0315 3.24188 24.5328 2.37011C25.0449 1.48745 25.7478 0.871766 26.6413 0.52306C27.5349 0.174353 28.6246 0 29.9105 0C31.6867 0 33.087 0.348706 34.1113 1.04612C35.1465 1.74353 35.7404 2.9749 35.893 4.74023H33.0979C32.9889 3.91205 32.6838 3.32361 32.1825 2.9749C31.6812 2.6262 30.9239 2.45184 29.9105 2.45184C29.0932 2.45184 28.4394 2.56626 27.949 2.7951C27.4695 3.01304 27.1154 3.37809 26.8865 3.89025C26.6686 4.39152 26.5596 5.08348 26.5596 5.96615C26.5596 6.79432 26.6686 7.4536 26.8865 7.94397C27.1154 8.42344 27.4695 8.77214 27.949 8.99009C28.4394 9.20803 29.0932 9.317 29.9105 9.317C30.9021 9.317 31.6485 9.15354 32.1498 8.82663C32.662 8.49972 32.9725 7.95486 33.0815 7.19207H35.893C35.7295 8.88111 35.1302 10.0689 34.0949 10.7554C33.0706 11.431 31.6758 11.7688 29.9105 11.7688C28.6355 11.7688 27.5458 11.5999 26.6413 11.2621C25.7478 10.9134 25.0449 10.3141 24.5328 9.46411C24.0315 8.60324 23.7809 7.43725 23.7809 5.96615Z" fill="white"/>
<path d="M39.7325 0.163456V11.6054H36.9538V0.163456H39.7325ZM44.4727 8.00935C44.4727 6.90874 44.1186 6.35844 43.4103 6.35844H39.1277V3.9066H44.0641C45.0013 3.9066 45.764 4.17358 46.3525 4.70754C46.9518 5.2306 47.2515 6.00974 47.2515 7.04496V11.6054H44.4727V8.00935ZM46.9246 0.163456L44.9141 5.05079H42.2007L43.9824 0.163456H46.9246Z" fill="white"/>
<path d="M51.5077 5.96615C51.5077 4.44056 51.7584 3.24188 52.2596 2.37011C52.7718 1.48745 53.4747 0.871766 54.3682 0.52306C55.2618 0.174353 56.3515 0 57.6373 0C59.4136 0 60.8138 0.348706 61.8382 1.04612C62.8734 1.74353 63.4673 2.9749 63.6198 4.74023H60.8247C60.7158 3.91205 60.4106 3.32361 59.9094 2.9749C59.4081 2.6262 58.6508 2.45184 57.6373 2.45184C56.8201 2.45184 56.1662 2.56626 55.6759 2.7951C55.1964 3.01304 54.8422 3.37809 54.6134 3.89025C54.3955 4.39152 54.2865 5.08348 54.2865 5.96615C54.2865 6.79432 54.3955 7.4536 54.6134 7.94397C54.8422 8.42344 55.1964 8.77214 55.6759 8.99009C56.1662 9.20803 56.8201 9.317 57.6373 9.317C58.629 9.317 59.3754 9.15354 59.8767 8.82663C60.3889 8.49972 60.6994 7.95486 60.8084 7.19207H63.6198C63.4564 8.88111 62.857 10.0689 61.8218 10.7554C60.7975 11.431 59.4027 11.7688 57.6373 11.7688C56.3624 11.7688 55.2727 11.5999 54.3682 11.2621C53.4747 10.9134 52.7718 10.3141 52.2596 9.46411C51.7584 8.60324 51.5077 7.43725 51.5077 5.96615Z" fill="white"/>
<path d="M64.6806 11.6054V0.163456H67.4594V11.6054H64.6806ZM64.6806 11.6054V9.15354H72.9025V11.6054H64.6806Z" fill="white"/>
<path d="M74.0506 0.163456H76.8294V11.6054H74.0506V0.163456ZM81.5696 0.163456H84.3484V11.6054H81.5696V0.163456ZM75.865 9.15354H82.9917V11.6054H75.865V9.15354Z" fill="white"/>
<path d="M88.4341 0.163456V11.6054H85.6554V0.163456H88.4341ZM95.8714 0.163456V5.03445L92.5696 6.86516V5.09983H93.0926V0.163456H95.8714ZM94.5147 0.163456V2.6153H88.1236V0.163456H94.5147ZM94.5147 4.41331V6.86516H88.1236V4.41331H94.5147ZM90.7062 4.41331C92.6894 4.41331 94.2041 4.6694 95.2503 5.18156C96.3073 5.68282 96.8358 6.60908 96.8358 7.96031C96.8358 8.97374 96.5851 9.74743 96.0839 10.2814C95.5826 10.8044 94.8961 11.1586 94.0243 11.3439C93.1526 11.5182 92.0465 11.6054 90.7062 11.6054H88.0255V9.15354H90.7062C91.5561 9.15354 92.2154 9.1263 92.684 9.07181C93.1635 9.00643 93.5122 8.89201 93.7301 8.72856C93.9481 8.5651 94.057 8.33081 94.057 8.02569C94.057 7.67699 93.9481 7.42091 93.7301 7.25745C93.5122 7.09399 93.1798 6.99047 92.733 6.94688C92.2862 6.8924 91.6106 6.86516 90.7062 6.86516H88.0255V4.41331H90.7062Z" fill="white"/>
<path d="M104.03 0.163456V11.6054H101.251V0.163456H104.03ZM111.99 0.163456V11.6054H109.211V0.163456H111.99ZM110.274 4.33159V6.78343H103.065V4.33159H110.274Z" fill="white"/>
<path d="M119.269 0C120.554 0 121.644 0.174353 122.538 0.52306C123.431 0.871766 124.129 1.48745 124.63 2.37011C125.142 3.24188 125.398 4.44056 125.398 5.96615C125.398 7.43725 125.142 8.60324 124.63 9.46411C124.129 10.3141 123.426 10.9134 122.521 11.2621C121.628 11.5999 120.544 11.7688 119.269 11.7688C117.994 11.7688 116.904 11.5999 115.999 11.2621C115.106 10.9134 114.403 10.3141 113.891 9.46411C113.39 8.60324 113.139 7.43725 113.139 5.96615C113.139 4.44056 113.39 3.24188 113.891 2.37011C114.403 1.48745 115.106 0.871766 115.999 0.52306C116.893 0.174353 117.983 0 119.269 0ZM119.269 9.317C120.086 9.317 120.734 9.20803 121.214 8.99009C121.704 8.77214 122.058 8.42344 122.276 7.94397C122.505 7.4536 122.619 6.79432 122.619 5.96615C122.619 5.08348 122.505 4.39152 122.276 3.89025C122.058 3.37809 121.704 3.01304 121.214 2.7951C120.734 2.56626 120.086 2.45184 119.269 2.45184C118.451 2.45184 117.797 2.56626 117.307 2.7951C116.828 3.01304 116.473 3.37809 116.245 3.89025C116.027 4.39152 115.918 5.08348 115.918 5.96615C115.918 6.79432 116.027 7.4536 116.245 7.94397C116.473 8.42344 116.828 8.77214 117.307 8.99009C117.797 9.20803 118.451 9.317 119.269 9.317Z" fill="white"/>
<path d="M129.154 0.163456V11.6054H126.376V0.163456H129.154ZM136.755 0.163456V7.58436H133.976V0.163456H136.755ZM135.399 0.163456V2.6153H128.844V0.163456H135.399ZM135.399 5.13252V7.58436H128.844V5.13252H135.399ZM135.17 7.24111L136.968 11.6054H133.976L132.407 7.24111H135.17Z" fill="white"/>
<path d="M142.848 0.163456V11.6054H140.07V0.163456H142.848ZM144.81 0.163456V2.6153H138.108V0.163456H144.81ZM144.81 9.15354V11.6054H138.108V9.15354H144.81Z" fill="white"/>
<path d="M153.628 2.6153H145.962V0.163456H156.243V4.2989L148.414 8.97374V9.15354H156.325V11.6054H145.798V7.46994L153.628 2.81144V2.6153Z" fill="white"/>
<path d="M163.277 0C164.563 0 165.653 0.174353 166.546 0.52306C167.44 0.871766 168.137 1.48745 168.639 2.37011C169.151 3.24188 169.407 4.44056 169.407 5.96615C169.407 7.43725 169.151 8.60324 168.639 9.46411C168.137 10.3141 167.434 10.9134 166.53 11.2621C165.636 11.5999 164.552 11.7688 163.277 11.7688C162.002 11.7688 160.913 11.5999 160.008 11.2621C159.115 10.9134 158.412 10.3141 157.9 9.46411C157.398 8.60324 157.148 7.43725 157.148 5.96615C157.148 4.44056 157.398 3.24188 157.9 2.37011C158.412 1.48745 159.115 0.871766 160.008 0.52306C160.902 0.174353 161.991 0 163.277 0ZM163.277 9.317C164.095 9.317 164.743 9.20803 165.222 8.99009C165.713 8.77214 166.067 8.42344 166.285 7.94397C166.514 7.4536 166.628 6.79432 166.628 5.96615C166.628 5.08348 166.514 4.39152 166.285 3.89025C166.067 3.37809 165.713 3.01304 165.222 2.7951C164.743 2.56626 164.095 2.45184 163.277 2.45184C162.46 2.45184 161.806 2.56626 161.316 2.7951C160.836 3.01304 160.482 3.37809 160.253 3.89025C160.035 4.39152 159.926 5.08348 159.926 5.96615C159.926 6.79432 160.035 7.4536 160.253 7.94397C160.482 8.42344 160.836 8.77214 161.316 8.99009C161.806 9.20803 162.46 9.317 163.277 9.317Z" fill="white"/>
<path d="M173.323 0.163456V11.6054H170.544V0.163456H173.323ZM180.923 0.163456V11.6054H178.145V0.163456H180.923ZM179.567 0.163456V2.6153H172.358V0.163456H179.567Z" fill="white"/>
<path d="M184.782 3.48162C184.782 3.75404 184.924 3.96653 185.207 4.11909C185.491 4.26076 185.948 4.36428 186.58 4.42966L189.817 4.75657C191.255 4.89823 192.296 5.25239 192.939 5.81904C193.593 6.37479 193.919 7.13758 193.919 8.10742C193.919 9.38238 193.353 10.3141 192.22 10.9025C191.097 11.4801 189.67 11.7688 187.937 11.7688C184.003 11.7688 182.102 10.3304 182.232 7.4536H185.044C185 8.08563 185.218 8.5542 185.698 8.85932C186.177 9.16444 186.924 9.317 187.937 9.317C190.073 9.317 191.141 8.97919 191.141 8.30357C191.141 7.94397 190.966 7.67154 190.618 7.48629C190.28 7.30104 189.724 7.17572 188.95 7.11034L186.155 6.86516C183.387 6.62542 182.004 5.54661 182.004 3.62873C182.004 2.37556 182.565 1.46021 183.687 0.882663C184.81 0.294221 186.226 0 187.937 0C189.691 0 191.075 0.321464 192.089 0.964391C193.113 1.59642 193.593 2.63709 193.527 4.0864H190.732C190.787 3.56334 190.574 3.16015 190.095 2.87683C189.615 2.5935 188.896 2.45184 187.937 2.45184C185.834 2.45184 184.782 2.7951 184.782 3.48162Z" fill="white"/>
<path d="M18.9507 17.7143C20.4012 17.7143 21.8943 17.9261 23.3471 18.4613C24.0977 18.7379 24.7635 19.1107 25.3474 19.5525C26.7504 18.5365 28.3528 18.2166 29.6062 18.2165V21.1056C28.4381 21.1056 27.0009 21.5231 26.0866 22.8943L26.0633 22.9296L26.0408 22.9656C25.8726 23.2347 25.7309 23.5141 25.6105 23.7972L24.1032 22.2899C23.6357 21.8227 23.0572 21.4331 22.3483 21.1719C21.2688 20.7742 20.1224 20.6034 18.9507 20.6034C18.3134 20.6034 17.3033 20.6987 16.0722 20.8432C14.8157 20.9582 13.4734 21.1098 12.0469 21.2975L12.037 21.2989C10.6369 21.4881 9.30447 21.6976 8.04128 21.9266C6.96968 22.0948 5.88363 22.3064 5.08451 22.6348C3.86682 23.0833 3.30148 24.1007 3.08558 24.7839C2.87443 25.4526 2.87409 26.1084 2.90078 26.5628V26.5684L2.90149 26.5734C2.95007 27.3507 3.08817 28.2551 3.2866 29.2473C3.48518 30.2402 3.7401 31.3346 4.04766 32.5264L4.05824 32.5687L4.07023 32.6104L5.07463 36.0693L5.07816 36.0813L5.08168 36.094C5.41552 37.2068 5.73108 38.2639 6.02754 39.2645L6.04094 39.311L6.05646 39.3569C6.29862 40.0834 6.49463 40.7111 6.64683 41.2437L6.78437 41.7452C7.3829 44.0641 8.00055 46.3654 8.63658 48.6476L8.64434 48.6744L8.6521 48.7019C9.31906 50.9251 10.0046 53.1485 10.7082 55.3716C10.8095 55.7598 10.9868 56.3653 11.2216 57.137L11.2386 57.1913L11.2569 57.2449C11.5417 58.0636 11.8284 58.9415 12.1167 59.8787L12.1315 59.9266L12.1477 59.9746C12.4828 60.9426 12.7998 61.8552 13.0978 62.712L13.1049 62.731L13.1112 62.7501C13.4082 63.5666 13.6181 64.1376 13.7355 64.4507L13.7651 64.5311L13.8003 64.6101C14.0386 65.146 14.3357 65.6497 14.687 66.1181L14.7526 66.2055L14.7801 66.2373L14.7963 66.2563L14.8238 66.2874C14.8829 66.3549 14.9433 66.4221 15.0051 66.4877L15.1948 66.6809L20.3021 71.7883C20.6347 72.1154 21.0034 72.4124 21.4109 72.6671L21.6 72.7849L21.8045 72.8731C22.6211 73.223 23.4799 73.431 24.3677 73.4902C24.9256 73.5274 25.4835 73.5652 26.0415 73.6024L26.1374 73.6087H27.5163C28.2036 73.6448 28.9476 73.6629 29.7452 73.6638C30.6048 73.7001 31.4954 73.7186 32.4163 73.7195C33.3379 73.7558 34.2134 73.7743 35.0416 73.7752C35.8633 73.8103 36.6011 73.8294 37.25 73.8309C37.7232 73.8568 38.1296 73.8761 38.4455 73.8838C38.5507 73.8864 38.6462 73.8874 38.7305 73.8874C38.9621 73.8873 39.1929 73.8755 39.4224 73.8521L39.6516 73.8246C39.7245 73.8206 39.7982 73.8147 39.8724 73.8069C40.3921 73.7523 40.9403 73.6011 41.4686 73.3019C42.5297 72.7387 43.294 71.8433 43.7137 70.7521L43.7377 70.6915L43.7581 70.6287C43.8401 70.3826 43.9734 69.9644 44.1517 69.3944C44.3742 68.7628 44.5965 68.1142 44.8182 67.449L44.8323 67.4053C45.0014 66.8698 45.1589 66.3654 45.307 65.8931C45.5079 66.3869 45.8037 66.8674 46.2282 67.2917L51.3355 72.3991C51.4881 72.5516 51.6576 72.6967 51.8448 72.8329C52.6812 73.4412 53.6236 73.768 54.573 73.9029C55.392 74.0517 56.2232 74.0988 57.0608 74.0496C57.6526 74.0148 58.1526 73.9988 58.5652 73.9988C61.5194 73.9988 64.4557 73.9613 67.3735 73.8867L76.1747 73.7759H78.8352C79.8705 73.8121 80.9061 73.8303 81.9415 73.8309C82.2225 73.8404 82.5007 73.8474 82.7759 73.8521C83.3264 73.8616 83.8655 73.862 84.3926 73.8521L85.1748 73.8295C86.2692 73.7889 87.2939 73.6858 88.2359 73.5093L88.6634 73.4254C89.6688 73.2002 90.7253 72.7739 91.5813 71.9639L91.6815 71.8701C91.74 71.8138 91.7964 71.7557 91.8515 71.6973C92.6785 70.8196 93.1226 69.7126 93.3828 68.7151L93.4011 68.6439L93.4159 68.5712C93.4294 68.5062 93.4403 68.4401 93.4533 68.3737L98.0867 73.0064C98.4518 73.3713 98.8647 73.6518 99.2836 73.8613C99.7992 74.119 100.342 74.2819 100.892 74.3606C101.304 74.4194 101.721 74.4453 102.137 74.4453H102.417C102.596 74.4453 102.796 74.4432 103.016 74.4382C103.676 74.4232 104.52 74.3856 105.528 74.3296C106.892 74.2904 108.305 74.2156 109.768 74.1032C111.237 74.0296 112.6 73.9562 113.855 73.8824C114.989 73.8157 115.922 73.7422 116.549 73.6518C117.734 73.594 118.898 73.3849 119.956 72.9246L120.167 72.8286C122.181 71.9177 122.861 69.9298 123.067 68.3815C123.166 67.8406 123.246 67.1076 123.315 66.2732C123.39 65.3724 123.464 64.3488 123.538 63.2043C123.652 61.9886 123.747 60.7378 123.822 59.4526V59.4477C123.896 58.1544 123.971 56.936 124.044 55.7926C124.152 54.6643 124.228 53.639 124.267 52.7216C124.334 51.8895 124.376 51.1973 124.382 50.7079C124.457 49.254 124.513 47.8 124.55 46.3461C124.576 45.8336 124.611 45.3265 124.65 44.8247C124.997 44.8279 125.353 44.8338 125.717 44.8423C125.694 45.0987 125.672 45.3538 125.65 45.6076C125.504 47.2498 125.358 48.7025 125.214 49.9673C125.129 50.5359 125.016 51.4962 124.875 52.7964C124.725 54.1524 124.575 55.6189 124.425 57.1934L124.421 57.2245L124.419 57.2562C124.308 58.7725 124.197 60.1949 124.087 61.5228C123.976 62.8483 123.909 63.8752 123.909 64.4965C123.909 64.8483 123.938 65.214 124.005 65.5841C124.007 65.596 124.009 65.6089 124.011 65.6208C124.015 65.6392 124.018 65.6574 124.021 65.6758C124.115 66.1793 124.306 66.7227 124.651 67.236C124.803 67.4768 124.983 67.704 125.19 67.9103L130.295 73.0163C130.291 73.0122 130.287 73.0077 130.283 73.0036L130.297 73.0177C130.643 73.3633 131.064 73.6511 131.558 73.8486C131.898 73.9848 132.254 74.0923 132.622 74.166L132.697 74.1808L132.772 74.1921C134.709 74.4746 136.747 74.6124 138.879 74.6124H147.359C148.09 74.6124 148.775 74.6458 149.415 74.7098L149.473 74.7161L149.533 74.7197C151.274 74.8221 153.016 74.8498 154.758 74.8029L155.505 74.7782C157.439 74.7038 159.353 74.6101 161.251 74.4989C161.576 74.494 161.98 74.4706 162.42 74.4368C162.937 74.397 163.482 74.3386 164.052 74.264C164.605 74.2249 165.139 74.1682 165.652 74.0926C166.077 74.0572 166.662 73.989 167.205 73.8062C168.092 73.5395 169.051 72.9709 169.649 71.9145C169.876 71.5462 170.004 71.1945 170.075 70.9673C170.161 70.6901 170.223 70.4067 170.271 70.1392C170.393 69.636 170.496 69.12 170.577 68.5924C170.595 68.4778 170.608 68.3632 170.623 68.2496L172.303 69.929C172.909 70.5308 173.595 71.0408 174.348 71.4596L174.403 71.4906L174.459 71.5181C175.322 71.9494 176.227 72.2825 177.17 72.5183L177.25 72.538L177.331 72.5536C178.151 72.7098 178.962 72.8024 179.761 72.823C179.875 72.8259 179.989 72.8272 180.102 72.8272C180.84 72.8272 181.57 72.7541 182.286 72.6036L182.585 72.5387C183.181 72.3961 183.763 72.1841 184.315 71.887L184.588 71.7311C184.699 71.6686 184.809 71.6035 184.916 71.5365C185.672 71.067 186.345 70.4893 186.927 69.8105L186.958 69.7731L186.989 69.735C187.599 68.9729 188.095 68.1418 188.464 67.2452C188.853 66.3008 189.071 65.3093 189.124 64.2884C189.18 63.2301 189.043 62.1768 188.665 61.1694L188.655 61.1405L188.643 61.1109C188.298 60.2495 187.816 59.4633 187.217 58.7558C186.999 58.4851 186.768 58.2285 186.522 57.9862L185.364 56.8281C185.387 56.8128 185.41 56.7985 185.433 56.7829C186.45 56.0709 187.093 55.0502 187.359 53.8946C187.503 53.4228 187.585 52.9001 187.641 52.4903C187.756 51.8686 187.853 51.2329 187.93 50.5837C188.04 49.9203 188.134 49.3021 188.21 48.7308L188.212 48.7188L188.214 48.7068C188.289 48.1081 188.338 47.754 188.364 47.5966L188.376 47.5247L188.384 47.4527C188.604 45.5416 188.844 43.6489 189.101 41.7755C189.317 40.375 189.563 38.9739 189.84 37.5724L190.126 36.1709C190.151 36.064 190.178 35.9397 190.207 35.8034C190.236 35.6669 190.268 35.5175 190.3 35.359C190.374 34.9844 190.447 34.5816 190.52 34.1529C190.615 33.7642 190.7 33.3933 190.772 33.042C190.865 32.7233 190.99 32.2429 191.018 31.7505C191.104 30.6977 190.786 29.6988 190.139 28.8925C190.019 28.7332 189.888 28.5828 189.748 28.4425L184.641 23.3352C184.167 22.8621 183.583 22.5035 182.91 22.3026L182.726 22.2518L182.515 22.2059C182.018 22.1132 181.476 22.11 181.132 22.11V19.2209C181.42 19.2209 182.062 19.2184 182.749 19.3169L183.045 19.3655L183.131 19.3832L183.341 19.429L183.494 19.4664L183.678 19.5172L183.736 19.5341C184.81 19.8546 185.755 20.4141 186.53 21.1437L186.683 21.2918L191.79 26.3992C192.005 26.6144 192.206 26.8443 192.393 27.0854C192.398 27.0912 192.402 27.0973 192.407 27.1031C192.42 27.1196 192.433 27.1359 192.446 27.1525C193.496 28.4943 194.026 30.1659 193.902 31.9135L193.903 31.9142C193.902 31.9279 193.9 31.9415 193.9 31.9551C193.899 31.9647 193.899 31.9744 193.898 31.984C193.85 32.7053 193.687 33.348 193.579 33.7318C193.511 34.0548 193.435 34.389 193.351 34.7334C193.281 35.1455 193.209 35.5448 193.133 35.9254C193.098 36.1007 193.063 36.2645 193.032 36.4107C193.008 36.5246 192.981 36.639 192.956 36.7486L192.674 38.1303C192.407 39.4822 192.17 40.8344 191.961 42.1846C191.709 44.0254 191.473 45.8847 191.256 47.7617L191.249 47.8343C191.243 47.8895 191.235 47.9446 191.226 47.9994L191.214 48.0713C191.198 48.1626 191.157 48.4613 191.081 49.0651C191.079 49.0807 191.075 49.0961 191.073 49.1117C190.995 49.6983 190.9 50.3239 190.792 50.983C190.711 51.6489 190.611 52.3031 190.494 52.9452C190.436 53.3639 190.336 54.0011 190.15 54.6415C189.971 55.3776 189.688 56.0867 189.304 56.7463C189.344 56.7938 189.384 56.8413 189.423 56.8894C189.429 56.8973 189.436 56.9055 189.443 56.9134C189.451 56.924 189.46 56.9346 189.469 56.9452C190.233 57.86 190.864 58.8888 191.32 60.0268L191.333 60.0564L191.368 60.1481L191.379 60.177C191.905 61.5897 192.084 63.037 192.01 64.4401C191.94 65.7756 191.653 67.0887 191.136 68.3448C190.658 69.5052 190.019 70.5729 189.246 71.54C189.24 71.5466 189.235 71.5531 189.23 71.5597L189.199 71.5978C189.186 71.6129 189.174 71.6282 189.161 71.643L189.129 71.6804C189.126 71.6838 189.123 71.6875 189.12 71.6909C188.347 72.5926 187.449 73.3641 186.441 73.9903C186.306 74.0747 186.164 74.1575 186.02 74.2393L185.747 74.3959C185.727 74.4077 185.705 74.4192 185.685 74.4305C184.89 74.8585 184.069 75.1539 183.259 75.3481C183.241 75.3523 183.224 75.3562 183.206 75.3601L182.908 75.4257C182.892 75.4292 182.875 75.4309 182.859 75.4342C181.947 75.6243 181.025 75.7163 180.102 75.7163C179.967 75.7163 179.828 75.715 179.686 75.7113C178.715 75.6863 177.748 75.5742 176.79 75.3918L176.783 75.3904L176.703 75.3749C176.653 75.3654 176.604 75.3546 176.555 75.3425L176.476 75.3227L176.47 75.3213C175.327 75.0354 174.222 74.63 173.167 74.1025L173.125 74.0813C173.077 74.0579 173.03 74.0332 172.984 74.0073L172.929 73.9762C172.642 73.8163 172.363 73.6437 172.09 73.462C171.054 75.2073 169.475 76.1198 168.126 76.5436C168.122 76.5449 168.119 76.546 168.115 76.5472C168.089 76.5555 168.063 76.5653 168.036 76.5733L168.036 76.5719C167.238 76.8283 166.464 76.9197 165.987 76.9619C165.449 77.0391 164.899 77.0976 164.339 77.139C163.758 77.2137 163.191 77.2751 162.641 77.3174C162.207 77.3508 161.765 77.3768 161.372 77.3851C159.474 77.496 157.558 77.5893 155.625 77.6637C155.617 77.6641 155.609 77.6656 155.601 77.6658L154.854 77.6905C154.848 77.6907 154.842 77.6911 154.837 77.6912C153.012 77.7404 151.187 77.711 149.363 77.6038H149.361L149.302 77.6002C149.255 77.5975 149.209 77.5933 149.162 77.5883L149.128 77.584C148.592 77.5304 148.002 77.5015 147.359 77.5015H138.879C136.623 77.5015 134.445 77.3556 132.355 77.0508C132.35 77.0501 132.345 77.0494 132.341 77.0487L132.266 77.0374C132.222 77.0308 132.179 77.0234 132.135 77.0148L132.061 77L132.056 76.9986C131.644 76.9163 131.246 76.8067 130.863 76.6727L130.485 76.531C129.663 76.2023 128.954 75.7284 128.364 75.1647C128.326 75.1306 128.289 75.0954 128.253 75.0589L125.031 71.8369C124.37 73.2046 123.269 74.5672 121.44 75.4201C121.415 75.4321 121.391 75.4454 121.366 75.4567L121.156 75.5527C121.141 75.5597 121.125 75.567 121.109 75.5738C119.69 76.1909 118.214 76.448 116.838 76.5274C116.091 76.6282 115.099 76.7034 114.025 76.7665C112.767 76.8405 111.405 76.9131 109.94 76.9866C108.475 77.0984 107.054 77.1738 105.679 77.2144C104.662 77.2708 103.786 77.3105 103.081 77.3266C102.839 77.3321 102.618 77.3343 102.417 77.3343H102.137C101.736 77.3343 101.324 77.3155 100.905 77.2723L100.484 77.2208C99.6418 77.1004 98.799 76.8494 97.9914 76.4456C97.3317 76.1157 96.6564 75.6611 96.0447 75.0497L94.2898 73.2956C94.1829 73.4246 94.0721 73.5534 93.9541 73.6786C93.9013 73.7346 93.8472 73.7869 93.7954 73.8387C93.7511 73.8862 93.7056 73.9329 93.6579 73.9776L93.6353 73.9988L93.5767 74.0545C93.5363 74.0931 93.4946 74.1302 93.4526 74.166C92.1219 75.3769 90.5792 75.9569 89.2946 76.2446C89.2717 76.2497 89.2486 76.2548 89.2255 76.2594L88.7988 76.344C88.7805 76.3477 88.7621 76.3499 88.7438 76.3532C87.639 76.5587 86.4758 76.6714 85.2813 76.7158C85.2738 76.716 85.2655 76.7169 85.258 76.7172L84.4758 76.7397C84.4661 76.74 84.4565 76.7403 84.4469 76.7404C83.8816 76.751 83.3079 76.7504 82.7265 76.7404C82.451 76.7357 82.1723 76.7285 81.8907 76.7193C80.8547 76.7181 79.8183 76.7007 78.7816 76.665H76.2113L67.4229 76.775C64.4883 76.8498 61.5356 76.8879 58.5652 76.8879C58.2233 76.8879 57.7821 76.9013 57.2307 76.9337C56.1889 76.995 55.1439 76.9375 54.1068 76.7531C52.7952 76.5587 51.4099 76.089 50.1456 75.1697C49.839 74.9467 49.5548 74.7035 49.2936 74.4425L46.4722 71.6211C46.4571 71.6656 46.4416 71.71 46.4243 71.7537L46.4003 71.8144C45.7478 73.4944 44.5493 74.914 42.892 75.815C41.9752 76.3342 41.0361 76.5899 40.1743 76.6805C40.1021 76.6881 40.0302 76.6921 39.9592 76.6974L39.7666 76.7207C39.7497 76.7227 39.7328 76.7246 39.7158 76.7263C39.3899 76.7596 39.0608 76.7764 38.7305 76.7764C38.6248 76.7764 38.5058 76.7754 38.375 76.7722C38.0304 76.7637 37.6123 76.7431 37.1604 76.7186C36.5038 76.7156 35.7778 76.6965 34.9901 76.6636C34.1511 76.662 33.2716 76.6435 32.3528 76.6078C31.4396 76.6063 30.5514 76.5877 29.6888 76.5521C28.9041 76.5506 28.1589 76.5328 27.4571 76.4978H26.1374C26.0739 76.4978 26.0103 76.4956 25.947 76.4915L25.851 76.4851H25.8496C25.5698 76.4664 25.2898 76.4474 25.011 76.4287C24.732 76.4099 24.4539 76.3915 24.1758 76.373C22.9587 76.2918 21.7803 76.0058 20.6668 75.5287L20.6612 75.5258L20.4566 75.4377C20.3237 75.3804 20.1951 75.3132 20.0722 75.2367L19.8832 75.1189L19.8796 75.1168C19.2795 74.7416 18.7468 74.3104 18.2764 73.8479L13.1521 68.7236C13.1459 68.7173 13.1393 68.7115 13.1331 68.7052L12.9434 68.512C12.9295 68.4979 12.916 68.4833 12.9025 68.469C12.815 68.3762 12.7345 68.2858 12.6619 68.203L12.6344 68.1727C12.6219 68.1585 12.6093 68.1441 12.597 68.1297L12.5695 68.0979C12.525 68.0466 12.4819 67.9936 12.4412 67.9392L12.3756 67.8518C11.8965 67.213 11.4882 66.5215 11.1603 65.7837L11.1271 65.709C11.1009 65.6502 11.0767 65.5902 11.0545 65.5298L11.0305 65.4649L10.3964 63.7376C10.3875 63.7131 10.3785 63.6882 10.3703 63.6635L10.3696 63.6614L9.41809 60.9197C9.41586 60.9133 9.41323 60.9065 9.41104 60.9L9.39482 60.852C9.38667 60.8279 9.37905 60.8037 9.37154 60.7794L9.35673 60.7314L9.35532 60.7286C9.07604 59.821 8.80064 58.9763 8.52866 58.1943C8.52707 58.1897 8.5253 58.1848 8.52373 58.1802L8.50539 58.1266C8.49684 58.1016 8.48856 58.0763 8.4807 58.0511L8.46377 57.9968C8.46189 57.9908 8.45998 57.9846 8.45813 57.9785C8.23743 57.2533 8.05487 56.6321 7.93618 56.1869C7.23451 53.969 6.55061 51.7506 5.88506 49.5321C5.88049 49.5168 5.87598 49.5015 5.87166 49.4862L5.8639 49.4587L5.86179 49.451C5.85915 49.4418 5.85658 49.4326 5.85403 49.4235C5.21304 47.1234 4.59013 44.8042 3.987 42.4674L3.86921 42.0379L3.62799 41.2352C3.53709 40.9446 3.43451 40.6275 3.31975 40.283L3.30424 40.2372C3.29004 40.1952 3.27699 40.1528 3.26474 40.1102L3.25768 40.0855L2.31465 36.9242C2.31191 36.9151 2.30953 36.9058 2.30689 36.8967L2.30336 36.8847L2.30054 36.8748L1.29614 33.4158L1.29403 33.4102L1.28204 33.3686C1.27257 33.3357 1.26353 33.3023 1.25523 33.2691L1.24465 33.2268C0.929654 32.0049 0.664036 30.864 0.453971 29.8137C0.245851 28.773 0.0828656 27.7418 0.0208943 26.7934C0.0192799 26.7728 0.018537 26.7521 0.0173676 26.7314C-0.0175942 26.1361 -0.0354597 25.0735 0.330537 23.9143C0.702017 22.7386 1.72977 20.7913 4.08575 19.9235C5.19069 19.4866 6.50263 19.2461 7.53061 19.0834C8.8321 18.8476 10.1988 18.633 11.6286 18.4394L11.6385 18.4373L11.6702 18.4331C13.1172 18.2427 14.4867 18.0882 15.7767 17.9697C16.9745 17.8295 18.129 17.7144 18.9507 17.7143ZM143.423 50.2148C143.423 50.4377 143.46 50.5869 143.534 50.6613L143.567 50.7262C143.575 50.7405 143.585 50.7543 143.595 50.7671L143.627 50.8038L148.734 55.9111C148.825 56.002 148.962 56.0472 149.144 56.0473C149.339 56.0473 149.513 56.0581 149.667 56.079C149.718 56.086 149.767 56.0937 149.813 56.103H150.929L152.714 55.9916C153.188 55.9637 153.642 55.9463 154.074 55.9394L154.499 55.9358C155.057 55.8987 155.429 55.8801 155.615 55.8801L156.369 55.8942C156.703 55.9035 157.122 55.9172 157.624 55.9358L158.416 55.9394C159.217 55.9463 160.051 55.9637 160.915 55.9916C162.008 55.9916 163.023 56.0082 163.959 56.0395C163.926 56.255 163.89 56.4709 163.842 56.6863C163.758 57.1882 163.653 57.6903 163.528 58.1922L163.263 59.1966C163.137 59.6986 163.032 60.2012 162.949 60.7032L162.879 61.0791C162.851 61.2372 162.819 61.4281 162.782 61.6512C162.744 62.0973 162.689 62.5624 162.614 63.0456L162.554 63.4053C162.492 63.7608 162.419 64.1063 162.335 64.4408C162.261 64.8865 162.168 65.1841 162.056 65.333C161.908 65.6305 161.628 65.8351 161.219 65.9467C161.033 66.021 160.699 66.0774 160.216 66.1145C159.732 66.1889 159.211 66.2445 158.653 66.2817C158.095 66.3561 157.574 66.4117 157.091 66.4489C156.608 66.4861 156.254 66.5046 156.031 66.5046C154.134 66.6162 152.219 66.7095 150.285 66.7839C148.388 66.8583 146.491 66.8398 144.594 66.7282C143.851 66.6538 143.069 66.616 142.251 66.616V63.727C143.126 63.727 143.974 63.7667 144.793 63.8455C146.586 63.95 148.379 63.9673 150.172 63.897H150.174C152.089 63.8233 153.984 63.7309 155.861 63.6205L156.031 63.6155C156.136 63.6155 156.396 63.6047 156.869 63.5683C157.292 63.5357 157.76 63.4863 158.272 63.418L158.461 63.399C158.891 63.3703 159.282 63.3287 159.636 63.2784C159.661 63.1596 159.686 63.0384 159.708 62.9144L159.762 62.5879C159.826 62.1723 159.872 61.7801 159.902 61.4114L159.932 61.1765C159.969 60.9516 160.003 60.7491 160.034 60.5769C160.035 60.5685 160.037 60.56 160.038 60.5516L160.108 60.1756C160.182 59.7384 160.27 59.3018 160.371 58.8665C159.689 58.8472 159.029 58.834 158.391 58.8284L157.611 58.8249C157.58 58.8248 157.549 58.8239 157.518 58.8228C157.029 58.8047 156.624 58.7908 156.303 58.7819L155.598 58.7692C155.597 58.7692 155.596 58.7691 155.595 58.7692C155.581 58.7694 155.562 58.7705 155.537 58.7713C155.488 58.7729 155.423 58.7757 155.341 58.7797C155.177 58.7879 154.962 58.8006 154.692 58.8185C154.636 58.8223 154.58 58.8244 154.523 58.8249L154.098 58.8284C153.717 58.8349 153.312 58.8505 152.884 58.8757L151.109 58.9864C151.049 58.9901 150.989 58.9921 150.929 58.9921H149.813C149.633 58.992 149.454 58.9747 149.277 58.9413C149.278 58.9415 149.279 58.9419 149.28 58.942C149.284 58.9426 149.284 58.9422 149.277 58.9413C149.277 58.9413 149.267 58.9405 149.245 58.9392C149.222 58.9377 149.188 58.9363 149.144 58.9363C148.523 58.9362 147.52 58.7805 146.694 57.9559L141.584 52.8465C141.535 52.7974 141.488 52.7465 141.442 52.6941L141.411 52.6574C141.378 52.6194 141.345 52.5807 141.315 52.541C141.246 52.4531 141.168 52.3424 141.089 52.2109C141.081 52.1974 141.074 52.1831 141.066 52.1693C140.828 51.7959 140.709 51.4389 140.648 51.1931C140.553 50.8126 140.534 50.4662 140.534 50.2148C140.534 50.066 140.544 49.8951 140.558 49.7239L140.607 49.2267C140.652 48.7849 140.719 48.3465 140.804 47.9126C140.883 47.4759 140.965 47.0658 141.049 46.6868C141.1 46.4585 141.177 46.1555 141.298 45.8523C141.358 45.702 141.462 45.466 141.631 45.2126C141.729 45.065 141.929 44.79 142.258 44.5235C142.286 44.4997 142.315 44.4766 142.344 44.4544C142.348 44.4513 142.352 44.4482 142.356 44.4452C142.925 44.0085 143.525 43.8667 143.902 43.8196C143.967 43.8115 144.031 43.8055 144.093 43.8012L142.076 41.7847C141.426 41.1341 141.203 40.3272 141.203 39.6708V39.1129C141.203 38.9762 141.213 38.8397 141.232 38.7045C141.248 38.5913 141.26 38.4494 141.26 38.2763C141.26 38.149 141.268 38.0217 141.285 37.8954L141.396 37.0582L141.4 37.0307C141.415 36.9267 141.423 36.8578 141.427 36.8177C141.428 36.8081 141.429 36.8017 141.429 36.7986C141.429 36.8028 141.427 36.8329 141.427 36.8812C141.427 36.6437 141.456 36.4068 141.514 36.1765C141.639 35.6811 141.897 35.1309 142.37 34.6579C142.735 34.2926 143.147 34.0552 143.545 33.9082C144.005 33.7161 144.474 33.6248 144.922 33.6063C145.481 33.558 146.162 33.5707 146.859 33.6056C147.62 33.6436 148.482 33.6998 149.445 33.7734C150.429 33.8119 151.447 33.8683 152.499 33.9434C153.583 34.0182 154.61 34.0936 155.583 34.1684C156.539 34.242 157.398 34.3162 158.155 34.3913C158.897 34.4274 159.503 34.4656 159.92 34.5119C159.95 34.5153 159.98 34.519 160.01 34.5232C160.295 34.564 160.593 34.5903 160.903 34.6008L161.113 34.6043C161.267 34.59 161.416 34.5651 161.561 34.5296C161.599 34.3917 161.621 34.2658 161.63 34.1494L161.651 33.9625L161.855 32.5314C160.695 32.5773 159.54 32.6215 158.388 32.659H158.38L155.806 32.7359C155.801 32.736 155.797 32.7365 155.792 32.7366L153.853 32.7853H153.847C152.543 32.815 151.234 32.8394 149.921 32.8586C149.264 32.8682 148.606 32.8763 147.948 32.8833C147.937 32.8834 147.927 32.8833 147.917 32.8833C147.817 32.8833 147.715 32.8813 147.614 32.8784C147.312 32.8698 146.949 32.8499 146.539 32.8205C146.038 32.7847 145.458 32.7485 144.8 32.7119L142.696 32.6005C142.173 32.5743 141.661 32.559 141.16 32.5525L140.658 32.549C139.88 32.5492 139.193 32.5887 138.592 32.6576C138.592 32.6584 138.592 32.6596 138.592 32.6604C138.42 33.5528 138.243 34.6827 138.062 36.0616C137.879 37.4464 137.696 39.0031 137.512 40.7323C137.328 42.46 137.144 44.2249 136.961 46.0259L136.738 48.6617L136.737 48.6659C136.662 49.5341 136.587 50.3884 136.513 51.227L136.512 51.2341L136.4 52.462C136.287 53.6618 136.174 54.7624 136.06 55.7616C136.056 55.7988 136.051 55.8361 136.045 55.8731C135.982 56.2829 135.876 57.1507 135.726 58.5336L135.726 58.542C135.579 59.8638 135.432 61.2993 135.284 62.8481C135.262 63.1445 135.24 63.4374 135.218 63.727H142.251V66.616H133.772C133.204 66.616 132.646 66.6043 132.096 66.5836C132.144 66.0035 132.193 65.4064 132.24 64.792C132.296 64.0761 132.352 63.3368 132.408 62.5745C132.556 61.0126 132.705 59.562 132.854 58.2232C133.003 56.8473 133.115 55.9171 133.189 55.4336C133.301 54.4575 133.412 53.3765 133.523 52.1912L133.635 50.971C133.709 50.1342 133.784 49.283 133.859 48.4184L134.081 45.7825C134.267 43.9602 134.453 42.1748 134.639 40.4269C134.825 38.679 135.011 37.0981 135.197 35.6849C135.383 34.2717 135.569 33.0814 135.755 32.1145C135.941 31.1477 136.127 30.571 136.313 30.385C136.611 30.0877 137.15 29.9015 137.93 29.8271C138.749 29.7155 139.66 29.6599 140.664 29.6599L141.198 29.6635C141.735 29.6704 142.282 29.6878 142.84 29.7156L144.96 29.8271C145.629 29.8643 146.224 29.9014 146.745 29.9385C147.135 29.9664 147.452 29.9838 147.697 29.9907C147.778 29.9931 147.851 29.9943 147.917 29.9943C148.572 29.9873 149.226 29.9791 149.879 29.9696C151.185 29.9505 152.485 29.9265 153.781 29.8969L155.72 29.8483L158.293 29.7714C160.004 29.7156 161.724 29.6504 163.454 29.576C164.103 29.548 164.754 29.517 165.406 29.4864C165.351 29.757 165.295 30.0277 165.236 30.2983C165.05 31.1164 164.883 31.954 164.734 32.8093L164.511 34.3709C164.474 34.8543 164.362 35.3383 164.176 35.8217L164.057 36.0376C163.765 36.5257 163.358 36.9001 162.837 37.1605L162.641 37.2268C162.182 37.3732 161.707 37.463 161.219 37.4955L160.804 37.4885C160.393 37.4745 159.992 37.4391 159.601 37.3834C159.266 37.3462 158.709 37.3091 157.928 37.2719C157.184 37.1975 156.328 37.1234 155.361 37.049C154.395 36.9747 153.372 36.8998 152.293 36.8254C151.252 36.7511 150.248 36.6955 149.281 36.6583C148.314 36.5839 147.458 36.5283 146.715 36.4911C145.971 36.4539 145.431 36.4539 145.097 36.4911C144.911 36.4911 144.743 36.5282 144.594 36.6026C144.446 36.6397 144.353 36.7329 144.316 36.8812C144.316 36.9926 144.297 37.1791 144.26 37.4391L144.149 38.2763C144.149 38.5736 144.129 38.8527 144.092 39.1129V39.6708C144.092 39.7003 144.101 39.7243 144.119 39.742L149.226 44.8493C149.242 44.865 149.265 44.876 149.294 44.8825L149.367 44.8896C149.479 44.8617 149.569 44.8443 149.639 44.8374L149.702 44.8338H151.208L151.756 44.8099C152.132 44.7959 152.532 44.7863 152.955 44.7816L153.607 44.7781H156.508L157.251 44.7541C157.681 44.7418 158.1 44.7339 158.509 44.7287C158.485 44.8465 158.459 44.9645 158.43 45.0821C158.355 45.3795 158.281 45.6776 158.207 45.9751L158.151 46.1563C158.095 46.3235 158.04 46.4493 157.984 46.533L157.891 46.6388C157.656 46.8748 157.277 47.0258 156.757 47.0909C156.199 47.1653 155.603 47.2023 154.971 47.2024L153.716 47.1988C152.461 47.1919 151.205 47.1745 149.95 47.1466C148.314 47.0722 146.659 46.9418 144.985 46.7559C144.911 46.7188 144.762 46.7002 144.539 46.7002C144.316 46.6631 144.167 46.6816 144.092 46.7559C144.018 46.7934 143.944 46.9797 143.869 47.3138C143.795 47.6484 143.721 48.0207 143.646 48.4296C143.572 48.8014 143.516 49.1737 143.479 49.5455C143.441 49.8798 143.423 50.1032 143.423 50.2148ZM86.7441 29.9421C86.8734 29.9443 87.0049 29.9476 87.1384 29.9519C87.0688 30.7161 87 31.4641 86.9304 32.1956C86.7816 34.1293 86.6697 36.0633 86.5953 37.997C86.5209 39.9308 86.4468 41.8653 86.3724 43.7991C86.3352 45.0264 86.3167 46.5146 86.3167 48.2625L86.3097 49.5561C86.2957 50.8599 86.261 52.1958 86.2053 53.5624C86.1681 55.3845 86.0932 57.1325 85.9817 58.8058C85.8701 60.4421 85.7026 61.8 85.4795 62.8785C85.2564 63.7336 84.9404 64.3474 84.5315 64.7194C84.1224 65.1284 83.4901 65.4079 82.6348 65.5566C81.8539 65.7054 80.9608 65.798 79.9567 65.8352C78.9898 65.8724 77.9669 65.8724 76.8885 65.8352C75.8472 65.8352 74.8058 65.8167 73.7645 65.7795H71.0307L62.2161 65.891C59.3153 65.9653 56.3958 66.0024 53.4579 66.0024L53.0812 66.0059C53.0383 66.0067 52.9947 66.0084 52.9508 66.0094C52.9665 64.8627 52.9912 63.7187 53.0248 62.578L53.0975 60.4549C53.1812 58.335 53.2338 56.204 53.2548 54.0632L53.2653 51.9189C53.2653 49.5388 53.209 47.1768 53.0975 44.8338C52.9859 42.4909 52.9303 40.1474 52.9303 37.8045V36.5772C52.9303 35.945 52.9488 35.2755 52.986 34.5691C53.0232 33.8626 53.0788 33.2302 53.1532 32.6724C53.2647 32.0776 53.3953 31.7425 53.544 31.668C53.916 31.5193 54.8462 31.3703 56.3336 31.2215C57.4771 31.11 58.7883 31.0089 60.2665 30.9182L61.8006 30.8315C63.4185 30.7199 65.1307 30.6189 66.9369 30.5282L68.7743 30.4407C70.643 30.3571 72.4596 30.2841 74.2237 30.2214L75.9708 30.1621C78.2765 30.0878 80.3593 30.0314 82.2187 29.9943C84.078 29.9571 85.4544 29.9385 86.347 29.9385C86.477 29.9385 86.6095 29.9397 86.7441 29.9421ZM23.1348 29.6289C23.2091 30.4469 23.2647 31.2469 23.3019 32.0277C23.3391 32.7713 23.3762 33.2739 23.4134 33.5343L23.9713 37.8856C24.1944 39.3358 24.4183 40.7865 24.6414 42.2368L29.7487 47.3441C29.916 46.5354 30.0727 45.7265 30.2192 44.9178L30.3624 44.1087C30.5855 43.0304 30.8086 41.9518 31.0317 40.8734L32.2033 35.3499C32.2219 35.2755 32.2453 35.1639 32.2731 35.0155L32.3704 34.4576C32.4448 34.0114 32.5375 33.5459 32.6491 33.0625C32.7048 32.8024 32.7564 32.5514 32.8028 32.3099L32.9284 31.6123L33.1513 30.72C33.2628 30.2739 33.4119 29.9017 33.5977 29.6042C33.8209 29.2696 34.193 29.102 34.7136 29.102C35.8851 29.1578 37.0568 29.1925 38.2283 29.2064L39.3998 29.2134C40.9989 29.1763 42.5799 29.1948 44.1418 29.2692C44.4766 29.2692 45.0349 29.2877 45.8156 29.3249L46.4081 29.3566C46.6893 29.373 46.9753 29.3915 47.2658 29.4124C47.2538 29.4533 47.245 29.4888 47.2354 29.5175C45.8594 34.3894 44.3898 39.1873 42.8278 43.9105C41.2658 48.6337 39.6665 53.3946 38.0301 58.1922C37.9557 58.4153 37.8066 58.8433 37.5836 59.4752C37.3977 60.0702 37.1931 60.7218 36.97 61.4283L36.6356 62.4186C36.5241 62.7438 36.4121 63.0647 36.3006 63.3807C36.1147 63.9754 35.9842 64.3847 35.9098 64.6079C35.7239 65.0913 35.4081 65.4449 34.9619 65.6681C34.776 65.7796 34.5527 65.8352 34.2925 65.8352C34.0695 65.8724 33.8462 65.8909 33.6231 65.891L33.0786 65.8768C32.8463 65.8675 32.5625 65.8538 32.228 65.8352C31.5959 65.8352 30.8521 65.8167 29.997 65.7795C29.1788 65.7795 28.3043 65.761 27.3746 65.7238C26.4449 65.7238 25.5523 65.7052 24.6971 65.6681C23.879 65.6681 23.1348 65.6495 22.4654 65.6123H21.1267L20.4827 65.5693C20.3219 65.1062 20.1557 64.6288 19.9854 64.1368C19.6879 63.1699 19.3907 62.2583 19.0932 61.4029C18.8329 60.5476 18.6654 59.9709 18.591 59.6734C17.8844 57.442 17.1959 55.2105 16.5265 52.9791C15.8942 50.7104 15.2806 48.4227 14.6855 46.1168C14.4996 45.4103 14.2394 44.5548 13.9047 43.5508C13.6072 42.5467 13.2908 41.4868 12.9561 40.3712C12.6214 39.2183 12.2871 38.0651 11.9524 36.9122C11.6549 35.7594 11.4125 34.718 11.2266 33.7883C11.0406 32.8586 10.9294 32.0959 10.8922 31.5009C10.8551 30.869 10.9665 30.5154 11.2266 30.4407C11.6357 30.2548 12.4357 30.0687 13.6254 29.8828C14.8527 29.6597 16.1549 29.4551 17.5309 29.2692C18.9441 29.0832 20.2648 28.9343 21.492 28.8227C22.1242 28.7483 22.6542 28.6919 23.0819 28.6548C23.102 28.9711 23.1203 29.2957 23.1348 29.6289ZM179.935 57.9996C180.33 57.9997 180.719 58.0436 181.099 58.1308C181.101 58.1312 181.102 58.1312 181.104 58.1315C181.138 58.4202 181.149 58.7194 181.132 59.0294L181.113 59.2925C181.056 59.9025 180.914 60.4844 180.686 61.0375L180.584 61.2731C180.335 61.818 180.016 62.3347 179.626 62.8227C179.18 63.3433 178.659 63.7711 178.064 64.1057C177.655 64.3661 177.171 64.5521 176.613 64.6637C176.093 64.7752 175.553 64.8308 174.995 64.8308C174.404 64.8308 173.787 64.7783 173.144 64.6742C173.144 64.6512 173.145 64.6282 173.146 64.6051C173.155 64.4276 173.175 64.2478 173.204 64.0662L173.241 63.8575C173.339 63.3696 173.493 62.8956 173.704 62.4362L173.799 62.2401C174.027 61.7847 174.325 61.3286 174.695 60.8732L174.859 60.6778C175.305 60.1573 175.789 59.7109 176.309 59.3391C176.867 58.9301 177.462 58.6135 178.094 58.3904C178.727 58.1301 179.34 57.9997 179.935 57.9996ZM125.126 33.1104C124.617 33.1385 124.112 33.1716 123.614 33.2099C123.59 33.2117 123.567 33.2129 123.543 33.2141L121.535 33.3185L121.525 33.3192C120.003 33.3932 118.482 33.4553 116.961 33.5054C116.454 33.5221 115.947 33.5372 115.44 33.5513L115.432 33.552L113.447 33.6013C113.444 33.6014 113.44 33.6013 113.437 33.6013C111.429 33.6438 109.41 33.6648 107.382 33.6648C107.378 33.6648 107.373 33.6648 107.37 33.6648L104.779 33.6542C104.775 33.6542 104.771 33.6543 104.768 33.6542C102.18 33.6333 99.6035 33.5801 97.0371 33.497C96.9662 33.4972 96.8927 33.5005 96.8164 33.5033C96.8028 33.5557 96.7907 33.6095 96.7776 33.6641C96.7218 34.0422 96.6786 34.4176 96.6499 34.7905C96.6311 35.035 96.6116 35.2658 96.5921 35.4818C97.2192 35.2179 97.7393 35.0001 98.1508 34.8286L98.3554 34.7525C99.3856 34.4117 100.528 34.6769 101.304 35.4529L106.412 40.5602C107.075 41.2233 107.375 42.1667 107.217 43.0909C106.764 45.7318 106.255 48.3552 105.689 50.9597L105.309 52.8472C104.928 54.767 104.557 56.6985 104.197 58.6394L104.051 59.4752C103.988 59.8434 103.912 60.2952 103.823 60.8288C103.718 61.6127 103.603 62.432 103.481 63.2868C103.728 63.2699 103.978 63.2533 104.229 63.2339C104.254 63.232 104.281 63.2303 104.306 63.229C105.043 63.1922 105.752 63.1545 106.436 63.1176L108.416 63.0061C109.695 62.9308 110.399 62.8637 110.67 62.8185L110.857 62.7931C110.919 62.7868 110.982 62.7826 111.045 62.7804C111.564 62.7625 111.943 62.701 112.214 62.6295C112.222 62.5836 112.231 62.5324 112.238 62.475L112.273 62.2564C112.299 62.1254 112.344 61.8182 112.398 61.2661L112.449 60.6863L112.559 59.2791C112.596 58.7768 112.633 58.2409 112.669 57.6717L112.676 57.5884C112.757 56.7231 112.828 55.8344 112.889 54.9237L112.947 53.9947C113.022 52.6936 113.096 51.4635 113.171 50.3072L113.178 50.2148C113.286 49.0994 113.357 48.1308 113.391 47.3046L113.397 47.1946C113.451 46.5229 113.481 46.0355 113.493 45.7141L113.5 45.4115L113.504 45.3247C113.577 43.8994 113.632 42.4734 113.668 41.0476L113.67 40.9771C113.748 39.4151 113.886 37.8864 114.082 36.3931L114.103 36.2591C114.349 34.8892 115.542 33.8807 116.947 33.8807C117.407 33.8807 118.085 33.9008 118.948 33.9364C119.88 33.937 120.86 33.9554 121.888 33.9914C122.883 33.991 123.799 33.9741 124.637 33.9392L124.641 33.9385C124.796 33.9323 124.934 33.9239 125.057 33.9152L125.115 33.2727C125.12 33.2178 125.122 33.1636 125.126 33.1104ZM20.3988 31.8352C19.6078 31.9201 18.7776 32.0192 17.9082 32.1335C16.5744 32.3139 15.3191 32.5114 14.1424 32.7253C14.119 32.7296 14.0954 32.7336 14.0719 32.7373C14.0379 32.7426 14.0041 32.7483 13.971 32.7535C13.9978 32.9009 14.027 33.0571 14.0599 33.2219C14.2305 34.0747 14.4553 35.0466 14.737 36.1413C14.9011 36.7065 15.0648 37.2719 15.2287 37.8369C15.3959 38.4135 15.5636 38.9896 15.7309 39.5657C16.0575 40.6546 16.3665 41.6916 16.6584 42.6762C16.9128 43.4408 17.1314 44.1394 17.3108 44.7675L17.4794 45.3819L17.4829 45.3953C18.0723 47.6792 18.6803 49.9448 19.3062 52.1912C19.9673 54.394 20.6475 56.5972 21.3453 58.8009C21.3633 58.8576 21.3796 58.9154 21.394 58.973C21.4471 59.1854 21.59 59.6811 21.8461 60.5233C22.0895 61.2254 22.3305 61.9599 22.5712 62.7254C22.5893 62.7261 22.6074 62.7265 22.6255 62.7275C23.2313 62.7612 23.9211 62.779 24.6971 62.779C24.7389 62.779 24.7809 62.78 24.8226 62.7818C25.6326 62.817 26.4831 62.8347 27.3746 62.8347C27.4131 62.8347 27.4518 62.8353 27.4902 62.8368C28.3864 62.8727 29.222 62.8904 29.997 62.8904C30.0388 62.8904 30.0808 62.8915 30.1225 62.8933C30.9492 62.9292 31.6492 62.9462 32.228 62.9462C32.2813 62.9462 32.3348 62.9475 32.3881 62.9504C32.7041 62.968 32.9675 62.9799 33.1788 62.9885L33.3918 62.9941C33.4361 62.8537 33.4881 62.6957 33.5434 62.5187L33.5766 62.4193C33.6844 62.1138 33.7915 61.8055 33.8982 61.4946L34.2241 60.5283C34.4427 59.836 34.644 59.1971 34.8264 58.6133L34.8596 58.5138C35.084 57.8779 35.2241 57.4739 35.2891 57.2788L35.2955 57.2597C36.929 52.4706 38.5256 47.718 40.0847 43.0035C41.2684 39.4242 42.3981 35.8008 43.4746 32.1342C42.1545 32.0827 40.8183 32.0704 39.4668 32.1018C39.4389 32.1025 39.4109 32.1027 39.3829 32.1025L38.2113 32.0955C38.2057 32.0954 38.1994 32.0955 38.1937 32.0955C37.3959 32.086 36.5979 32.0659 35.7998 32.0376L35.7547 32.2182L35.646 32.822C35.644 32.8331 35.6418 32.8447 35.6397 32.8558C35.5885 33.1217 35.5328 33.393 35.4739 33.6677C35.4708 33.6824 35.4675 33.6973 35.4641 33.7121C35.365 34.1413 35.284 34.5484 35.22 34.9323C35.2188 34.9395 35.2177 34.947 35.2165 34.9542L35.1191 35.5121C35.1171 35.5241 35.115 35.5361 35.1128 35.5481C35.0881 35.6796 35.0589 35.8181 35.0289 35.9487L33.858 41.4729C33.6387 42.5329 33.4206 43.5856 33.2013 44.6455L33.0638 45.4214C33.0631 45.4251 33.0631 45.429 33.0624 45.4327C32.9117 46.2647 32.7501 47.0971 32.5778 47.9296C32.3626 48.9695 31.5942 49.8075 30.5768 50.1119C29.5593 50.4162 28.457 50.1377 27.7061 49.3868L22.5987 44.2794C22.1643 43.845 21.8796 43.2835 21.7862 42.6762C21.6747 41.9514 21.5629 41.2262 21.4511 40.5009C21.3394 39.7759 21.2277 39.0504 21.1161 38.325C21.1124 38.3011 21.1086 38.277 21.1055 38.253L20.5476 33.9018C20.4918 33.4895 20.4515 32.8747 20.4164 32.1723V32.1653C20.4112 32.0557 20.4048 31.9457 20.3988 31.8352ZM180.47 60.9494C180.472 60.9498 180.474 60.9503 180.476 60.9508H180.475C180.473 60.9504 180.472 60.9497 180.47 60.9494ZM66.5116 35.766C65.3962 35.7661 64.4107 36.0635 63.5555 36.6583L63.2402 36.8748C62.5204 37.3954 61.9001 38.0303 61.3795 38.7785L61.163 39.0896C60.675 39.8256 60.3011 40.6333 60.0408 41.5117L59.9357 41.8721C59.708 42.7058 59.5944 43.4973 59.5943 44.2456L59.6035 44.5468C59.6482 45.2382 59.8501 45.8445 60.208 46.3651C60.3579 46.5651 60.5209 46.7532 60.6961 46.928L65.8027 52.0346C66.1488 52.38 66.5446 52.6764 66.9891 52.9233C67.6583 53.2579 68.4021 53.5182 69.2201 53.7041C69.936 53.8343 70.6525 53.9079 71.3685 53.9242L71.6753 53.9277C71.8055 53.9277 71.9335 53.9242 72.059 53.9172C72.8747 53.8717 73.5924 53.6788 74.2117 53.3388L74.3528 53.2577C75.1336 52.8115 75.7846 52.2538 76.3052 51.5846C76.7606 50.9664 77.1029 50.2909 77.3307 49.5589L77.421 49.2415C77.6488 48.493 77.777 47.7726 77.8054 47.081L77.8118 46.7869C77.8117 46.0803 77.6443 45.3733 77.3096 44.6667C77.0121 43.9601 76.5843 43.3278 76.0266 42.77L70.9192 37.6627C70.3615 37.105 69.6919 36.6586 68.9111 36.3239C68.2604 35.9986 67.5664 35.8152 66.8304 35.7745L66.5116 35.766ZM166.639 50.4504L166.664 50.5407L166.696 50.6289C166.781 50.8665 166.892 51.144 167.038 51.4266L166.37 50.7587C166.429 50.5102 166.479 50.2603 166.52 50.0089C166.559 50.1614 166.599 50.3087 166.639 50.4504ZM175.918 29.9385C176.699 29.9385 177.537 29.9571 178.429 29.9943L179.112 29.9978C179.559 30.0024 179.987 30.012 180.396 30.026L180.995 30.05H182.284L182.262 30.1593C182.234 30.2892 182.21 30.3918 182.192 30.4661C181.783 32.3998 181.43 34.3339 181.132 36.2675C180.872 38.1642 180.63 40.0801 180.406 42.0139C180.369 42.237 180.314 42.6464 180.239 43.2412C180.165 43.7989 180.072 44.4129 179.961 45.0821C179.886 45.7142 179.793 46.3281 179.681 46.923C179.607 47.4805 179.533 47.8528 179.459 48.0389C179.347 48.6339 179.049 49.0801 178.566 49.3776C178.305 49.5263 178.027 49.6197 177.729 49.6569L177.506 49.6604C177.283 49.6674 177.059 49.6847 176.836 49.7126C176.576 49.7499 176.111 49.824 175.442 49.9355C174.915 49.9975 174.35 50.0741 173.746 50.1619C173.745 50.1526 173.744 50.1431 173.743 50.1337C173.632 49.1668 173.538 48.2366 173.464 47.3441C173.427 46.4145 173.39 45.5775 173.352 44.8338C173.315 44.0904 173.278 43.5512 173.241 43.2165C173.241 43.1049 173.231 42.9278 173.213 42.6861L173.13 41.7656C173.092 40.9847 173.036 40.1664 172.962 39.311C172.887 38.4557 172.813 37.656 172.739 36.9122C172.702 36.1313 172.665 35.6102 172.627 35.3499C172.627 35.1639 172.59 34.8664 172.516 34.4576C172.442 34.0114 172.367 33.5459 172.292 33.0625C172.255 32.5792 172.237 32.1327 172.237 31.7237C172.237 31.2779 172.274 30.9617 172.348 30.7758C172.46 30.4412 172.702 30.218 173.074 30.1064C173.26 30.0321 173.464 29.9943 173.687 29.9943C173.855 29.9664 174.022 29.949 174.189 29.9421L174.357 29.9385H175.918ZM175.361 33.9512C175.426 34.3109 175.492 34.7361 175.511 35.1397C175.556 35.5377 175.591 36.0832 175.621 36.6999C175.694 37.4367 175.767 38.2239 175.84 39.0607C175.915 39.9208 175.972 40.7512 176.012 41.5505L176.091 42.4258L176.093 42.4646C176.107 42.6416 176.117 42.8325 176.124 43.0119C176.166 43.4325 176.204 44.0046 176.238 44.6892C176.271 45.3462 176.303 46.0726 176.335 46.8666C176.368 46.8618 176.399 46.8566 176.428 46.8525L176.478 46.8462C176.578 46.8336 176.678 46.8225 176.778 46.813C176.79 46.7359 176.804 46.6458 176.818 46.5415L176.842 46.3905C176.941 45.8622 177.024 45.3131 177.091 44.7443C177.097 44.6985 177.104 44.6529 177.111 44.6074C177.218 43.9642 177.306 43.3815 177.376 42.8596C177.439 42.3536 177.495 41.9409 177.54 41.6542C177.765 39.7093 178.008 37.7823 178.27 35.8746C178.272 35.8591 178.275 35.8436 178.277 35.8281C178.428 34.847 178.592 33.8658 178.771 32.8847L178.415 32.8833C178.38 32.8831 178.345 32.882 178.31 32.8805C177.452 32.8447 176.654 32.8276 175.918 32.8276H175.181C175.241 33.2144 175.3 33.5893 175.361 33.9512ZM29.6747 18.2165C29.7139 18.2165 29.7532 18.2171 29.7924 18.2187L29.8616 18.2215L29.8813 18.2229C31.3382 18.2923 32.7945 18.3273 34.2502 18.328C35.9173 18.2913 37.5696 18.311 39.2066 18.3865C39.6687 18.3912 40.2783 18.413 40.9826 18.4465C41.8457 18.4876 42.7401 18.5482 43.6636 18.6285C44.6212 18.7117 45.5411 18.8178 46.4186 18.9494C47.0749 19.0478 47.9146 19.1994 48.7455 19.4742L49.101 19.5997L49.1779 19.63L49.4509 19.7422L49.5186 19.7711L49.5426 19.7817L49.5778 19.7979L49.6025 19.8092C49.6095 19.8124 49.6168 19.8151 49.6237 19.8184C49.948 19.9698 50.277 20.1541 50.6041 20.3706C50.6198 20.3691 50.6357 20.3666 50.6514 20.365L50.6584 20.3643L50.6648 20.3636C52.2868 20.2053 54.1814 20.0712 56.3343 19.9573C58.5329 19.806 60.8914 19.6736 63.4081 19.5609C65.9223 19.4483 68.3458 19.3547 70.6773 19.2795C73.0008 19.2045 75.1077 19.148 76.9957 19.1102C78.8617 19.0729 80.2862 19.0531 81.2397 19.0531C81.859 19.0531 82.4962 19.0752 83.1469 19.1137C83.8629 19.1221 84.5786 19.1694 85.2883 19.2654C85.3091 19.2677 85.3304 19.2683 85.3511 19.271C86.2104 19.3856 87.1184 19.5787 88.0123 19.9037C88.1822 19.9655 88.3726 20.0417 88.578 20.1329C89.2086 19.9358 89.8522 19.8246 90.4937 19.7923C90.9713 19.7491 91.4597 19.7224 91.9538 19.7224V22.6115C91.5419 22.6115 91.1224 22.6343 90.6969 22.6743C89.9012 22.7053 89.1173 22.9236 88.4031 23.3592C87.9243 22.99 87.421 22.7626 87.0249 22.6186C86.3727 22.3814 85.6766 22.2291 84.9688 22.1347L84.9681 22.1361C84.3384 22.0475 83.6882 22.0042 83.0214 22C82.4009 21.9625 81.8063 21.9421 81.2397 21.9421C80.3167 21.9421 78.9162 21.9613 77.0535 21.9986C75.1799 22.036 73.0852 22.0925 70.7704 22.1671C68.4516 22.2419 66.04 22.3351 63.5372 22.4472C61.0314 22.5594 58.6884 22.6906 56.5092 22.8407C54.3749 22.9534 52.518 23.0858 50.9455 23.2392L50.9384 23.24C50.502 23.2836 50.099 23.3289 49.733 23.3754C49.3284 22.958 48.8642 22.6526 48.4013 22.4366L48.3767 22.4253L48.3527 22.4147L48.0797 22.3026C47.4286 22.0566 46.6811 21.9104 45.9898 21.8067C45.1794 21.6852 44.3198 21.5858 43.4132 21.5069C42.5239 21.4296 41.6672 21.3712 40.8451 21.332C40.1113 21.2971 39.522 21.2767 39.1135 21.2742C37.5152 21.1995 35.9003 21.1801 34.2692 21.217C32.7609 21.2167 31.2523 21.1803 29.7438 21.1084L29.6747 21.1056H29.6062V18.2165H29.6747ZM163.562 18.4394V21.3285H163.485L163.409 21.3327C159.933 21.5177 156.493 21.6655 153.092 21.7764C149.702 21.8869 146.274 21.9608 142.809 21.9979C142.656 21.9978 142.349 21.986 141.844 21.9499C141.304 21.9114 140.694 21.8727 140.013 21.8349C139.338 21.7974 138.625 21.7602 137.877 21.7228C137.088 21.6833 136.314 21.6635 135.557 21.6635C134.455 21.6635 133.416 21.7244 132.449 21.8554C131.658 21.9388 130.581 22.1503 129.663 22.8118C129.314 22.5521 128.917 22.3491 128.481 22.2102C127.748 21.9391 126.994 21.8307 126.263 21.8307C125.795 21.8307 125.327 21.8538 124.86 21.9005L124.844 21.9026L124.828 21.904C124.586 21.9309 124.377 21.9421 124.199 21.9421V19.0531C124.258 19.0531 124.359 19.0493 124.509 19.0326L124.547 19.0291C124.556 19.0282 124.564 19.0264 124.573 19.0256C125.136 18.9693 125.7 18.9416 126.263 18.9416C127.276 18.9417 128.375 19.0919 129.478 19.4988C129.538 19.5194 129.599 19.5395 129.659 19.5616C130.582 19.2037 131.446 19.062 132.061 18.9931C133.18 18.8416 134.352 18.7745 135.557 18.7745C136.364 18.7745 137.186 18.7955 138.021 18.8372C138.774 18.8749 139.492 18.9122 140.173 18.9501C140.867 18.9886 141.493 19.0281 142.05 19.0679L142.594 19.1017C142.704 19.1069 142.77 19.1085 142.8 19.1088C146.237 19.0719 149.636 18.9983 152.998 18.8887C156.377 18.7785 159.794 18.6323 163.249 18.4486L163.325 18.4437L163.485 18.4394H163.562ZM92.001 19.7224C92.0447 19.7224 92.0885 19.7233 92.1322 19.7253L92.1569 19.7267C95.51 19.8358 98.8827 19.8903 102.274 19.8903V22.7794C98.8466 22.7794 95.4374 22.7242 92.0476 22.6136L92.001 22.6115H91.9538V19.7224H92.001ZM124.199 19.0531V21.9421H124.088L123.977 21.9506C123.031 22.0234 122.066 22.0971 121.083 22.17C120.079 22.2078 119.09 22.2637 118.117 22.3378C115.468 22.4849 112.82 22.5951 110.172 22.6686H110.17C107.557 22.7422 104.925 22.7794 102.274 22.7794V19.8903C104.898 19.8903 107.504 19.8538 110.089 19.781H110.094C112.715 19.7082 115.336 19.5985 117.957 19.453C118.926 19.3799 119.908 19.3249 120.904 19.2865C121.871 19.2148 122.821 19.1419 123.756 19.07H123.757L123.868 19.0615C123.941 19.0559 124.015 19.0531 124.088 19.0531H124.199ZM163.562 18.4394C164.34 18.4394 165.08 18.5371 165.764 18.6891C166.29 18.8059 166.812 18.9813 167.319 19.2167C167.561 19.176 167.8 19.1481 168.035 19.1314C168.428 19.0822 168.833 19.0531 169.249 19.0531V21.9421C168.936 21.9421 168.625 21.9651 168.316 22.007C167.883 22.0308 167.44 22.1139 167 22.2765C166.967 22.2875 166.934 22.2984 166.901 22.3103C166.365 21.9101 165.762 21.6479 165.137 21.5091C164.627 21.3958 164.1 21.3285 163.562 21.3285V18.4394ZM177.45 19.1645C177.822 19.1645 178.222 19.1925 178.568 19.2209H181.132V22.11H178.46C178.093 22.0783 177.74 22.0536 177.45 22.0536V19.1645ZM170.811 19.0531C171.649 19.0531 172.527 19.0734 173.443 19.1102C174.342 19.1117 175.196 19.129 176 19.1645H177.45V22.0536H175.94C175.144 22.0172 174.288 21.9992 173.374 21.9986C172.472 21.9618 171.617 21.9421 170.811 21.9421V19.0531ZM170.811 19.0531V21.9421H169.249V19.0531H170.811ZM55.8194 37.8045C55.8194 40.1017 55.8743 42.3992 55.9837 44.6963C56.0975 47.0853 56.1544 49.4932 56.1544 51.9189C56.1544 51.9236 56.1544 51.9283 56.1544 51.933L56.1438 54.0773C56.1438 54.0819 56.1439 54.0867 56.1438 54.0914C56.1227 56.2556 56.0689 58.4098 55.9844 60.553L55.9125 62.6767C55.9083 62.8189 55.9051 62.9612 55.9012 63.1035C57.9913 63.0886 60.0716 63.0557 62.142 63.0026C62.1544 63.0023 62.167 63.002 62.1794 63.0019L70.994 62.8904H73.7645C73.7988 62.8904 73.8333 62.8913 73.8675 62.8926C74.8743 62.9285 75.8815 62.9462 76.8885 62.9462C76.9216 62.9462 76.9548 62.9464 76.9879 62.9476C78.0041 62.9826 78.9566 62.9825 79.846 62.9483H79.8502C80.7456 62.9151 81.4889 62.8337 82.0946 62.7183L82.1397 62.7106C82.3305 62.6774 82.4544 62.6381 82.5276 62.6118C82.563 62.5344 82.612 62.4068 82.6652 62.2147C82.8451 61.3193 82.9955 60.1292 83.099 58.614C83.2073 56.9881 83.2806 55.284 83.3169 53.5031C83.3173 53.4836 83.3182 53.4641 83.319 53.4446C83.3737 52.1059 83.407 50.7988 83.4206 49.525L83.4277 48.2625L83.4312 46.9844C83.4382 45.7529 83.456 44.661 83.4848 43.7116L83.4855 43.6884C83.5592 41.7708 83.6346 39.8044 83.7084 37.8863C83.7729 36.2083 83.8668 34.5303 83.9863 32.853C83.4736 32.8612 82.9038 32.8701 82.2765 32.8826C80.4328 32.9195 78.3636 32.975 76.0682 33.0491L74.3218 33.109C72.656 33.1683 70.9423 33.237 69.182 33.315C69.4953 33.4217 69.8031 33.5473 70.1045 33.693C71.1746 34.1592 72.139 34.7972 72.9619 35.62L78.0692 40.7274C78.8535 41.5118 79.4766 42.4165 79.9207 43.4302L80.0117 43.6277C80.4532 44.6224 80.7008 45.6824 80.7008 46.7869C80.7008 46.8076 80.7006 46.8283 80.7001 46.849L80.6938 47.1431C80.6934 47.1618 80.6931 47.1808 80.6924 47.1995C80.6533 48.1483 80.4803 49.0948 80.1993 50.0315L80.1097 50.3496C80.1033 50.3722 80.0963 50.3948 80.0893 50.4173C79.7654 51.4581 79.2767 52.4227 78.6314 53.2986C78.6165 53.3188 78.6009 53.3387 78.5855 53.3585C77.8206 54.3419 76.8773 55.1406 75.7924 55.7616L75.652 55.8434C75.6355 55.8529 75.6186 55.8625 75.6019 55.8716C74.5496 56.4493 73.3995 56.7362 72.2199 56.802C72.0399 56.812 71.8581 56.8168 71.6753 56.8168C71.6643 56.8168 71.6532 56.8169 71.6422 56.8168L71.3354 56.8133C71.3246 56.8131 71.3137 56.8128 71.3029 56.8126C70.4322 56.7928 69.5646 56.7033 68.703 56.5467C68.6618 56.5391 68.6205 56.5306 68.5796 56.5213C67.563 56.2902 66.5971 55.9574 65.6976 55.5077C65.6602 55.489 65.6227 55.4695 65.5862 55.4492C64.9176 55.0777 64.3053 54.6214 63.7622 54.0794L58.6534 48.9706C58.3798 48.6973 58.1268 48.4058 57.8966 48.0988C57.8727 48.067 57.85 48.0343 57.8275 48.0015C57.1475 47.0121 56.7958 45.8943 56.7208 44.733C56.7187 44.7003 56.7168 44.6676 56.7159 44.6349L56.7067 44.3338C56.7058 44.3045 56.7053 44.2749 56.7053 44.2456C56.7053 43.2048 56.8635 42.1561 57.1489 41.1111L57.1623 41.0631L57.2674 40.7027L57.271 40.6907C57.6094 39.5487 58.1022 38.4781 58.755 37.4934L58.7924 37.4391L59.0089 37.128C59.7099 36.1206 60.5571 35.25 61.5474 34.5338L61.6045 34.4936L61.9057 34.2862C62.26 34.0398 62.6275 33.827 63.006 33.6465C62.6664 33.6685 62.3309 33.6906 61.9995 33.7135C61.9876 33.7143 61.9754 33.7149 61.9636 33.7156L60.4428 33.801C58.9914 33.89 57.7179 33.9892 56.6178 34.0965C56.3576 34.1225 56.1205 34.1498 55.9054 34.1748C55.8928 34.3487 55.8816 34.5306 55.8716 34.7207C55.8367 35.3822 55.8194 36.001 55.8194 36.5772V37.8045ZM127.881 34.7616C127.881 35.1332 127.844 35.3936 127.769 35.5424C127.546 36.0631 127.193 36.3981 126.709 36.5468C126.337 36.6955 125.686 36.7883 124.757 36.8254C123.864 36.8626 122.897 36.8812 121.856 36.8812C120.815 36.844 119.829 36.8254 118.899 36.8254C118.007 36.7883 117.356 36.7697 116.947 36.7697C116.761 38.1829 116.63 39.6341 116.556 41.1216C116.519 42.5719 116.463 44.0226 116.389 45.4729L116.382 45.8044C116.368 46.1878 116.333 46.7283 116.277 47.4252C116.24 48.3177 116.165 49.3407 116.054 50.4935C115.979 51.6463 115.905 52.8744 115.831 54.176L115.772 55.1169C115.709 56.0513 115.636 56.9653 115.552 57.8579C115.478 59.0106 115.403 60.0336 115.329 60.9261L115.273 61.5468C115.217 62.1183 115.161 62.5438 115.106 62.8227C114.957 64.0499 114.529 64.8125 113.823 65.1101C113.116 65.4448 112.223 65.6309 111.145 65.6681C110.698 65.7424 109.843 65.8166 108.579 65.891L106.598 66.0024C105.91 66.0396 105.194 66.0774 104.45 66.1145C103 66.2261 101.605 66.3002 100.266 66.3374C100.219 66.3401 100.172 66.342 100.126 66.3445C100.15 66.1683 100.174 65.9901 100.199 65.8105L100.464 63.9689C100.65 62.7046 100.817 61.5141 100.966 60.3985C101.059 59.8407 101.138 59.3711 101.204 58.9899L101.357 58.1118C101.719 56.1592 102.092 54.2166 102.476 52.285L102.863 50.3573C103.421 47.7913 103.923 45.2061 104.369 42.6029L99.2617 37.4955C98.8155 37.6814 98.2387 37.9232 97.5323 38.2206C96.8257 38.4809 96.0629 38.7411 95.2449 39.0014C94.6515 39.1992 94.0471 39.3756 93.4321 39.5304C93.433 39.5131 93.4341 39.4956 93.435 39.4782C93.4721 38.6975 93.5092 37.9537 93.5464 37.2472C93.6208 36.5407 93.6579 36.0567 93.6579 35.7964C93.695 35.4617 93.7321 35.0524 93.7693 34.5691C93.8065 34.0857 93.8628 33.6022 93.9372 33.1189C94.0487 32.6355 94.1785 32.1885 94.3272 31.7795C94.5131 31.3707 94.7365 31.0917 94.9966 30.9429C95.294 30.7571 95.6292 30.6637 96.001 30.6636C96.3728 30.6264 96.7265 30.6079 97.0611 30.6079C99.6272 30.6916 102.204 30.7443 104.791 30.7652L107.382 30.7758C109.39 30.7758 111.388 30.755 113.376 30.713L115.36 30.6636C115.862 30.6497 116.364 30.6343 116.866 30.6178C118.372 30.5681 119.878 30.5069 121.385 30.4337L123.393 30.3293C124.36 30.2549 125.345 30.1993 126.349 30.1621C126.974 30.1159 127.591 30.0681 128.201 30.0218C128.188 30.1334 128.175 30.2445 128.16 30.3547C128.123 30.9118 128.086 31.3023 128.049 31.5255V32.3628C128.049 32.7346 128.029 33.1254 127.992 33.5343L127.881 34.7616Z" fill="#F9F3EB"/>
<path d="M33.6231 65.891C33.3628 65.891 32.8974 65.8724 32.228 65.8352C31.5959 65.8352 30.8521 65.8167 29.997 65.7795C29.1788 65.7795 28.3043 65.761 27.3746 65.7238C26.4449 65.7238 25.5523 65.7052 24.6971 65.6681C23.879 65.6681 23.1348 65.6495 22.4654 65.6123C21.8331 65.6123 21.387 65.6123 21.1267 65.6123C20.5688 65.5752 20.0107 65.5381 19.4528 65.5009C18.895 65.4637 18.3557 65.3336 17.835 65.1104C17.5375 64.9244 17.2585 64.6827 16.9982 64.3852C16.775 64.0876 16.5891 63.7715 16.4403 63.4368C16.3287 63.1392 16.1242 62.5814 15.8266 61.7631C15.5291 60.9077 15.213 59.9965 14.8782 59.0295C14.5807 58.0626 14.2832 57.1514 13.9856 56.296C13.7253 55.4405 13.5579 54.8641 13.4836 54.5665C12.7769 52.335 12.0889 50.1035 11.4194 47.872C10.7872 45.6033 10.1735 43.316 9.57842 41.0101C9.39246 40.3035 9.13212 39.4481 8.79739 38.4439C8.49985 37.4397 8.18372 36.3797 7.849 35.264C7.51427 34.111 7.17955 32.9581 6.84482 31.8052C6.54729 30.6522 6.30554 29.6108 6.11958 28.681C5.93362 27.7512 5.82205 26.9888 5.78485 26.3937C5.74766 25.7615 5.85924 25.4082 6.11958 25.3338C6.52869 25.1478 7.32831 24.9619 8.51845 24.7759C9.74578 24.5528 11.0475 24.3482 12.4236 24.1622C13.8369 23.9763 15.1572 23.8275 16.3845 23.7159C17.649 23.5672 18.5044 23.4928 18.9507 23.4928C19.8434 23.4928 20.643 23.623 21.3496 23.8833C22.0563 24.1436 22.5398 24.7573 22.8001 25.7243C22.8745 25.9846 22.9303 26.4867 22.9675 27.2306C23.0418 27.9744 23.0976 28.7735 23.1348 29.6289C23.2091 30.4469 23.2647 31.2469 23.3019 32.0277C23.3391 32.7713 23.3762 33.2739 23.4134 33.5343C23.5993 34.9848 23.7853 36.4351 23.9713 37.8856C24.1944 39.3358 24.4183 40.7865 24.6414 42.2368C24.8645 41.1582 25.0688 40.0803 25.2548 39.0018C25.4779 37.9232 25.7011 36.8446 25.9242 35.7661L27.0958 30.2431C27.1329 30.0943 27.1887 29.7968 27.2631 29.3505C27.3375 28.9042 27.4305 28.4393 27.5421 27.9558C27.6536 27.4351 27.7466 26.9516 27.821 26.5053C27.9326 26.059 28.0069 25.7615 28.0441 25.6127C28.1557 25.1664 28.3045 24.7945 28.4904 24.497C28.7136 24.1622 29.0855 23.9949 29.6062 23.9949C31.1683 24.0693 32.7303 24.1065 34.2924 24.1065C35.8916 24.0693 37.4723 24.0879 39.0343 24.1622C39.369 24.1622 39.9269 24.1808 40.708 24.218C41.489 24.2552 42.3072 24.311 43.1626 24.3854C44.018 24.4598 44.8176 24.5528 45.5615 24.6643C46.3053 24.7759 46.8446 24.9061 47.1793 25.0548C47.7372 25.3152 48.0161 25.7429 48.0161 26.338C48.0161 26.4495 47.9789 26.6541 47.9046 26.9516C47.8302 27.2492 47.7372 27.5653 47.6256 27.9C47.5512 28.2347 47.4769 28.5695 47.4025 28.9042C47.3281 29.2017 47.2726 29.4059 47.2354 29.5175C45.8594 34.3894 44.3898 39.1873 42.8278 43.9105C41.2658 48.6337 39.6665 53.3946 38.0301 58.1922C37.9557 58.4153 37.8066 58.8433 37.5836 59.4752C37.3977 60.0702 37.1931 60.7218 36.97 61.4283C36.7468 62.0977 36.5237 62.7484 36.3006 63.3807C36.1147 63.9754 35.9842 64.3847 35.9098 64.6079C35.7239 65.0913 35.4081 65.4449 34.9619 65.6681C34.776 65.7796 34.5527 65.8352 34.2925 65.8352C34.0695 65.8724 33.8462 65.8909 33.6231 65.891Z" fill="#F9F3EB"/>
<path d="M87.2649 27.3979C87.2649 28.179 87.2278 28.9786 87.1534 29.7968C87.079 30.615 87.0047 31.4146 86.9304 32.1956C86.7816 34.1293 86.6697 36.0633 86.5953 37.997C86.5209 39.9308 86.4468 41.8653 86.3724 43.7991C86.3352 45.0264 86.3167 46.5146 86.3167 48.2625C86.3167 49.9733 86.2797 51.74 86.2053 53.5624C86.1681 55.3845 86.0932 57.1325 85.9817 58.8058C85.8701 60.4421 85.7026 61.8 85.4795 62.8785C85.2564 63.7336 84.9404 64.3474 84.5315 64.7194C84.1224 65.1284 83.4901 65.4079 82.6348 65.5566C81.8539 65.7054 80.9608 65.798 79.9567 65.8352C78.9898 65.8724 77.9669 65.8724 76.8885 65.8352C75.8472 65.8352 74.8058 65.8167 73.7645 65.7795C72.7604 65.7795 71.8489 65.7795 71.0307 65.7795C68.0925 65.8167 65.1542 65.8538 62.2161 65.891C59.3153 65.9653 56.3958 66.0024 53.4579 66.0024C52.9744 66.0024 52.4162 66.0216 51.784 66.0588C51.1517 66.096 50.5381 66.0588 49.943 65.9472C49.3479 65.8728 48.8458 65.6869 48.4367 65.3893C48.0276 65.0918 47.8231 64.5897 47.8231 63.8831C47.8231 61.0193 47.8788 58.1741 47.9904 55.3476C48.102 52.521 48.1578 49.6758 48.1578 46.812C48.1578 44.4318 48.102 42.0701 47.9904 39.727C47.8788 37.3839 47.8231 35.0408 47.8231 32.6978C47.8231 32.5118 47.8231 32.1027 47.8231 31.4704C47.8231 30.8382 47.8416 30.1687 47.8788 29.4621C47.916 28.7554 47.9718 28.1232 48.0462 27.5653C48.1578 26.9702 48.288 26.6355 48.4367 26.5611C48.8086 26.4123 49.7384 26.2636 51.2261 26.1148C52.751 25.966 54.5734 25.8359 56.6933 25.7243C58.8504 25.5755 61.1749 25.4454 63.6668 25.3338C66.1586 25.2222 68.5575 25.1292 70.8634 25.0548C73.1693 24.9805 75.252 24.9247 77.1116 24.8875C78.9712 24.8503 80.3473 24.8317 81.2399 24.8317C81.7606 24.8317 82.3184 24.8503 82.9135 24.8875C83.5086 24.8875 84.0665 24.9247 84.5871 24.9991C85.145 25.0734 85.6285 25.185 86.0376 25.3338C86.4467 25.4825 86.7257 25.6685 86.8744 25.8917C87.0604 26.1148 87.172 26.3566 87.2092 26.6169C87.2464 26.84 87.2649 27.1004 87.2649 27.3979ZM59.5943 44.2456C59.5943 45.0638 59.7989 45.7701 60.208 46.3651C60.6543 46.9602 61.2121 47.4443 61.8815 47.8162C62.551 48.1509 63.2948 48.4113 64.1131 48.5972C64.9313 48.746 65.7495 48.8204 66.5677 48.8204C67.6091 48.8204 68.5017 48.5972 69.2455 48.1509C70.0265 47.7046 70.6774 47.1468 71.1981 46.4773C71.7188 45.7707 72.0907 44.9896 72.3139 44.1342C72.5742 43.2788 72.7044 42.4606 72.7044 41.6796C72.7044 40.9729 72.537 40.2663 72.2023 39.5596C71.9047 38.853 71.4771 38.2206 70.9192 37.6627C70.3615 37.105 69.6919 36.6586 68.9111 36.3239C68.1673 35.952 67.367 35.766 66.5116 35.766C65.3962 35.7661 64.4107 36.0635 63.5555 36.6583C62.7001 37.2162 61.9746 37.9231 61.3795 38.7785C60.7845 39.5967 60.3383 40.5075 60.0408 41.5117C59.7433 42.4787 59.5943 43.3902 59.5943 44.2456Z" fill="#F9F3EB"/>
<path d="M111.145 65.6681C110.698 65.7424 109.843 65.8166 108.579 65.891C107.314 65.9653 105.938 66.0402 104.45 66.1145C103 66.2261 101.605 66.3002 100.266 66.3374C98.9272 66.4118 97.9416 66.4493 97.3093 66.4493H97.0304C96.7329 66.4493 96.4539 66.4307 96.1936 66.3935C95.9333 66.3563 95.6915 66.2819 95.4684 66.1704C94.8733 65.8728 94.5943 65.3893 94.6315 64.7199C94.6315 64.3108 94.7059 63.5483 94.8547 62.4326C95.0035 61.3168 95.1708 60.1267 95.3568 58.8622C95.5427 57.5977 95.7101 56.4075 95.8589 55.2918C96.0448 54.176 96.175 53.4136 96.2494 53.0045C96.7329 50.4011 97.235 47.8162 97.7556 45.25C98.3135 42.6838 98.8154 40.0989 99.2617 37.4955C98.8155 37.6814 98.2387 37.9232 97.5323 38.2206C96.8257 38.4809 96.0629 38.7411 95.2449 39.0014C94.4638 39.2617 93.6645 39.4853 92.8463 39.6712C92.0653 39.8572 91.3401 39.9502 90.6706 39.9502C90.0012 39.9502 89.4433 39.82 88.997 39.5596C88.5879 39.2621 88.3275 38.7414 88.216 37.9976C88.1788 37.7372 88.1788 37.2724 88.216 36.6029C88.2531 35.8963 88.2903 35.1524 88.3275 34.3714C88.3647 33.5904 88.4019 32.8465 88.4391 32.1399C88.5135 31.4332 88.5507 30.9497 88.5507 30.6894C88.5879 30.3547 88.6251 29.9456 88.6623 29.4621C88.6995 28.9786 88.7552 28.4951 88.8296 28.0116C88.9412 27.5281 89.0714 27.0818 89.2201 26.6727C89.4061 26.2636 89.6292 25.9846 89.8896 25.8359C90.1871 25.6499 90.5218 25.5569 90.8938 25.5569C91.2657 25.5197 91.619 25.5011 91.9537 25.5011C95.3754 25.6127 98.8156 25.6685 102.274 25.6685C104.952 25.6685 107.611 25.6313 110.252 25.5569C112.93 25.4825 115.608 25.371 118.286 25.2222C119.252 25.1478 120.238 25.092 121.242 25.0548C122.246 24.9805 123.232 24.9061 124.199 24.8317C124.497 24.8317 124.813 24.8131 125.147 24.7759C125.519 24.7387 125.891 24.7201 126.263 24.7201C126.747 24.7201 127.174 24.7945 127.546 24.9433C127.955 25.0548 128.216 25.3152 128.327 25.7243C128.402 25.9474 128.42 26.338 128.383 26.8958C128.383 27.4165 128.364 27.993 128.327 28.6253C128.29 29.2203 128.234 29.7968 128.16 30.3547C128.123 30.9118 128.086 31.3023 128.049 31.5255C128.049 31.6743 128.049 31.9537 128.049 32.3628C128.049 32.7346 128.029 33.1254 127.992 33.5343C127.955 33.9434 127.918 34.3525 127.881 34.7616C127.881 35.1332 127.844 35.3936 127.769 35.5424C127.546 36.0631 127.193 36.3981 126.709 36.5468C126.337 36.6955 125.686 36.7883 124.757 36.8254C123.864 36.8626 122.897 36.8812 121.856 36.8812C120.815 36.844 119.829 36.8254 118.899 36.8254C118.007 36.7883 117.356 36.7697 116.947 36.7697C116.761 38.1829 116.63 39.6341 116.556 41.1216C116.519 42.5719 116.463 44.0226 116.389 45.4729C116.389 45.8448 116.352 46.4954 116.277 47.4252C116.24 48.3177 116.165 49.3407 116.054 50.4935C115.979 51.6463 115.905 52.8744 115.831 54.176C115.756 55.4405 115.664 56.6677 115.552 57.8579C115.478 59.0106 115.403 60.0336 115.329 60.9261C115.254 61.8187 115.18 62.4508 115.106 62.8227C114.957 64.0499 114.529 64.8125 113.823 65.1101C113.116 65.4448 112.223 65.6309 111.145 65.6681Z" fill="#F9F3EB"/>
<path d="M156.031 66.5046C154.134 66.6162 152.219 66.7095 150.285 66.7839C148.388 66.8583 146.491 66.8398 144.594 66.7282C143.851 66.6538 143.069 66.616 142.251 66.616C141.47 66.616 140.671 66.6167 139.853 66.6167C137.844 66.6167 135.817 66.616 133.772 66.616C131.763 66.616 129.867 66.4865 128.081 66.2262C127.896 66.189 127.71 66.1332 127.524 66.0588C127.338 65.9844 127.189 65.8542 127.077 65.6683C126.966 65.5195 126.891 65.3336 126.854 65.1104C126.817 64.9244 126.798 64.7199 126.798 64.4967C126.798 64.0132 126.854 63.102 126.966 61.7631C127.077 60.4242 127.189 58.9924 127.3 57.4675C127.449 55.9054 127.598 54.455 127.747 53.1161C127.896 51.74 128.007 50.8102 128.081 50.3267C128.23 49.025 128.379 47.5373 128.528 45.8637C128.677 44.19 128.825 42.4606 128.974 40.6754C129.16 38.853 129.346 37.0678 129.532 35.3198C129.718 33.5718 129.904 31.9911 130.09 30.5778C130.276 29.1645 130.462 27.9744 130.648 27.0074C130.834 26.0404 131.02 25.464 131.206 25.278C131.503 24.9805 132.042 24.7945 132.823 24.7201C133.642 24.6085 134.553 24.5528 135.557 24.5528C136.264 24.5528 136.989 24.5714 137.733 24.6085C138.477 24.6457 139.183 24.6829 139.853 24.7201C140.522 24.7573 141.117 24.7945 141.638 24.8317C142.159 24.8689 142.549 24.8875 142.809 24.8875C146.305 24.8503 149.764 24.7759 153.186 24.6643C156.608 24.5528 160.066 24.404 163.562 24.218C163.86 24.218 164.176 24.2552 164.511 24.3296C164.846 24.404 165.125 24.5528 165.348 24.7759C165.682 25.1478 165.85 25.6127 165.85 26.1706C165.85 26.6913 165.813 27.212 165.738 27.7327C165.589 28.5881 165.422 29.4428 165.236 30.2983C165.05 31.1164 164.883 31.954 164.734 32.8093C164.66 33.3299 164.585 33.8502 164.511 34.3709C164.474 34.8543 164.362 35.3383 164.176 35.8217C163.878 36.4168 163.432 36.8629 162.837 37.1605C162.317 37.3464 161.777 37.4583 161.219 37.4955C160.661 37.4955 160.122 37.4577 159.601 37.3834C159.266 37.3462 158.709 37.3091 157.928 37.2719C157.184 37.1975 156.328 37.1234 155.361 37.049C154.395 36.9747 153.372 36.8998 152.293 36.8254C151.252 36.7511 150.248 36.6955 149.281 36.6583C148.314 36.5839 147.458 36.5283 146.715 36.4911C145.971 36.4539 145.431 36.4539 145.097 36.4911C144.911 36.4911 144.743 36.5282 144.594 36.6026C144.446 36.6397 144.353 36.7329 144.316 36.8812C144.316 36.9926 144.297 37.1791 144.26 37.4391C144.223 37.6994 144.186 37.9788 144.149 38.2763C144.149 38.5736 144.129 38.8527 144.092 39.1129C144.092 39.3732 144.092 39.5592 144.092 39.6708C144.092 39.7452 144.148 39.7828 144.26 39.7828C144.409 39.7456 144.52 39.727 144.595 39.727C144.892 39.727 145.394 39.727 146.101 39.727C146.808 39.6898 147.607 39.6712 148.5 39.6712C149.43 39.6712 150.397 39.6712 151.401 39.6712C152.405 39.634 153.353 39.6154 154.246 39.6154C155.176 39.6154 155.994 39.634 156.701 39.6712C157.407 39.6712 157.909 39.6712 158.207 39.6712C158.318 39.7084 158.449 39.727 158.597 39.727C158.746 39.727 158.876 39.7642 158.988 39.8386C159.285 39.9502 159.453 40.1547 159.49 40.4522C159.564 40.7498 159.546 41.0473 159.434 41.3449C159.285 41.7168 159.137 42.0887 158.988 42.4606C158.876 42.7953 158.783 43.1672 158.709 43.5764C158.672 43.6879 158.635 43.8925 158.597 44.19C158.56 44.4876 158.504 44.7846 158.43 45.0821C158.355 45.3795 158.281 45.6776 158.207 45.9751C158.132 46.2354 158.058 46.4214 157.984 46.533C157.761 46.8305 157.352 47.0165 156.757 47.0909C156.199 47.1653 155.603 47.2023 154.971 47.2024C153.298 47.2024 151.624 47.1838 149.95 47.1466C148.314 47.0722 146.659 46.9418 144.985 46.7559C144.911 46.7188 144.762 46.7002 144.539 46.7002C144.316 46.6631 144.167 46.6816 144.092 46.7559C144.018 46.7934 143.944 46.9797 143.869 47.3138C143.795 47.6484 143.721 48.0207 143.646 48.4296C143.572 48.8014 143.516 49.1737 143.479 49.5455C143.441 49.8798 143.423 50.1032 143.423 50.2148C143.423 50.4377 143.46 50.5869 143.534 50.6613C143.609 50.8473 143.776 50.9403 144.037 50.9403C144.297 50.9403 144.52 50.9589 144.706 50.9961C144.892 50.9961 145.264 50.9961 145.822 50.9961C146.38 50.9589 146.975 50.9217 147.607 50.8845C148.239 50.8474 148.835 50.8288 149.392 50.8288C149.95 50.7916 150.322 50.773 150.508 50.773C150.843 50.773 151.512 50.7916 152.516 50.8288C153.558 50.8288 154.655 50.8474 155.808 50.8845C156.998 50.8845 158.095 50.9031 159.099 50.9403C160.141 50.9403 160.829 50.9589 161.164 50.9961C161.796 51.0705 162.335 51.2193 162.781 51.4424C163.265 51.6284 163.618 52.0375 163.841 52.6698C164.027 53.3392 164.102 54.0087 164.065 54.6781C164.065 55.3476 163.99 56.0169 163.842 56.6863C163.73 57.3558 163.581 58.0254 163.395 58.6948C163.209 59.3643 163.06 60.0337 162.949 60.7032C162.912 60.8892 162.856 61.2049 162.782 61.6512C162.744 62.0973 162.689 62.5624 162.614 63.0456C162.54 63.5291 162.447 63.9945 162.335 64.4408C162.261 64.8865 162.168 65.1841 162.056 65.333C161.908 65.6305 161.628 65.8351 161.219 65.9467C161.033 66.021 160.699 66.0774 160.216 66.1145C159.732 66.1889 159.211 66.2445 158.653 66.2817C158.095 66.3561 157.574 66.4117 157.091 66.4489C156.608 66.4861 156.254 66.5046 156.031 66.5046Z" fill="#F9F3EB"/>
<path d="M176.836 49.7126C176.576 49.7499 176.111 49.824 175.442 49.9355C174.809 50.0099 174.121 50.1035 173.378 50.2151C172.671 50.2895 171.983 50.3639 171.313 50.4382C170.681 50.4754 170.235 50.494 169.975 50.494C169.789 50.4568 169.603 50.1779 169.417 49.6572C169.268 49.1365 169.119 48.4857 168.97 47.7046C168.859 46.8864 168.747 45.9938 168.636 45.0268C168.524 44.0599 168.431 43.1301 168.357 42.2375C168.32 41.3077 168.282 40.4708 168.245 39.727C168.208 38.9832 168.171 38.4439 168.134 38.1092C168.134 37.886 168.096 37.4025 168.022 36.6587C167.985 35.8777 167.929 35.0594 167.855 34.204C167.78 33.3486 167.706 32.549 167.631 31.8052C167.594 31.0241 167.557 30.5034 167.52 30.2431C167.52 30.0571 167.483 29.7596 167.408 29.3505C167.334 28.9042 167.26 28.4393 167.185 27.9558C167.148 27.4723 167.129 27.026 167.129 26.6169C167.129 26.1706 167.167 25.8545 167.241 25.6685C167.353 25.3338 167.594 25.1106 167.966 24.9991C168.152 24.9247 168.357 24.8875 168.58 24.8875C168.803 24.8503 169.026 24.8317 169.249 24.8317C169.51 24.8317 170.03 24.8317 170.811 24.8317C171.592 24.8317 172.429 24.8503 173.322 24.8875C174.252 24.8875 175.107 24.9061 175.888 24.9433C176.669 24.9433 177.19 24.9433 177.45 24.9433C177.636 24.9433 177.934 24.9619 178.343 24.9991C178.789 24.9991 179.254 24.9991 179.737 24.9991C180.221 24.9991 180.686 24.9991 181.132 24.9991C181.578 24.9991 181.876 25.0177 182.025 25.0548C182.322 25.1292 182.564 25.2966 182.75 25.5569C182.973 25.8173 183.066 26.1148 183.029 26.4495C183.029 26.5983 182.973 26.8586 182.861 27.2306C182.787 27.6025 182.694 28.0116 182.583 28.4579C182.508 28.9042 182.434 29.3133 182.359 29.6852C182.285 30.0571 182.229 30.3174 182.192 30.4661C181.783 32.3998 181.43 34.3339 181.132 36.2675C180.872 38.1642 180.63 40.0801 180.406 42.0139C180.369 42.237 180.314 42.6464 180.239 43.2412C180.165 43.7989 180.072 44.4129 179.961 45.0821C179.886 45.7142 179.793 46.3281 179.681 46.923C179.607 47.4805 179.533 47.8528 179.459 48.0389C179.347 48.6339 179.049 49.0801 178.566 49.3776C178.305 49.5263 178.027 49.6197 177.729 49.6569C177.432 49.6569 177.134 49.6755 176.836 49.7126ZM178.064 64.1057C177.655 64.3661 177.171 64.5521 176.613 64.6637C176.093 64.7752 175.553 64.8308 174.995 64.8308C174.289 64.8308 173.545 64.7571 172.764 64.6083C172.02 64.4224 171.313 64.162 170.644 63.8273C169.975 63.4554 169.398 62.9905 168.915 62.4326C168.468 61.8375 168.189 61.1495 168.078 60.3685C168.003 59.8478 168.022 59.3085 168.134 58.7506C168.245 58.1927 168.431 57.6535 168.691 57.1328C168.952 56.6121 169.305 56.0914 169.751 55.5707C170.198 55.05 170.681 54.6037 171.202 54.2318C171.76 53.8227 172.355 53.5066 172.987 53.2834C173.619 53.0231 174.233 52.8929 174.828 52.8929C175.46 52.8929 176.074 53.0045 176.669 53.2276C177.301 53.4508 177.896 53.7669 178.454 54.176C179.012 54.5479 179.496 54.9942 179.905 55.5149C180.314 55.9984 180.63 56.5191 180.853 57.077C181.076 57.672 181.169 58.3228 181.132 59.0294C181.095 59.7361 180.946 60.4053 180.686 61.0375C180.425 61.6698 180.072 62.2649 179.626 62.8227C179.18 63.3433 178.659 63.7711 178.064 64.1057Z" fill="#F9F3EB"/>
</svg>
