<svg width="194" height="79" viewBox="0 0 194 79" fill="none" xmlns="http://www.w3.org/2000/svg">
<path d="M2.52 5.6V14H0.480002V5.6H2.52ZM8.364 5.6V14H6.324V5.6H8.364ZM7.104 8.66V10.46H1.812V8.66H7.104ZM17.2357 14H15.0757L14.1157 5.6H15.9997L17.2357 14ZM15.9277 11.972H10.6357V10.172H15.9277V11.972ZM12.3277 5.6L11.3677 14H9.20766L10.4437 5.6H12.3277ZM15.2677 7.4H11.2477V5.6H15.2677V7.4ZM17.5866 9.86C17.5866 8.74 17.7706 7.86 18.1386 7.22C18.5146 6.572 19.0306 6.12 19.6866 5.864C20.3426 5.608 21.1426 5.48 22.0866 5.48C23.3906 5.48 24.4186 5.736 25.1706 6.248C25.9306 6.76 26.3666 7.664 26.4786 8.96H24.4266C24.3466 8.352 24.1226 7.92 23.7546 7.664C23.3866 7.408 22.8306 7.28 22.0866 7.28C21.4866 7.28 21.0066 7.364 20.6466 7.532C20.2946 7.692 20.0346 7.96 19.8666 8.336C19.7066 8.704 19.6266 9.212 19.6266 9.86C19.6266 10.468 19.7066 10.952 19.8666 11.312C20.0346 11.664 20.2946 11.92 20.6466 12.08C21.0066 12.24 21.4866 12.32 22.0866 12.32C22.8146 12.32 23.3626 12.2 23.7306 11.96C24.1066 11.72 24.3346 11.32 24.4146 10.76H26.4786C26.3586 12 25.9186 12.872 25.1586 13.376C24.4066 13.872 23.3826 14.12 22.0866 14.12C21.1506 14.12 20.3506 13.996 19.6866 13.748C19.0306 13.492 18.5146 13.052 18.1386 12.428C17.7706 11.796 17.5866 10.94 17.5866 9.86ZM29.2973 5.6V14H27.2573V5.6H29.2973ZM32.7773 11.36C32.7773 10.552 32.5173 10.148 31.9973 10.148H28.8533V8.348H32.4773C33.1653 8.348 33.7253 8.544 34.1573 8.936C34.5973 9.32 34.8173 9.892 34.8173 10.652V14H32.7773V11.36ZM34.5773 5.6L33.1013 9.188H31.1093L32.4173 5.6H34.5773ZM37.942 9.86C37.942 8.74 38.126 7.86 38.494 7.22C38.87 6.572 39.386 6.12 40.042 5.864C40.698 5.608 41.498 5.48 42.442 5.48C43.746 5.48 44.774 5.736 45.526 6.248C46.286 6.76 46.722 7.664 46.834 8.96H44.782C44.702 8.352 44.478 7.92 44.11 7.664C43.742 7.408 43.186 7.28 42.442 7.28C41.842 7.28 41.362 7.364 41.002 7.532C40.65 7.692 40.39 7.96 40.222 8.336C40.062 8.704 39.982 9.212 39.982 9.86C39.982 10.468 40.062 10.952 40.222 11.312C40.39 11.664 40.65 11.92 41.002 12.08C41.362 12.24 41.842 12.32 42.442 12.32C43.17 12.32 43.718 12.2 44.086 11.96C44.462 11.72 44.69 11.32 44.77 10.76H46.834C46.714 12 46.274 12.872 45.514 13.376C44.762 13.872 43.738 14.12 42.442 14.12C41.506 14.12 40.706 13.996 40.042 13.748C39.386 13.492 38.87 13.052 38.494 12.428C38.126 11.796 37.942 10.94 37.942 9.86ZM47.6128 14V5.6H49.6528V14H47.6128ZM47.6128 14V12.2H53.6488V14H47.6128ZM54.4917 5.6H56.5317V14H54.4917V5.6ZM60.0117 5.6H62.0517V14H60.0117V5.6ZM55.8237 12.2H61.0557V14H55.8237V12.2ZM65.0513 5.6V14H63.0113V5.6H65.0513ZM70.5113 5.6V9.176L68.0873 10.52V9.224H68.4713V5.6H70.5113ZM69.5153 5.6V7.4H64.8233V5.6H69.5153ZM69.5153 8.72V10.52H64.8233V8.72H69.5153ZM66.7193 8.72C68.1753 8.72 69.2873 8.908 70.0553 9.284C70.8313 9.652 71.2193 10.332 71.2193 11.324C71.2193 12.068 71.0353 12.636 70.6673 13.028C70.2993 13.412 69.7953 13.672 69.1553 13.808C68.5153 13.936 67.7033 14 66.7193 14H64.7513V12.2H66.7193C67.3433 12.2 67.8273 12.18 68.1713 12.14C68.5233 12.092 68.7793 12.008 68.9393 11.888C69.0993 11.768 69.1793 11.596 69.1793 11.372C69.1793 11.116 69.0993 10.928 68.9393 10.808C68.7793 10.688 68.5353 10.612 68.2073 10.58C67.8793 10.54 67.3833 10.52 66.7193 10.52H64.7513V8.72H66.7193ZM76.5005 5.6V14H74.4605V5.6H76.5005ZM82.3445 5.6V14H80.3045V5.6H82.3445ZM81.0845 8.66V10.46H75.7925V8.66H81.0845ZM87.6881 5.48C88.6321 5.48 89.4321 5.608 90.0881 5.864C90.7441 6.12 91.2561 6.572 91.6241 7.22C92.0001 7.86 92.1881 8.74 92.1881 9.86C92.1881 10.94 92.0001 11.796 91.6241 12.428C91.2561 13.052 90.7401 13.492 90.0761 13.748C89.4201 13.996 88.6241 14.12 87.6881 14.12C86.7521 14.12 85.9521 13.996 85.2881 13.748C84.6321 13.492 84.1161 13.052 83.7401 12.428C83.3721 11.796 83.1881 10.94 83.1881 9.86C83.1881 8.74 83.3721 7.86 83.7401 7.22C84.1161 6.572 84.6321 6.12 85.2881 5.864C85.9441 5.608 86.7441 5.48 87.6881 5.48ZM87.6881 12.32C88.2881 12.32 88.7641 12.24 89.1161 12.08C89.4761 11.92 89.7361 11.664 89.8961 11.312C90.0641 10.952 90.1481 10.468 90.1481 9.86C90.1481 9.212 90.0641 8.704 89.8961 8.336C89.7361 7.96 89.4761 7.692 89.1161 7.532C88.7641 7.364 88.2881 7.28 87.6881 7.28C87.0881 7.28 86.6081 7.364 86.2481 7.532C85.8961 7.692 85.6361 7.96 85.4681 8.336C85.3081 8.704 85.2281 9.212 85.2281 9.86C85.2281 10.468 85.3081 10.952 85.4681 11.312C85.6361 11.664 85.8961 11.92 86.2481 12.08C86.6081 12.24 87.0881 12.32 87.6881 12.32ZM94.9458 5.6V14H92.9058V5.6H94.9458ZM100.526 5.6V11.048H98.4858V5.6H100.526ZM99.5298 5.6V7.4H94.7178V5.6H99.5298ZM99.5298 9.248V11.048H94.7178V9.248H99.5298ZM99.3618 10.796L100.682 14H98.4858L97.3338 10.796H99.3618ZM104.999 5.6V14H102.959V5.6H104.999ZM106.439 5.6V7.4H101.519V5.6H106.439ZM106.439 12.2V14H101.519V12.2H106.439ZM112.913 7.4H107.285V5.6H114.833V8.636L109.085 12.068V12.2H114.893V14H107.165V10.964L112.913 7.544V7.4ZM119.997 5.48C120.941 5.48 121.741 5.608 122.397 5.864C123.053 6.12 123.565 6.572 123.933 7.22C124.309 7.86 124.497 8.74 124.497 9.86C124.497 10.94 124.309 11.796 123.933 12.428C123.565 13.052 123.049 13.492 122.385 13.748C121.729 13.996 120.933 14.12 119.997 14.12C119.061 14.12 118.261 13.996 117.597 13.748C116.941 13.492 116.425 13.052 116.049 12.428C115.681 11.796 115.497 10.94 115.497 9.86C115.497 8.74 115.681 7.86 116.049 7.22C116.425 6.572 116.941 6.12 117.597 5.864C118.253 5.608 119.053 5.48 119.997 5.48ZM119.997 12.32C120.597 12.32 121.073 12.24 121.425 12.08C121.785 11.92 122.045 11.664 122.205 11.312C122.373 10.952 122.457 10.468 122.457 9.86C122.457 9.212 122.373 8.704 122.205 8.336C122.045 7.96 121.785 7.692 121.425 7.532C121.073 7.364 120.597 7.28 119.997 7.28C119.397 7.28 118.917 7.364 118.557 7.532C118.205 7.692 117.945 7.96 117.777 8.336C117.617 8.704 117.537 9.212 117.537 9.86C117.537 10.468 117.617 10.952 117.777 11.312C117.945 11.664 118.205 11.92 118.557 12.08C118.917 12.24 119.397 12.32 119.997 12.32ZM127.372 5.6V14H125.332V5.6H127.372ZM132.952 5.6V14H130.912V5.6H132.952ZM131.956 5.6V7.4H126.664V5.6H131.956ZM135.785 8.036C135.785 8.236 135.889 8.392 136.097 8.504C136.305 8.608 136.641 8.684 137.105 8.732L139.481 8.972C140.537 9.076 141.301 9.336 141.773 9.752C142.253 10.16 142.493 10.72 142.493 11.432C142.493 12.368 142.077 13.052 141.245 13.484C140.421 13.908 139.373 14.12 138.101 14.12C135.213 14.12 133.817 13.064 133.913 10.952H135.977C135.945 11.416 136.105 11.76 136.457 11.984C136.809 12.208 137.357 12.32 138.101 12.32C139.669 12.32 140.453 12.072 140.453 11.576C140.453 11.312 140.325 11.112 140.069 10.976C139.821 10.84 139.413 10.748 138.845 10.7L136.793 10.52C134.761 10.344 133.745 9.552 133.745 8.144C133.745 7.224 134.157 6.552 134.981 6.128C135.805 5.696 136.845 5.48 138.101 5.48C139.389 5.48 140.405 5.716 141.149 6.188C141.901 6.652 142.253 7.416 142.205 8.48H140.153C140.193 8.096 140.037 7.8 139.685 7.592C139.333 7.384 138.805 7.28 138.101 7.28C136.557 7.28 135.785 7.532 135.785 8.036Z" fill="white"/>
<path d="M18.9513 19C20.4018 19 21.8949 19.2118 23.3477 19.747C24.0983 20.0235 24.7641 20.3963 25.348 20.8381C26.7509 19.8222 28.3534 19.5022 29.6068 19.5022V22.3913C28.4387 22.3913 27.0015 22.8087 26.0872 24.18L26.0639 24.2153L26.0413 24.2512C25.8732 24.5203 25.7314 24.7998 25.6111 25.0828L24.1038 23.5755C23.6363 23.1083 23.0577 22.7187 22.3489 22.4576C21.2694 22.0599 20.1229 21.8891 18.9513 21.8891C18.3139 21.8891 17.3038 21.9844 16.0728 22.1289C14.8163 22.2439 13.474 22.3954 12.0475 22.5831L12.0376 22.5845C10.6375 22.7737 9.30505 22.9833 8.04186 23.2123C6.97027 23.3805 5.88421 23.5921 5.08509 23.9204C3.86741 24.369 3.30206 25.3863 3.08616 26.0696C2.87502 26.7382 2.87467 27.394 2.90137 27.8484V27.8541L2.90207 27.859C2.95066 28.6364 3.08875 29.5407 3.28719 30.533C3.48576 31.5258 3.74069 32.6202 4.04824 33.8121L4.05882 33.8544L4.07081 33.896L5.07521 37.355L5.07874 37.367L5.08227 37.3797C5.4161 38.4924 5.73166 39.5496 6.02812 40.5501L6.04152 40.5967L6.05704 40.6425C6.2992 41.369 6.49521 41.9968 6.64741 42.5293L6.78495 43.0308C7.38348 45.3498 8.00114 47.651 8.63716 49.9332L8.64492 49.96L8.65268 49.9876C9.31964 52.2108 10.0051 54.4342 10.7087 56.6572C10.8101 57.0454 10.9874 57.651 11.2222 58.4227L11.2392 58.477L11.2575 58.5306C11.5422 59.3493 11.8289 60.2272 12.1173 61.1643L12.1321 61.2123L12.1483 61.2602C12.4834 62.2282 12.8004 63.1409 13.0984 63.9977L13.1055 64.0167L13.1118 64.0357C13.4087 64.8523 13.6186 65.4232 13.736 65.7363L13.7657 65.8167L13.8009 65.8957C14.0392 66.4317 14.3363 66.9353 14.6875 67.4037L14.7531 67.4912L14.7806 67.5229L14.7969 67.542L14.8244 67.573C14.8835 67.6406 14.9439 67.7077 15.0056 67.7733L15.1954 67.9666L20.3027 73.0739C20.6353 73.401 21.004 73.698 21.4115 73.9528L21.6005 74.0706L21.8051 74.1587C22.6217 74.5087 23.4805 74.7167 24.3683 74.7759C24.9262 74.8131 25.4841 74.8509 26.042 74.8881L26.138 74.8944H27.5169C28.2042 74.9304 28.9482 74.9486 29.7458 74.9494C30.6054 74.9858 31.496 75.0043 32.4169 75.0051C33.3384 75.0414 34.214 75.0599 35.0421 75.0609C35.8639 75.096 36.6017 75.115 37.2506 75.1166C37.7238 75.1425 38.1302 75.1617 38.4461 75.1695C38.5513 75.1721 38.6468 75.173 38.7311 75.173C38.9627 75.173 39.1935 75.1611 39.423 75.1377L39.6522 75.1102C39.7251 75.1062 39.7988 75.1004 39.873 75.0926C40.3927 75.038 40.9409 74.8868 41.4692 74.5876C42.5303 74.0243 43.2946 73.129 43.7143 72.0378L43.7382 71.9771L43.7587 71.9143C43.8407 71.6682 43.974 71.2501 44.1523 70.68C44.3748 70.0485 44.5971 69.3999 44.8188 68.7347L44.8329 68.691C45.002 68.1555 45.1595 67.6511 45.3076 67.1787C45.5085 67.6726 45.8043 68.153 46.2288 68.5774L51.3361 73.6847C51.4887 73.8373 51.6582 73.9824 51.8454 74.1185C52.6818 74.7268 53.6242 75.0537 54.5736 75.1885C55.3926 75.3374 56.2238 75.3845 57.0613 75.3352C57.6532 75.3004 58.1531 75.2845 58.5658 75.2844C61.52 75.2844 64.4563 75.2469 67.3741 75.1723L76.1753 75.0616H78.8358C79.8711 75.0978 80.9067 75.116 81.9421 75.1166C82.2231 75.126 82.5013 75.133 82.7765 75.1377C83.327 75.1472 83.866 75.1476 84.3931 75.1377L85.1754 75.1152L85.1746 75.1145C86.2691 75.0738 87.2945 74.9714 88.2365 74.7949L88.2372 74.7957L88.6639 74.711C89.6694 74.4859 90.7258 74.0595 91.5819 73.2495L91.5826 73.2503L91.6595 73.1769L91.6821 73.1557L91.6814 73.155C91.7399 73.0987 91.797 73.0414 91.8521 72.9829C92.6791 72.1052 93.1231 70.9983 93.3834 70.0008L93.4017 69.9295L93.4165 69.8569C93.43 69.7919 93.4409 69.7257 93.4539 69.6594L98.0872 74.292C98.4523 74.6569 98.8653 74.9374 99.2842 75.1469C99.7998 75.4047 100.342 75.5676 100.893 75.6463C101.305 75.7051 101.721 75.7309 102.138 75.7309H102.417C102.596 75.7309 102.796 75.7289 103.016 75.7239C103.677 75.7088 104.52 75.6712 105.529 75.6152C106.892 75.5761 108.306 75.5012 109.769 75.3888C111.238 75.3152 112.601 75.2419 113.856 75.1681C114.989 75.1014 115.923 75.0278 116.549 74.9374C117.735 74.8796 118.899 74.6705 119.957 74.2102L120.167 74.1143L120.166 74.1136C122.181 73.2026 122.861 71.2154 123.067 69.6671C123.167 69.1263 123.246 68.3933 123.316 67.5589C123.391 66.6581 123.465 65.6344 123.539 64.49C123.652 63.2742 123.747 62.0235 123.823 60.7383V60.7334C123.897 59.44 123.971 58.2216 124.045 57.0783C124.153 55.9499 124.228 54.9246 124.268 54.0073C124.334 53.1752 124.376 52.483 124.383 51.9935C124.457 50.5397 124.513 49.0856 124.551 47.6317C124.577 47.1193 124.611 46.6121 124.651 46.1103C124.998 46.1135 125.353 46.1195 125.717 46.128C125.695 46.3843 125.673 46.6395 125.65 46.8932C125.504 48.5355 125.359 49.9882 125.214 51.2529C125.13 51.8215 125.017 52.7819 124.876 54.082C124.725 55.4381 124.575 56.9045 124.425 58.4791L124.422 58.5101L124.42 58.5419C124.309 60.0582 124.198 61.4806 124.087 62.8085C123.977 64.134 123.91 65.1608 123.91 65.7822C123.91 66.1339 123.938 66.4997 124.006 66.8698L124.005 66.8705C124.007 66.8823 124.01 66.8946 124.012 66.9065C124.015 66.9249 124.018 66.9431 124.022 66.9615C124.116 67.4649 124.306 68.0083 124.652 68.5217C124.804 68.7624 124.984 68.9896 125.191 69.196L130.296 74.3019C130.292 74.2978 130.288 74.2933 130.284 74.2892L130.298 74.3033C130.644 74.649 131.065 74.9367 131.558 75.1342C131.899 75.2704 132.254 75.3779 132.623 75.4516L132.697 75.4664L132.772 75.4777C134.71 75.7603 136.747 75.8981 138.88 75.8981H147.359C148.09 75.8981 148.775 75.9314 149.415 75.9954L149.474 76.0018L149.533 76.0053C151.275 76.1077 153.017 76.1355 154.759 76.0885L155.506 76.0638L155.505 76.0631C157.438 75.9888 159.354 75.8958 161.252 75.7845C161.576 75.7797 161.98 75.7563 162.42 75.7225C162.938 75.6827 163.482 75.6242 164.052 75.5497C164.606 75.5105 165.14 75.4538 165.652 75.3783C166.077 75.3429 166.662 75.2747 167.205 75.0919C168.093 74.8251 169.051 74.2566 169.649 73.2002C169.877 72.8318 170.004 72.4802 170.075 72.2529C170.162 71.9758 170.223 71.6924 170.271 71.4248C170.394 70.9216 170.496 70.4057 170.577 69.878C170.595 69.7634 170.608 69.6488 170.624 69.5352L172.303 71.2147C172.91 71.8165 173.595 72.3264 174.349 72.7452L174.404 72.7763L174.46 72.8038C175.322 73.235 176.228 73.5681 177.171 73.8039L177.251 73.8237L177.331 73.8392C178.151 73.9954 178.963 74.088 179.762 74.1087C179.876 74.1116 179.99 74.1129 180.103 74.1129C180.841 74.1129 181.571 74.0398 182.287 73.8893L182.288 73.89L182.586 73.8244C183.181 73.6818 183.764 73.4697 184.315 73.1727L184.588 73.0168C184.7 72.9542 184.809 72.8891 184.917 72.8221C185.673 72.3527 186.345 71.7749 186.927 71.0962L186.959 71.0588L186.99 71.0207C187.6 70.2586 188.096 69.4275 188.465 68.5308C188.854 67.5864 189.071 66.595 189.125 65.5741C189.181 64.5157 189.044 63.4625 188.666 62.4551L188.655 62.4262L188.643 62.3965C188.299 61.5352 187.816 60.749 187.218 60.0414C187 59.7707 186.768 59.5142 186.523 59.2719L185.365 58.1137C185.388 58.0984 185.411 58.0842 185.433 58.0686C186.451 57.3566 187.093 56.3359 187.36 55.1802C187.503 54.7085 187.586 54.1858 187.642 53.7759C187.757 53.1542 187.853 52.5186 187.931 51.8694C188.041 51.2059 188.135 50.5877 188.211 50.0165L188.212 50.0045L188.214 49.9925C188.289 49.3937 188.338 49.0397 188.365 48.8823L188.377 48.8103L188.384 48.7384C188.605 46.8273 188.845 44.9346 189.102 43.0611C189.318 41.6607 189.564 40.2595 189.84 38.858L190.127 37.4565L190.126 37.4558C190.151 37.3489 190.178 37.2253 190.208 37.0891C190.237 36.9526 190.268 36.8031 190.3 36.6447C190.375 36.2701 190.448 35.8672 190.52 35.4386C190.616 35.0498 190.7 34.6789 190.773 34.3277C190.866 34.009 190.991 33.5286 191.019 33.0362C191.104 31.9834 190.786 30.9845 190.14 30.1782C190.02 30.0189 189.889 29.8684 189.749 29.7282L184.641 24.6208C184.168 24.1477 183.583 23.7891 182.91 23.5882L182.726 23.5374L182.516 23.4916C182.018 23.3988 181.476 23.3957 181.133 23.3957V20.5066C181.421 20.5066 182.062 20.504 182.749 20.6025L183.046 20.6512L183.132 20.6688L183.342 20.7147L183.494 20.7521L183.678 20.8028L183.737 20.8198C184.811 21.1403 185.756 21.6998 186.531 22.4293L186.683 22.5775L191.79 27.6848C192.006 27.9001 192.207 28.13 192.394 28.3711C192.398 28.3769 192.403 28.383 192.408 28.3887C192.42 28.4052 192.434 28.4215 192.446 28.4381C193.496 29.7799 194.027 31.4516 193.902 33.1991L193.904 33.1998C193.903 33.2135 193.901 33.2271 193.9 33.2407C193.899 33.2504 193.9 33.26 193.899 33.2697L193.898 33.269C193.85 33.9902 193.688 34.6336 193.579 35.0175C193.511 35.3405 193.435 35.6747 193.351 36.0191C193.281 36.4312 193.21 36.8304 193.133 37.2111C193.098 37.3863 193.064 37.5501 193.033 37.6964C193.008 37.8103 192.982 37.9247 192.956 38.0342L192.957 38.0349L192.674 39.416L192.675 39.4167C192.408 40.7686 192.171 42.12 191.962 43.4702C191.709 45.3111 191.473 47.1703 191.257 49.0473L191.257 49.048L191.249 49.12C191.244 49.1752 191.235 49.2303 191.226 49.285L191.214 49.357C191.199 49.4482 191.157 49.747 191.082 50.3508C191.08 50.3664 191.076 50.3818 191.074 50.3974L191.075 50.3981C190.996 50.9847 190.901 51.6095 190.792 52.2686C190.712 52.9346 190.612 53.5887 190.495 54.2309C190.437 54.6495 190.337 55.2868 190.151 55.9272C189.971 56.6632 189.689 57.3724 189.304 58.0319C189.344 58.0794 189.384 58.1269 189.423 58.1751C189.43 58.183 189.436 58.1912 189.443 58.1991C189.452 58.2096 189.461 58.2202 189.469 58.2308C190.234 59.1456 190.864 60.1745 191.321 61.3124L191.333 61.3421L191.369 61.4338L191.379 61.4627C191.905 62.8754 192.084 64.3227 192.011 65.7257C191.94 67.0613 191.654 68.3744 191.137 69.6305C190.659 70.7908 190.02 71.8585 189.246 72.8256C189.241 72.8323 189.235 72.8388 189.23 72.8454L189.199 72.8835C189.187 72.8985 189.174 72.9138 189.162 72.9286L189.13 72.966C189.127 72.9695 189.124 72.9731 189.121 72.9766C188.348 73.8783 187.45 74.6497 186.442 75.276C186.306 75.3604 186.165 75.4431 186.02 75.525L186.021 75.5257L185.748 75.6816C185.727 75.6934 185.706 75.7048 185.685 75.7161C184.89 76.1442 184.07 76.4395 183.259 76.6338C183.242 76.6379 183.224 76.6419 183.207 76.6457L182.908 76.7113C182.892 76.7149 182.876 76.7166 182.86 76.7198C181.947 76.9099 181.025 77.0019 180.103 77.0019C179.968 77.0019 179.829 77.0007 179.687 76.997C178.716 76.9719 177.748 76.8599 176.791 76.6775L176.784 76.6761L176.703 76.6606C176.654 76.651 176.605 76.6402 176.556 76.6281L176.476 76.6084L176.471 76.607C175.327 76.3211 174.222 75.9156 173.167 75.3881L173.125 75.367C173.078 75.3436 173.031 75.3189 172.985 75.2929L172.93 75.2619C172.643 75.102 172.364 74.9294 172.09 74.7477C171.054 76.493 169.475 77.4054 168.126 77.8293L168.127 77.83C168.124 77.8312 168.12 77.8316 168.116 77.8328C168.089 77.8411 168.063 77.851 168.037 77.8589L168.036 77.8575C167.238 78.1139 166.464 78.2053 165.988 78.2476C165.45 78.3247 164.9 78.3833 164.34 78.4246C163.759 78.4994 163.191 78.5608 162.642 78.6031C162.208 78.6364 161.765 78.6624 161.372 78.6708C159.474 78.7817 157.559 78.875 155.626 78.9494C155.618 78.9497 155.609 78.9512 155.601 78.9515L154.854 78.9762C154.848 78.9764 154.843 78.9767 154.837 78.9769C153.013 79.0261 151.188 78.9967 149.364 78.8894H149.362L149.302 78.8859C149.256 78.8831 149.209 78.8789 149.163 78.8739L149.128 78.8697C148.592 78.8161 148.003 78.7872 147.359 78.7871H138.88C136.624 78.7871 134.446 78.6413 132.355 78.3364C132.351 78.3357 132.346 78.335 132.341 78.3343L132.266 78.323C132.223 78.3165 132.179 78.309 132.136 78.3005L132.061 78.2857L132.056 78.2842C131.645 78.202 131.247 78.0923 130.864 77.9584L130.485 77.8166C129.664 77.488 128.954 77.014 128.365 76.4504C128.327 76.4163 128.29 76.381 128.253 76.3446L125.032 73.1226C124.37 74.4903 123.269 75.8529 121.44 76.7057C121.416 76.7177 121.392 76.731 121.367 76.7424L121.157 76.8383C121.141 76.8454 121.125 76.8526 121.109 76.8595C119.691 77.4766 118.215 77.7336 116.839 77.8131C116.091 77.9139 115.1 77.989 114.026 78.0522C112.768 78.1262 111.406 78.1988 109.94 78.2723C108.475 78.3841 107.055 78.4595 105.679 78.5001C104.663 78.5565 103.787 78.5962 103.082 78.6122C102.84 78.6177 102.618 78.62 102.417 78.62H102.138C101.737 78.62 101.325 78.6012 100.906 78.5579L100.485 78.5064C99.6424 78.3861 98.7996 78.135 97.992 77.7313C97.3323 77.4014 96.657 76.9468 96.0453 76.3354L94.2904 74.5812C94.1835 74.7102 94.0727 74.839 93.9547 74.9642C93.9019 75.0202 93.8478 75.0725 93.796 75.1243C93.7517 75.1719 93.7061 75.2185 93.6584 75.2633L93.6359 75.2844L93.5773 75.3402C93.5369 75.3787 93.4952 75.4159 93.4532 75.4516C92.1225 76.6625 90.5798 77.2426 89.2952 77.5302C89.2723 77.5354 89.2492 77.5405 89.2261 77.5451L88.7994 77.6297C88.7811 77.6333 88.7626 77.6356 88.7444 77.6389C87.6395 77.8443 86.4764 77.957 85.2819 78.0014L85.2812 78.0007C85.2737 78.001 85.2661 78.0026 85.2586 78.0028L84.4764 78.0254C84.4667 78.0257 84.4571 78.0259 84.4474 78.0261C83.8822 78.0367 83.3084 78.0361 82.7271 78.0261C82.4516 78.0214 82.1728 78.0141 81.8913 78.0049C80.8553 78.0038 79.8189 77.9863 78.7822 77.9506H76.2119L67.4234 78.0607C64.4889 78.1355 61.5362 78.1735 58.5658 78.1735C58.2239 78.1735 57.7826 78.1869 57.2313 78.2194C56.1895 78.2806 55.1445 78.2231 54.1074 78.0388C52.7957 77.8444 51.4104 77.3747 50.1462 76.4553C49.8396 76.2323 49.5554 75.9892 49.2942 75.7281L46.4728 72.9068C46.4577 72.9512 46.4421 72.9957 46.4249 73.0394L46.4009 73.1L46.4002 73.0993C45.7477 74.7793 44.5499 76.1996 42.8925 77.1007L42.8932 77.1014C41.9765 77.6206 41.0367 77.8756 40.1749 77.9661C40.1027 77.9737 40.0308 77.9777 39.9598 77.9831L39.7672 78.0063C39.7503 78.0084 39.7334 78.0103 39.7164 78.012C39.3904 78.0452 39.0614 78.062 38.7311 78.0621C38.6254 78.0621 38.5064 78.061 38.3756 78.0578C38.031 78.0494 37.6129 78.0287 37.161 78.0042C36.5044 78.0013 35.7784 77.9822 34.9907 77.9492C34.1517 77.9476 33.2721 77.9291 32.3534 77.8935C31.4402 77.8919 30.552 77.8733 29.6893 77.8378C28.9047 77.8362 28.1595 77.8185 27.4577 77.7835H26.138C26.0744 77.7835 26.0109 77.7813 25.9475 77.7771L25.8516 77.7708H25.8502C25.5704 77.7521 25.2904 77.7331 25.0116 77.7143C24.7326 77.6956 24.4545 77.6771 24.1764 77.6586C22.9593 77.5774 21.7809 77.2915 20.6674 76.8143L20.6617 76.8115L20.4572 76.7233C20.3242 76.666 20.1957 76.5989 20.0728 76.5223L19.8838 76.4045L19.8802 76.4024C19.2801 76.0273 18.7474 75.5961 18.277 75.1335L13.1527 70.0092C13.1465 70.003 13.1399 69.9972 13.1337 69.9909L12.9439 69.7976C12.9301 69.7835 12.9166 69.769 12.903 69.7546C12.8156 69.6618 12.7351 69.5714 12.6625 69.4887L12.635 69.4584C12.6225 69.4442 12.6099 69.4298 12.5976 69.4153L12.5701 69.3836C12.5256 69.3322 12.4825 69.2793 12.4417 69.2249L12.3762 69.1374C11.8971 68.4986 11.4888 67.8072 11.1609 67.0694L11.1277 66.9946C11.1015 66.9358 11.0773 66.8759 11.0551 66.8155L11.0311 66.7506L10.397 65.0232C10.3881 64.9988 10.3791 64.9738 10.3709 64.9492L10.3702 64.947L9.41868 62.2054C9.41644 62.1989 9.41381 62.1921 9.41162 62.1856L9.3954 62.1377C9.38725 62.1136 9.37963 62.0893 9.37212 62.065L9.35731 62.0171L9.3559 62.0142C9.07663 61.1066 8.80122 60.2619 8.52925 59.48C8.52765 59.4754 8.52588 59.4705 8.52431 59.4659L8.50597 59.4123C8.49742 59.3873 8.48914 59.362 8.48128 59.3368L8.46436 59.2825C8.46247 59.2764 8.46056 59.2702 8.45871 59.2641C8.23802 58.539 8.05546 57.9178 7.93676 57.4726C7.2351 55.2547 6.55119 53.0362 5.88565 50.8177C5.88107 50.8025 5.87656 50.7872 5.87224 50.7719L5.86449 50.7444L5.86237 50.7366C5.85973 50.7275 5.85716 50.7183 5.85461 50.7091C5.21362 48.4091 4.59071 46.0898 3.98758 43.7531L3.86979 43.3235L3.62857 42.5209C3.53767 42.2302 3.43509 41.9131 3.32034 41.5687L3.30482 41.5228C3.29062 41.4809 3.27757 41.4384 3.26532 41.3958L3.25827 41.3712L2.31523 38.2098C2.3125 38.2007 2.31012 38.1915 2.30747 38.1823L2.30395 38.1703L2.30113 38.1605L1.29673 34.7015L1.29461 34.6959L1.28262 34.6542C1.27315 34.6214 1.26411 34.588 1.25582 34.5548L1.24524 34.5125L1.24594 34.5118C0.930942 33.2898 0.664619 32.1497 0.454554 31.0993C0.246434 30.0587 0.0834486 29.0275 0.0214773 28.0791C0.0198629 28.0584 0.0191199 28.0377 0.0179506 28.017L0.0172453 28.0177C-0.0177165 27.4225 -0.0348767 26.3591 0.33112 25.1999L0.331825 25.1992C0.703306 24.0236 1.73036 22.077 4.08633 21.2091C5.19127 20.7723 6.50321 20.5317 7.5312 20.3691C8.83268 20.1332 10.1993 19.9186 11.6292 19.7251L11.6391 19.723L11.6708 19.7187C13.1178 19.5284 14.4873 19.3739 15.7773 19.2553C16.9751 19.1152 18.1296 19 18.9513 19ZM143.423 51.5005C143.423 51.7233 143.461 51.8725 143.535 51.947L143.567 52.0119C143.576 52.0262 143.586 52.0399 143.596 52.0528L143.627 52.0895L148.735 57.1968C148.826 57.2877 148.963 57.3329 149.144 57.3329C149.339 57.3329 149.514 57.3438 149.667 57.3647C149.718 57.3716 149.767 57.3794 149.814 57.3886H150.93L152.715 57.2772C153.189 57.2493 153.643 57.232 154.075 57.225L154.5 57.2215C155.058 57.1843 155.43 57.1658 155.616 57.1658L156.369 57.1799C156.704 57.1892 157.123 57.2029 157.625 57.2215L158.416 57.225C159.218 57.232 160.051 57.2493 160.916 57.2772C162.009 57.2772 163.023 57.2938 163.959 57.3252C163.927 57.5406 163.89 57.7565 163.842 57.972C163.759 58.4738 163.654 58.976 163.528 59.4779L163.263 60.4823C163.138 60.9842 163.033 61.4869 162.949 61.9889L162.879 62.3648C162.852 62.5228 162.819 62.7137 162.782 62.9368C162.745 63.3829 162.689 63.848 162.615 64.3313L162.555 64.691C162.492 65.0464 162.419 65.3919 162.336 65.7264C162.261 66.1722 162.168 66.4698 162.057 66.6187C161.908 66.9162 161.629 67.1208 161.22 67.2323C161.034 67.3067 160.699 67.363 160.216 67.4002C159.733 67.4746 159.212 67.5302 158.654 67.5674C158.096 67.6417 157.575 67.6973 157.091 67.7345C156.608 67.7717 156.254 67.7902 156.031 67.7902C154.135 67.9018 152.219 67.9952 150.286 68.0696C148.389 68.1439 146.492 68.1254 144.595 68.0138C143.851 67.9395 143.07 67.9017 142.252 67.9017V65.0126C143.127 65.0126 143.975 65.0523 144.794 65.1311C146.587 65.2356 148.38 65.2529 150.173 65.1826H150.175C152.089 65.109 153.985 65.0165 155.862 64.9061L156.031 64.9012C156.136 64.9012 156.396 64.8904 156.87 64.8539C157.293 64.8214 157.76 64.772 158.272 64.7037L158.462 64.6847C158.892 64.656 159.283 64.6143 159.637 64.564C159.662 64.4452 159.686 64.3241 159.708 64.2001L159.763 63.8735C159.826 63.458 159.872 63.0657 159.903 62.697L159.933 62.4621C159.97 62.2373 160.004 62.0348 160.034 61.8626C160.036 61.8541 160.038 61.8457 160.039 61.8372L160.109 61.4613C160.183 61.0241 160.27 60.5875 160.371 60.1522C159.689 60.1329 159.029 60.1196 158.391 60.1141L157.612 60.1105C157.581 60.1104 157.549 60.1096 157.518 60.1084C157.03 60.0903 156.625 60.0765 156.304 60.0675L155.599 60.0548C155.598 60.0548 155.597 60.0548 155.595 60.0548C155.581 60.0551 155.562 60.0561 155.538 60.0569C155.488 60.0586 155.423 60.0613 155.342 60.0654C155.177 60.0736 154.962 60.0862 154.693 60.1042C154.637 60.1079 154.58 60.1101 154.524 60.1105L154.099 60.1141L154.098 60.1134C153.717 60.1199 153.313 60.1362 152.885 60.1613L152.884 60.1606L151.11 60.2721C151.05 60.2758 150.99 60.2777 150.93 60.2777H149.814C149.634 60.2777 149.454 60.2603 149.278 60.2269C149.279 60.2271 149.28 60.2275 149.281 60.2276C149.285 60.2283 149.284 60.2278 149.278 60.2269C149.278 60.2269 149.267 60.2261 149.245 60.2248C149.222 60.2234 149.189 60.222 149.144 60.222C148.523 60.2218 147.52 60.0661 146.694 59.2416L141.585 54.1321C141.536 54.0831 141.488 54.0322 141.443 53.9798L141.411 53.9431C141.378 53.9051 141.346 53.8664 141.315 53.8267C141.247 53.7387 141.168 53.6281 141.089 53.4966C141.081 53.483 141.074 53.4687 141.066 53.455C140.829 53.0815 140.71 52.7245 140.649 52.4788C140.554 52.0983 140.534 51.7518 140.534 51.5005C140.534 51.3516 140.544 51.1808 140.558 51.0096L140.608 50.5123C140.653 50.0705 140.719 49.6322 140.805 49.1983C140.884 48.7615 140.966 48.3514 141.05 47.9724C141.101 47.7442 141.177 47.4412 141.298 47.138C141.358 46.9876 141.463 46.7517 141.631 46.4983C141.729 46.3507 141.929 46.0756 142.258 45.8091C142.287 45.7853 142.316 45.7623 142.344 45.74C142.348 45.737 142.352 45.7339 142.356 45.7308C142.926 45.2941 143.526 45.1523 143.903 45.1052C143.968 45.0971 144.031 45.0911 144.094 45.0869L142.077 43.0703C141.427 42.4197 141.204 41.6128 141.204 40.9564V40.3985C141.204 40.2619 141.213 40.1254 141.233 39.9901C141.249 39.877 141.26 39.7351 141.26 39.562C141.26 39.4346 141.269 39.3073 141.286 39.1811L141.397 38.3439L141.401 38.3163C141.415 38.2123 141.424 38.1434 141.428 38.1033C141.429 38.0937 141.429 38.0873 141.429 38.0843C141.429 38.0884 141.427 38.1185 141.427 38.1668C141.427 37.9293 141.457 37.6925 141.515 37.4622C141.639 36.9668 141.898 36.4166 142.37 35.9436C142.735 35.5783 143.147 35.3409 143.545 35.1938C144.006 35.0018 144.474 34.9105 144.923 34.8919C145.481 34.8436 146.162 34.8563 146.86 34.8912C147.62 34.9293 148.483 34.9854 149.446 35.0591C150.43 35.0976 151.448 35.154 152.5 35.2291C153.583 35.3038 154.611 35.3793 155.583 35.4541C156.54 35.5277 157.399 35.6019 158.156 35.677C158.898 35.7131 159.504 35.7513 159.921 35.7976C159.95 35.8009 159.98 35.8046 160.01 35.8089C160.295 35.8496 160.593 35.876 160.903 35.8865L161.113 35.89C161.267 35.8756 161.416 35.8508 161.562 35.8152C161.599 35.6774 161.622 35.5515 161.631 35.435L161.651 35.2481L161.855 33.817C160.696 33.863 159.54 33.9071 158.389 33.9447H158.38L155.806 34.0216C155.802 34.0217 155.797 34.0221 155.793 34.0223L153.854 34.0709H153.848C152.544 34.1007 151.235 34.1251 149.922 34.1443C149.265 34.1539 148.607 34.162 147.948 34.169C147.938 34.1691 147.927 34.169 147.917 34.169C147.818 34.169 147.716 34.1669 147.615 34.164C147.313 34.1554 146.95 34.1355 146.54 34.1062C146.038 34.0704 145.459 34.0342 144.8 33.9976L142.697 33.8861C142.174 33.86 141.661 33.8447 141.161 33.8382L140.659 33.8346C139.88 33.8348 139.193 33.8744 138.593 33.9433C138.592 33.944 138.593 33.9453 138.593 33.9461C138.421 34.8384 138.244 35.9683 138.062 37.3472C137.88 38.732 137.697 40.2887 137.513 42.018C137.329 43.7457 137.145 45.5105 136.961 47.3115L136.738 49.9473L136.738 49.9516C136.663 50.8197 136.588 51.6741 136.513 52.5127L136.513 52.5197L136.4 53.7477C136.287 54.9475 136.175 56.048 136.06 57.0473C136.056 57.0844 136.051 57.1217 136.046 57.1587C135.983 57.5686 135.876 58.4363 135.727 59.8192L135.726 59.8277C135.579 61.1494 135.432 62.5849 135.285 64.1338C135.263 64.4301 135.241 64.7231 135.219 65.0126H142.252V67.9017H133.772C133.205 67.9017 132.646 67.89 132.096 67.8692C132.144 67.2892 132.193 66.692 132.241 66.0777C132.297 65.3618 132.352 64.6225 132.408 63.8601C132.557 62.2982 132.706 60.8477 132.855 59.5089C133.003 58.1329 133.115 57.2028 133.19 56.7193C133.301 55.7431 133.412 54.6622 133.524 53.4769L133.635 52.2566C133.71 51.4198 133.785 50.5687 133.859 49.704L134.082 47.0682C134.268 45.2459 134.454 43.4605 134.64 41.7125C134.826 39.9646 135.012 38.3838 135.198 36.9706C135.384 35.5574 135.57 34.3671 135.756 33.4002C135.942 32.4334 136.128 31.8567 136.314 31.6707C136.611 31.3733 137.15 31.1871 137.931 31.1127C138.749 31.0012 139.661 30.9456 140.665 30.9456L141.198 30.9491C141.735 30.9561 142.283 30.9734 142.841 31.0013L144.96 31.1127C145.63 31.1499 146.225 31.187 146.746 31.2242C147.136 31.2521 147.453 31.2694 147.697 31.2764C147.779 31.2787 147.852 31.2799 147.917 31.2799C148.572 31.2729 149.227 31.2648 149.879 31.2552C151.185 31.2361 152.486 31.2121 153.781 31.1826L155.72 31.1339L158.294 31.057C160.005 31.0012 161.725 30.9361 163.454 30.8616C164.104 30.8337 164.755 30.8026 165.407 30.7721C165.352 31.0426 165.296 31.3134 165.237 31.5839C165.051 32.402 164.883 33.2396 164.734 34.0949L164.512 35.6565C164.474 36.1399 164.362 36.624 164.177 37.1074L164.058 37.3232C163.765 37.8113 163.358 38.1858 162.838 38.4461L162.642 38.5124C162.182 38.6589 161.708 38.7486 161.22 38.7812L160.805 38.7741C160.394 38.7602 159.992 38.7248 159.602 38.669C159.267 38.6318 158.709 38.5947 157.929 38.5576C157.185 38.4832 156.329 38.4091 155.362 38.3347C154.395 38.2603 153.372 38.1855 152.294 38.1111C151.253 38.0367 150.248 37.9811 149.281 37.9439C148.314 37.8696 147.459 37.814 146.715 37.7768C145.972 37.7396 145.432 37.7396 145.097 37.7768C144.911 37.7768 144.744 37.8139 144.595 37.8882C144.447 37.9254 144.354 38.0185 144.316 38.1668C144.316 38.2783 144.298 38.4647 144.261 38.7247L144.149 39.562C144.149 39.8593 144.13 40.1383 144.093 40.3985V40.9564C144.093 40.986 144.102 41.0099 144.12 41.0277L149.227 46.135C149.243 46.1506 149.265 46.1616 149.295 46.1682L149.368 46.1752C149.479 46.1474 149.57 46.13 149.64 46.123L149.702 46.1195H151.209L151.756 46.0955C152.133 46.0816 152.533 46.0719 152.955 46.0673L153.608 46.0638H156.509L157.252 46.0398C157.682 46.0275 158.101 46.0196 158.509 46.0144C158.486 46.1322 158.46 46.2501 158.43 46.3678C158.356 46.6652 158.282 46.9633 158.207 47.2607L158.152 47.442C158.096 47.6091 158.04 47.735 157.984 47.8186L157.892 47.9244C157.656 48.1605 157.278 48.3114 156.757 48.3766C156.199 48.4509 155.604 48.488 154.972 48.488L153.716 48.4845C152.461 48.4775 151.206 48.4602 149.951 48.4323C148.314 48.3579 146.659 48.2275 144.986 48.0415C144.911 48.0044 144.762 47.9858 144.539 47.9858C144.316 47.9487 144.167 47.9673 144.093 48.0415C144.019 48.0791 143.944 48.2654 143.87 48.5994C143.796 48.9341 143.721 49.3063 143.647 49.7153C143.573 50.0871 143.516 50.4593 143.479 50.8311C143.442 51.1654 143.423 51.3888 143.423 51.5005ZM86.7447 31.2277C86.874 31.2299 87.0055 31.2332 87.139 31.2376C87.0694 32.0017 87.0006 32.7498 86.9309 33.4813C86.7822 35.415 86.6703 37.349 86.5959 39.2827C86.5215 41.2165 86.4474 43.1509 86.373 45.0848C86.3358 46.312 86.3173 47.8003 86.3173 49.5481L86.3102 50.8417C86.2963 52.1456 86.2616 53.4814 86.2058 54.848C86.1687 56.6701 86.0938 58.4181 85.9823 60.0915C85.8707 61.7277 85.7032 63.0856 85.4801 64.1641C85.257 65.0193 84.941 65.6331 84.5321 66.005C84.123 66.4141 83.4907 66.6935 82.6354 66.8423C81.8544 66.991 80.9614 67.0837 79.9573 67.1209C78.9904 67.1581 77.9675 67.1581 76.8891 67.1209C75.8478 67.1209 74.8064 67.1023 73.7651 67.0652H71.0312L62.2166 67.1766C59.3159 67.251 56.3964 67.288 53.4585 67.288L53.0818 67.2916C53.0389 67.2923 52.9953 67.2941 52.9513 67.2951C52.9671 66.1483 52.9917 65.0044 53.0254 63.8636L53.0981 61.7406C53.1817 59.6206 53.2344 57.4897 53.2553 55.3488L53.2659 53.2046C53.2659 50.8244 53.2096 48.4625 53.0981 46.1195C52.9865 43.7765 52.9309 41.4331 52.9309 39.0901V37.8628C52.9309 37.2307 52.9494 36.5612 52.9866 35.8547C53.0238 35.1482 53.0794 34.5159 53.1538 33.9581C53.2653 33.3633 53.3958 33.0282 53.5445 32.9537C53.9166 32.8049 54.8468 32.6559 56.3341 32.5072C57.4777 32.3956 58.7889 32.2945 60.2671 32.2039L61.8012 32.1171C63.4191 32.0056 65.1313 31.9045 66.9375 31.8138L68.7749 31.7264C70.6435 31.6427 72.4602 31.5698 74.2243 31.507L75.9714 31.4478C78.2771 31.3734 80.3598 31.3171 82.2193 31.2799C84.0786 31.2427 85.455 31.2242 86.3476 31.2242C86.4776 31.2242 86.6101 31.2254 86.7447 31.2277ZM23.1354 30.9145C23.2097 31.7326 23.2653 32.5326 23.3025 33.3134C23.3397 34.0569 23.3768 34.5596 23.414 34.82L23.9719 39.1712C24.195 40.6215 24.4188 42.0722 24.642 43.5224L29.7493 48.6298C29.9166 47.821 30.0733 47.0122 30.2198 46.2034L30.3629 45.3944C30.5861 44.316 30.8092 43.2374 31.0323 42.159L32.2039 36.6355C32.2224 36.5612 32.2459 36.4496 32.2737 36.3012L32.371 35.7433C32.4454 35.297 32.5381 34.8315 32.6496 34.3481C32.7054 34.088 32.757 33.8371 32.8034 33.5955L32.929 32.898L33.1518 32.0057C33.2634 31.5596 33.4125 31.1873 33.5983 30.8899C33.8215 30.5553 34.1936 30.3877 34.7142 30.3877C35.8856 30.4434 37.0574 30.4781 38.2289 30.492L39.4004 30.4991C40.9995 30.4619 42.5805 30.4804 44.1424 30.5548C44.4771 30.5548 45.0354 30.5734 45.8162 30.6105L46.4086 30.6423C46.6899 30.6586 46.9759 30.6772 47.2663 30.698C47.2543 30.739 47.2456 30.7744 47.236 30.8031C45.86 35.6751 44.3904 40.473 42.8284 45.1962C41.2663 49.9194 39.667 54.6803 38.0307 59.4779C37.9563 59.701 37.8072 60.1289 37.5842 60.7609C37.3982 61.3558 37.1936 62.0074 36.9705 62.7139L36.6362 63.7042C36.5247 64.0295 36.4127 64.3503 36.3012 64.6663C36.1153 65.2611 35.9848 65.6704 35.9104 65.8936C35.7245 66.377 35.4086 66.7306 34.9624 66.9537C34.7765 67.0652 34.5533 67.1209 34.2931 67.1209C34.07 67.158 33.8467 67.1766 33.6237 67.1766L33.0792 67.1625C32.8468 67.1532 32.563 67.1395 32.2286 67.1209C31.5965 67.1209 30.8527 67.1023 29.9976 67.0652C29.1794 67.0652 28.3049 67.0466 27.3751 67.0094C26.4455 67.0094 25.5529 66.9909 24.6977 66.9537C23.8795 66.9537 23.1354 66.9352 22.466 66.898H21.1273L20.4833 66.855C20.3225 66.3919 20.1563 65.9144 19.986 65.4224C19.6885 64.4555 19.3913 63.5439 19.0938 62.6885C18.8335 61.8332 18.666 61.2566 18.5916 60.9591C17.885 58.7276 17.1965 56.4961 16.5271 54.2647C15.8948 51.9961 15.2812 49.7083 14.6861 47.4025C14.5002 46.6959 14.24 45.8404 13.9053 44.8365C13.6078 43.8324 13.2913 42.7725 12.9566 41.6568C12.6219 40.504 12.2877 39.3507 11.953 38.1979C11.6554 37.045 11.4131 36.0036 11.2272 35.0739C11.0412 34.1442 10.93 33.3815 10.8928 32.7865C10.8557 32.1547 10.9671 31.801 11.2272 31.7264C11.6363 31.5405 12.4363 31.3544 13.626 31.1685C14.8533 30.9453 16.1555 30.7408 17.5315 30.5548C18.9446 30.3689 20.2654 30.2199 21.4926 30.1083C22.1248 30.034 22.6548 29.9776 23.0825 29.9405C23.1026 30.2567 23.1209 30.5814 23.1354 30.9145ZM179.936 59.2853C180.331 59.2853 180.719 59.3292 181.1 59.4165C181.101 59.4169 181.103 59.4169 181.105 59.4172C181.139 59.7059 181.149 60.005 181.133 60.3151L181.113 60.5782C181.056 61.1882 180.914 61.7701 180.686 62.3232L180.584 62.5588C180.336 63.1037 180.017 63.6204 179.626 64.1084C179.18 64.6289 178.66 65.0567 178.065 65.3914C177.656 65.6517 177.172 65.8377 176.614 65.9493C176.093 66.0609 175.554 66.1165 174.996 66.1165C174.405 66.1165 173.787 66.064 173.144 65.9599C173.145 65.9369 173.146 65.9138 173.147 65.8908C173.156 65.7132 173.175 65.5335 173.204 65.3519L173.242 65.1431C173.339 64.6552 173.494 64.1813 173.705 63.7219L173.799 63.5258C174.027 63.0704 174.326 62.6143 174.696 62.1588L174.86 61.9635C175.306 61.443 175.789 60.9966 176.31 60.6247C176.868 60.2157 177.463 59.8992 178.095 59.6761C178.727 59.4158 179.341 59.2853 179.936 59.2853ZM125.127 34.3961C124.617 34.4241 124.113 34.4572 123.615 34.4955C123.591 34.4974 123.567 34.4985 123.544 34.4998L121.535 34.6042L121.526 34.6049C120.004 34.6788 118.482 34.741 116.961 34.7911C116.455 34.8078 115.948 34.8228 115.441 34.8369L115.432 34.8376L113.448 34.887C113.445 34.8871 113.441 34.8869 113.437 34.887C111.429 34.9294 109.41 34.9505 107.382 34.9505C107.378 34.9505 107.374 34.9505 107.37 34.9505L104.779 34.9399C104.776 34.9399 104.772 34.9399 104.768 34.9399C102.181 34.919 99.6041 34.8657 97.0377 34.7826C96.9668 34.7829 96.8933 34.7862 96.8169 34.789C96.8034 34.8413 96.7913 34.8951 96.7781 34.9498C96.7224 35.3279 96.6792 35.7033 96.6505 36.0762C96.6317 36.3207 96.6121 36.5514 96.5926 36.7674C97.2198 36.5035 97.7398 36.2858 98.1514 36.1143L98.356 36.0381C99.3862 35.6973 100.529 35.9625 101.305 36.7385L106.412 41.8459C107.075 42.5089 107.376 43.4523 107.217 44.3766C106.764 47.0175 106.256 49.6409 105.69 52.2453L105.31 54.1328C104.929 56.0527 104.558 57.9841 104.198 59.925L104.052 60.7609L104.052 60.7616C103.989 61.1298 103.913 61.5808 103.824 62.1144C103.719 62.8983 103.604 63.7177 103.482 64.5725C103.729 64.5555 103.978 64.5389 104.229 64.5196C104.255 64.5176 104.281 64.516 104.307 64.5147C105.043 64.4778 105.753 64.4402 106.436 64.4032L108.417 64.2918C109.695 64.2165 110.399 64.1494 110.67 64.1042L110.857 64.0788C110.92 64.0725 110.983 64.0682 111.046 64.0661C111.564 64.0482 111.944 63.9867 112.214 63.9151C112.222 63.8693 112.231 63.818 112.238 63.7607L112.274 63.542C112.3 63.4111 112.345 63.1038 112.399 62.5517L112.45 61.9719L112.56 60.5648C112.597 60.0625 112.633 59.5265 112.67 58.9573L112.676 58.8741C112.758 58.0087 112.828 57.12 112.889 56.2093L112.948 55.2804C113.022 53.9792 113.097 52.7492 113.172 51.5929L113.179 51.5005C113.287 50.385 113.357 49.4164 113.392 48.5903L113.398 48.4802C113.452 47.8085 113.482 47.3212 113.494 46.9997L113.501 46.6972L113.504 46.6104C113.578 45.185 113.632 43.759 113.669 42.3332L113.671 42.2627C113.749 40.7008 113.886 39.1721 114.083 37.6787L114.104 37.5447C114.349 36.1749 115.543 35.1664 116.947 35.1663C117.408 35.1663 118.085 35.1865 118.949 35.222C119.881 35.2227 120.861 35.2411 121.888 35.2771C122.884 35.2767 123.8 35.2598 124.638 35.2249L124.642 35.2242C124.796 35.218 124.935 35.2096 125.057 35.2009L125.116 34.5583C125.121 34.5035 125.123 34.4493 125.127 34.3961ZM20.3994 33.1208C19.6084 33.2058 18.7782 33.3048 17.9088 33.4192C16.575 33.5996 15.3197 33.797 14.143 34.011C14.1196 34.0152 14.096 34.0193 14.0725 34.023C14.0385 34.0283 14.0047 34.0339 13.9716 34.0392C13.9984 34.1865 14.0275 34.3428 14.0605 34.5075C14.2311 35.3603 14.4559 36.3322 14.7376 37.4269C14.9017 37.9922 15.0653 38.5576 15.2292 39.1225C15.3965 39.6991 15.5642 40.2752 15.7314 40.8513C16.0581 41.9403 16.3671 42.9772 16.659 43.9619C16.9134 44.7265 17.132 45.425 17.3114 46.0532L17.48 46.6675L17.4835 46.6809C18.0729 48.9649 18.6808 51.2305 19.3068 53.4769C19.9679 55.6797 20.6481 57.8829 21.3459 60.0866C21.3639 60.1432 21.3802 60.201 21.3946 60.2587C21.4477 60.471 21.5906 60.9667 21.8467 61.809C22.09 62.511 22.3311 63.2455 22.5718 64.0111C22.5899 64.0117 22.608 64.0122 22.6261 64.0132C23.2319 64.0468 23.9217 64.0647 24.6977 64.0647C24.7395 64.0647 24.7814 64.0657 24.8232 64.0675C25.6332 64.1027 26.4837 64.1204 27.3751 64.1204C27.4136 64.1204 27.4523 64.121 27.4908 64.1225C28.387 64.1583 29.2226 64.1761 29.9976 64.1761C30.0394 64.1761 30.0813 64.1771 30.1231 64.1789C30.9498 64.2149 31.6498 64.2318 32.2286 64.2318C32.2819 64.2318 32.3354 64.2331 32.3887 64.2361C32.7046 64.2536 32.9681 64.2656 33.1793 64.2741L33.3924 64.2798C33.4367 64.1394 33.4887 63.9814 33.544 63.8044L33.5772 63.7049C33.685 63.3995 33.7921 63.0912 33.8988 62.7802L34.2247 61.8139C34.4432 61.1216 34.6446 60.4828 34.827 59.8989L34.8602 59.7995C35.0846 59.1635 35.2247 58.7595 35.2897 58.5644L35.2961 58.5454C36.9296 53.7562 38.5262 49.0036 40.0853 44.2891C41.269 40.7099 42.3987 37.0865 43.4751 33.4199C42.155 33.3683 40.8189 33.356 39.4674 33.3875C39.4395 33.3881 39.4115 33.3883 39.3835 33.3882L38.2119 33.3811C38.2063 33.3811 38.2 33.3812 38.1943 33.3811C37.3965 33.3716 36.5985 33.3516 35.8004 33.3233L35.7552 33.5038L35.6466 34.1076C35.6446 34.1188 35.6424 34.1303 35.6403 34.1415C35.5891 34.4074 35.5334 34.6787 35.4745 34.9533C35.4713 34.9681 35.468 34.983 35.4646 34.9977C35.3656 35.427 35.2846 35.834 35.2206 36.218C35.2194 36.2252 35.2183 36.2327 35.2171 36.2398L35.1197 36.7978C35.1176 36.8097 35.1156 36.8218 35.1134 36.8337C35.0887 36.9652 35.0595 37.1038 35.0294 37.2344L35.0302 37.2351L33.8586 42.7586C33.6393 43.8185 33.4212 44.8713 33.2019 45.9312L33.0644 46.707C33.0637 46.7107 33.0636 46.7146 33.063 46.7183C32.9123 47.5503 32.7506 48.3827 32.5784 49.2152C32.3632 50.2552 31.5948 51.0931 30.5774 51.3975C29.5599 51.7019 28.4576 51.4234 27.7066 50.6724L22.5993 45.5651C22.1649 45.1306 21.8802 44.5691 21.7868 43.9619C21.6752 43.2371 21.5635 42.5119 21.4517 41.7866C21.34 41.0615 21.2283 40.336 21.1167 39.6106C21.113 39.5867 21.1092 39.5627 21.1061 39.5387L20.5482 35.1875L20.5489 35.1868C20.4931 34.7745 20.4521 34.1603 20.417 33.458V33.4509C20.4118 33.3414 20.4053 33.2313 20.3994 33.1208ZM180.471 62.235C180.473 62.2355 180.475 62.236 180.477 62.2364H180.475C180.474 62.2361 180.472 62.2354 180.471 62.235ZM66.5121 37.0517C65.3968 37.0518 64.4113 37.3491 63.5561 37.9439L63.2408 38.1605C62.521 38.6811 61.9007 39.3159 61.3801 40.0642L61.1636 40.3752C60.6756 41.1113 60.3017 41.919 60.0414 42.7973L59.9363 43.1578C59.7086 43.9915 59.5949 44.7829 59.5949 45.5312L59.6041 45.8324C59.6488 46.5239 59.8507 47.1301 60.2086 47.6508C60.3585 47.8507 60.5215 48.0388 60.6966 48.2136L65.8033 53.3203C66.1494 53.6657 66.5452 53.9621 66.9897 54.209C67.6589 54.5436 68.4027 54.8039 69.2206 54.9898C69.9366 55.12 70.6531 55.1936 71.3691 55.2099L71.6759 55.2134C71.8061 55.2134 71.9341 55.2098 72.0596 55.2028C72.8753 55.1573 73.5929 54.9644 74.2123 54.6244L74.3534 54.5433C75.1341 54.0971 75.7852 53.5395 76.3057 52.8703C76.7612 52.2521 77.1035 51.5766 77.3313 50.8445L77.4216 50.5271C77.6494 49.7787 77.7775 49.0582 77.806 48.3667L77.8123 48.0726C77.8123 47.366 77.6448 46.6589 77.3101 45.9523C77.0126 45.2458 76.5849 44.6135 76.0271 44.0557L70.9198 38.9483C70.3621 38.3907 69.6924 37.9443 68.9117 37.6096C68.261 37.2843 67.567 37.1009 66.831 37.0601L66.5121 37.0517ZM166.64 51.7361L166.665 51.8264L166.697 51.9145C166.782 52.1521 166.893 52.4297 167.039 52.7123L166.371 52.0443C166.43 51.7958 166.48 51.546 166.52 51.2945C166.56 51.447 166.599 51.5943 166.64 51.7361ZM175.919 31.2242C176.7 31.2242 177.538 31.2427 178.43 31.2799L179.113 31.2834C179.559 31.2881 179.987 31.2977 180.396 31.3117L180.996 31.3356H182.285L182.262 31.445C182.234 31.5748 182.211 31.6775 182.192 31.7518C181.783 33.6854 181.43 35.6195 181.133 37.5532C180.873 39.4498 180.63 41.3657 180.407 43.2996C180.37 43.5227 180.314 43.932 180.24 44.5268C180.166 45.0846 180.073 45.6985 179.961 46.3678C179.887 46.9998 179.794 47.6138 179.682 48.2087C179.608 48.7661 179.533 49.1384 179.459 49.3245C179.348 49.9195 179.05 50.3657 178.566 50.6633C178.306 50.812 178.027 50.9054 177.73 50.9426L177.507 50.9461C177.284 50.9531 177.06 50.9704 176.837 50.9983C176.576 51.0355 176.111 51.1097 175.442 51.2212C174.916 51.2831 174.351 51.3598 173.747 51.4476C173.745 51.4383 173.745 51.4287 173.744 51.4194C173.632 50.4525 173.539 49.5223 173.464 48.6298C173.427 47.7002 173.39 46.8632 173.353 46.1195C173.316 45.3761 173.279 44.8368 173.242 44.5021C173.242 44.3905 173.232 44.2134 173.213 43.9717L173.13 43.0513C173.093 42.2703 173.037 41.452 172.962 40.5967C172.888 39.7414 172.814 38.9416 172.739 38.1979C172.702 37.4169 172.665 36.8959 172.628 36.6355C172.628 36.4496 172.591 36.152 172.516 35.7433C172.442 35.297 172.367 34.8316 172.293 34.3481C172.256 33.8648 172.237 33.4184 172.237 33.0094C172.237 32.5636 172.274 32.2474 172.349 32.0614C172.46 31.7268 172.703 31.5036 173.074 31.3921C173.26 31.3178 173.465 31.2799 173.688 31.2799C173.855 31.2521 174.022 31.2347 174.19 31.2277L174.357 31.2242H175.919ZM175.361 35.2368C175.426 35.5965 175.493 36.0218 175.511 36.4253C175.556 36.8233 175.591 37.3689 175.621 37.9855C175.695 38.7224 175.768 39.5096 175.841 40.3463C175.916 41.2064 175.973 42.0368 176.012 42.8361L176.091 43.7115L176.094 43.7503C176.108 43.9273 176.118 44.1182 176.124 44.2976C176.167 44.7181 176.204 45.2903 176.239 45.9749C176.271 46.6319 176.303 47.3583 176.336 48.1523C176.369 48.1474 176.399 48.1423 176.428 48.1382L176.478 48.1318C176.578 48.1193 176.679 48.1081 176.779 48.0987C176.791 48.0216 176.804 47.9315 176.818 47.8271L176.842 47.6762C176.941 47.1479 177.025 46.5987 177.092 46.0299C177.097 45.9841 177.104 45.9385 177.112 45.8931C177.219 45.2499 177.307 44.6671 177.376 44.1452C177.44 43.6392 177.496 43.2265 177.541 42.9398C177.765 40.9949 178.009 39.068 178.271 37.1603C178.273 37.1448 178.275 37.1292 178.278 37.1137C178.429 36.1327 178.593 35.1514 178.771 34.1704L178.415 34.169C178.38 34.1688 178.345 34.1676 178.31 34.1661C177.452 34.1304 176.655 34.1132 175.919 34.1132H175.181C175.242 34.5001 175.301 34.875 175.361 35.2368ZM29.6752 19.5022C29.7145 19.5022 29.7538 19.5027 29.793 19.5043L29.8622 19.5071L29.8819 19.5085C31.3388 19.5779 32.795 19.613 34.2508 19.6136C35.9179 19.5769 37.5702 19.5966 39.2072 19.6722C39.6693 19.6769 40.2789 19.6986 40.9832 19.7321C41.8463 19.7732 42.7407 19.8338 43.6642 19.9141C44.6218 19.9974 45.5416 20.1034 46.4192 20.235C47.0755 20.3335 47.9152 20.485 48.7461 20.7598L49.1016 20.8854L49.1785 20.9157L49.4515 21.0278L49.5192 21.0568L49.5432 21.0673L49.5784 21.0836L49.6031 21.0948C49.61 21.098 49.6174 21.1008 49.6243 21.104C49.9486 21.2554 50.2776 21.4397 50.6047 21.6563C50.6203 21.6547 50.6362 21.6522 50.652 21.6507L50.659 21.6499L50.6654 21.6492C52.2874 21.491 54.182 21.3569 56.3348 21.243C58.5335 21.0917 60.8919 20.9593 63.4087 20.8466C65.9229 20.734 68.3464 20.6404 70.6779 20.5651C73.0014 20.4902 75.1082 20.4336 76.9963 20.3959C78.8623 20.3585 80.2868 20.3387 81.2403 20.3387C81.8595 20.3387 82.4968 20.3609 83.1475 20.3994C83.8635 20.4078 84.5792 20.455 85.2889 20.551C85.3096 20.5533 85.3309 20.5539 85.3517 20.5567C86.211 20.6713 87.119 20.8643 88.0129 21.1894C88.1828 21.2511 88.3731 21.3274 88.5786 21.4186C89.2091 21.2214 89.8528 21.1103 90.4943 21.0779C90.9719 21.0347 91.4602 21.0081 91.9543 21.0081V23.8972C91.5425 23.8972 91.1229 23.9199 90.6974 23.9599C89.9018 23.991 89.1178 24.2092 88.4037 24.6448C87.9249 24.2756 87.4216 24.0482 87.0255 23.9042C86.3733 23.6671 85.6771 23.5147 84.9694 23.4203L84.9687 23.4218C84.3389 23.3332 83.6887 23.2898 83.022 23.2856C82.4015 23.2481 81.8069 23.2278 81.2403 23.2278C80.3173 23.2278 78.9168 23.247 77.0541 23.2842C75.1805 23.3217 73.0857 23.3781 70.771 23.4528C68.4522 23.5276 66.0406 23.6207 63.5377 23.7328C61.0319 23.845 58.6889 23.9762 56.5098 24.1264C54.3755 24.2391 52.5185 24.3715 50.9461 24.5249L50.939 24.5256C50.5025 24.5693 50.0996 24.6146 49.7336 24.661C49.329 24.2436 48.8648 23.9383 48.4019 23.7222L48.3772 23.7109L48.3533 23.7004L48.0803 23.5882C47.4292 23.3422 46.6817 23.1961 45.9904 23.0924C45.18 22.9708 44.3204 22.8714 43.4138 22.7926C42.5245 22.7153 41.6677 22.6568 40.8457 22.6177C40.1119 22.5827 39.5225 22.5624 39.1141 22.5598C37.5157 22.4851 35.9009 22.4658 34.2698 22.5027C32.7614 22.5023 31.2529 22.4659 29.7444 22.3941L29.6752 22.3913H29.6068V19.5022H29.6752ZM163.563 19.7251V22.6141H163.486L163.41 22.6184C159.933 22.8033 156.494 22.9511 153.092 23.062C149.702 23.1726 146.275 23.2464 142.81 23.2835C142.656 23.2835 142.35 23.2716 141.844 23.2355C141.305 23.197 140.694 23.1584 140.014 23.1206C139.339 23.0831 138.626 23.0459 137.877 23.0084C137.088 22.969 136.315 22.9492 135.558 22.9492C134.456 22.9492 133.417 23.0101 132.45 23.141C131.658 23.2244 130.582 23.436 129.664 24.0975C129.314 23.8377 128.917 23.6348 128.482 23.4958C127.749 23.2248 126.995 23.1164 126.264 23.1163C125.796 23.1163 125.327 23.1395 124.86 23.1862L124.845 23.1883L124.829 23.1897C124.586 23.2166 124.378 23.2278 124.2 23.2278V20.3387C124.258 20.3387 124.36 20.3349 124.51 20.3183L124.548 20.3147C124.556 20.3138 124.565 20.3121 124.573 20.3112C125.137 20.2549 125.701 20.2273 126.264 20.2273C127.277 20.2273 128.376 20.3775 129.478 20.7845C129.539 20.805 129.6 20.8252 129.66 20.8473C130.583 20.4894 131.447 20.3477 132.062 20.2788C133.181 20.1272 134.352 20.0601 135.558 20.0601C136.365 20.0601 137.187 20.0811 138.022 20.1229C138.774 20.1605 139.492 20.1979 140.174 20.2357C140.867 20.2743 141.494 20.3138 142.05 20.3535L142.595 20.3874C142.704 20.3926 142.77 20.3941 142.801 20.3945C146.238 20.3575 149.637 20.284 152.998 20.1744C156.377 20.0642 159.795 19.918 163.25 19.7343L163.326 19.7293L163.486 19.7251H163.563ZM92.0016 21.0081C92.0453 21.0081 92.0891 21.0089 92.1328 21.0109L92.1575 21.0123C95.5106 21.1215 98.8833 21.176 102.275 21.176V24.065C98.8472 24.065 95.438 24.0098 92.0481 23.8993L92.0016 23.8972H91.9543V21.0081H92.0016ZM124.2 20.3387V23.2278H124.089L123.978 23.2363C123.031 23.3091 122.067 23.3828 121.084 23.4556C120.079 23.4935 119.09 23.5494 118.117 23.6235C115.469 23.7705 112.821 23.8807 110.172 23.9543H110.171C107.558 24.0279 104.926 24.065 102.275 24.065V21.176C104.899 21.176 107.504 21.1395 110.09 21.0666H110.094C112.715 20.9938 115.336 20.8842 117.957 20.7387C118.926 20.6656 119.909 20.6106 120.905 20.5722C121.872 20.5005 122.822 20.4276 123.757 20.3557H123.758L123.869 20.3472C123.942 20.3416 124.015 20.3387 124.089 20.3387H124.2ZM163.563 19.7251C164.341 19.7251 165.081 19.8227 165.765 19.9748C166.29 20.0916 166.812 20.267 167.32 20.5024C167.561 20.4617 167.8 20.4337 168.035 20.417C168.428 20.3678 168.834 20.3387 169.25 20.3387V23.2278C168.937 23.2278 168.625 23.2507 168.316 23.2927C167.884 23.3165 167.44 23.3996 167.001 23.5621C166.968 23.5732 166.935 23.5841 166.902 23.596C166.366 23.1957 165.763 22.9335 165.138 22.7947C164.628 22.6814 164.1 22.6141 163.563 22.6141V19.7251ZM177.451 20.4502C177.822 20.4502 178.223 20.4782 178.568 20.5066H181.133V23.3957H178.461C178.094 23.364 177.74 23.3392 177.451 23.3392V20.4502ZM170.812 20.3387C171.649 20.3387 172.528 20.359 173.444 20.3959C174.343 20.3973 175.196 20.4146 176.001 20.4502H177.451V23.3392H175.94C175.145 23.3029 174.289 23.2849 173.374 23.2842C172.472 23.2475 171.618 23.2278 170.812 23.2278V20.3387ZM170.812 20.3387V23.2278H169.25V20.3387H170.812ZM55.82 39.0901C55.82 41.3873 55.8749 43.6849 55.9843 45.9819C56.0981 48.371 56.155 50.7789 56.155 53.2046C56.155 53.2093 56.155 53.214 56.155 53.2187L56.1444 55.3629C56.1444 55.3676 56.1445 55.3724 56.1444 55.377C56.1233 57.5412 56.0694 59.6954 55.985 61.8386L55.9857 61.8393L55.9131 63.9624C55.9089 64.1046 55.9057 64.2468 55.9018 64.3891C57.9919 64.3743 60.0722 64.3413 62.1426 64.2882C62.155 64.2879 62.1676 64.2877 62.18 64.2875L70.9946 64.1761H73.7651C73.7994 64.1761 73.8338 64.177 73.8681 64.1782C74.8749 64.2142 75.8821 64.2318 76.8891 64.2318C76.9222 64.2318 76.9554 64.2321 76.9885 64.2332C78.0047 64.2683 78.9572 64.2681 79.8465 64.2339H79.8508C80.7462 64.2008 81.4895 64.1194 82.0951 64.004L82.1403 63.9962C82.3311 63.9631 82.455 63.9238 82.5282 63.8975C82.5636 63.82 82.6126 63.6925 82.6658 63.5004C82.8456 62.605 82.9961 61.4148 83.0995 59.8996C83.2079 58.2738 83.2812 56.5696 83.3175 54.7888C83.3179 54.7693 83.3188 54.7497 83.3196 54.7302C83.3743 53.3915 83.4076 52.0845 83.4212 50.8107L83.4282 49.5481L83.4318 48.2701C83.4388 47.0385 83.4566 45.9466 83.4854 44.9973L83.4861 44.974C83.5598 43.0565 83.6352 41.09 83.709 39.1719C83.7735 37.494 83.8674 35.816 83.9869 34.1386C83.4741 34.1469 82.9044 34.1557 82.2771 34.1683C80.4334 34.2051 78.3642 34.2607 76.0688 34.3347L74.3223 34.3947L74.3216 34.394C72.6559 34.4532 70.9428 34.5226 69.1825 34.6006C69.4959 34.7074 69.8037 34.8329 70.1051 34.9787C71.1752 35.4449 72.1396 36.0828 72.9624 36.9057L78.0698 42.013C78.8541 42.7974 79.4772 43.7022 79.9213 44.7159L80.0123 44.9134C80.4538 45.908 80.7014 46.9681 80.7014 48.0726C80.7014 48.0933 80.7011 48.1139 80.7007 48.1346L80.6944 48.4288C80.6939 48.4475 80.6937 48.4665 80.6929 48.4852C80.6539 49.4339 80.4809 50.3805 80.1999 51.3171L80.1103 51.6352C80.1039 51.6579 80.0969 51.6804 80.0899 51.7029C79.766 52.7437 79.2773 53.7083 78.6319 54.5842C78.6171 54.6044 78.6015 54.6244 78.5861 54.6442C77.8212 55.6275 76.8778 56.4263 75.793 57.0473L75.6526 57.1291C75.6361 57.1386 75.6192 57.1481 75.6025 57.1573C74.5502 57.735 73.4 58.0218 72.2204 58.0876C72.0405 58.0977 71.8587 58.1024 71.6759 58.1024C71.6649 58.1024 71.6538 58.1026 71.6428 58.1024L71.3359 58.0989C71.3252 58.0988 71.3143 58.0985 71.3035 58.0982C70.4328 58.0784 69.5652 57.9889 68.7036 57.8323C68.6624 57.8248 68.6211 57.8162 68.5802 57.8069C67.5636 57.5758 66.5977 57.243 65.6982 56.7933C65.6608 56.7746 65.6233 56.7551 65.5867 56.7348C64.9182 56.3634 64.3059 55.9071 63.7627 55.365L58.654 50.2563C58.3804 49.983 58.1274 49.6914 57.8972 49.3845C57.8733 49.3527 57.8506 49.3199 57.828 49.2872C57.1481 48.2978 56.7964 47.18 56.7214 46.0186C56.7193 45.986 56.7174 45.9533 56.7164 45.9206L56.7073 45.6194C56.7064 45.5901 56.7059 45.5605 56.7059 45.5312C56.7059 44.4904 56.8641 43.4417 57.1495 42.3967L57.1629 42.3488L57.268 41.9883L57.2715 41.9763C57.61 40.8343 58.1028 39.7637 58.7556 38.779L58.7929 38.7247L59.0095 38.4137C59.7105 37.4063 60.5577 36.5356 61.548 35.8195L61.6051 35.7793L61.9063 35.5719C62.2606 35.3255 62.6281 35.1126 63.0066 34.9321C62.667 34.9541 62.3315 34.9763 62.0001 34.9991C61.9882 35 61.976 35.0006 61.9641 35.0013L60.4434 35.0866L60.4441 35.0873C58.9927 35.1763 57.7184 35.2749 56.6184 35.3821C56.3582 35.4082 56.1211 35.4355 55.906 35.4604C55.8934 35.6343 55.8822 35.8163 55.8721 36.0064C55.8373 36.6679 55.82 37.2867 55.82 37.8628V39.0901ZM127.881 36.0473C127.881 36.4189 127.844 36.6793 127.77 36.8281C127.547 37.3487 127.193 37.6837 126.71 37.8325C126.338 37.9812 125.687 38.0739 124.757 38.1111C123.865 38.1483 122.898 38.1668 121.856 38.1668C120.815 38.1296 119.829 38.1111 118.9 38.1111C118.007 38.0739 117.356 38.0554 116.947 38.0554C116.761 39.4686 116.631 40.9197 116.556 42.4073C116.519 43.8576 116.464 45.3082 116.389 46.7585L116.382 47.09C116.368 47.4735 116.334 48.014 116.278 48.7109C116.241 49.6034 116.166 50.6264 116.054 51.7791C115.98 52.932 115.906 54.1601 115.831 55.4617L115.772 56.4026C115.709 57.337 115.636 58.251 115.553 59.1435C115.478 60.2963 115.404 61.3193 115.329 62.2117L115.273 62.8324C115.218 63.4039 115.162 63.8295 115.106 64.1084C114.958 65.3356 114.53 66.0982 113.823 66.3958C113.117 66.7305 112.224 66.9165 111.145 66.9537C110.699 67.0281 109.843 67.1022 108.579 67.1766L106.599 67.288C105.911 67.3252 105.195 67.363 104.451 67.4002C103 67.5118 101.606 67.5859 100.267 67.6231C100.22 67.6257 100.173 67.6276 100.126 67.6301C100.151 67.454 100.174 67.2757 100.2 67.0962L100.465 65.2546C100.651 63.9902 100.818 62.7997 100.966 61.6841C101.059 61.1263 101.139 60.6567 101.204 60.2756L101.357 59.3974C101.72 57.4449 102.093 55.5023 102.477 53.5707L102.864 51.643C103.422 49.0769 103.923 46.4917 104.37 43.8885L99.2623 38.7812C98.8161 38.9671 98.2393 39.2088 97.5329 39.5063C96.8263 39.7665 96.0635 40.0268 95.2454 40.2871C94.6521 40.4848 94.0476 40.6612 93.4327 40.8161C93.4336 40.7987 93.4347 40.7812 93.4355 40.7639C93.4727 39.9831 93.5098 39.2393 93.547 38.5329C93.6214 37.8263 93.6584 37.3423 93.6584 37.082C93.6956 36.7473 93.7327 36.3381 93.7699 35.8547C93.8071 35.3714 93.8634 34.8879 93.9378 34.4046C94.0493 33.9211 94.1791 33.4742 94.3278 33.0651C94.5136 32.6564 94.737 32.3774 94.9972 32.2286C95.2946 32.0427 95.6298 31.9493 96.0016 31.9493C96.3734 31.9121 96.727 31.8936 97.0617 31.8936C99.6277 31.9772 102.204 32.0299 104.791 32.0508L107.382 32.0614C109.39 32.0614 111.389 32.0406 113.376 31.9986L115.36 31.9493C115.862 31.9353 116.364 31.92 116.866 31.9034C118.372 31.8538 119.879 31.7926 121.385 31.7193L123.393 31.6149C124.36 31.5406 125.346 31.485 126.35 31.4478C126.974 31.4015 127.592 31.3538 128.202 31.3074C128.188 31.4191 128.175 31.5301 128.161 31.6403C128.124 32.1975 128.086 32.588 128.049 32.8112V33.6484C128.049 34.0202 128.03 34.411 127.993 34.82L127.881 36.0473Z" fill="#F9F3EB"/>
<path d="M33.6235 67.1771C33.3631 67.1771 32.8983 67.1585 32.2288 67.1213C31.5965 67.1213 30.8527 67.1027 29.9973 67.0655C29.1791 67.0655 28.3051 67.0469 27.3753 67.0097C26.4455 67.0097 25.5529 66.9911 24.6975 66.9539C23.8792 66.9539 23.1354 66.9353 22.466 66.8982C21.8337 66.8982 21.3874 66.8982 21.127 66.8982C20.5692 66.861 20.0113 66.8238 19.4534 66.7866C18.8955 66.7494 18.3563 66.6192 17.8356 66.3961C17.538 66.2101 17.2591 65.9684 16.9988 65.6708C16.7756 65.3733 16.5897 65.0572 16.4409 64.7224C16.3293 64.4249 16.1248 63.867 15.8272 63.0488C15.5297 62.1934 15.2136 61.2822 14.8788 60.3152C14.5813 59.3482 14.2838 58.437 13.9862 57.5816C13.7259 56.7262 13.5585 56.1497 13.4841 55.8522C12.7775 53.6207 12.0894 51.3892 11.42 49.1577C10.7877 46.889 10.1741 44.6017 9.579 42.2958C9.39304 41.5891 9.1327 40.7337 8.79797 39.7295C8.50044 38.7254 8.18431 37.6654 7.84958 36.5496C7.51486 35.3967 7.18013 34.2438 6.8454 33.0908C6.54787 31.9379 6.30612 30.8965 6.12016 29.9667C5.9342 29.0369 5.82263 28.2745 5.78544 27.6794C5.74825 27.0471 5.85982 26.6938 6.12016 26.6194C6.52927 26.4335 7.3289 26.2475 8.51903 26.0616C9.74636 25.8384 11.0481 25.6339 12.4242 25.4479C13.8375 25.2619 15.1578 25.1132 16.3851 25.0016C17.6496 24.8528 18.505 24.7784 18.9513 24.7784C19.8439 24.7784 20.6436 24.9086 21.3502 25.169C22.0568 25.4293 22.5403 26.043 22.8007 27.01C22.8751 27.2703 22.9309 27.7724 22.968 28.5162C23.0424 29.2601 23.0982 30.0597 23.1354 30.9151C23.2098 31.7333 23.2656 32.5329 23.3028 33.314C23.34 34.0578 23.3772 34.5599 23.4143 34.8202C23.6003 36.2707 23.7863 37.7212 23.9722 39.1717C24.1954 40.6221 24.4185 42.0726 24.6417 43.5231C24.8648 42.4445 25.0694 41.366 25.2553 40.2874C25.4785 39.2089 25.7016 38.1303 25.9248 37.0517L27.0963 31.5288C27.1335 31.38 27.1893 31.0825 27.2637 30.6362C27.3381 30.1898 27.4311 29.725 27.5426 29.2415C27.6542 28.7208 27.7472 28.2373 27.8216 27.791C27.9331 27.3447 28.0075 27.0471 28.0447 26.8984C28.1563 26.4521 28.3051 26.0802 28.491 25.7826C28.7142 25.4479 29.0861 25.2805 29.6068 25.2805C31.1688 25.3549 32.7309 25.3921 34.2929 25.3921C35.8922 25.3549 37.4728 25.3735 39.0349 25.4479C39.3696 25.4479 39.9275 25.4665 40.7085 25.5037C41.4896 25.5409 42.3078 25.5967 43.1632 25.671C44.0186 25.7454 44.8182 25.8384 45.5621 25.95C46.3059 26.0616 46.8452 26.1917 47.1799 26.3405C47.7378 26.6008 48.0167 27.0285 48.0167 27.6236C48.0167 27.7352 47.9795 27.9397 47.9051 28.2373C47.8308 28.5348 47.7378 28.8509 47.6262 29.1857C47.5518 29.5204 47.4774 29.8551 47.4031 30.1898C47.3287 30.4874 47.2729 30.6919 47.2357 30.8035C45.8596 35.6756 44.3905 40.4734 42.8285 45.1967C41.2664 49.9201 39.6672 54.6806 38.0307 59.4784C37.9563 59.7015 37.8076 60.1292 37.5844 60.7615C37.3985 61.3566 37.1939 62.0074 36.9708 62.7141C36.7476 63.3835 36.5245 64.0344 36.3013 64.6666C36.1153 65.2617 35.9852 65.6708 35.9108 65.894C35.7248 66.3775 35.4087 66.7308 34.9624 66.9539C34.7764 67.0655 34.5533 67.1213 34.2929 67.1213C34.0698 67.1585 33.8466 67.1771 33.6235 67.1771Z" fill="#F9F3EB"/>
<path d="M87.2655 28.6836C87.2655 29.4646 87.2283 30.2642 87.154 31.0825C87.0796 31.9007 87.0052 32.7003 86.9308 33.4813C86.782 35.4153 86.6705 37.3493 86.5961 39.2832C86.5217 41.2172 86.4473 43.1512 86.3729 45.0852C86.3357 46.3125 86.3171 47.8002 86.3171 49.5482C86.3171 51.259 86.28 53.0256 86.2056 54.848C86.1684 56.6704 86.094 58.4184 85.9824 60.0921C85.8708 61.7285 85.7035 63.086 85.4803 64.1646C85.2572 65.02 84.941 65.6336 84.5319 66.0055C84.1228 66.4147 83.4906 66.6936 82.6352 66.8424C81.8541 66.9911 80.9615 67.0841 79.9573 67.1213C78.9904 67.1585 77.9676 67.1585 76.889 67.1213C75.8476 67.1213 74.8063 67.1027 73.7649 67.0655C72.7607 67.0655 71.8495 67.0655 71.0313 67.0655C68.0932 67.1027 65.155 67.1399 62.2169 67.1771C59.3159 67.2515 56.3963 67.2887 53.4582 67.2887C52.9747 67.2887 52.4168 67.3073 51.7846 67.3445C51.1523 67.3816 50.5386 67.3445 49.9436 67.2329C49.3485 67.1585 48.8464 66.9725 48.4373 66.675C48.0282 66.3775 47.8236 65.8754 47.8236 65.1687C47.8236 62.305 47.8794 59.4598 47.991 56.6332C48.1026 53.8066 48.1584 50.9615 48.1584 48.0977C48.1584 45.7174 48.1026 43.3557 47.991 41.0127C47.8794 38.6696 47.8236 36.3265 47.8236 33.9834C47.8236 33.7975 47.8236 33.3883 47.8236 32.7561C47.8236 32.1238 47.8422 31.4544 47.8794 30.7477C47.9166 30.0411 47.9724 29.4088 48.0468 28.8509C48.1584 28.2559 48.2885 27.9211 48.4373 27.8468C48.8092 27.698 49.739 27.5492 51.2267 27.4005C52.7516 27.2517 54.5739 27.1215 56.6939 27.01C58.851 26.8612 61.1755 26.731 63.6673 26.6194C66.1592 26.5079 68.5581 26.4149 70.864 26.3405C73.1698 26.2661 75.2526 26.2103 77.1122 26.1731C78.9718 26.1359 80.3479 26.1173 81.2405 26.1173C81.7612 26.1173 82.319 26.1359 82.9141 26.1731C83.5092 26.1731 84.067 26.2103 84.5877 26.2847C85.1456 26.3591 85.6291 26.4707 86.0382 26.6194C86.4473 26.7682 86.7262 26.9542 86.875 27.1773C87.061 27.4005 87.1726 27.6422 87.2097 27.9026C87.2469 28.1257 87.2655 28.386 87.2655 28.6836ZM59.5948 45.5315C59.5948 46.3497 59.7994 47.0563 60.2085 47.6514C60.6548 48.2465 61.2127 48.73 61.8821 49.1019C62.5516 49.4366 63.2954 49.6969 64.1136 49.8829C64.9319 50.0317 65.7501 50.1061 66.5683 50.1061C67.6097 50.1061 68.5023 49.8829 69.2461 49.4366C70.0271 48.9903 70.678 48.4324 71.1987 47.763C71.7194 47.0563 72.0913 46.2753 72.3144 45.4199C72.5748 44.5645 72.7049 43.7463 72.7049 42.9652C72.7049 42.2586 72.5376 41.5519 72.2028 40.8453C71.9053 40.1387 71.4776 39.5064 70.9197 38.9485C70.3619 38.3906 69.6924 37.9443 68.9114 37.6096C68.1675 37.2377 67.3679 37.0517 66.5125 37.0517C65.3968 37.0517 64.4112 37.3493 63.5558 37.9443C62.7003 38.5022 61.9751 39.2089 61.38 40.0643C60.785 40.8825 60.3387 41.7937 60.0411 42.7979C59.7436 43.7649 59.5948 44.6761 59.5948 45.5315Z" fill="#F9F3EB"/>
<path d="M111.145 66.9539C110.699 67.0283 109.844 67.1027 108.579 67.1771C107.315 67.2515 105.938 67.3259 104.451 67.4002C103 67.5118 101.606 67.5862 100.267 67.6234C98.9278 67.6978 97.9422 67.735 97.3099 67.735H97.031C96.7335 67.735 96.4545 67.7164 96.1942 67.6792C95.9338 67.642 95.6921 67.5676 95.4689 67.456C94.8739 67.1585 94.5949 66.675 94.6321 66.0055C94.6321 65.5964 94.7065 64.834 94.8553 63.7183C95.004 62.6025 95.1714 61.4124 95.3574 60.1478C95.5433 58.8833 95.7107 57.6932 95.8594 56.5774C96.0454 55.4617 96.1756 54.6992 96.25 54.2901C96.7334 51.6867 97.2355 49.1019 97.7562 46.5356C98.3141 43.9694 98.8162 41.3846 99.2625 38.7812C98.8162 38.9671 98.2397 39.2089 97.5331 39.5064C96.8264 39.7667 96.064 40.0271 95.2458 40.2874C94.4648 40.5478 93.6651 40.7709 92.8469 40.9569C92.0659 41.1428 91.3406 41.2358 90.6712 41.2358C90.0017 41.2358 89.4439 41.1056 88.9976 40.8453C88.5885 40.5478 88.3281 40.0271 88.2165 39.2832C88.1793 39.0229 88.1793 38.558 88.2165 37.8885C88.2537 37.1819 88.2909 36.4381 88.3281 35.657C88.3653 34.876 88.4025 34.1322 88.4397 33.4255C88.5141 32.7189 88.5513 32.2354 88.5513 31.9751C88.5885 31.6403 88.6256 31.2312 88.6628 30.7477C88.7 30.2642 88.7558 29.7807 88.8302 29.2972C88.9418 28.8138 89.0719 28.3675 89.2207 27.9583C89.4067 27.5492 89.6298 27.2703 89.8902 27.1215C90.1877 26.9356 90.5224 26.8426 90.8943 26.8426C91.2663 26.8054 91.6196 26.7868 91.9543 26.7868C95.376 26.8984 98.8162 26.9542 102.275 26.9542C104.953 26.9542 107.612 26.917 110.253 26.8426C112.93 26.7682 115.608 26.6566 118.286 26.5079C119.253 26.4335 120.239 26.3777 121.243 26.3405C122.247 26.2661 123.233 26.1917 124.2 26.1173C124.497 26.1173 124.813 26.0988 125.148 26.0616C125.52 26.0244 125.892 26.0058 126.264 26.0058C126.747 26.0058 127.175 26.0802 127.547 26.2289C127.956 26.3405 128.216 26.6008 128.328 27.01C128.402 27.2331 128.421 27.6236 128.384 28.1815C128.384 28.7022 128.365 29.2786 128.328 29.9109C128.291 30.506 128.235 31.0825 128.161 31.6403C128.123 32.1982 128.086 32.5887 128.049 32.8119C128.049 32.9606 128.049 33.2396 128.049 33.6487C128.049 34.0206 128.03 34.4111 127.993 34.8202C127.956 35.2293 127.919 35.6384 127.882 36.0476C127.882 36.4195 127.844 36.6798 127.77 36.8286C127.547 37.3493 127.194 37.684 126.71 37.8328C126.338 37.9815 125.687 38.0745 124.757 38.1117C123.865 38.1489 122.898 38.1675 121.856 38.1675C120.815 38.1303 119.83 38.1117 118.9 38.1117C118.007 38.0745 117.356 38.0559 116.947 38.0559C116.761 39.4692 116.631 40.9197 116.557 42.4074C116.519 43.8578 116.464 45.3083 116.389 46.7588C116.389 47.1307 116.352 47.7816 116.278 48.7114C116.241 49.604 116.166 50.6267 116.055 51.7797C115.98 52.9326 115.906 54.16 115.831 55.4617C115.757 56.7262 115.664 57.9535 115.552 59.1437C115.478 60.2966 115.404 61.3194 115.329 62.212C115.255 63.1046 115.181 63.7368 115.106 64.1088C114.957 65.3361 114.53 66.0985 113.823 66.3961C113.116 66.7308 112.224 66.9167 111.145 66.9539Z" fill="#F9F3EB"/>
<path d="M156.032 67.7908C154.135 67.9023 152.22 67.9953 150.286 68.0697C148.389 68.1441 146.492 68.1255 144.595 68.0139C143.851 67.9395 143.07 67.9023 142.252 67.9023C141.471 67.9023 140.671 67.9023 139.853 67.9023C137.845 67.9023 135.818 67.9023 133.772 67.9023C131.764 67.9023 129.867 67.7722 128.082 67.5118C127.896 67.4746 127.71 67.4188 127.524 67.3445C127.338 67.2701 127.189 67.1399 127.078 66.9539C126.966 66.8052 126.892 66.6192 126.855 66.3961C126.818 66.2101 126.799 66.0055 126.799 65.7824C126.799 65.2989 126.855 64.3877 126.966 63.0488C127.078 61.7099 127.189 60.278 127.301 58.7531C127.45 57.1911 127.599 55.7406 127.747 54.4017C127.896 53.0256 128.008 52.0958 128.082 51.6123C128.231 50.3106 128.38 48.8229 128.528 47.1493C128.677 45.4757 128.826 43.7463 128.975 41.9611C129.161 40.1387 129.347 38.3534 129.533 36.6054C129.719 34.8574 129.904 33.2768 130.09 31.8635C130.276 30.4502 130.462 29.2601 130.648 28.2931C130.834 27.3261 131.02 26.7496 131.206 26.5636C131.504 26.2661 132.043 26.0802 132.824 26.0058C133.642 25.8942 134.553 25.8384 135.558 25.8384C136.264 25.8384 136.99 25.857 137.733 25.8942C138.477 25.9314 139.184 25.9686 139.853 26.0058C140.523 26.043 141.118 26.0802 141.638 26.1173C142.159 26.1545 142.55 26.1731 142.81 26.1731C146.306 26.1359 149.765 26.0616 153.187 25.95C156.608 25.8384 160.067 25.6896 163.563 25.5037C163.861 25.5037 164.177 25.5409 164.511 25.6153C164.846 25.6896 165.125 25.8384 165.348 26.0616C165.683 26.4335 165.85 26.8984 165.85 27.4563C165.85 27.9769 165.813 28.4976 165.739 29.0183C165.59 29.8737 165.423 30.7291 165.237 31.5845C165.051 32.4028 164.883 33.2396 164.735 34.095C164.66 34.6157 164.586 35.1364 164.511 35.657C164.474 36.1405 164.363 36.624 164.177 37.1075C163.879 37.7026 163.433 38.1489 162.838 38.4464C162.317 38.6324 161.778 38.744 161.22 38.7812C160.662 38.7812 160.123 38.744 159.602 38.6696C159.267 38.6324 158.71 38.5952 157.928 38.558C157.185 38.4836 156.329 38.4092 155.362 38.3349C154.395 38.2605 153.372 38.1861 152.294 38.1117C151.253 38.0373 150.248 37.9815 149.281 37.9443C148.314 37.87 147.459 37.8142 146.715 37.777C145.971 37.7398 145.432 37.7398 145.097 37.777C144.911 37.777 144.744 37.8142 144.595 37.8885C144.446 37.9257 144.353 38.0187 144.316 38.1675C144.316 38.2791 144.298 38.465 144.261 38.7254C144.223 38.9857 144.186 39.2646 144.149 39.5622C144.149 39.8597 144.13 40.1387 144.093 40.399C144.093 40.6593 144.093 40.8453 144.093 40.9569C144.093 41.0313 144.149 41.0684 144.261 41.0684C144.409 41.0313 144.521 41.0127 144.595 41.0127C144.893 41.0127 145.395 41.0127 146.102 41.0127C146.808 40.9755 147.608 40.9569 148.5 40.9569C149.43 40.9569 150.397 40.9569 151.401 40.9569C152.406 40.9197 153.354 40.9011 154.246 40.9011C155.176 40.9011 155.994 40.9197 156.701 40.9569C157.408 40.9569 157.91 40.9569 158.207 40.9569C158.319 40.9941 158.449 41.0127 158.598 41.0127C158.747 41.0127 158.877 41.0499 158.988 41.1242C159.286 41.2358 159.453 41.4404 159.491 41.7379C159.565 42.0354 159.546 42.333 159.435 42.6305C159.286 43.0024 159.137 43.3743 158.988 43.7463C158.877 44.081 158.784 44.4529 158.71 44.862C158.672 44.9736 158.635 45.1781 158.598 45.4757C158.561 45.7732 158.505 46.0707 158.431 46.3683C158.356 46.6658 158.282 46.9633 158.207 47.2609C158.133 47.5212 158.059 47.7072 157.984 47.8188C157.761 48.1163 157.352 48.3023 156.757 48.3766C156.199 48.451 155.604 48.4882 154.972 48.4882C153.298 48.4882 151.624 48.4696 149.951 48.4324C148.314 48.358 146.659 48.2279 144.986 48.0419C144.911 48.0047 144.763 47.9861 144.539 47.9861C144.316 47.9489 144.168 47.9675 144.093 48.0419C144.019 48.0791 143.944 48.2651 143.87 48.5998C143.796 48.9345 143.721 49.3064 143.647 49.7155C143.572 50.0875 143.517 50.4594 143.479 50.8313C143.442 51.166 143.424 51.3892 143.424 51.5007C143.424 51.7239 143.461 51.8727 143.535 51.947C143.61 52.133 143.777 52.226 144.037 52.226C144.298 52.226 144.521 52.2446 144.707 52.2818C144.893 52.2818 145.265 52.2818 145.823 52.2818C146.38 52.2446 146.976 52.2074 147.608 52.1702C148.24 52.133 148.835 52.1144 149.393 52.1144C149.951 52.0772 150.323 52.0586 150.509 52.0586C150.843 52.0586 151.513 52.0772 152.517 52.1144C153.558 52.1144 154.656 52.133 155.809 52.1702C156.999 52.1702 158.096 52.1888 159.1 52.226C160.141 52.226 160.829 52.2446 161.164 52.2818C161.796 52.3562 162.336 52.5049 162.782 52.7281C163.266 52.914 163.619 53.3231 163.842 53.9554C164.028 54.6249 164.102 55.2943 164.065 55.9638C164.065 56.6332 163.991 57.3027 163.842 57.9721C163.73 58.6416 163.582 59.311 163.396 59.9805C163.21 60.6499 163.061 61.3194 162.949 61.9888C162.912 62.1748 162.856 62.4909 162.782 62.9372C162.745 63.3835 162.689 63.8484 162.615 64.3319C162.54 64.8154 162.447 65.2803 162.336 65.7266C162.261 66.1729 162.168 66.4704 162.057 66.6192C161.908 66.9167 161.629 67.1213 161.22 67.2329C161.034 67.3073 160.699 67.363 160.216 67.4002C159.732 67.4746 159.212 67.5304 158.654 67.5676C158.096 67.642 157.575 67.6978 157.092 67.735C156.608 67.7722 156.255 67.7908 156.032 67.7908Z" fill="#F9F3EB"/>
<path d="M176.837 50.9987C176.577 51.0358 176.112 51.1102 175.442 51.2218C174.81 51.2962 174.122 51.3892 173.378 51.5007C172.672 51.5751 171.983 51.6495 171.314 51.7239C170.682 51.7611 170.235 51.7797 169.975 51.7797C169.789 51.7425 169.603 51.4636 169.417 50.9429C169.268 50.4222 169.12 49.7713 168.971 48.9903C168.859 48.1721 168.748 47.2795 168.636 46.3125C168.525 45.3455 168.432 44.4157 168.357 43.5231C168.32 42.5933 168.283 41.7565 168.246 41.0127C168.209 40.2688 168.171 39.7295 168.134 39.3948C168.134 39.1717 168.097 38.6882 168.023 37.9443C167.985 37.1633 167.93 36.3451 167.855 35.4897C167.781 34.6343 167.706 33.8346 167.632 33.0908C167.595 32.3098 167.558 31.7891 167.52 31.5288C167.52 31.3428 167.483 31.0453 167.409 30.6362C167.335 30.1898 167.26 29.725 167.186 29.2415C167.149 28.758 167.13 28.3117 167.13 27.9026C167.13 27.4563 167.167 27.1401 167.242 26.9542C167.353 26.6194 167.595 26.3963 167.967 26.2847C168.153 26.2103 168.357 26.1731 168.58 26.1731C168.804 26.1359 169.027 26.1173 169.25 26.1173C169.51 26.1173 170.031 26.1173 170.812 26.1173C171.593 26.1173 172.43 26.1359 173.322 26.1731C174.252 26.1731 175.108 26.1917 175.889 26.2289C176.67 26.2289 177.19 26.2289 177.451 26.2289C177.637 26.2289 177.934 26.2475 178.343 26.2847C178.79 26.2847 179.254 26.2847 179.738 26.2847C180.221 26.2847 180.686 26.2847 181.133 26.2847C181.579 26.2847 181.877 26.3033 182.025 26.3405C182.323 26.4149 182.565 26.5822 182.751 26.8426C182.974 27.1029 183.067 27.4005 183.029 27.7352C183.029 27.884 182.974 28.1443 182.862 28.5162C182.788 28.8881 182.695 29.2972 182.583 29.7435C182.509 30.1898 182.434 30.599 182.36 30.9709C182.286 31.3428 182.23 31.6031 182.193 31.7519C181.784 33.6859 181.43 35.6199 181.133 37.5538C180.872 39.4506 180.631 41.366 180.407 43.3C180.37 43.5231 180.314 43.9322 180.24 44.5273C180.166 45.0852 180.073 45.6988 179.961 46.3683C179.887 47.0005 179.794 47.6142 179.682 48.2093C179.608 48.7671 179.533 49.1391 179.459 49.325C179.347 49.9201 179.05 50.3664 178.566 50.6639C178.306 50.8127 178.027 50.9057 177.73 50.9429C177.432 50.9429 177.135 50.9615 176.837 50.9987ZM178.064 65.3919C177.655 65.6522 177.172 65.8382 176.614 65.9498C176.093 66.0613 175.554 66.1171 174.996 66.1171C174.289 66.1171 173.546 66.0427 172.765 65.894C172.021 65.708 171.314 65.4477 170.645 65.1129C169.975 64.741 169.399 64.2761 168.915 63.7183C168.469 63.1232 168.19 62.4351 168.078 61.6541C168.004 61.1334 168.023 60.5941 168.134 60.0363C168.246 59.4784 168.432 58.9391 168.692 58.4184C168.952 57.8977 169.306 57.377 169.752 56.8564C170.198 56.3357 170.682 55.8894 171.202 55.5175C171.76 55.1083 172.355 54.7922 172.988 54.5691C173.62 54.3087 174.234 54.1786 174.829 54.1786C175.461 54.1786 176.075 54.2901 176.67 54.5133C177.302 54.7364 177.897 55.0526 178.455 55.4617C179.013 55.8336 179.496 56.2799 179.905 56.8006C180.314 57.2841 180.631 57.8048 180.854 58.3626C181.077 58.9577 181.17 59.6086 181.133 60.3152C181.095 61.0218 180.947 61.6913 180.686 62.3236C180.426 62.9558 180.073 63.5509 179.626 64.1088C179.18 64.6295 178.659 65.0572 178.064 65.3919Z" fill="#F9F3EB"/>
</svg>
